<?xml version="1.0" encoding="utf-8"?>
<!-- Generator: Adobe Illustrator 18.0.0, SVG Export Plug-In . SVG Version: 6.00 Build 0)  -->
<!DOCTYPE svg PUBLIC "-//W3C//DTD SVG 1.1//EN" "http://www.w3.org/Graphics/SVG/1.1/DTD/svg11.dtd">
<svg version="1.1" xmlns="http://www.w3.org/2000/svg" xmlns:xlink="http://www.w3.org/1999/xlink" x="0px" y="0px"
	 viewBox="0 0 189 400" enable-background="new 0 0 189 400" xml:space="preserve">
<g id="Layer_1">
</g>
<g id="Layer_2">
	<path fill-rule="evenodd" clip-rule="evenodd" fill="#FFFFFF" stroke="#3F474F" stroke-width="2" stroke-miterlimit="10" d="
		M22,1.6c36,0,110-0.7,146,0c12.8,0.3,20.1,9.8,20,20c-0.1,13.9,0,54.5,0,76c0,71.3,0,142.7,0,214c0,30.9,0.3,53.5,0,68
		c-0.3,10.9-10,19.1-24,19c-21.4-0.1-122,0.1-145,0c-8,0-17.2-8.5-17-19c0.2-11-0.1-31.5,0-51c0-50.3,0-100.7,0-151
		c0-36.7,0-73.3,0-110c0-13.1-0.1-35.2,0-46C2.1,11.2,9,1.9,22,1.6z"/>
	<path fill-rule="evenodd" clip-rule="evenodd" fill="#3F474F" d="M176,341.6c0-92.3,0-184.7,0-277c-54.3,0-108.7,0-163,0
		c0,92,0,184,0,276C65.7,340.3,138.6,341.6,176,341.6z"/>
	<path fill-rule="evenodd" clip-rule="evenodd" fill="#FFFFFF" stroke="#3F474F" stroke-width="2" stroke-miterlimit="10" d="
		M77,37.6h35c0,0,3-0.5,3,2c0,2.5-2,2-2,2H78c0,0-2.6-0.3-3-2C74.6,37.9,77,37.6,77,37.6z"/>
	
		<circle fill-rule="evenodd" clip-rule="evenodd" fill="#FFFFFF" stroke="#3F474F" stroke-width="2" stroke-miterlimit="10" cx="95.3" cy="24.1" r="3.5"/>
	
		<circle fill-rule="evenodd" clip-rule="evenodd" fill="#FFFFFF" stroke="#3F474F" stroke-width="2" stroke-miterlimit="10" cx="95.5" cy="372.5" r="15.8"/>
</g>
</svg>
