<?xml version="1.0" encoding="utf-8"?>
<!-- Generator: Adobe Illustrator 17.1.0, SVG Export Plug-In . SVG Version: 6.00 Build 0)  -->
<!DOCTYPE svg PUBLIC "-//W3C//DTD SVG 1.1//EN" "http://www.w3.org/Graphics/SVG/1.1/DTD/svg11.dtd">
<svg version="1.1" id="Layer_1" xmlns="http://www.w3.org/2000/svg" xmlns:xlink="http://www.w3.org/1999/xlink" x="0px" y="0px"
	 viewBox="0 0 841.9 1190.6" enable-background="new 0 0 841.9 1190.6" xml:space="preserve">
<g>
	<path d="M736.3,726.9c0,43.5-35.3,78.8-78.8,78.8h-289l-78.8-131.4h446.7V726.9"/>
	<path d="M342.2,280.3v255.5l-52.5,87.6l-52.5-87.6V280.3H342.2 M368.5,254H210.8v289l78.8,131.4L368.5,543V254"/>
	<polyline points="332,603.8 289.6,674.4 247.3,603.8 	"/>
	<polyline points="368.5,543 289.6,516.7 210.8,543 210.8,254 368.5,254 	"/>
	<path d="M657.5,306.5H210.8v52.6h446.7c14.5,0,26.3,11.8,26.3,26.3v341.6c0,14.5-11.8,26.3-26.3,26.3H349.4l-14.6,12.2l-71.5,59.6
		v-71.7h-78.8c-14.5,0-26.3-11.8-26.3-26.3V385.4c0-14.5,11.8-26.3,26.3-26.3v-52.6c-43.5,0-78.8,35.3-78.8,78.8v341.6
		c0,43.5,35.3,78.8,78.8,78.8h26.3v131.4l157.6-131.4h289c43.5,0,78.8-35.3,78.8-78.8V385.4C736.3,341.8,701,306.5,657.5,306.5"/>
</g>
</svg>
