<?xml version="1.0" encoding="utf-8"?>
<!-- Generator: Adobe Illustrator 18.0.0, SVG Export Plug-In . SVG Version: 6.00 Build 0)  -->
<!DOCTYPE svg PUBLIC "-//W3C//DTD SVG 1.1//EN" "http://www.w3.org/Graphics/SVG/1.1/DTD/svg11.dtd">
<svg version="1.1" xmlns="http://www.w3.org/2000/svg" xmlns:xlink="http://www.w3.org/1999/xlink" x="0px" y="0px"
	 viewBox="0 0 57.5 79.1" enable-background="new 0 0 57.5 79.1" xml:space="preserve">
<g id="BG" display="none">
	<rect x="-179.3" y="-374" display="inline" fill="#3F474F" width="1008" height="612"/>
</g>
<g id="Icons" display="none">
</g>
<g id="gear_1_">
</g>
<g id="map-marker">
</g>
<g id="info">
</g>
<g id="search">
</g>
<g id="wevue-icon">
</g>
<g id="calendar_1_">
</g>
<g id="user_1_">
</g>
<g id="email_1_">
</g>
<g id="zig-arrow">
</g>
<g id="down-arrow">
</g>
<g id="edit-pencil">
</g>
<g id="lock_1_">
</g>
<g id="eyeball_1_">
</g>
<g id="star_1_">
</g>
<g id="ribbon_1_">
</g>
<g id="quote-bubble">
</g>
<g id="star-outline">
</g>
<g id="share">
</g>
<g id="crop">
</g>
<g id="next-arrow">
</g>
<g id="back-arrow">
</g>
<g id="T_1_">
</g>
<g id="musicnote">
</g>
<g id="trash_1_">
</g>
<g id="photos_1_">
</g>
<g id="plussign">
</g>
<g id="checkmark_1_">
</g>
<g id="small-plussign">
</g>
<g id="menu-bars">
</g>
<g id="phone-dark">
</g>
<g id="refresh_1_">
</g>
<g id="film_1_">
	<g id="film">
		<rect x="6.6" y="0" fill="#3F474F" width="44.3" height="7.5"/>
		<rect x="7.6" y="71.1" fill="#3F474F" width="43.3" height="8"/>
		<rect x="7.3" y="35.6" fill="#3F474F" width="42.8" height="8"/>
		<path fill="#3F474F" d="M0,0v79.1h8V0H0z M6.6,77.3H1.4v-5.2h5.2V77.3z M6.6,70.2H1.4V65h5.2V70.2z M6.6,63.1H1.4v-5.2h5.2V63.1z
			 M6.6,56H1.4v-5.2h5.2V56z M6.6,48.9H1.4v-5.2h5.2V48.9z M6.6,41.8H1.4v-5.2h5.2V41.8z M6.6,34.7H1.4v-5.2h5.2V34.7z M6.6,27.5
			H1.4v-5.2h5.2V27.5z M6.6,20.4H1.4v-5.2h5.2V20.4z M6.6,13.3H1.4V8.1h5.2V13.3z M6.6,6.2H1.4V1h5.2V6.2z"/>
		<path fill="#3F474F" d="M49.5,0v79.1h8V0H49.5z M56.1,77.3h-5.2v-5.2h5.2V77.3z M56.1,70.2h-5.2V65h5.2V70.2z M56.1,63.1h-5.2
			v-5.2h5.2V63.1z M56.1,56h-5.2v-5.2h5.2V56z M56.1,48.9h-5.2v-5.2h5.2V48.9z M56.1,41.8h-5.2v-5.2h5.2V41.8z M56.1,34.7h-5.2v-5.2
			h5.2V34.7z M56.1,27.5h-5.2v-5.2h5.2V27.5z M56.1,20.4h-5.2v-5.2h5.2V20.4z M56.1,13.3h-5.2V8.1h5.2V13.3z M56.1,6.2h-5.2V1h5.2
			V6.2z"/>
	</g>
</g>
<g id="photo">
</g>
<g id="folder-stuffed">
</g>
<g id="globe_1_">
</g>
<g id="phone_1_">
</g>
<g id="folder-open-dark">
</g>
<g id="folder-open">
</g>
<g id="folder-light-front">
</g>
<g id="folder-light-back">
</g>
<g id="folder-dark-front">
</g>
<g id="folder-dark-back">
</g>
</svg>
