<?xml version="1.0" encoding="utf-8"?>
<!-- Generator: Adobe Illustrator 16.0.0, SVG Export Plug-In . SVG Version: 6.00 Build 0)  -->
<!DOCTYPE svg PUBLIC "-//W3C//DTD SVG 1.1//EN" "http://www.w3.org/Graphics/SVG/1.1/DTD/svg11.dtd">
<svg version="1.1" id="Layer_1" xmlns="http://www.w3.org/2000/svg" xmlns:xlink="http://www.w3.org/1999/xlink" x="0px" y="0px"
	 width="290px" height="184px" viewBox="0 0 290 184" style="enable-background:new 0 0 290 184;" xml:space="preserve">
<style type="text/css">
<![CDATA[
	.st0{fill:#219AB3;stroke:#FFFFFF;stroke-miterlimit:10;}
]]>
</style>
<g id="Your_Icon">
	<g>
		<g>
			<path class="st0" d="M154.182,27.586L9.074,126.382c-1.979,1.358-2.854,3.895-2.118,6.171l3.604,11.418
				c0.721,2.299,2.824,3.104,5.255,3.066h39.792l1.066,18.124c0.088,3.108,2.615,5.616,5.756,5.612l45.514,0.016
				c0.574,0,1.203-0.06,1.78-0.27c2.159-0.68,3.788-2.614,3.95-4.946l1.063-18.536h77.174c0.54-0.018,1.1-0.096,1.604-0.285
				c1.103-0.33,2.081-1,2.802-1.982c1.011-1.396,1.31-3.236,0.758-4.91L162.516,30.48c-0.519-1.647-1.779-2.979-3.428-3.529
				C157.463,26.356,155.639,26.621,154.182,27.586z M102.669,159.188H68.064l-0.916-12.151h35.977L102.669,159.188z"/>
			<path class="st0" d="M176.815,13.246c-4.075,1.285-6.204,6.058-4.752,10.706l37.706,119.362c1.5,4.598,5.965,7.321,10.055,5.999
				c4.105-1.267,6.223-6.076,4.768-10.69l-37.75-119.345C185.414,14.636,180.928,11.944,176.815,13.246z"/>
		</g>
		<g>
			<path class="st0" d="M271.621,50.963c-1.373-4.176-5.926-6.464-10.141-5.077l-23.111,7.753c-4.23,1.386-6.507,5.953-5.068,10.112
				c1.367,4.192,5.939,6.51,10.1,5.07l23.133-7.716C270.738,59.734,272.988,55.148,271.621,50.963z"/>
			<path class="st0" d="M278.498,103.746c1.537-3.998-0.588-8.854-4.59-10.439l-22.723-8.833c-2.004-0.771-4.145-0.728-6.16,0.112
				c-1.945,0.854-3.439,2.468-4.226,4.459c-0.681,1.721-0.755,3.68-0.151,5.438l0,0c0.766,2.232,2.442,4.063,4.708,4.948l22.7,8.865
				C272.209,109.854,276.88,107.826,278.498,103.746z"/>
			<path class="st0" d="M248.482,17.228c2.244-3.616,1.03-8.772-2.582-11.04c-3.773-2.321-8.738-1.129-11.062,2.595L222.01,29.568
				c-1.28,2.006-1.561,4.465-0.773,6.76c0.604,1.749,1.781,3.258,3.385,4.237c1.828,1.164,3.942,1.493,6.053,1.019
				c2.064-0.5,3.826-1.785,4.943-3.589L248.482,17.228z"/>
		</g>
	</g>
</g>
</svg>
