<?xml version="1.0" encoding="utf-8"?>
<!-- Generator: Adobe Illustrator 18.0.0, SVG Export Plug-In . SVG Version: 6.00 Build 0)  -->
<!DOCTYPE svg PUBLIC "-//W3C//DTD SVG 1.1//EN" "http://www.w3.org/Graphics/SVG/1.1/DTD/svg11.dtd">
<svg version="1.1" xmlns="http://www.w3.org/2000/svg" xmlns:xlink="http://www.w3.org/1999/xlink" x="0px" y="0px"
	 viewBox="0 0 176.4 144" enable-background="new 0 0 176.4 144" xml:space="preserve">
<g id="Layer_1">
</g>
<g id="Layer_2">
</g>
<g id="Layer_3">
	<path fill="#3F474F" d="M12.8,142.6c-7.6,0-9.5-3.6-10.7-9.2C2,132.8,2,132.2,2,131.5C2,92.2,2,52.8,2,13.4
		c0-7.4,1.5-11.4,12.5-11.4c45.7,0,99.4,0,145,0c11.9,0,14,3.7,14,11.8c0,19.6,0,39.3,0,58.9c0,19.5,0,39,0,58.5
		c0,3.5-0.5,6-2.1,8.1c-2.5,2.6-6.1,3.2-9.1,3.2"/>
	<path fill="#FFFFFF" d="M27.6,129.3c40.9,0,81.2,0,121.8,0c0-37.9,0-75.3,0-112.8c-40.8,0-81.3,0-121.8,0
		C27.6,54.2,27.6,91.5,27.6,129.3z"/>
	<g>
		<path fill="#3F474F" d="M87.9,44.6C65,44.6,44.9,57,34,75.4c10.9,18.4,30.9,30.7,53.9,30.7c22.9,0,43-12.3,53.9-30.7
			C130.9,57,110.8,44.6,87.9,44.6z M88.2,102.7c-14.4,0-26.1-11.7-26.1-26.1c0-14.4,11.7-26.1,26.1-26.1c14.4,0,26.1,11.7,26.1,26.1
			C114.3,91,102.6,102.7,88.2,102.7z"/>
		<circle fill="#3F474F" cx="88.2" cy="76.6" r="14.1"/>
	</g>
	<path fill="#FFFFFF" d="M18.1,29.9h-5.4c-2.6,0-4.7-2.1-4.7-4.7v-1c0-2.6,2.1-4.7,4.7-4.7h5.4c2.6,0,4.7,2.1,4.7,4.7v1
		C22.8,27.8,20.7,29.9,18.1,29.9z"/>
	<path fill="#FFFFFF" d="M18.1,60h-5.4c-2.6,0-4.7-2.1-4.7-4.7v-1c0-2.6,2.1-4.7,4.7-4.7h5.4c2.6,0,4.7,2.1,4.7,4.7v1
		C22.8,57.9,20.7,60,18.1,60z"/>
	<path fill="#FFFFFF" d="M18.1,89.8h-5.4c-2.6,0-4.7-2.1-4.7-4.7v-1c0-2.6,2.1-4.7,4.7-4.7h5.4c2.6,0,4.7,2.1,4.7,4.7v1
		C22.8,87.7,20.7,89.8,18.1,89.8z"/>
	<path fill="#FFFFFF" d="M18.1,119.9h-5.4c-2.6,0-4.7-2.1-4.7-4.7v-1c0-2.6,2.1-4.7,4.7-4.7h5.4c2.6,0,4.7,2.1,4.7,4.7v1
		C22.8,117.8,20.7,119.9,18.1,119.9z"/>
	<path fill="#FFFFFF" d="M164.2,29.9h-5.4c-2.6,0-4.7-2.1-4.7-4.7v-1c0-2.6,2.1-4.7,4.7-4.7h5.4c2.6,0,4.7,2.1,4.7,4.7v1
		C168.9,27.8,166.8,29.9,164.2,29.9z"/>
	<path fill="#FFFFFF" d="M164.2,60h-5.4c-2.6,0-4.7-2.1-4.7-4.7v-1c0-2.6,2.1-4.7,4.7-4.7h5.4c2.6,0,4.7,2.1,4.7,4.7v1
		C168.9,57.9,166.8,60,164.2,60z"/>
	<path fill="#FFFFFF" d="M164.2,89.8h-5.4c-2.6,0-4.7-2.1-4.7-4.7v-1c0-2.6,2.1-4.7,4.7-4.7h5.4c2.6,0,4.7,2.1,4.7,4.7v1
		C168.9,87.7,166.8,89.8,164.2,89.8z"/>
	<path fill="#FFFFFF" d="M164.2,119.9h-5.4c-2.6,0-4.7-2.1-4.7-4.7v-1c0-2.6,2.1-4.7,4.7-4.7h5.4c2.6,0,4.7,2.1,4.7,4.7v1
		C168.9,117.8,166.8,119.9,164.2,119.9z"/>
</g>
</svg>
