<svg version="1.1" id="Layer_1" xmlns="http://www.w3.org/2000/svg" xmlns:xlink="http://www.w3.org/1999/xlink" x="0px" y="0px"
 viewBox="0 0 960 560" style="enable-background:new 0 0 960 560; background-color:gray;" xml:space="preserve">
<style type="text/css">

	.st0{fill-rule:evenodd;clip-rule:evenodd;fill:#3F464E;}
	.st1{fill-rule:evenodd;clip-rule:evenodd;fill:#3F474F;}
	.st2{fill-rule:evenodd;clip-rule:evenodd;fill:#3F484F;}
	.st3{fill:#FFFFFF;stroke:#3F474F;stroke-width:2;stroke-miterlimit:10;}
	.st4{fill-rule:evenodd;clip-rule:evenodd;fill:#A92DAD;}
	.st5{fill-rule:evenodd;clip-rule:evenodd;fill:#DDDEDE;}
	.st6{fill-rule:evenodd;clip-rule:evenodd;fill:#40474D;}
	.st7{fill-rule:evenodd;clip-rule:evenodd;fill:#404950;}
	.st8{fill:none;stroke:#FFFFFF;stroke-width:2;stroke-miterlimit:10;}
	.st9{fill-rule:evenodd;clip-rule:evenodd;fill:#41484F;}
	.st10{fill-rule:evenodd;clip-rule:evenodd;fill:#454C53;}
	.st11{fill-rule:evenodd;clip-rule:evenodd;fill:#45D066;}
	.st12{fill-rule:evenodd;clip-rule:evenodd;fill:#46C4D7;}
	.st13{fill-rule:evenodd;clip-rule:evenodd;fill:#ABB0B5;}
	.st14{fill-rule:evenodd;clip-rule:evenodd;fill:#7F8FE7;}
	.st15{fill-rule:evenodd;clip-rule:evenodd;fill:#AFB3B7;}
	.st16{fill-rule:evenodd;clip-rule:evenodd;fill:#AFB4B9;}
	.st17{fill:none;stroke:#FFFFFF;stroke-miterlimit:10;}
	.st18{fill-rule:evenodd;clip-rule:evenodd;fill:#E4E4E4;}
	.st19{fill-rule:evenodd;clip-rule:evenodd;fill:#4BD3E7;}
	.st20{fill-rule:evenodd;clip-rule:evenodd;fill:#4BDF6F;}
	.st21{fill-rule:evenodd;clip-rule:evenodd;fill:#4CE470;}
	.st22{fill-rule:evenodd;clip-rule:evenodd;fill:#4D545B;}
	.st23{fill-rule:evenodd;clip-rule:evenodd;fill:#4DD8ED;}
	.st24{fill-rule:evenodd;clip-rule:evenodd;fill:#8188E0;}
	.st25{fill-rule:evenodd;clip-rule:evenodd;fill:#B3B7BC;}
	.st26{fill-rule:evenodd;clip-rule:evenodd;fill:#B3B8BD;}
	.st27{fill-rule:evenodd;clip-rule:evenodd;fill:#B5BBC0;}
	.st28{fill-rule:evenodd;clip-rule:evenodd;fill:#B7BBBF;}
	.st29{fill-rule:evenodd;clip-rule:evenodd;fill:#1D85B1;}
	.st30{fill-rule:evenodd;clip-rule:evenodd;fill:#BA3431;}
	.st31{fill-rule:evenodd;clip-rule:evenodd;fill:#BA3536;}
	.st32{fill-rule:evenodd;clip-rule:evenodd;fill:#BABFC3;}
	.st33{fill-rule:evenodd;clip-rule:evenodd;fill:#BBC0C4;}
	.st34{fill-rule:evenodd;clip-rule:evenodd;fill:#BDC2C7;}
	.st35{fill-rule:evenodd;clip-rule:evenodd;fill:#F09260;}
	.st36{fill:#FFFFFF;}
	.st37{fill-rule:evenodd;clip-rule:evenodd;fill:#F1804E;}
	.st38{fill-rule:evenodd;clip-rule:evenodd;fill:#F34743;}
	.st39{fill-rule:evenodd;clip-rule:evenodd;fill:#F39867;}
	.st40{fill-rule:evenodd;clip-rule:evenodd;fill:#F4C962;}
	.st41{fill-rule:evenodd;clip-rule:evenodd;fill:#2697BB;}
	.st42{fill-rule:evenodd;clip-rule:evenodd;fill:#279CC0;}
	.st43{fill-rule:evenodd;clip-rule:evenodd;fill:#F9F9FA;}
	.st44{fill-rule:evenodd;clip-rule:evenodd;fill:#F9FAFA;}
	.st45{fill-rule:evenodd;clip-rule:evenodd;fill:#C3C7CC;}
	.st46{fill-rule:evenodd;clip-rule:evenodd;fill:#C3C8CD;}
	.st47{fill-rule:evenodd;clip-rule:evenodd;fill:#94E39A;}
	.st48{fill-rule:evenodd;clip-rule:evenodd;fill:#C5C9CB;}
	.st49{fill-rule:evenodd;clip-rule:evenodd;fill:#FAFAFA;}
	.st50{fill-rule:evenodd;clip-rule:evenodd;fill:#FAFAFB;}
	.st51{fill-rule:evenodd;clip-rule:evenodd;fill:#C736CB;}
	.st52{fill-rule:evenodd;clip-rule:evenodd;fill:#FBBB3E;}
	.st53{fill-rule:evenodd;clip-rule:evenodd;fill:#FBFBFB;}
	.st54{fill-rule:evenodd;clip-rule:evenodd;fill:#FCCE68;}
	.st55{fill-rule:evenodd;clip-rule:evenodd;fill:#FCFCFC;}
	.st56{fill-rule:evenodd;clip-rule:evenodd;fill:#FDFDFD;}
	.st57{fill-rule:evenodd;clip-rule:evenodd;fill:#FDFEFD;}
	.st58{fill-rule:evenodd;clip-rule:evenodd;fill:#FE4743;}
	.st59{fill-rule:evenodd;clip-rule:evenodd;fill:#9BEDA2;}
	.st60{fill-rule:evenodd;clip-rule:evenodd;fill:#6976BD;}
	.st61{fill:#3F474F;}
	.st62{fill:#3F484F;}
	.st63{fill-rule:evenodd;clip-rule:evenodd;fill:#9EF3A5;}
	.st64{fill-rule:evenodd;clip-rule:evenodd;fill:#CE37D2;}
	.st65{fill-rule:evenodd;clip-rule:evenodd;fill:#6A78BC;}

</style>


<!-- WEVUE LOGO -->

	<path class="st61" d="M462.677,217.548c-27.996,0-55.993-0.059-83.989,0.085c-2.984,0.015-3.589-0.603-3.583-3.585
		c0.113-55.993,0.113-111.986,0-167.979c-0.006-2.982,0.601-3.588,3.583-3.583c55.993,0.113,111.986,0.113,167.979,0
		c2.982-0.006,3.589,0.6,3.583,3.583c-0.112,55.993-0.112,111.986,0,167.979c0.006,2.982-0.599,3.6-3.583,3.585
		C518.67,217.489,490.674,217.548,462.677,217.548z"/>
<g>
	<path class="st42" d="M410.531,113.39c-0.025-2.674-1.529-4.811-3.096-6.624c-3.684-4.26-2.11-6.463,2.232-8.869
		c6.353-3.522,12.359-7.67,18.513-11.551c3.312-6.018,8.452-9.293,15.209-10.146c2.068,0.517,3.469,2.021,4.624,3.592
		c4.418,6.013,8.136,12.48,11.935,18.892c0.822,1.388,0.913,2.803,0.376,4.295c-3.993,4.1-9.367,5.469-14.498,7.317
		c-5.579-1.756-10.221-5.219-15.021-8.385c-7.534-4.968-8.637-4.776-14.275,2.733c-1.133,1.835-1.799,3.879-2.668,5.833
		C413.224,111.908,412.822,113.778,410.531,113.39z"/>
	<path class="st64" d="M464.979,74.341c7.203-9.895,7.183-9.872,16.358-1.913c6.376,5.531,12.816,10.987,19.228,16.477
		c3.513,1.264,7.803,1.604,8.029,6.768c-3.514,8.687-10.837,14.413-16.645,21.315c-0.629,0.747-1.759,0.86-2.77,0.93
		c-5.354-2.273-8.68-6.851-12.433-10.947c-0.327-5.988,2.191-11.354,3.864-16.881c2.391-7.903,0.151-11.697-8.146-13.117
		C469.821,76.502,466.559,77.805,464.979,74.341z"/>
	<path class="st23" d="M410.531,113.39c1.916-3.16,0.672-7.811,4.708-9.969c1.195-1.075,2.584-1.397,4.128-1.015
		c7.348,1.823,14.54,4.152,21.662,6.702c0.752,0.269,1.323,0.962,1.83,1.625c1.431,2.638-0.137,4.69-1.366,6.783
		c-1.4,2.384-2.291,5.055-4.057,7.232c-4.756,3.65-10.538,3.538-16.066,4.291c-9.11,1.239-10.035,2.219-10.378,11.592
		c0.484,1.925,1.396,3.697,1.998,5.57c0.555,1.729,0.962,3.577-0.927,4.911c-12.044-3.34-12.042-3.34-8.323-15.485
		C406.008,128.216,408.267,120.802,410.531,113.39z"/>
	<path class="st21" d="M412.062,151.112c-0.6-3.403-2.429-6.314-3.767-9.423c1.428-2.973,3.825-4.702,6.827-6.026
		c4.513-1.991,9.061-3.913,13.53-6.01c2.383-1.118,4.853-2.255,7.452-0.43c2.021,4.227,2.191,8.916,3.319,13.365
		c-1.413,5.9-5.788,9.976-9.242,14.571c-5.009,6.666-5.002,8.858,1.096,15.222c2.467,1.946,6.829,1.82,6.943,6.339
		c-10.81,5.812-10.718,5.77-15.729-5.204C419.07,166.024,416.339,158.207,412.062,151.112z"/>
	<path class="st58" d="M507.493,95.64c-2.309-2.245-4.618-4.49-6.928-6.734c12.135-1.988,12.063-1.978,13.766,10.151
		c1.15,8.196,2.538,16.358,3.819,24.536c3.877,6.535,3.937,7.49,0.707,11.124c-6.818,2.355-13.987,2.842-21.056,3.854
		c-2.152,0.309-4.333,0.324-6.231-1.066c-3.102-4.498-1.33-9.794-2.387-14.617c1.026-2.701,2.85-4.719,5.314-6.225
		c2.963-1.81,5.707-3.981,8.718-5.688c4.132-2.341,6.438-5.176,3.986-10.018C506.271,99.118,507.381,97.411,507.493,95.64z"/>
	<path class="st63" d="M438.222,178.72c-2.63-1.976-6.403-2.148-8.307-5.268c-0.783-2.662-0.461-5.113,0.877-7.614
		c2.185-4.083,4.179-8.271,5.921-12.576c0.812-2.007,1.861-3.917,4.151-4.673c6.068,1.577,10.685,5.316,14.712,9.928
		c1.125,4.233,1.034,8.563,1.042,12.895c0.015,8.381,1.449,9.915,10.021,10.904c3.165,0.428,6.563-2.437,9.538,0.667
		c-0.128,3.469-2.329,6.134-3.599,9.154c-1.206,2.865-3.076,0.929-4.513,0.28C458.092,187.906,448.164,183.297,438.222,178.72z"/>
	<path class="st39" d="M518.239,133.669c1.713-3.375-0.793-6.711-0.089-10.077c10.497,5.912,10.494,5.91,4.159,15.669
		c-3.808,5.865-7.59,11.746-11.413,17.601c-1.095,1.676-2.369,3.258-1.928,5.461c-1.883,2.961-1.805,7.74-7.037,7.604
		c-7.347-2.412-13.032-7.6-19.396-11.653c-1.298-0.827-1.879-2.25-2.468-3.625c1.425-5.841,5.963-9.438,9.787-13.555
		c5.321-1.511,10.59-0.349,15.799,0.581c4.317,0.771,7.631,0.138,9.231-4.407C515.484,135.563,517.084,134.833,518.239,133.669z"/>
	<path class="st54" d="M502.213,168.637c3.087-1.208,2.985-5.833,6.757-6.311c3.305,10.281,3.301,10.269-6.943,13.202
		c-8.623,2.469-17.235,4.971-25.852,7.457c-3.09,0.343-5.848,2.625-9.179,1.583c-0.999-0.833-2.36-1.256-2.903-2.601
		c-2.546-6.303-4.098-12.901-5.714-19.475c-0.326-1.326,0.401-2.569,1.096-3.716c4.854-2.686,10.505-1.378,15.55-3.103
		c5.578,2.072,8.663,6.94,12.23,11.199c2.878,3.437,5.823,5.338,10.128,2.485C498.854,168.383,500.668,169.335,502.213,168.637z"/>
	<path class="st14" d="M464.979,74.341c3.102,0.103,6.204,0.207,9.306,0.31c0.911,1.006,1.733,2.177,1.81,3.489
		c0.512,8.74,1.52,17.503-0.656,26.179c-3.845,3.325-7.577,0.556-11.344-0.208c-3.793-4.424-4.718-10.054-6.137-15.405
		c-1.479-5.577-3.031-10.574-10.338-10.147c-1.393,0.081-2.688-1.195-4.2-1.329c-5.08,3.039-10.161,6.078-15.242,9.115
		c-0.427-11.839-0.427-11.818,11.394-11.846C448.042,74.48,456.511,74.396,464.979,74.341z"/>
	<path class="st1" d="M464.239,102.413c3.269,0.617,6.538,1.234,9.807,1.851c2.183-0.872,3.156,0.687,4.204,2.093
		c4.335,2.74,7.708,6.448,10.657,10.582c2.58,0.672,2.792,2.468,2.206,4.645c1.312,4.928,1.341,9.954,1.128,14.998
		c1.76,2.726,0.65,4.542-1.874,5.907c-2.255,4.649-5.539,8.499-9.299,11.98c-0.216,3.357-2.371,3.537-4.95,3.018
		c-5.155,1.873-10.47,2.676-15.949,2.391c-2.517,1.962-4.363,0.829-5.994-1.3c-4.871-2.171-9.119-5.234-12.875-9
		c-4.396-0.222-3.628-3.592-3.868-6.347c-1.513-4.409-2.498-8.913-2.469-13.602c-2.556-2.523,0.101-4.148,1.045-6.068
		c1.298-4.375,3.836-8.094,6.279-11.864c-0.025-2.042,1.101-2.86,3.018-2.835c4.378-2.79,9.011-5.007,14.081-6.234
		C460.933,100.955,462.561,101.12,464.239,102.413z"/>
	<path class="st60" d="M464.239,102.413c-1.619,0.072-3.237,0.144-4.854,0.215c-4.932-8.709-10.102-17.27-15.966-25.394
		c0.636-0.184,1.259-0.465,1.904-0.532c11.212-1.155,11.622-0.882,14.619,9.924C461.4,91.881,462.808,97.15,464.239,102.413z"/>
	<path class="st29" d="M445.305,108.861c-1.006,0.944-2.012,1.888-3.018,2.834c-9.016-2.757-18.032-5.516-27.047-8.274
		c0.937-3.456,3.989-5.167,6.252-7.515c1.173-1.217,2.647-1.313,4.076-0.353C432.153,99.979,438.727,104.424,445.305,108.861z"/>
	<path class="st4" d="M478.25,106.357c-1.401-0.697-2.803-1.396-4.204-2.093c0.079-9.872,0.159-19.743,0.239-29.613
		c0.625,0.206,1.297,0.323,1.867,0.63c10.079,5.436,10.045,5.431,6.546,16.366C481.136,96.525,479.728,101.452,478.25,106.357z"/>
	<path class="st30" d="M491.112,121.583c-0.734-1.548-1.47-3.097-2.205-4.645c6.195-7.099,12.391-14.199,18.586-21.298
		c5.231,11.859,5.24,11.873-5.588,19.014C498.337,117.008,494.712,119.276,491.112,121.583z"/>
	<path class="st12" d="M436.008,123.561c-0.348,2.022-0.697,4.045-1.045,6.067c-8.889,4.021-17.778,8.041-26.667,12.061
		c0.189-1.314,0.36-2.632,0.569-3.944c1.567-9.841,1.59-9.7,11.627-11.153C425.698,125.838,431.199,126.4,436.008,123.561z"/>
	<path class="st11" d="M437.432,143.23c1.289,2.115,2.578,4.231,3.867,6.347c-3.794,7.958-7.589,15.917-11.384,23.875
		c-0.744-0.649-1.567-1.226-2.217-1.958c-6.107-6.88-6.017-7.642-0.251-14.794C430.951,152.352,434.115,147.729,437.432,143.23z"/>
	<path class="st37" d="M490.366,142.488c0.625-1.969,1.249-3.938,1.874-5.907c8.751-0.209,17.222-2.927,25.998-2.912
		c-2.452,11.801-2.746,11.939-14.084,10.207C499.594,143.179,494.964,142.937,490.366,142.488z"/>
	<path class="st47" d="M454.175,158.577c1.999,0.433,3.996,0.866,5.994,1.3c2.275,8.23,4.552,16.461,6.827,24.692
		c-0.667-0.02-1.337,0.007-1.998-0.067c-10.127-1.142-10.816-1.906-10.818-11.931C454.18,167.906,454.177,163.241,454.175,158.577z"
		/>
	<path class="st52" d="M476.117,157.486c1.65-1.005,3.3-2.011,4.95-3.018c7.048,4.723,14.097,9.445,21.145,14.168
		c-0.335,0.366-0.618,0.803-1.013,1.083c-7.935,5.628-9.285,5.561-15.693-1.371C482.259,164.836,479.24,161.113,476.117,157.486z"/>
	<path class="st18" d="M475.061,130.649c-6.663,3.843-12.502,7.21-18.877,10.888c0-7.436,0-14.246,0-21.755
		C462.481,123.407,468.32,126.768,475.061,130.649z"/>


<animateTransform attributeName="transform" begin=".1" attributeType="HML" type="translate" dur="8.5s" values="0,0; 0,-100;0,-110; 0, 0;" repeatCount="indefinite"/>

</g>


<!--  Computer -->
<rect x="327.5" y="60.5" class="st17" width="268" height="137"/>

<!--  Stars-->
<polygon class="st36" points="698.92,282.428 706.963,298.365 724.605,295.641 711.934,308.215 719.977,324.152 704.103,315.986 
	691.43,328.561 694.292,310.939 678.416,302.772 696.06,300.048 "/>
<polygon class="st36" points="757.838,275.068 765.88,291.006 783.523,288.281 770.851,300.855 778.895,316.793 763.021,308.627 
	750.348,321.201 753.209,303.58 737.334,295.413 754.978,292.689 "/>

<!--  Phone -->
		<path class="st3" d="M124.126,370.777c11.847,0,36.198-0.23,48.045,0c4.212,0.098,6.614,3.225,6.582,6.58
			c-0.033,4.574,0,17.935,0,25.01c0,23.463,0,46.959,0,70.422c0,10.168,0.099,17.605,0,22.377c-0.099,3.587-3.291,6.285-7.898,6.252
			c-7.042-0.033-40.147,0.033-47.716,0c-2.632,0-5.66-2.797-5.594-6.252c0.066-3.62-0.033-10.366,0-16.783
			c0-16.552,0-33.137,0-49.689c0-12.077,0-24.121,0-36.198c0-4.311-0.033-11.583,0-15.138
			C117.578,373.936,119.849,370.875,124.126,370.777z"/>
		<path class="st61" d="M174.804,482.661c0-30.374,0-60.78,0-91.153c-17.869,0-35.77,0-53.639,0c0,30.274,0,60.549,0,90.824
			C138.507,482.232,162.497,482.661,174.804,482.661z"/>
		<path class="st3" d="M142.226,382.623h11.518c0,0,0.987-0.164,0.987,0.658s-0.658,0.658-0.658,0.658h-11.518
			c0,0-0.855-0.099-0.987-0.658C141.436,382.722,142.226,382.623,142.226,382.623z"/>
		<circle class="st3" cx="148.248" cy="378.181" r="1.151"/>
		<circle class="st3" cx="148.313" cy="492.83" r="5.2"/>



<!--  Photos -->
<g>
	<g>
		<polyline class="st36" points="296.088,356.185 296.088,278.592 358.951,278.592 358.951,356.185 		"/>
		<rect x="299.66" y="283.781" class="st61" width="55.725" height="53.477"/>
	</g>
	<g>
		<polyline class="st36" points="313.043,461.272 313.043,383.681 375.906,383.681 375.906,461.272 		"/>
		<rect x="316.615" y="388.868" class="st61" width="55.724" height="53.478"/>
	</g>
	<g>
		<polyline class="st36" points="457.854,363.053 457.854,285.461 520.717,285.461 520.717,363.053 		"/>
		<rect x="461.426" y="290.649" class="st61" width="55.724" height="53.478"/>
	</g>
	<g>
		<polyline class="st36" points="384.127,414.311 384.127,336.719 446.989,336.719 446.989,414.311 		"/>
		<rect x="387.697" y="341.907" class="st61" width="55.726" height="53.478"/>
	</g>
	<g>
		<polyline class="st36" points="548.601,341.907 548.601,264.315 611.463,264.315 611.463,341.907 		"/>
		<rect x="552.172" y="269.504" class="st61" width="55.725" height="53.477"/>
	</g>
	<animateTransform attributeName="transform" begin=".1" attributeType="HML" type="translate" dur="8.5s" values="130,0; 0,-100;0,-110;-310,35; 300,-50; 130,0" repeatCount="indefinite"/>
</g>
<!--  USERS -->


	<path class="st36" d="M666.094,491.195c-0.63,6.3-11.93,11.367-25.821,11.367c-13.893,0-25.192-5.562-25.822-11.562h-0.043
		l12.511-5.581l5.082-2.281v-2.238c-4-3.93-8.213-11.78-8.213-20.836c0-12.986,2.346-22.387,16.257-22.57
		c14.289-0.194,16.319,9.584,16.319,22.57c0,9.056-3.363,16.906-8.363,20.836v2.238l5.336,2.379L666.094,491.195z"/>
	<path class="st36" d="M722.665,491.195c-0.63,6.3-11.93,11.367-25.822,11.367c-13.892,0-25.191-5.562-25.821-11.562h-0.044
		l12.726-5.581l5.297-2.281v-2.238c-5-3.93-8.428-11.78-8.428-20.836c0-12.986,2.239-22.387,16.15-22.57
		c14.289-0.194,15.979,9.584,15.979,22.57c0,9.056-2.702,16.906-8.702,20.836v2.238l5.621,2.379L722.665,491.195z"/>
	<path class="st36" d="M609.765,491.195c-0.63,6.3-11.93,11.367-25.821,11.367c-13.893,0-25.191-5.562-25.821-11.562h-0.044
		l12.676-5.581l5.246-2.281v-2.238c-5-3.93-8.377-11.78-8.377-20.836c0-12.986,2.263-22.387,16.174-22.57
		c14.29-0.194,15.943,9.584,15.943,22.57c0,9.056-2.74,16.906-8.74,20.836v2.238l5.67,2.379L609.765,491.195z"/>
	<path class="st36" d="M835.08,491.195c-0.63,6.3-11.93,11.367-25.821,11.367c-13.893,0-25.192-5.562-25.822-11.562h-0.043
		l13.018-5.581l5.589-2.281v-2.238c-5-3.93-8.72-11.78-8.72-20.836c0-12.986,2.093-22.387,16.003-22.57
		c14.289-0.194,16.199,9.584,16.199,22.57c0,9.056-3.482,16.906-8.482,20.836v2.238l5.328,2.379L835.08,491.195z"/>
	<path class="st36" d="M778.751,491.195c-0.63,6.3-11.93,11.367-25.821,11.367S727.738,497,727.108,491h-0.044l12.682-5.581
		l5.254-2.281v-2.238c-4-3.93-8.383-11.78-8.383-20.836c0-12.986,2.259-22.387,16.17-22.57c14.29-0.194,15.947,9.584,15.947,22.57
		c0,9.056-2.734,16.906-8.734,20.836v2.238l5.664,2.379L778.751,491.195z"/>


<!--  large-Photo -->
<polyline class="st36" points="799.346,213.12 799.346,89.841 899.223,89.841 899.223,213.12 "/>
<rect x="805.02" y="98.084" class="st61" width="88.536" height="84.966"/>


<!-- Film1 -->
	<path class="st8" d="M525.468,436.05"/>
	<path class="st36" d="M488.501,412.668c9.768,0,19.537,0.009,29.305-0.009c1.762-0.003,3.453,0.213,4.521,1.403
		c0.628,0.699,1.147,1.654,1.152,2.497c0.071,12.978,0.056,25.956,0.043,38.935c-0.002,2.076-1.799,3.573-4.588,3.906
		c-0.32,0.039-0.65,0.039-0.975,0.039c-19.722,0.002-39.443,0.009-59.165-0.006c-3.691-0.002-5.687-1.683-5.687-4.684
		c-0.002-12.449-0.001-24.899-0.001-37.35c0-3.235,1.84-4.727,5.893-4.73C468.834,412.662,478.667,412.668,488.501,412.668
		 M486.524,450.718v-29.389h-28.756v29.389H486.524z M519.151,450.719v-29.403h-28.818v29.403H519.151z M499.049,416.837
		c0,0.308,0.017,0.614-0.004,0.921c-0.068,1.062,0.685,1.565,1.859,1.576c1.191,0.01,1.69-0.647,1.709-1.562
		c0.006-0.307-0.009-0.614-0.002-0.92c0.047-1.854-0.469-2.6-1.872-2.499C498.746,414.495,499.045,415.754,499.049,416.837
		 M482.766,454.755c0,0.58-0.177,1.061,0.04,1.348c0.368,0.489,0.991,1.2,1.494,1.194c0.648-0.012,1.402-0.556,1.878-1.024
		c0.271-0.268,0.091-0.843,0.092-1.281c0.006-1.909-0.482-2.639-1.815-2.533C482.475,452.611,482.742,453.85,482.766,454.755
		 M507.265,416.902c0,0.087,0.001,0.176-0.002,0.262c-0.031,1.457,0.532,2.159,1.741,2.168c1.24,0.011,1.768-0.634,1.771-2.166
		c0.001-0.088,0-0.174,0-0.261c0.001-1.897-0.473-2.585-1.771-2.571C507.739,414.347,507.231,415.096,507.265,416.902
		 M474.311,416.723c0,0.483-0.213,1.07,0.052,1.422c0.366,0.488,1.088,1.1,1.662,1.104c0.583,0.004,1.533-0.595,1.68-1.062
		c0.271-0.863,0.271-1.866-0.009-2.727c-0.151-0.464-1.125-1.052-1.707-1.038c-0.573,0.014-1.225,0.658-1.639,1.142
		C474.121,415.828,474.309,416.328,474.311,416.723 M461.518,454.826h0.011c0-0.263-0.009-0.527,0.003-0.788
		c0.04-0.959-0.558-1.544-1.698-1.569c-1.229-0.025-1.856,0.575-1.836,1.592c0.015,0.7-0.05,1.406,0.032,2.101
		c0.096,0.816,0.713,1.24,1.75,1.228c1.024-0.013,1.629-0.423,1.729-1.251C461.561,455.704,461.518,455.264,461.518,454.826
		 M494.484,455.031c0-0.35-0.013-0.7,0.002-1.051c0.042-0.98-0.623-1.502-1.747-1.516c-1.051-0.015-1.711,0.495-1.755,1.39
		c-0.035,0.7-0.043,1.402-0.005,2.101c0.053,0.933,0.639,1.464,1.85,1.428c1.127-0.033,1.65-0.54,1.654-1.432
		C494.484,455.645,494.483,455.338,494.484,455.031 M515.709,454.903c0,0.306,0,0.612,0,0.918c0,0.998,0.546,1.587,1.847,1.559
		c1.24-0.024,1.682-0.642,1.684-1.557c0.001-0.438-0.027-0.879,0.008-1.313c0.085-1.077-0.189-2.04-1.771-2.041
		c-1.584,0-1.863,0.966-1.77,2.039C515.719,454.639,515.709,454.771,515.709,454.903 M486.011,416.803
		c0-1.862-0.426-2.469-1.726-2.467c-1.284,0.005-1.78,0.682-1.765,2.473c0.009,1.076-0.281,2.341,1.697,2.51
		C485.554,419.435,486.012,418.745,486.011,416.803 M469.715,454.999c0-0.395,0.176-0.873-0.039-1.16
		c-0.394-0.524-0.937-1.203-1.566-1.329c-0.978-0.195-1.757,0.345-1.816,1.254c-0.053,0.782-0.062,1.572,0.004,2.354
		c0.073,0.895,0.746,1.316,1.844,1.266c1.029-0.047,1.572-0.488,1.574-1.337C469.715,455.698,469.715,455.348,469.715,454.999
		 M507.505,454.96c0,0.306,0.012,0.612-0.003,0.917c-0.043,0.882,0.424,1.431,1.548,1.501c1.186,0.075,1.829-0.397,1.914-1.354
		c0.031-0.347,0.016-0.696,0.017-1.047c0.001-1.918-0.474-2.629-1.816-2.518C507.162,452.627,507.538,453.896,507.505,454.96
		 M502.824,455.426c-0.061-0.784-0.069-1.224-0.13-1.66c-0.149-1.07-1.352-1.735-2.366-1.13c-0.635,0.38-1.115,1.299-1.076,1.954
		c0.056,0.911-0.558,2.191,1.008,2.665c0.579,0.174,1.658,0.019,2.041-0.326C502.765,456.51,502.734,455.731,502.824,455.426
		 M461.261,416.901c0-0.351-0.012-0.7,0.003-1.051c0.04-0.978-0.597-1.504-1.746-1.495c-1.077,0.008-1.662,0.524-1.637,1.439
		c0.018,0.7,0.012,1.4,0.001,2.1c-0.014,0.908,0.553,1.421,1.649,1.422c1.165,0.002,1.778-0.521,1.73-1.496
		C461.247,417.514,461.26,417.208,461.261,416.901 M518.972,416.846c0-0.175-0.014-0.351,0.002-0.525
		c0.09-1.016-0.134-1.938-1.66-1.96c-1.642-0.024-1.822,0.972-1.785,2.015c0.004,0.131,0.001,0.262,0,0.393
		c-0.001,1.955,0.439,2.634,1.774,2.554C519.365,419.195,518.917,417.895,518.972,416.846 M466.105,416.848
		c0,0.131,0.007,0.264-0.002,0.393c-0.069,1.025-0.013,2.05,1.668,2.07c1.675,0.021,1.791-0.992,1.749-2.024
		c-0.005-0.131,0-0.261,0-0.393c0.001-1.953-0.447-2.646-1.771-2.544C465.72,414.505,466.139,415.791,466.105,416.848
		 M490.861,416.82c0,0.395,0.002,0.789,0,1.183c-0.005,0.874,0.628,1.294,1.611,1.313c1.066,0.022,1.736-0.408,1.747-1.345
		c0.005-0.393,0.008-0.786,0.008-1.181c0.001-1.879-0.412-2.519-1.708-2.441C490.453,414.471,490.903,415.771,490.861,416.82
		 M474.575,454.868c0,0.396,0.002,0.791,0,1.187c-0.007,0.864,0.552,1.298,1.59,1.328c1.11,0.03,1.738-0.399,1.784-1.32
		c0.018-0.396,0.011-0.793,0.011-1.188c0-1.851-0.467-2.527-1.778-2.416C474.269,452.622,474.562,453.823,474.575,454.868"/>

<!-- film2 -->

	<path class="st8" d="M689.484,383.68"/>
	<path class="st36" d="M652.518,360.298c9.768,0,19.537,0.009,29.305-0.009c1.762-0.003,3.453,0.213,4.521,1.403
		c0.628,0.699,1.147,1.654,1.152,2.497c0.071,12.978,0.056,25.956,0.043,38.935c-0.002,2.076-1.799,3.573-4.588,3.906
		c-0.32,0.039-0.65,0.039-0.975,0.039c-19.722,0.002-39.443,0.009-59.165-0.006c-3.691-0.002-5.687-1.683-5.687-4.684
		c-0.002-12.449-0.001-24.899-0.001-37.35c0-3.235,1.84-4.727,5.893-4.73C632.851,360.292,642.684,360.298,652.518,360.298
		 M650.541,398.348v-29.389h-28.756v29.389H650.541z M683.168,398.349v-29.403H654.35v29.403H683.168z M663.065,364.467
		c0,0.308,0.017,0.614-0.004,0.921c-0.068,1.062,0.685,1.565,1.859,1.576c1.191,0.01,1.69-0.647,1.709-1.562
		c0.006-0.307-0.009-0.614-0.002-0.92c0.047-1.854-0.469-2.6-1.872-2.499C662.763,362.125,663.062,363.384,663.065,364.467
		 M646.782,402.385c0,0.58-0.177,1.061,0.04,1.348c0.368,0.489,0.991,1.2,1.494,1.194c0.648-0.012,1.402-0.556,1.878-1.024
		c0.271-0.268,0.091-0.843,0.092-1.281c0.006-1.909-0.482-2.639-1.815-2.533C646.491,400.241,646.759,401.479,646.782,402.385
		 M671.281,364.532c0,0.087,0.001,0.176-0.002,0.262c-0.031,1.457,0.532,2.159,1.741,2.168c1.24,0.011,1.768-0.634,1.771-2.166
		c0.001-0.088,0-0.174,0-0.261c0.001-1.897-0.473-2.585-1.771-2.571C671.756,361.977,671.248,362.726,671.281,364.532
		 M638.327,364.353c0,0.483-0.213,1.07,0.052,1.422c0.366,0.488,1.088,1.1,1.662,1.104c0.583,0.004,1.533-0.595,1.68-1.062
		c0.271-0.863,0.271-1.866-0.009-2.727c-0.151-0.464-1.125-1.052-1.707-1.038c-0.573,0.014-1.225,0.658-1.639,1.142
		C638.138,363.458,638.325,363.958,638.327,364.353 M625.534,402.456h0.011c0-0.263-0.009-0.527,0.003-0.788
		c0.04-0.959-0.558-1.544-1.698-1.569c-1.229-0.025-1.856,0.575-1.836,1.592c0.015,0.7-0.05,1.406,0.032,2.101
		c0.096,0.816,0.713,1.24,1.75,1.228c1.024-0.013,1.629-0.423,1.729-1.251C625.577,403.334,625.534,402.894,625.534,402.456
		 M658.501,402.661c0-0.35-0.013-0.7,0.002-1.051c0.042-0.98-0.623-1.502-1.747-1.516c-1.051-0.015-1.711,0.495-1.755,1.39
		c-0.035,0.7-0.043,1.402-0.005,2.101c0.053,0.933,0.639,1.464,1.85,1.428c1.127-0.033,1.65-0.54,1.654-1.432
		C658.501,403.274,658.5,402.968,658.501,402.661 M679.726,402.533c0,0.306,0,0.612,0,0.918c0,0.998,0.546,1.587,1.847,1.559
		c1.24-0.024,1.682-0.642,1.684-1.557c0.001-0.438-0.027-0.879,0.008-1.313c0.085-1.077-0.189-2.04-1.771-2.041
		c-1.584,0-1.863,0.966-1.77,2.039C679.735,402.269,679.726,402.4,679.726,402.533 M650.027,364.433
		c0-1.862-0.426-2.469-1.726-2.467c-1.284,0.005-1.78,0.682-1.765,2.473c0.009,1.076-0.281,2.341,1.697,2.51
		C649.57,367.064,650.028,366.375,650.027,364.433 M633.731,402.629c0-0.395,0.176-0.873-0.039-1.16
		c-0.394-0.524-0.937-1.203-1.566-1.329c-0.978-0.195-1.757,0.345-1.816,1.254c-0.053,0.782-0.062,1.572,0.004,2.354
		c0.073,0.895,0.746,1.316,1.844,1.266c1.029-0.047,1.572-0.488,1.574-1.337C633.731,403.328,633.731,402.978,633.731,402.629
		 M671.521,402.59c0,0.306,0.012,0.612-0.003,0.917c-0.043,0.882,0.424,1.431,1.548,1.501c1.186,0.075,1.829-0.397,1.914-1.354
		c0.031-0.347,0.016-0.696,0.017-1.047c0.001-1.918-0.474-2.629-1.816-2.518C671.179,400.257,671.555,401.526,671.521,402.59
		 M666.841,403.056c-0.061-0.784-0.069-1.224-0.13-1.66c-0.149-1.07-1.352-1.735-2.366-1.13c-0.635,0.38-1.115,1.299-1.076,1.954
		c0.056,0.911-0.558,2.191,1.008,2.665c0.579,0.174,1.658,0.019,2.041-0.326C666.781,404.14,666.751,403.361,666.841,403.056
		 M625.277,364.531c0-0.351-0.012-0.7,0.003-1.051c0.04-0.978-0.597-1.504-1.746-1.495c-1.077,0.008-1.662,0.524-1.637,1.439
		c0.018,0.7,0.012,1.4,0.001,2.1c-0.014,0.908,0.553,1.421,1.649,1.422c1.165,0.002,1.778-0.521,1.73-1.496
		C625.264,365.144,625.276,364.838,625.277,364.531 M682.988,364.476c0-0.175-0.014-0.351,0.002-0.525
		c0.09-1.016-0.134-1.938-1.66-1.96c-1.642-0.024-1.822,0.972-1.785,2.015c0.004,0.131,0.001,0.262,0,0.393
		c-0.001,1.955,0.439,2.634,1.774,2.554C683.382,366.825,682.934,365.524,682.988,364.476 M630.122,364.478
		c0,0.131,0.007,0.264-0.002,0.393c-0.069,1.025-0.013,2.05,1.668,2.07c1.675,0.021,1.791-0.992,1.749-2.024
		c-0.005-0.131,0-0.261,0-0.393c0.001-1.953-0.447-2.646-1.771-2.544C629.736,362.135,630.155,363.421,630.122,364.478
		 M654.878,364.45c0,0.395,0.002,0.789,0,1.183c-0.005,0.874,0.628,1.294,1.611,1.313c1.066,0.022,1.736-0.408,1.747-1.345
		c0.005-0.393,0.008-0.786,0.008-1.181c0.001-1.879-0.412-2.519-1.708-2.441C654.47,362.101,654.92,363.4,654.878,364.45
		 M638.592,402.498c0,0.396,0.002,0.791,0,1.187c-0.007,0.864,0.552,1.298,1.59,1.328c1.11,0.03,1.738-0.399,1.784-1.32
		c0.018-0.396,0.011-0.793,0.011-1.188c0-1.851-0.467-2.527-1.778-2.416C638.285,400.252,638.579,401.453,638.592,402.498"/>

<!--  film3 -->

	<path class="st8" d="M607.896,395.384"/>
	<path class="st36" d="M570.93,372.002c9.768,0,19.537,0.009,29.305-0.009c1.762-0.003,3.453,0.213,4.521,1.403
		c0.627,0.699,1.146,1.654,1.152,2.497c0.07,12.978,0.055,25.956,0.043,38.935c-0.002,2.076-1.799,3.573-4.588,3.906
		c-0.32,0.039-0.65,0.039-0.975,0.039c-19.723,0.002-39.443,0.009-59.166-0.006c-3.691-0.002-5.686-1.683-5.686-4.684
		c-0.002-12.449-0.002-24.899-0.002-37.35c0-3.235,1.84-4.727,5.893-4.73C551.262,371.996,561.096,372.002,570.93,372.002
		 M568.953,410.052v-29.389h-28.756v29.389H568.953z M601.58,410.053v-29.403h-28.818v29.403H601.58z M581.477,376.171
		c0,0.308,0.018,0.614-0.004,0.921c-0.068,1.062,0.686,1.565,1.859,1.576c1.191,0.01,1.691-0.647,1.709-1.562
		c0.006-0.307-0.008-0.614-0.002-0.92c0.047-1.854-0.469-2.6-1.871-2.499C581.174,373.829,581.473,375.088,581.477,376.171
		 M565.193,414.089c0,0.58-0.176,1.061,0.041,1.348c0.367,0.489,0.99,1.2,1.494,1.194c0.648-0.012,1.402-0.556,1.877-1.024
		c0.271-0.268,0.092-0.843,0.092-1.281c0.006-1.909-0.482-2.639-1.814-2.533C564.902,411.945,565.17,413.184,565.193,414.089
		 M589.693,376.236c0,0.087,0,0.176-0.002,0.262c-0.031,1.457,0.531,2.159,1.74,2.168c1.24,0.011,1.768-0.634,1.771-2.166
		c0.002-0.088,0-0.174,0-0.261c0.002-1.897-0.473-2.585-1.77-2.571C590.168,373.681,589.66,374.43,589.693,376.236 M556.738,376.057
		c0,0.483-0.213,1.07,0.053,1.422c0.365,0.488,1.088,1.1,1.662,1.104c0.582,0.004,1.533-0.595,1.68-1.062
		c0.271-0.863,0.27-1.866-0.01-2.727c-0.15-0.464-1.125-1.052-1.707-1.038c-0.572,0.014-1.225,0.658-1.639,1.142
		C556.549,375.162,556.736,375.662,556.738,376.057 M543.945,414.16h0.012c0-0.263-0.01-0.527,0.002-0.788
		c0.041-0.959-0.557-1.544-1.697-1.569c-1.23-0.025-1.857,0.575-1.836,1.592c0.014,0.7-0.051,1.406,0.031,2.101
		c0.096,0.816,0.713,1.24,1.75,1.228c1.025-0.013,1.629-0.423,1.73-1.251C543.988,415.038,543.945,414.598,543.945,414.16
		 M576.912,414.365c0-0.35-0.012-0.7,0.002-1.051c0.043-0.98-0.623-1.502-1.746-1.516c-1.051-0.015-1.711,0.495-1.756,1.39
		c-0.035,0.7-0.043,1.402-0.004,2.101c0.053,0.933,0.639,1.464,1.85,1.428c1.127-0.033,1.65-0.54,1.654-1.432
		C576.912,414.979,576.912,414.672,576.912,414.365 M598.137,414.237c0,0.306,0,0.612,0,0.918c0,0.998,0.547,1.587,1.848,1.559
		c1.24-0.024,1.682-0.642,1.684-1.557c0-0.438-0.027-0.879,0.008-1.313c0.084-1.077-0.189-2.04-1.771-2.041
		c-1.584,0-1.863,0.966-1.77,2.039C598.146,413.973,598.137,414.104,598.137,414.237 M568.439,376.137
		c0-1.862-0.426-2.469-1.727-2.467c-1.283,0.005-1.779,0.682-1.764,2.473c0.008,1.076-0.281,2.341,1.697,2.51
		C567.982,378.769,568.439,378.079,568.439,376.137 M552.143,414.333c0-0.395,0.176-0.873-0.039-1.16
		c-0.393-0.524-0.936-1.203-1.566-1.329c-0.977-0.195-1.756,0.345-1.816,1.254c-0.053,0.782-0.061,1.572,0.004,2.354
		c0.074,0.895,0.746,1.316,1.844,1.266c1.029-0.047,1.572-0.488,1.574-1.337C552.143,415.032,552.143,414.682,552.143,414.333
		 M589.934,414.294c0,0.306,0.012,0.612-0.004,0.917c-0.043,0.882,0.424,1.431,1.549,1.501c1.186,0.075,1.828-0.397,1.914-1.354
		c0.031-0.347,0.016-0.696,0.016-1.047c0.002-1.918-0.473-2.629-1.816-2.518C589.59,411.961,589.967,413.23,589.934,414.294
		 M585.252,414.76c-0.061-0.784-0.068-1.224-0.129-1.66c-0.15-1.07-1.352-1.735-2.367-1.13c-0.635,0.38-1.115,1.299-1.076,1.954
		c0.057,0.911-0.557,2.191,1.008,2.665c0.58,0.174,1.658,0.019,2.041-0.326C585.193,415.844,585.162,415.065,585.252,414.76
		 M543.689,376.235c0-0.351-0.012-0.7,0.002-1.051c0.041-0.978-0.596-1.504-1.746-1.495c-1.076,0.008-1.662,0.524-1.637,1.439
		c0.018,0.7,0.012,1.4,0.002,2.1c-0.014,0.908,0.553,1.421,1.648,1.422c1.166,0.002,1.779-0.521,1.73-1.496
		C543.676,376.848,543.688,376.542,543.689,376.235 M601.4,376.18c0-0.175-0.014-0.351,0.002-0.525
		c0.09-1.016-0.135-1.938-1.66-1.96c-1.643-0.024-1.822,0.972-1.785,2.015c0.004,0.131,0,0.262,0,0.393
		c-0.002,1.955,0.439,2.634,1.773,2.554C601.793,378.529,601.346,377.229,601.4,376.18 M548.533,376.182
		c0,0.131,0.008,0.264-0.002,0.393c-0.068,1.025-0.012,2.05,1.668,2.07c1.676,0.021,1.791-0.992,1.75-2.024
		c-0.006-0.131,0-0.261,0-0.393c0-1.953-0.447-2.646-1.771-2.544C548.148,373.839,548.566,375.125,548.533,376.182 M573.289,376.154
		c0,0.395,0.002,0.789,0,1.183c-0.004,0.874,0.629,1.294,1.611,1.313c1.066,0.022,1.736-0.408,1.748-1.345
		c0.004-0.393,0.008-0.786,0.008-1.181c0-1.879-0.412-2.519-1.709-2.441C572.881,373.805,573.332,375.104,573.289,376.154
		 M557.004,414.202c0,0.396,0.002,0.791,0,1.187c-0.008,0.864,0.551,1.298,1.59,1.328c1.109,0.03,1.738-0.399,1.783-1.32
		c0.018-0.396,0.012-0.793,0.012-1.188c0-1.851-0.467-2.527-1.779-2.416C556.697,411.956,556.99,413.157,557.004,414.202"/>



<!--  innerPhone-->
	<path class="st62" d="M173.517,437.241c0,14.975-0.003,29.948,0.013,44.923c0,0.515-0.056,0.676-0.639,0.675
		c-16.712-0.021-33.424-0.021-50.136-0.003c-0.525,0.001-0.603-0.147-0.603-0.626c0.012-29.975,0.013-59.949-0.007-89.924
		c0-0.599,0.186-0.63,0.684-0.629c16.686,0.014,33.371,0.015,50.056-0.006c0.569,0,0.646,0.14,0.646,0.668
		C173.513,407.294,173.517,422.268,173.517,437.241z"/>
	<path class="st55" d="M163.406,415.892c-0.946,0.252-1.61,0.138-1.966-0.834c-0.208-0.569-0.603-1.067-0.866-1.62
		c-0.186-0.391-0.493-0.368-0.808-0.324c-0.375,0.052-0.219,0.373-0.227,0.58c-0.021,0.56-0.043,1.124,0.001,1.681
		c0.042,0.524-0.181,0.628-0.648,0.621c-0.429-0.007-0.613-0.103-0.607-0.581c0.025-1.896,0.024-3.791,0-5.687
		c-0.006-0.466,0.153-0.595,0.595-0.575c0.747,0.032,1.496-0.013,2.242,0.02c1.128,0.05,1.857,0.584,2.052,1.451
		c0.219,0.976-0.123,1.697-1.158,2.258c-0.357,0.193-0.211,0.333-0.085,0.543C162.413,414.224,162.889,415.025,163.406,415.892z"/>
	<path class="st53" d="M138.52,411.726c0,0.642,0.019,1.283-0.004,1.924c-0.053,1.492-1.188,2.526-2.753,2.53
		c-1.578,0.004-2.721-1.01-2.759-2.509c-0.035-1.335,0.016-2.673-0.018-4.008c-0.014-0.549,0.296-0.496,0.657-0.511
		c0.387-0.016,0.578,0.061,0.567,0.516c-0.028,1.229-0.027,2.459,0.001,3.688c0.022,0.977,0.514,1.53,1.338,1.6
		c1.052,0.089,1.691-0.443,1.724-1.517c0.038-1.228,0.041-2.459,0.004-3.688c-0.016-0.534,0.206-0.604,0.66-0.607
		c0.446-0.003,0.618,0.109,0.591,0.578C138.492,410.388,138.52,411.058,138.52,411.726z"/>
	<path class="st56" d="M164.815,412.484c0-0.934,0.021-1.869-0.01-2.802c-0.014-0.434,0.139-0.54,0.549-0.531
		c1.147,0.024,2.295,0.025,3.443-0.001c0.415-0.009,0.549,0.11,0.55,0.536c0.001,0.443-0.113,0.618-0.581,0.594
		c-0.692-0.035-1.393,0.044-2.08-0.022c-0.711-0.069-0.701,0.322-0.681,0.817c0.019,0.448-0.104,0.925,0.648,0.851
		c0.634-0.062,1.281,0.011,1.92-0.021c0.45-0.022,0.592,0.126,0.602,0.585c0.01,0.508-0.222,0.563-0.628,0.549
		c-0.64-0.023-1.283,0.025-1.92-0.016c-0.509-0.033-0.637,0.162-0.625,0.642c0.039,1.461-0.124,1.191,1.164,1.215
		c0.56,0.011,1.122,0.018,1.681-0.002c0.42-0.016,0.69,0.009,0.678,0.574c-0.012,0.52-0.25,0.54-0.642,0.535
		c-1.147-0.015-2.295-0.025-3.442,0.006c-0.482,0.013-0.661-0.118-0.64-0.626c0.038-0.959,0.011-1.921,0.011-2.882
		C164.812,412.484,164.814,412.484,164.815,412.484z"/>
	<path class="st55" d="M150.888,411.749c0-0.667,0.022-1.336-0.008-2.002c-0.02-0.434,0.091-0.61,0.566-0.603
		c0.451,0.007,0.674,0.065,0.66,0.602c-0.031,1.254-0.036,2.512,0.027,3.764c0.053,1.044,0.68,1.528,1.704,1.448
		c0.831-0.064,1.325-0.609,1.352-1.583c0.031-1.147,0.019-2.297,0.008-3.444c-0.004-0.448-0.056-0.798,0.625-0.798
		c0.735-0.001,0.575,0.436,0.577,0.835c0.005,1.148,0.009,2.297,0.001,3.444c-0.012,1.692-1.078,2.76-2.746,2.767
		c-1.661,0.007-2.753-1.076-2.765-2.747C150.884,412.871,150.888,412.311,150.888,411.749z"/>
	<path class="st55" d="M125.682,412.557c0.028-1.387,0.546-2.543,1.861-3.176c1.196-0.575,2.43-0.612,3.569,0.178
		c0.184,0.128,0.758,0.274,0.358,0.664c-0.249,0.242-0.505,0.759-1.104,0.28c-0.867-0.695-2.139-0.438-2.856,0.441
		c-0.763,0.935-0.706,2.512,0.122,3.395c0.789,0.841,1.981,0.964,2.863,0.19c0.578-0.507,0.835,0.037,1.114,0.268
		c0.454,0.375-0.122,0.562-0.292,0.694c-1.151,0.883-2.439,0.901-3.703,0.327C126.262,415.204,125.69,414.046,125.682,412.557z"/>
	<path class="st50" d="M146.394,413.062c0-0.748-0.02-1.496,0.007-2.243c0.015-0.406-0.092-0.596-0.531-0.552
		c-0.317,0.032-0.644-0.022-0.96,0.013c-0.487,0.056-0.636-0.113-0.642-0.614c-0.007-0.55,0.287-0.514,0.654-0.511
		c1.416,0.009,2.831,0.015,4.246-0.003c0.395-0.005,0.573,0.081,0.568,0.525c-0.004,0.432-0.095,0.601-0.574,0.609
		c-1.561,0.026-1.561,0.049-1.561,1.658c0,1.148-0.028,2.298,0.011,3.444c0.018,0.535-0.215,0.599-0.664,0.608
		c-0.483,0.011-0.579-0.184-0.562-0.613C146.415,414.612,146.394,413.837,146.394,413.062z"/>
	<path class="st57" d="M140.422,412.532c0-0.855-0.004-1.711,0.001-2.565c0.003-0.397-0.162-0.838,0.576-0.834
		c0.677,0.003,0.627,0.347,0.623,0.797c-0.013,1.416,0.021,2.833-0.017,4.248c-0.016,0.569,0.164,0.762,0.723,0.713
		c0.504-0.043,1.016,0.006,1.522-0.014c0.416-0.016,0.697,0.003,0.694,0.571c-0.004,0.605-0.354,0.536-0.732,0.534
		c-0.909-0.005-1.818-0.028-2.726,0.01c-0.509,0.021-0.707-0.106-0.68-0.655c0.046-0.933,0.013-1.87,0.013-2.805
		C140.42,412.532,140.421,412.532,140.422,412.532z"/>
	<path class="st43" d="M145.695,404.767c0-0.589,0.003-1.177-0.001-1.765c-0.002-0.259,0.006-0.477,0.365-0.48
		c0.351-0.005,0.44,0.146,0.465,0.479c0.102,1.376,0.114,1.343,1.482,1.359c0.562,0.007,0.692-0.202,0.639-0.694
		c-0.028-0.264,0.005-0.534-0.006-0.801c-0.013-0.303,0.162-0.354,0.407-0.341c0.189,0.01,0.392-0.005,0.393,0.271
		c0.002,1.337,0.001,2.674,0.003,4.011c0,0.275-0.189,0.276-0.383,0.269c-0.176-0.008-0.398,0.055-0.411-0.237
		c-0.005-0.106-0.004-0.214-0.008-0.32c-0.053-1.553-0.052-1.538-1.633-1.455c-0.383,0.02-0.522,0.133-0.497,0.513
		c0.025,0.372-0.008,0.749,0.007,1.122c0.014,0.345-0.183,0.379-0.457,0.385c-0.292,0.007-0.367-0.13-0.364-0.389
		c0.007-0.642,0.002-1.283,0.002-1.925C145.698,404.767,145.697,404.767,145.695,404.767z"/>
	<path class="st49" d="M150.739,404.796c0-0.026-0.002-0.054,0-0.08c0.053-0.71-0.31-1.8,0.145-2.045
		c0.667-0.359,1.652-0.125,2.502-0.145c0.258-0.006,0.384,0.091,0.383,0.375c0,0.306-0.168,0.347-0.407,0.344
		c-0.374-0.003-0.747,0.011-1.12-0.002c-0.396-0.014-0.71-0.038-0.71,0.551c0,0.552,0.243,0.612,0.676,0.58
		c0.318-0.023,0.64,0.001,0.96-0.004c0.257-0.004,0.471,0.004,0.475,0.362c0.003,0.334-0.16,0.406-0.445,0.395
		c-0.293-0.012-0.587,0.011-0.88-0.005c-0.456-0.024-0.792-0.044-0.792,0.629c-0.001,0.727,0.428,0.589,0.835,0.596
		c0.4,0.006,0.8,0.004,1.2,0.006c0.292,0.001,0.334,0.188,0.335,0.429c0.001,0.27-0.167,0.294-0.366,0.294
		c-0.8,0-1.601-0.009-2.4,0.005c-0.332,0.006-0.399-0.158-0.394-0.443C150.748,406.023,150.74,405.409,150.739,404.796z"/>
	<path class="st53" d="M141.29,422.646c0.604-1.393,1.175-2.711,1.746-4.03c0.107-0.247,0.193-0.471,0.55-0.47
		c0.356,0,0.445,0.222,0.551,0.47c0.503,1.177,1.011,2.352,1.506,3.531c0.072,0.171,0.326,0.422,0.04,0.536
		c-0.27,0.108-0.628,0.151-0.835-0.229c-0.144-0.264-0.085-0.711-0.484-0.752c-0.529-0.055-1.067-0.024-1.601-0.014
		c-0.286,0.006-0.314,0.28-0.36,0.463C142.254,422.745,141.876,422.807,141.29,422.646z"/>
	<path class="st44" d="M146.659,420.436c0-0.4-0.027-0.803,0.008-1.2c0.032-0.354-0.195-0.965,0.162-1.014
		c0.851-0.116,1.773-0.263,2.567,0.263c0.443,0.293,0.546,0.772,0.455,1.281c-0.157,0.875-0.844,1.107-1.556,1.056
		c-0.792-0.058-0.897,0.297-0.819,0.92c0.017,0.131,0,0.267,0.002,0.399c0.007,0.304,0.033,0.593-0.424,0.59
		c-0.483-0.003-0.39-0.336-0.394-0.613C146.654,421.557,146.659,420.996,146.659,420.436z"/>
	<path class="st49" d="M150.833,420.384c-0.001-0.214-0.023-0.43,0.003-0.641c0.065-0.515-0.257-1.354,0.157-1.484
		c0.775-0.245,1.692-0.263,2.488,0.164c0.48,0.257,0.606,0.727,0.559,1.235c-0.053,0.563-0.354,1.04-0.916,1.057
		c-1.125,0.035-1.793,0.353-1.482,1.643c0.067,0.276-0.143,0.355-0.39,0.369c-0.309,0.018-0.429-0.112-0.423-0.421
		C150.842,421.665,150.833,421.024,150.833,420.384z"/>
	<path class="st55" d="M142.703,405.159c0-0.267-0.027-0.536,0.004-0.798c0.093-0.764-0.012-1.317-0.998-1.123
		c-0.23,0.045-0.407-0.04-0.409-0.341c-0.002-0.289,0.146-0.37,0.394-0.37c0.932,0,1.864-0.002,2.796-0.001
		c0.232,0,0.407,0.044,0.419,0.344c0.014,0.36-0.21,0.417-0.46,0.367c-0.879-0.174-1.01,0.273-0.954,1.013
		c0.057,0.768,0.011,1.544,0.013,2.316c0.001,0.271,0.034,0.518-0.387,0.52c-0.391,0.002-0.43-0.183-0.421-0.488
		C142.714,406.118,142.704,405.639,142.703,405.159z"/>
	<path class="st41" d="M145.172,474.609c-0.545-1.009,0.455-1.135,0.902-1.577c0.64-0.732,0.988-0.703,1.472,0.14
		c0.116,0.201,0.282,0.391,0.25,0.652c-0.167,0.478-0.548,0.69-1.006,0.806C146.252,474.545,145.714,474.41,145.172,474.609z"/>
	<path class="st20" d="M146.552,477.713c-0.284,0.242-0.504,0.257-0.675-0.139c-0.19-0.44-0.416-0.864-0.626-1.296
		c-0.366-0.767,0.09-1.218,1.149-1.139c0.385,0.206,0.497,0.575,0.576,0.965C146.985,476.679,146.703,477.179,146.552,477.713z"/>
	<path class="st51" d="M147.986,472.389c0.214-0.332,0.428-0.392,0.743-0.081c0.333,0.329,0.722,0.602,1.087,0.899
		c0.195,0.131,0.426,0.238,0.362,0.543c-0.285,0.398-0.563,0.806-1.097,0.903c-0.37-0.047-0.626-0.248-0.785-0.581
		c-0.116-0.49-0.167-0.998-0.382-1.465C147.915,472.527,147.94,472.454,147.986,472.389z"/>
	<path class="st40" d="M150.095,476.891c0.245,0.354,0.179,0.551-0.263,0.659c-0.455,0.11-0.894,0.288-1.339,0.438
		c-0.776,0.221-1.1-0.197-0.959-1.235c0.212-0.368,0.601-0.374,0.95-0.462C149.071,476.352,149.595,476.59,150.095,476.891z"/>
	<path class="st19" d="M146.397,475.269c-0.436,0.275-1.242,0.131-1.146,1.01c-0.336-0.026-0.564-0.131-0.427-0.54
		c0.125-0.373,0.232-0.752,0.348-1.128c0.293-0.756,0.537-0.779,1.553-0.154C146.916,474.848,146.791,475.112,146.397,475.269z"/>
	<path class="st59" d="M147.704,476.782c0.249,0.41-0.055,1.183,0.789,1.205c-0.07,0.336-0.207,0.518-0.589,0.328
		c-0.441-0.219-0.899-0.403-1.351-0.603c-0.656-0.573,0.18-0.958,0.184-1.448C147.261,476.059,147.553,476.289,147.704,476.782z"/>
	<path class="st35" d="M150.095,476.891c-0.202,0.192-0.393,0.312-0.674,0.091c-0.22-0.173-0.493-0.28-0.742-0.417
		c-0.199-0.546,0.252-0.789,0.52-1.119c0.47-0.16,0.93-0.354,1.406-0.505c0.387,0.151,0.553,0.351,0.249,0.756
		C150.572,476.073,150.346,476.491,150.095,476.891z"/>
	<path class="st38" d="M150.605,474.94c-0.106,0.836-0.768,0.612-1.281,0.671c-0.291-0.134-0.341-0.38-0.313-0.663
		c0.074-0.358,0.425-0.458,0.649-0.674c0.19-0.184,0.449-0.308,0.398-0.636c-0.081-0.145-0.162-0.288-0.242-0.432
		c0.338-0.147,0.549-0.098,0.591,0.326C150.454,474.004,150.538,474.472,150.605,474.94z"/>
	<path class="st28" d="M151.811,480.846c0.165-0.451,0.298-0.816,0.449-1.229c0.503,0.278,0.317,0.858,0.63,1.168
		c0.249-0.312,0.147-0.772,0.513-1.043c-0.068,0.573-0.162,1.139-0.504,1.675c-0.369-0.313-0.301-0.763-0.514-1.108
		c-0.368,0.265-0.164,0.836-0.614,1.092c-0.328-0.529-0.435-1.102-0.556-1.792C151.656,479.955,151.564,480.407,151.811,480.846z"/>
	<path class="st65" d="M147.986,472.389c0.017,0.04,0.028,0.082,0.033,0.125c-0.138,0.436,0.261,0.925-0.134,1.335
		c-0.073,0.032-0.144,0.03-0.213-0.012c-0.086-0.132-0.196-0.255-0.255-0.398c-0.284-0.696-0.716-0.863-1.343-0.406
		c-0.064-0.438,0.116-0.637,0.567-0.624C147.089,472.42,147.538,472.396,147.986,472.389z"/>
	<path class="st25" d="M146.721,479.688c0,0.406-0.022,0.814,0.006,1.22c0.029,0.415-0.221,0.478-0.536,0.501
		c-0.394,0.03-0.687-0.103-0.752-0.52c-0.052-0.334,0.126-0.614,0.445-0.637c0.404-0.029,0.664-0.146,0.617-0.729
		C146.575,479.578,146.648,479.634,146.721,479.688z"/>
	<path class="st26" d="M136.785,481.776c0-0.31,0.024-0.621-0.006-0.927c-0.043-0.447,0.151-0.623,0.58-0.629
		c0.364-0.004,0.634,0.117,0.693,0.495c0.064,0.416-0.16,0.706-0.563,0.683C137.141,481.379,137.073,481.598,136.785,481.776z"/>
	<path class="st15" d="M141.111,481.39c-0.325-0.1-0.277-0.378-0.42-0.531c-0.308,0.021-0.173,0.434-0.499,0.507
		c-0.263-0.278-0.287-0.66-0.381-1.045c0.351,0.026,0.27,0.318,0.392,0.474c0.267-0.058,0.15-0.428,0.417-0.508
		c0.273,0.062,0.19,0.41,0.396,0.535c0.159-0.127,0.094-0.409,0.372-0.51C141.439,480.734,141.235,481.049,141.111,481.39z"/>
	<path class="st33" d="M158.288,480.953c0.103,0.375,0.402,0.172,0.646,0.401c-0.533,0.101-0.885,0.038-0.97-0.477
		c-0.061-0.368,0.162-0.606,0.54-0.646c0.299-0.031,0.559,0.074,0.571,0.404c0.015,0.404-0.34,0.208-0.535,0.269
		C158.466,480.928,158.386,480.935,158.288,480.953z"/>
	<path class="st34" d="M142.646,481.247c-0.379,0.207-0.759,0.271-0.924-0.246c-0.123-0.385,0.019-0.692,0.459-0.767
		c0.3-0.051,0.609,0.072,0.609,0.367c-0.001,0.625-0.599,0.052-0.788,0.464C142.064,481.407,142.422,481.12,142.646,481.247z"/>
	<path class="st48" d="M147.825,479.699c0.116,0.411,0.323,0.574,0.767,0.562c0.329-0.01,0.5,0.303,0.456,0.619
		c-0.057,0.407-0.344,0.548-0.749,0.519c-0.346-0.024-0.522-0.131-0.482-0.524C147.856,480.486,147.825,480.091,147.825,479.699z"/>
	<path class="st33" d="M144.331,481.021c0.125,0.301,0.421,0.095,0.569,0.27c-0.176,0.195-0.392,0.141-0.574,0.059
		c-0.271-0.123-0.396-0.365-0.322-0.658c0.082-0.324,0.312-0.482,0.652-0.463c0.239,0.014,0.452,0.128,0.453,0.364
		C145.112,481.177,144.528,480.71,144.331,481.021z"/>
	<path class="st13" d="M157.607,480.25c-0.026,0.442,0.224,0.836-0.153,1.091c-0.169,0.114-0.475,0.169-0.68,0.001
		c-0.335-0.273-0.297-0.631-0.155-1.029c0.401,0.189-0.045,0.864,0.452,0.857C157.548,481.163,157.199,480.564,157.607,480.25z"/>
	<path class="st45" d="M155.178,479.724c0.153,0.374,0.306,0.749,0.51,1.249c0.214-0.506,0.373-0.883,0.531-1.259
		c0.05,0.618-0.208,1.129-0.487,1.736C155.3,480.916,155.193,480.345,155.178,479.724z"/>
	<path class="st27" d="M150.136,480.299c-0.05,0.631-0.125,1.258-0.687,1.692c0.472-0.604-0.064-1.104-0.161-1.674
		c0.408,0.033,0.271,0.445,0.56,0.582C149.938,480.713,150.037,480.506,150.136,480.299z"/>
	<path class="st32" d="M139.601,480.823c-0.069,0.352-0.239,0.594-0.628,0.585c-0.415-0.009-0.638-0.217-0.612-0.645
		c0.024-0.397,0.275-0.543,0.639-0.538C139.392,480.23,139.548,480.478,139.601,480.823z"/>
	<path class="st46" d="M153.66,481.04c-0.115-0.396,0.028-0.668,0.413-0.789c0.204-0.063,0.417-0.033,0.572,0.146
		c0.089,0.103,0.15,0.229,0.087,0.357c-0.104,0.212-0.315,0.117-0.484,0.137c-0.103,0.011-0.208,0.003-0.312,0.004
		C153.861,480.977,153.824,481.129,153.66,481.04z"/>
	<path class="st46" d="M143.27,481.271c0.045-0.365-0.422-0.947,0.577-1.05C143.37,480.55,143.374,480.931,143.27,481.271z"/>
	<path class="st16" d="M153.66,481.04c0.092-0.048,0.184-0.097,0.276-0.145c0.04,0.556,0.492,0.158,0.778,0.321
		C154.253,481.528,153.92,481.508,153.66,481.04z"/>
	<path class="st7" d="M159.529,411.12c0.02-0.461-0.18-0.982,0.651-0.935c1.262,0.072,1.733,0.267,1.743,0.928
		c0.01,0.674-0.466,0.872-1.72,0.953C159.307,412.124,159.567,411.549,159.529,411.12z"/>
	<path class="st22" d="M143.561,419.146c0.2,0.52,0.311,0.889,0.48,1.229c0.258,0.516,0.076,0.603-0.436,0.633
		c-0.701,0.042-0.783-0.18-0.482-0.746C143.271,419.981,143.358,419.67,143.561,419.146z"/>
	<path class="st1" d="M147.487,419.545c-0.03-0.377-0.067-0.742,0.481-0.669c0.425,0.058,0.98-0.058,1.015,0.598
		c0.032,0.608-0.45,0.6-0.881,0.642C147.649,420.159,147.37,420.056,147.487,419.545z"/>
	<path class="st2" d="M151.661,419.463c-0.088-0.439,0.07-0.653,0.538-0.59c0.435,0.059,0.983-0.006,0.96,0.658
		c-0.021,0.604-0.529,0.53-0.943,0.586C151.667,420.191,151.595,419.891,151.661,419.463z"/>
	<path class="st2" d="M147.672,473.837c0.057-0.004,0.115-0.007,0.172-0.011c0.229-0.197,0.406-0.082,0.572,0.096
		c0.243,0.207,0.485,0.415,0.728,0.623c0.079,0.068,0.075,0.181,0.138,0.257c0.014,0.27,0.028,0.54,0.042,0.81
		c-0.118,0.383-0.363,0.681-0.645,0.953c-0.325,0.073-0.65,0.146-0.976,0.218c-0.372-0.08-0.663-0.312-0.968-0.518
		c-0.113-0.332-0.226-0.664-0.338-0.996c0.109-0.271,0.218-0.542,0.328-0.812C146.974,474.146,147.327,473.998,147.672,473.837z"/>
	<path class="st24" d="M148.417,473.922c-0.191-0.032-0.382-0.064-0.572-0.096c-0.053-0.256-0.095-0.515-0.162-0.767
		c-0.082-0.31-0.021-0.515,0.336-0.545C148.85,472.786,148.323,473.441,148.417,473.922z"/>
	<path class="st31" d="M149.283,474.802c-0.046-0.086-0.092-0.172-0.138-0.258c0.305-0.302,0.609-0.604,0.914-0.905
		c0.224,0.281,0.237,0.513-0.123,0.708C149.703,474.473,149.499,474.648,149.283,474.802z"/>
	<path class="st9" d="M146.465,480.828c-0.056,0.226-0.163,0.4-0.429,0.375c-0.26-0.025-0.371-0.203-0.344-0.439
		c0.022-0.198,0.147-0.333,0.374-0.336C146.341,480.425,146.423,480.604,146.465,480.828z"/>
	<path class="st10" d="M137.384,481.204c-0.225-0.022-0.34-0.181-0.323-0.428c0.015-0.212,0.137-0.342,0.361-0.349
		c0.266-0.009,0.411,0.158,0.411,0.389C137.832,481.045,137.688,481.212,137.384,481.204z"/>
	<path class="st0" d="M148.403,480.416c0.295,0.02,0.418,0.177,0.411,0.418c-0.008,0.249-0.158,0.39-0.413,0.376
		c-0.25-0.014-0.394-0.165-0.383-0.411S148.197,480.434,148.403,480.416z"/>
	<path class="st6" d="M139.01,481.205c-0.274,0.01-0.427-0.129-0.438-0.371c-0.01-0.241,0.126-0.407,0.385-0.409
		c0.211-0.002,0.356,0.11,0.375,0.331C139.354,480.999,139.254,481.166,139.01,481.205z"/>
	<path class="st5" d="M147.518,475.755c0-0.319,0-0.604,0-0.903c0.365-0.018,0.548,0.259,0.914,0.4
		C148.11,475.517,147.863,475.675,147.518,475.755z"/>
		

</svg>
