
<svg version="1.1" id="Layer_1" xmlns="http://www.w3.org/2000/svg" xmlns:xlink="http://www.w3.org/1999/xlink" x="0px" y="0px"
	  viewBox="0 0 960 343.851" enable-background="new 0 0 960 343.851" xml:space="preserve" style="background-color: #30CCCF;">



	  <g>
	<path fill="#898B86" d="M157.112,180.205c0.023-1.414-0.471-2.282-1.98-2.785c-2.354-0.783-4.743-1.534-6.95-2.718
		c0-0.205,0-0.41,0-0.614c1.111-0.938,2.525-0.622,3.794-0.892c1.143-0.243,2.337-0.246,3.485-0.472
		c1.75-0.344,3.419-0.453,4.945,0.72c0.72,0.553,1.243,0.409,1.302-0.576c0.062-1.035,0.798-1.227,1.604-1.546
		c3.943-1.561,6.858-0.623,9.651,2.727c3.325,3.989,7.285,7.447,10.963,11.144c0.451,0.454,1.159,0.891,0.713,1.661
		c-0.411,0.71-1.092,0.272-1.667,0.172c-1.154-0.2-2.307-0.407-3.46-0.611c-1.722,0.325-3.304-0.398-4.949-0.658
		c-4.981-0.971-9.921-2.148-14.931-2.977C157.474,182.272,157.175,181.966,157.112,180.205z	">

	</path>
	<path fill="#EDEDEB" d="M181.365,185.504c-0.822-0.222-1.644-0.442-2.464-0.665c-1.492-0.122-2.876-0.66-4.257-1.167
		c-4.98-1.833-10.035-3.457-15.015-5.29c-0.376-0.121-0.706-0.328-1.021-0.56c-2.776-1.405-5.829-2.091-8.708-3.524
		c1.984-0.271,3.992-0.433,5.948-0.845c1.892-0.4,3.5,0.034,5.021,1.093c0.859,0.597,1.402,0.509,1.473-0.662
		c0.083-1.359,0.989-1.602,2.15-2.034c3.162-1.178,5.206-0.085,7.338,2.278c3.384,3.75,7.13,7.173,10.723,10.734
		c-0.182,0.865-0.625,0.325-0.994,0.187c-5.682-3.437-11.083-7.303-16.651-10.917c-0.391-0.253-0.878-0.791-1.305-0.135
		c-0.417,0.641-0.281,1.322,0.424,1.707c1.211,0.663,2.386,1.388,3.616,2.013c4.277,2.173,8.642,4.181,12.782,6.614
		C180.854,184.585,181.568,184.706,181.365,185.504z	">
	</path>

	<path fill="#30CCCF" d="M181.365,185.504c-1.1-1.283-2.713-1.762-4.122-2.52c-4.36-2.343-8.795-4.549-13.209-6.791
		c-0.679-0.345-1.223-0.69-1.107-1.599c0.206-1.604,0.621-1.816,1.976-0.906c4.735,3.18,9.471,6.359,14.19,9.562
		c0.836,0.568,1.88,0.791,2.573,1.583c0.157,0.298,0.493,0.539,0.31,0.947C181.739,185.765,181.495,185.758,181.365,185.504z	">

	</path>
	<path fill="#30CCCF" d="M159.593,178.041c4.724,1.628,9.458,3.227,14.164,4.9c1.721,0.611,3.519,1.025,5.144,1.9
		c-1.282,0.651-2.456-0.153-3.647-0.348c-2.287-0.374-4.586-0.752-6.797-1.493c-2.185-1.02-4.518-1.57-6.842-2.145
		c-1.233-0.305-2.136-0.962-2.423-2.261C159.131,178.321,159.072,177.942,159.593,178.041z	">

	</path>
	<path fill="#30CCCF" d="M159.593,178.041c-0.167,1.342,0.596,1.993,1.756,2.32c1.694,0.479,3.405,0.904,5.089,1.417
		c0.757,0.23,1.567,0.451,2.019,1.221c-3.217-0.302-6.343-1.102-9.459-1.885c-1.11-0.279-1.088-1.409-0.715-2.332
		c0.128-0.317,0.349-0.59,0.326-0.958C158.969,177.747,159.315,177.737,159.593,178.041z	">

	</path>
	<path fill="#BDBFBA" d="M181.976,185.783c-0.104-0.316-0.207-0.632-0.31-0.947c0.294,0.047,0.576,0.546,0.889,0.028
		c0.588,0.305,1.029,0.755,1.404,1.409C183.16,186.436,182.556,186.165,181.976,185.783z	">

	</path>

	<animateTransform  type="translate" fill="remove" repeatCount="indefinite" calcMode="linear" restart="always" dur="4s" begin="0" attributeName="transform" additive="replace" accumulate="none" values="50,0;0,-15;0,15;290,-6;" attributeType="HML">
			</animateTransform>
	</g>

	<g>
			<path fill="#FFFFFF" d="M249.447,216.838c-0.673,6.885-12.768,12.443-27.631,12.443c-14.871,0-26.965-5.523-27.639-12.097h-0.045
				l13.746-6.369l5.782-2.834v-2.395c-5.843-4.207-9.14-12.607-9.14-22.299c0-13.899,2.333-23.959,17.228-24.158
				c15.292-0.207,16.83,10.258,16.83,24.158c0,9.693-3.735,18.092-9.578,22.299v2.395l6.247,2.662L249.447,216.838z"/>
		</g>

<path fill="none" d="z"  />
<rect x="276.532" y="-1.076" fill="none" width="406.846" height="105.566"/>

<g>
	<g>
		<polygon fill="#30CCCF" points="477.963,158.689 469.487,149.08 431.394,149.08 431.394,158.689 431.394,233.834 535.758,233.834 
			535.758,158.689 		"/>
		<polygon fill="none" stroke="#FFFFFF" stroke-miterlimit="10" points="477.963,158.689 469.487,149.08 431.394,149.08 
			431.394,158.689 431.394,233.834 535.758,233.834 535.758,158.689 		"/>
		<path fill="#FFFFFF" d="M468.3,163.179l-6.728,1.524l12.366,2.448l12.368,2.45l-5.641-3.973l-2.397-1.689l0.215-1.071
			c2.82-1.395,5.241-4.819,6.101-9.153c1.229-6.214,1.309-11.061-5.545-12.322c-6.678-1.228-8.592,3.068-9.82,9.28
			c-0.857,4.333,0.074,8.421,2.152,10.787l-0.212,1.072L468.3,163.179z		">
<animateTransform  type="translate" fill="remove" repeatCount="indefinite" calcMode="linear" restart="always" dur="4.5s" begin=".3" attributeName="transform" additive="replace" accumulate="none" values="25,0;0,-25;0,25;270,35;" attributeType="HML">
				</animateTransform>
		</path>
		<path fill="#FFFFFF" d="M472.862,172.643c6.646,1.316,12.535-0.046,13.439-3.039l-24.709-4.893
			C461.287,167.822,466.215,171.327,472.862,172.643L472.862,172.643z		">
<animateTransform  type="translate" fill="remove" repeatCount="indefinite" calcMode="linear" restart="always" dur="4.5s" begin=".3" attributeName="transform" additive="replace" accumulate="none" values="25,0;0,-25;0,25;270,35;" attributeType="HML">
				</animateTransform>
		</path>
		<path fill="#30CCCF" d="M536.008,163.025c0,5.295-4.293,9.588-9.587,9.588c-5.296,0-9.589-4.294-9.589-9.588
			c0-5.295,4.293-9.587,9.589-9.587C531.716,153.438,536.008,157.73,536.008,163.025L536.008,163.025z		">
<animateTransform  type="translate" fill="remove" repeatCount="indefinite" calcMode="linear" restart="always" dur="4s" begin=".9" attributeName="transform" additive="replace" accumulate="none" values="0,0;0,-15;0,15;250,15;" attributeType="HML">
				</animateTransform>
		</path>
		<path fill="#FFFFFF" d="M526.682,152.462c-7.472-0.809-14.439,2.503-18.639,8.114c2.902,6.379,8.997,11.107,16.469,11.915
			c7.474,0.811,14.438-2.502,18.64-8.113C540.249,157.999,534.154,153.272,526.682,152.462L526.682,152.462z M524.735,171.389
			c-4.694-0.509-8.085-4.726-7.579-9.421c0.508-4.692,4.728-8.086,9.42-7.577c4.695,0.507,8.09,4.725,7.58,9.419
			C533.648,168.503,529.43,171.898,524.735,171.389L524.735,171.389z		">
<animateTransform  type="translate" fill="remove" repeatCount="indefinite" calcMode="linear" restart="always" dur="4s" begin=".9" attributeName="transform" additive="replace" accumulate="none" values="0,0;0,-15;0,15;250,15;" attributeType="HML">
				</animateTransform>
		</path>
		<path fill="#FFFFFF" d="M530.256,163.388c-0.275,2.539-2.559,4.375-5.098,4.101c-2.539-0.275-4.376-2.556-4.101-5.097
			c0.275-2.539,2.556-4.375,5.098-4.1C528.695,158.566,530.53,160.849,530.256,163.388L530.256,163.388z		">
<animateTransform  type="translate" fill="remove" repeatCount="indefinite" calcMode="linear" restart="always" dur="4s" begin=".9" attributeName="transform" additive="replace" accumulate="none" values="0,0;0,-15;0,15;250,15;" attributeType="HML">
				</animateTransform>
		</path>
		<path fill="#FFFFFF" d="M516.705,163.43c0.751,5.14,1.497,10.281,2.259,15.419c0.137,0.927,0.152,1.833-0.39,2.487
			c-0.322,0.384-0.785,0.73-1.226,0.798c-6.826,1.036-13.655,2.026-20.485,3.018c-1.094,0.158-2.02-0.671-2.409-2.114
			c-0.045-0.167-0.07-0.338-0.097-0.51c-1.516-10.378-3.036-20.755-4.548-31.134c-0.281-1.943,0.449-3.122,2.028-3.353
			c6.551-0.958,13.102-1.915,19.653-2.875c1.704-0.248,2.629,0.606,2.943,2.739C515.194,153.081,515.947,158.256,516.705,163.43
			L516.705,163.43z M496.531,165.317c5.19-0.758,10.311-1.507,15.465-2.26c-0.744-5.079-1.477-10.095-2.212-15.133
			c-5.181,0.757-10.319,1.508-15.465,2.26C495.059,155.254,495.789,160.25,496.531,165.317L496.531,165.317z M499.038,182.487
			c5.198-0.761,10.306-1.506,15.476-2.262c-0.744-5.081-1.48-10.116-2.218-15.165c-5.188,0.758-10.314,1.507-15.474,2.262
			C497.564,172.391,498.298,177.408,499.038,182.487L499.038,182.487z M515.322,169.303c-0.162,0.023-0.322,0.057-0.484,0.068
			c-0.564,0.046-0.772,0.48-0.687,1.1c0.087,0.626,0.471,0.839,0.952,0.779c0.163-0.021,0.324-0.053,0.486-0.072
			c0.979-0.118,1.332-0.446,1.171-1.177C516.531,168.964,515.891,169.217,515.322,169.303L515.322,169.303z M494.118,163.65
			c-0.308,0.044-0.574-0.012-0.709,0.122c-0.229,0.233-0.554,0.617-0.511,0.879c0.054,0.34,0.399,0.695,0.682,0.909
			c0.163,0.123,0.452-0.017,0.682-0.049c1.006-0.145,1.354-0.458,1.195-1.152C495.222,163.332,494.591,163.568,494.118,163.65
			L494.118,163.65z M515.92,173.629c-0.047,0.007-0.093,0.016-0.138,0.019c-0.771,0.096-1.096,0.446-1.01,1.084
			c0.092,0.653,0.471,0.88,1.279,0.766c0.044-0.007,0.091-0.014,0.137-0.02c0.997-0.146,1.323-0.448,1.218-1.13
			C517.301,173.682,516.866,173.475,515.92,173.629L515.92,173.629z M513.479,156.276c-0.255,0.038-0.578-0.03-0.744,0.136
			c-0.228,0.231-0.494,0.657-0.451,0.96c0.042,0.307,0.429,0.76,0.687,0.801c0.476,0.077,1.003-0.001,1.434-0.214
			c0.231-0.114,0.468-0.672,0.414-0.976c-0.052-0.302-0.441-0.595-0.726-0.776C513.935,156.107,513.687,156.245,513.479,156.276
			L513.479,156.276z M492.445,152.474c0,0.001,0,0.004,0,0.006c0.14-0.019,0.276-0.045,0.417-0.06
			c0.505-0.051,0.769-0.411,0.693-1.014c-0.08-0.648-0.445-0.932-0.979-0.843c-0.368,0.06-0.744,0.083-1.104,0.178
			c-0.422,0.112-0.597,0.472-0.51,1.015c0.084,0.538,0.348,0.825,0.788,0.813C491.985,152.564,492.216,152.508,492.445,152.474
			L492.445,152.474z M494.873,169.837c0.183-0.027,0.367-0.061,0.554-0.08c0.519-0.054,0.74-0.444,0.663-1.035
			c-0.075-0.555-0.394-0.863-0.866-0.818c-0.371,0.037-0.743,0.086-1.106,0.16c-0.487,0.099-0.723,0.449-0.609,1.083
			c0.104,0.591,0.411,0.826,0.88,0.761C494.55,169.885,494.711,169.86,494.873,169.837L494.873,169.837z M496.573,180.997
			c-0.163,0.024-0.323,0.046-0.485,0.071c-0.525,0.076-0.792,0.408-0.679,1.091c0.109,0.65,0.469,0.835,0.952,0.766
			c0.228-0.034,0.458-0.082,0.69-0.097c0.572-0.038,1.059-0.256,0.937-1.09c-0.122-0.833-0.651-0.906-1.207-0.775
			C496.713,180.982,496.642,180.986,496.573,180.997L496.573,180.997z M514.338,162.438c0.981-0.142,1.268-0.413,1.165-1.097
			c-0.1-0.675-0.496-0.884-1.437-0.737c-0.563,0.087-1.253,0.03-1.191,1.084C512.918,162.4,513.315,162.588,514.338,162.438
			L514.338,162.438z M492.983,156.799c0.207-0.03,0.473,0.027,0.609-0.108c0.243-0.249,0.562-0.587,0.576-0.927
			c0.028-0.529-0.314-0.897-0.797-0.859c-0.416,0.033-0.835,0.09-1.239,0.183c-0.465,0.108-0.635,0.495-0.523,1.069
			c0.104,0.537,0.376,0.79,0.823,0.725C492.616,156.855,492.8,156.827,492.983,156.799L492.983,156.799z M495.913,176.684
			c-0.162,0.023-0.324,0.053-0.485,0.069c-0.466,0.044-0.718,0.332-0.67,0.93c0.052,0.629,0.35,0.931,0.86,0.902
			c0.184-0.01,0.368-0.045,0.551-0.072c1.011-0.147,1.348-0.453,1.186-1.149C497.111,176.323,496.475,176.621,495.913,176.684
			L495.913,176.684z M495.305,174.256c0.41-0.091,0.641-0.131,0.864-0.196c0.554-0.162,0.81-0.845,0.414-1.334
			c-0.249-0.305-0.771-0.485-1.113-0.414c-0.473,0.099-1.194-0.125-1.322,0.732c-0.048,0.319,0.116,0.875,0.328,1.05
			C494.731,174.31,495.138,174.233,495.305,174.256L495.305,174.256z M512.383,149.422c0.184-0.027,0.367-0.06,0.553-0.08
			c0.52-0.054,0.746-0.429,0.652-1.033c-0.085-0.566-0.403-0.833-0.884-0.75c-0.365,0.062-0.734,0.114-1.104,0.161
			c-0.479,0.063-0.705,0.399-0.622,0.979c0.088,0.613,0.411,0.894,0.923,0.794C512.057,149.461,512.221,149.445,512.383,149.422
			L512.383,149.422z M516.852,179.786c0.09-0.013,0.182-0.034,0.273-0.039c0.544-0.031,1.011-0.219,0.904-1.025
			c-0.111-0.865-0.65-0.884-1.197-0.784c-0.068,0.012-0.138,0.021-0.207,0.03c-1.027,0.149-1.352,0.435-1.206,1.13
			C515.645,180.175,516.293,179.839,516.852,179.786L516.852,179.786z M512.782,151.966c-0.069,0.012-0.137,0.025-0.205,0.031
			c-0.546,0.042-1.081,0.15-0.961,1.036c0.116,0.884,0.658,0.865,1.2,0.765c0.068-0.013,0.137-0.022,0.207-0.03
			c1.027-0.15,1.355-0.439,1.202-1.128C513.984,151.584,513.342,151.903,512.782,151.966L512.782,151.966z M514.701,164.992
			c-0.207,0.03-0.414,0.062-0.622,0.091c-0.461,0.063-0.632,0.43-0.567,0.95c0.071,0.562,0.35,0.882,0.842,0.816
			c0.206-0.028,0.413-0.059,0.622-0.087c0.989-0.146,1.294-0.411,1.155-1.088C515.906,164.596,515.257,164.934,514.701,164.992
			L514.701,164.992z M493.427,159.349c-0.208,0.03-0.416,0.062-0.623,0.091c-0.458,0.062-0.644,0.39-0.578,0.938
			c0.071,0.587,0.346,0.884,0.832,0.838c0.21-0.021,0.418-0.055,0.625-0.086c0.976-0.143,1.296-0.439,1.136-1.122
			C494.586,159.015,493.977,159.262,493.427,159.349L493.427,159.349z		">
<animateTransform  type="translate" fill="remove" repeatCount="indefinite" calcMode="linear" restart="always" dur="4s" begin="1.3" attributeName="transform" additive="replace" accumulate="none" values="15,5;0,-25;0,25;240,35;" attributeType="HML">
				</animateTransform>
		</path>
		
			<rect x="433.191" y="152.015" transform="matrix(-0.9965 0.0836 -0.0836 -0.9965 894.2034 286.1356)" fill="#FFFFFF" width="15.84" height="19.55">
		
			<animateTransform  type="translate" fill="remove" repeatCount="indefinite" calcMode="linear" restart="always" dur="4s" begin=".8" attributeName="transform" additive="replace" accumulate="none" values="-20,0;20,-15;0,15;300,15;" attributeType="HML">
			</animateTransform>
		</rect>
		
			<rect x="433.939" y="153.335" transform="matrix(-0.9965 0.0835 -0.0835 -0.9965 893.745 282.7629)" fill="#30CCCF" width="14.04" height="13.473">
		
			<animateTransform  type="translate" fill="remove" repeatCount="indefinite" calcMode="linear" restart="always" dur="4s" begin=".8" attributeName="transform" additive="replace" accumulate="none" values="-20,0;20,-15;0,15;300,15;" attributeType="HML">
			</animateTransform>
		</rect>
		
			<rect x="433.191" y="152.015" transform="matrix(-0.9965 0.0836 -0.0836 -0.9965 894.2034 286.1356)" fill="#FFFFFF" width="15.84" height="19.55">
		
			<animateTransform  type="translate" fill="remove" repeatCount="indefinite" calcMode="linear" restart="always" dur="4.5s" begin=".9" attributeName="transform" additive="replace" accumulate="none" values="-50,0;0,-15;30,15; 300,25;" attributeType="HML">
			</animateTransform>
		</rect>
		
			<rect x="433.939" y="153.335" transform="matrix(-0.9965 0.0835 -0.0835 -0.9965 893.745 282.7629)" fill="#30CCCF" width="14.04" height="13.473">
		
			<animateTransform  type="translate" fill="remove" repeatCount="indefinite" calcMode="linear" restart="always" dur="4.5s" begin=".9" attributeName="transform" additive="replace" accumulate="none" values="-50,0;0,-15;30,15; 300,25;" attributeType="HML">
			</animateTransform>
		</rect>
		
			<rect x="433.191" y="152.015" transform="matrix(-0.9965 0.0836 -0.0836 -0.9965 894.2034 286.1356)" fill="#FFFFFF" width="15.84" height="19.55">
		
			<animateTransform  type="translate" fill="remove" repeatCount="indefinite" calcMode="linear" restart="always" dur="4.5s" begin=".7" attributeName="transform" additive="replace" accumulate="none" values="40,0;10,-20;0,15; 300,19;" attributeType="HML">
			</animateTransform>
		</rect>
		
			<rect x="433.939" y="153.335" transform="matrix(-0.9965 0.0835 -0.0835 -0.9965 893.745 282.7629)" fill="#30CCCF" width="14.04" height="13.473">
		
			<animateTransform  type="translate" fill="remove" repeatCount="indefinite" calcMode="linear" restart="always" dur="4.5s" begin=".7" attributeName="transform" additive="replace" accumulate="none" values="40,0;10,-20;0,15; 300,19;" attributeType="HML">
			</animateTransform>
		</rect>
		
			<rect x="427.956" y="168.354" transform="matrix(-0.9617 0.2741 -0.2741 -0.9617 887.2879 220.4645)" fill="#30CCCF" width="0.565" height="7.757"/>
		
			<rect x="443.721" y="163.877" transform="matrix(-0.9618 0.2737 -0.2737 -0.9618 916.9671 207.5844)" fill="#30CCCF" width="0.566" height="7.757"/>
		<path fill="#FFFFFF" d="M459.969,172.524c-0.171-0.072-0.358-0.121-0.512-0.221c-4.872-3.18-9.733-6.381-14.62-9.54
			c-1.181-0.761-1.745-1.824-1.85-3.155c-0.122-1.539,0.249-2.951,1.403-4.044c1.235-1.169,2.892-0.984,3.79,0.458
			c1.002,1.605,0.988,3.274,0.067,4.927c-0.169,0.305-0.357,0.602-0.554,0.891c-0.162,0.239-0.171,0.411,0.102,0.588
			c2.534,1.645,5.062,3.299,7.591,4.953c0.253,0.166,0.384,0.128,0.486-0.169c1.087-3.165,2.18-6.33,3.279-9.491
			c0.129-0.369-0.09-0.512-0.345-0.677c-2.876-1.875-5.729-3.788-8.634-5.621c-1.731-1.09-2.222-2.654-1.973-4.541
			c0.084-0.632,0.359-1.239,0.544-1.858c0.122-0.186,0.244-0.373,0.366-0.561c0.104-0.091,0.217-0.177,0.314-0.276
			c1.206-1.232,2.926-1.106,3.873,0.333c0.29,0.439,0.495,0.962,0.631,1.478c0.414,1.581-0.099,2.981-0.993,4.26
			c-0.289,0.415-0.206,0.59,0.188,0.846c3.722,2.411,7.43,4.848,11.153,7.257c0.406,0.262,0.467,0.509,0.313,0.938
			c-1.104,3.14-2.196,6.285-3.283,9.432c-0.406,1.181-0.788,2.37-1.183,3.556C460.073,172.364,460.021,172.446,459.969,172.524
			L459.969,172.524z		">
<animateTransform  type="translate" fill="remove" repeatCount="indefinite" calcMode="linear" restart="always" dur="4s" begin=".8" attributeName="transform" additive="replace" accumulate="none" values="0,0;0,-15;0,15;300,15;" attributeType="HML">
				</animateTransform>
		</path>
		<polygon fill="#30CCCF" points="535.758,234.119 431.394,234.119 424.138,165.435 540.769,165.435 		"/>
		<polygon fill="none" stroke="#FFFFFF" stroke-miterlimit="10" points="535.758,234.119 431.394,234.119 424.138,165.435 
			540.769,165.435 		"/>
		<path fill="#FFFFFF" d="M505.41,200.679l-3.611-2.345l-1.723-12.267l-4.252,0.611l-9.362-8.14l-2.774,3.251h-12.439v4.116
			l-8.102,5.064l2.276,3.646l-3.679,12.041l4.287,1.311l4.933,11.074l3.935-1.752l11.227,5.238l1.82-3.906l11.906-3.414
			l-1.187-4.138L505.41,200.679z M483.575,212.202c-6.443,0-11.667-5.224-11.667-11.671c0-6.446,5.224-11.67,11.667-11.67
			c6.445,0,11.672,5.224,11.672,11.67S490.021,212.202,483.575,212.202L483.575,212.202z"/>
		<polygon fill="#FFFFFF" points="480.036,194.921 489.752,200.534 480.036,206.143 		"/>
	</g>
	<g>
		<g>
			<path fill="none" stroke="#FFFFFF" stroke-width="2" stroke-miterlimit="10" stroke-dasharray="10.669,10.669" d="
				M477.795,265.917"/>
			<path fill="none" stroke="#FFFFFF" stroke-width="2" stroke-miterlimit="10" stroke-dasharray="10.669,10.669" d="
				M438.439,343.851"/>
			<path fill="none" stroke="#FFFFFF" stroke-width="2" stroke-miterlimit="10" stroke-dasharray="10.669,10.669" d="
				M524.886,343.851"/>
		</g>
	</g>
	<g>
		
		<rect x="123.993" y="124.433" fill="none" width="195.601" height="38.526"/>
	
		<rect x="110.806" y="240.779" fill="none" width="221.974" height="115.694"/>
	
	</g>
	<g>
		<path fill="#FFFFFF" d="M738.147,172.644c-18.077,0-33.871,9.723-42.462,24.225c8.591,14.5,24.385,24.225,42.462,24.225
			c18.076,0,33.871-9.724,42.464-24.225C772.019,182.367,756.224,172.644,738.147,172.644L738.147,172.644z M738.397,218.399
			c-11.356,0-20.561-9.205-20.561-20.559c0-11.356,9.205-20.562,20.561-20.562c11.353,0,20.559,9.205,20.559,20.562
			C758.957,209.194,749.75,218.399,738.397,218.399L738.397,218.399z"/>
		<path fill="#FFFFFF" d="M749.521,196.867c0,6.144-4.981,11.126-11.124,11.126c-6.147,0-11.123-4.982-11.123-11.126
			c0-6.142,4.976-11.123,11.123-11.123C744.539,185.744,749.521,190.725,749.521,196.867L749.521,196.867z"/>
	</g>

</g>



<rect x="373.599" y="99.097" fill="none" width="283.41" height="67.697"/>

<path fill="none" d="z"/>
</svg>
