<?xml version="1.0" encoding="utf-8"?>
<!-- Generator: Adobe Illustrator 18.0.0, SVG Export Plug-In . SVG Version: 6.00 Build 0)  -->
<!DOCTYPE svg PUBLIC "-//W3C//DTD SVG 1.1//EN" "http://www.w3.org/Graphics/SVG/1.1/DTD/svg11.dtd">
<svg version="1.1" id="Layer_1" xmlns="http://www.w3.org/2000/svg" xmlns:xlink="http://www.w3.org/1999/xlink" x="0px" y="0px"
	 viewBox="0 0 612 792" enable-background="new 0 0 612 792" xml:space="preserve">
<g>
	<path fill="#3F474F" d="M386.2,149.3l-150.6-0.8c-55.8,1.6-76.4,46.5-76.4,62.2v2.2v9.4v210.4c0,13.7,11.2,24.7,24.8,24.7
		c13.8,0,24.9-11,24.9-24.7V250.6H230v174.5c0,2.4,0.3,4.7,0.5,6.9v311.6c0,20.1,15.6,36.2,34.7,36.2s34.6-16.1,34.6-36.2V468.7H317
		v274.9c0,20.1,15.5,36.2,34.6,36.2c19.1,0,34.5-16.1,34.5-36.2V425.1v-2V250.6h18.8v182.1c0,13.7,11.9,24.7,26.6,24.7
		c14.8,0,26.7-11,26.7-24.7V222.3v-9.4v-5.1C458.3,188.7,433.4,149.3,386.2,149.3z"/>
	<path fill="#3F474F" d="M308.7,137.6c33,0,59.9-26.7,59.9-59.7c0-33-26.9-59.7-59.9-59.7c-33,0-59.7,26.6-59.7,59.7
		C249,110.9,275.7,137.6,308.7,137.6z"/>
</g>
</svg>
