<?xml version="1.0" encoding="utf-8"?>
<!-- Generator: Adobe Illustrator 18.0.0, SVG Export Plug-In . SVG Version: 6.00 Build 0)  -->
<!DOCTYPE svg PUBLIC "-//W3C//DTD SVG 1.1//EN" "http://www.w3.org/Graphics/SVG/1.1/DTD/svg11.dtd">
<svg version="1.1" id="Layer_1" xmlns="http://www.w3.org/2000/svg" xmlns:xlink="http://www.w3.org/1999/xlink" x="0px" y="0px"
	 viewBox="0 0 612 792" enable-background="new 0 0 612 792" xml:space="preserve">
<path fill="#3F474F" d="M306.1,201.2c29.8,0,54-24.1,54-53.9c0-29.8-24.3-53.9-54-53.9c-29.8,0-53.9,24.1-53.9,53.9
	C252.2,177.1,276.3,201.2,306.1,201.2z"/>
<path fill="#3F474F" d="M417,24.5c-13.3,0-24.1,9.9-24.1,22.3v164.4h-15.1v0.6c-0.6,0-1.2-0.1-1.8-0.1L240.1,211
	c-2,0.1-3.8,0.3-5.7,0.4v-0.2H216V46.8c0-12.4-10.1-22.3-22.5-22.3c-12.3,0-22.4,9.9-22.4,22.3v190v8.5v2
	c0,13.6,17.2,51.5,63.2,55.7v0.2h0.7v157.6c0,2.2,0.3,4.2,0.5,6.2v281.3c0,18.2,14.1,32.7,31.3,32.7s31.2-14.6,31.2-32.7V500.1h15.5
	v248.2c0,18.2,14,32.7,31.3,32.7c17.2,0,31.2-14.6,31.2-32.7V460.8V459V303.2h1.8v-0.6c41.4-1,63.3-35.8,63.3-52.7v-4.6v-8.5v-190
	C441.1,34.4,430.3,24.5,417,24.5z"/>
</svg>
