<?xml version="1.0" encoding="utf-8"?>
<!-- Generator: Adobe Illustrator 18.0.0, SVG Export Plug-In . SVG Version: 6.00 Build 0)  -->
<!DOCTYPE svg PUBLIC "-//W3C//DTD SVG 1.1//EN" "http://www.w3.org/Graphics/SVG/1.1/DTD/svg11.dtd">
<svg version="1.1" xmlns="http://www.w3.org/2000/svg" xmlns:xlink="http://www.w3.org/1999/xlink" x="0px" y="0px"
	 viewBox="0 0 79.7 80" enable-background="new 0 0 79.7 80" xml:space="preserve">
<g id="BG" display="none">
	<rect x="-647.6" y="-51.1" display="inline" fill="#3F474F" width="1008" height="612"/>
</g>
<g id="Icons" display="none">
</g>
<g id="gear_1_">
	<path id="gear" fill="#3F474F" d="M77.8,29.4h-6.9c-0.3-1-0.7-1.9-1.2-2.9l5.2-5.2c0.7-0.7,0.7-2,0-2.7L63.4,6.9
		c-0.7-0.7-2-0.7-2.7,0L56,11.6c-1.4-0.8-2.9-1.5-4.5-2.1V1.9c0-1.1-0.9-1.9-1.9-1.9H33.1c-1.1,0-1.9,0.9-1.9,1.9v6.5
		c-2.3,0.6-4.4,1.4-6.5,2.5L20,6.2c-0.7-0.7-2-0.7-2.7,0L5.7,17.8c-0.7,0.7-0.7,2,0,2.7l4.7,4.7c-0.8,1.6-1.5,3.2-2.1,4.9H1.9
		C0.9,30.1,0,31,0,32v16.5c0,1.1,0.9,1.9,1.9,1.9h6.3c0.7,2.2,1.6,4.3,2.7,6.3l-4.1,4.1c-0.7,0.7-0.7,2,0,2.7l11.7,11.7
		c0.7,0.7,2,0.7,2.7,0l4.7-4.7c1.7,0.8,3.5,1.4,5.3,1.9v5.7c0,1.1,0.9,1.9,1.9,1.9h16.5c1.1,0,1.9-0.9,1.9-1.9v-6.8
		c1.4-0.5,2.7-1.1,4-1.9l4.3,4.3c0.7,0.7,2,0.7,2.7,0l11.7-11.7c0.7-0.7,0.7-2,0-2.7l-4.6-4.6c0.8-1.6,1.4-3.3,1.9-5h6.3
		c1.1,0,1.9-0.9,1.9-1.9V31.3C79.7,30.3,78.8,29.4,77.8,29.4z M39.9,56.8c-9.3,0-16.8-7.5-16.8-16.8c0-9.3,7.5-16.8,16.8-16.8
		c9.3,0,16.8,7.5,16.8,16.8C56.6,49.3,49.1,56.8,39.9,56.8z"/>
</g>
<g id="map-marker">
</g>
<g id="info">
</g>
<g id="search">
</g>
<g id="wevue-icon">
</g>
<g id="calendar_1_">
</g>
<g id="user_1_">
</g>
<g id="email_1_">
</g>
<g id="zig-arrow">
</g>
<g id="down-arrow">
</g>
<g id="edit-pencil">
</g>
<g id="lock_1_">
</g>
<g id="eyeball_1_">
</g>
<g id="star_1_">
</g>
<g id="ribbon_1_">
</g>
<g id="quote-bubble">
</g>
<g id="star-outline">
</g>
<g id="share">
</g>
<g id="crop">
</g>
<g id="next-arrow">
</g>
<g id="back-arrow">
</g>
<g id="T_1_">
</g>
<g id="musicnote">
</g>
<g id="trash_1_">
</g>
<g id="photos_1_">
</g>
<g id="plussign">
</g>
<g id="checkmark_1_">
</g>
<g id="small-plussign">
</g>
<g id="menu-bars">
</g>
<g id="phone-dark">
</g>
<g id="refresh_1_">
</g>
<g id="film_1_">
</g>
<g id="photo">
</g>
<g id="folder-stuffed">
</g>
<g id="globe_1_">
</g>
<g id="phone_1_">
</g>
<g id="folder-open-dark">
</g>
<g id="folder-open">
</g>
<g id="folder-light-front">
</g>
<g id="folder-light-back">
</g>
<g id="folder-dark-front">
</g>
<g id="folder-dark-back">
</g>
</svg>
