<?xml version="1.0" encoding="utf-8"?>
<!-- Generator: Adobe Illustrator 18.0.0, SVG Export Plug-In . SVG Version: 6.00 Build 0)  -->
<!DOCTYPE svg PUBLIC "-//W3C//DTD SVG 1.1//EN" "http://www.w3.org/Graphics/SVG/1.1/DTD/svg11.dtd">
<svg version="1.1" xmlns="http://www.w3.org/2000/svg" xmlns:xlink="http://www.w3.org/1999/xlink" x="0px" y="0px"
	 viewBox="0 0 187 399" enable-background="new 0 0 187 399" xml:space="preserve">
<g id="Layer_1">
	<path fill-rule="evenodd" clip-rule="evenodd" fill="#3F474F" d="M21,1c36,0,110-0.7,146,0c12.8,0.3,20.1,9.8,20,20
		c-0.1,13.9,0,54.5,0,76c0,71.3,0,142.7,0,214c0,30.9,0.3,53.5,0,68c-0.3,10.9-10,19.1-24,19c-21.4-0.1-122,0.1-145,0
		c-8,0-17.2-8.5-17-19c0.2-11-0.1-31.5,0-51c0-50.3,0-100.7,0-151c0-36.7,0-73.3,0-110c0-13.1-0.1-35.2,0-46C1.1,10.6,8.1,1.3,21,1z
		"/>
	<path fill-rule="evenodd" clip-rule="evenodd" fill="#FFFFFF" d="M175,341c0-92.3,0-184.7,0-277c-54.3,0-108.7,0-163,0
		c0,92,0,184,0,276C64.7,339.7,137.7,341,175,341z"/>
	<path fill-rule="evenodd" clip-rule="evenodd" fill="#FFFFFF" d="M76,37h35c0,0,3-0.5,3,2c0,2.5-2,2-2,2H77c0,0-2.6-0.3-3-2
		C73.6,37.3,76,37,76,37z"/>
	<circle fill-rule="evenodd" clip-rule="evenodd" fill="#FFFFFF" cx="94.5" cy="23.5" r="3.5"/>
	<circle fill-rule="evenodd" clip-rule="evenodd" fill="#FFFFFF" cx="94.1" cy="371.8" r="15.8"/>
</g>
<g id="Layer_2">
</g>
</svg>
