
<!DOCTYPE svg PUBLIC "-//W3C//DTD SVG 1.1//EN" "http://www.w3.org/Graphics/SVG/1.1/DTD/svg11.dtd">
<svg version="1.1" id="Layer_1" xmlns="http://www.w3.org/2000/svg" xmlns:xlink="http://www.w3.org/1999/xlink" x="0px" y="0px"
	 viewBox="0 0 1038.77 766.689" style="enable-background:new 0 0 1038.77 766.689; background-color: black;"
	 xml:space="preserve">
<style type="text/css">

	.st0{fill:none;stroke:#FFFFFF;stroke-width:2;stroke-miterlimit:10;}
	.st1{fill:none;stroke:#FFFFFF;stroke-width:2;stroke-miterlimit:10;stroke-dasharray:10.669,10.669;}
	.st2{fill:none;stroke:#FFFFFF;stroke-miterlimit:10;}
	.st3{fill:#FFFFFF;stroke:#FFFFFF;stroke-width:2;stroke-miterlimit:10;}
	.st4{fill:#FFFFFF;}
	.st5{fill:none;}
	.st6{fill-rule:evenodd;clip-rule:evenodd;fill:#FFFFFF;}
	.st7{font-size:21px;}
	.st8{font-size:72px;}
	.st9{fill:#3F474F;}
	.st10{font-family:'Avenir-Heavy';}
	.st11 {font-size:27px;}
	

</style>

<g>
	<path class="st6" d="M0.065,43.062c0-13.5,0.063-27-0.064-40.5C-0.02,0.412,0.418-0.004,2.565,0c38.333,0.084,76.666,0.084,115,0
		c2.146-0.004,2.566,0.415,2.562,2.562c-0.085,38.333-0.085,76.666,0,115c0.005,2.146-0.415,2.566-2.562,2.562
		c-38.334-0.085-76.667-0.124-115,0.056c-3.118,0.014-2.494-1.463-2.494-3.117c-0.009-24-0.006-48-0.006-72
		c1.559-0.728,2.892,0.109,4.255,0.641c6.47,2.528,13.026,4.827,19.492,7.366c5.359,2.104,6.549,4.163,5.979,10.323
		c-1.164,2.33-3.651,2.688-5.642,3.8c-3.468,1.938-3.658,4.022-0.454,6.362c2.986,2.182,6.481,3.344,9.992,4.365
		c12.17,3.54,24.619,5.137,37.264,5.866c8.287,0.478,16.505,1.102,24.777-0.075c1.978-0.281,3.938-0.426,5.768-1.273
		c4.432-0.833,8.504,1.225,12.789,1.604c0.938,0.083,2.041,0.815,2.77-0.233c0.824-1.189,0.018-2.188-0.733-3.107
		c-0.317-0.387-0.664-0.748-1.019-1.1C100.312,64.657,85.367,49.67,70.409,34.695c-2.15-2.153-4.521-2.656-7.28-2.058
		c-3.744,0.812-7.511,1.504-11.259,2.296c-3.212,0.679-5.936,1.579-7.048,5.315c-0.869,2.916-3.521,3.06-5.733,1.617
		c-5.221-3.404-10.66-2.659-16.365-1.827C15.187,41.138,7.651,42.308,0.065,43.062z"/>
	<path class="st2" d="M29.135,62.974c0.072-4.603-1.533-7.431-6.447-9.066c-7.662-2.548-15.44-4.993-22.623-8.846
		c0-0.667,0-1.333,0-2c3.616-3.053,8.221-2.024,12.352-2.904c3.722-0.793,7.607-0.8,11.346-1.536
		c5.693-1.12,11.131-1.474,16.097,2.34c2.343,1.8,4.046,1.332,4.238-1.875c0.201-3.371,2.6-3.993,5.222-5.03
		c12.836-5.082,22.324-2.03,31.417,8.876c10.823,12.983,23.716,24.241,35.686,36.272c1.469,1.477,3.775,2.901,2.321,5.408
		c-1.34,2.311-3.554,0.883-5.427,0.557c-3.756-0.65-7.509-1.322-11.262-1.986c-5.606,1.057-10.757-1.301-16.112-2.142
		c-16.217-3.159-32.296-6.995-48.604-9.692C30.315,69.704,29.342,68.709,29.135,62.974z"/>
	<path class="st4" d="M29.135,62.974c0.864,4.359,3.354,6.877,7.945,7.014c3.583,4.101,8.414,5.705,13.494,6.997
		c11.702,2.976,23.667,2.581,35.569,3.034c5.396,0.592,10.695,1.668,15.911,3.164c-7.694,2.996-15.798,3.664-23.778,2.562
		c-6.917-0.953-13.855-0.431-20.766-1.562c-11.125-1.82-22.271-3.31-32.59-8.202c-2.542-1.205-5.632-2.436-5.587-5.678
		c0.048-3.399,3.374-4.163,5.993-5.152C26.731,64.62,28.192,64.275,29.135,62.974z"/>
	<path class="st3" d="M108.084,80.227c-2.674-0.722-5.348-1.442-8.02-2.163c-4.856-0.396-9.363-2.146-13.856-3.801
		c-16.214-5.967-32.667-11.25-48.879-17.218c-1.224-0.394-2.296-1.069-3.324-1.824c-9.04-4.574-18.976-6.807-28.347-11.471
		c6.46-0.883,12.997-1.409,19.36-2.753c6.16-1.3,11.391,0.11,16.345,3.557c2.798,1.946,4.562,1.658,4.796-2.151
		c0.271-4.426,3.219-5.214,6.997-6.623c10.292-3.837,16.947-0.279,23.89,7.416c11.015,12.208,23.211,23.35,34.907,34.942
		c-0.591,2.816-2.034,1.059-3.235,0.609C90.222,67.56,72.639,54.975,54.516,43.211c-1.272-0.826-2.861-2.576-4.249-0.44
		c-1.357,2.086-0.916,4.303,1.38,5.56c3.94,2.156,7.763,4.517,11.771,6.552c13.925,7.073,28.129,13.608,41.61,21.532
		C106.422,77.234,108.745,77.627,108.084,80.227z"/>
	<path class="st8" d="M108.084,80.227c-3.578-4.178-8.831-5.737-13.416-8.202c-14.193-7.629-28.631-14.808-43-22.106
		c-2.212-1.124-3.982-2.249-3.603-5.206c0.669-5.217,2.019-5.914,6.434-2.949c15.414,10.353,30.83,20.701,46.191,31.13
		c2.723,1.85,6.12,2.572,8.375,5.154c0.513,0.971,1.605,1.752,1.01,3.086C109.301,81.073,108.51,81.052,108.084,80.227z"/>
	<path class="st7" d="M37.213,55.931c15.375,5.3,30.785,10.503,46.108,15.949c5.602,1.991,11.455,3.335,16.744,6.184
		c-4.172,2.121-7.992-0.497-11.873-1.132c-7.441-1.216-14.928-2.446-22.125-4.862c-7.114-3.318-14.707-5.111-22.273-6.979
		c-4.012-0.991-6.952-3.13-7.887-7.36C35.71,56.842,35.517,55.607,37.213,55.931z"/>
	<path class="st1" d="M86.143,80.019c-15.16,2.709-29.89,0.633-44.294-4.26c-2.453-0.834-4.675-2.615-4.769-5.771
		c11.405,1.18,22.391,4.524,33.633,6.565C75.887,77.492,81.188,78.038,86.143,80.019z"/>
	<path class="st0" d="M37.213,55.931c-0.542,4.369,1.941,6.486,5.715,7.551c5.517,1.558,11.084,2.942,16.567,4.612
		c2.462,0.749,5.1,1.469,6.572,3.975c-10.475-0.982-20.648-3.588-30.794-6.135c-3.612-0.907-3.541-4.587-2.328-7.592
		c0.417-1.033,1.138-1.92,1.062-3.122C35.182,54.974,36.311,54.941,37.213,55.931z"/>
	<path class="st5" d="M110.075,81.134c-0.336-1.028-0.673-2.057-1.01-3.086c0.96,0.152,1.874,1.779,2.891,0.09
		c1.917,0.992,3.352,2.459,4.574,4.586C113.929,83.258,111.961,82.378,110.075,81.134z"/>
</g>
<rect x="261.327" y="26.479" class="st5" width="531.844" height="138"/>
<text transform="matrix(1 0 0 1 305.3486 80.9121)" class="st4 st10 st8 how-h2">How it works</text>
<g>
	<g>



		<polygon class="st9" points="524.645,235.329 513.565,222.768 463.769,222.768 463.769,235.329 463.769,333.562 600.196,333.562 
			600.196,235.329 		"/>
		<polygon class="st2" points="524.645,235.329 513.565,222.768 463.769,222.768 463.769,235.329 463.769,333.562 600.196,333.562 
			600.196,235.329 		"/>
		

<!-- this is the user in the folder-->


		<path class="st4" d="M512.014,241.198l-8.795,1.993l16.165,3.199l16.168,3.202l-7.373-5.193l-3.134-2.207l0.28-1.401
			c3.688-1.823,6.852-6.3,7.975-11.965c1.607-8.122,1.712-14.458-7.248-16.107c-8.729-1.605-11.23,4.01-12.838,12.131
			c-1.12,5.664,0.098,11.008,2.814,14.101l-0.277,1.401L512.014,241.198z">

<animateTransform attributeName="transform" begin=".1" attributeType="HML" type="translate" dur="4.5s" values="25,360;0,-25;0,25;310,35;" repeatCount="indefinite"/>


		</path>
		<path class="st4" d="M517.978,253.57c8.688,1.721,16.386-0.061,17.568-3.973l-32.301-6.396
			C502.847,247.269,509.287,251.85,517.978,253.57">
			<animateTransform attributeName="transform" begin=".1" attributeType="HML" type="translate" dur="4.5s" values="25,360;0,-25;0,25;310,35;" repeatCount="indefinite"/>
		</path>
	

<!-- this is the EYE in the folder-->
        <path class="st4" d="M588.331,227.189c-9.768-1.058-18.874,3.272-24.364,10.607c3.794,8.338,11.762,14.519,21.529,15.575
            c9.77,1.06,18.873-3.271,24.366-10.605C606.067,234.427,598.101,228.248,588.331,227.189 M585.788,251.932
            c-6.137-0.665-10.57-6.179-9.908-12.315c0.664-6.134,6.179-10.571,12.314-9.905c6.137,0.663,10.574,6.177,9.908,12.312
            C597.438,248.159,591.924,252.597,585.788,251.932">
    <animateTransform attributeName="transform" begin="1" attributeType="HML" type="translate" dur="4.7s" values="-15,350;0,-55;-20,25;270,35;" repeatCount="indefinite"/>

        </path>
        <path class="st4" d="M593.004,241.473c-0.359,3.318-3.344,5.72-6.663,5.36c-3.319-0.36-5.721-3.343-5.36-6.664
            c0.359-3.319,3.342-5.719,6.663-5.359C590.964,235.169,593.362,238.152,593.004,241.473">
        

        <animateTransform attributeName="transform" begin="1" attributeType="HML" type="translate" dur="4.7s" values="-15,350;0,-55;-20,25;270,35;" repeatCount="indefinite"/>
        </path>



	
		<path class="st4" d="M593.004,241.473c-0.359,3.318-3.344,5.72-6.663,5.36c-3.319-0.36-5.721-3.343-5.36-6.664
			c0.359-3.319,3.342-5.719,6.663-5.359C590.964,235.169,593.362,238.152,593.004,241.473">
		

		<animateTransform attributeName="transform" begin="1" attributeType="HML" type="translate" dur="6.6s" values="
				 -510,-40;
			 -510,-40;
			 -510,-40;
			 -510,90;
			  -510,70;
			-510,90;
		     -510,90;
			 -270,90;
			  -260,115;
			   
			 -270,190;

		     -260,360;  
		      -210, 350;  
		     -160, 360;  
		      -105, 350;
		     -30, 360; 
		     	40, 350;   
		     120,360; 



		     -60,35;
		     -60,35;
		     -60,35;
		     280,110;
		     280,90;
		     280,110;
		     280,110;
		     -10,-70;
		     -200,-60;
		     -510,-40;"  repeatCount="indefinite"/>
		</path>


<!-- this is the FILM in the folder-->

			
		<path class="st4" d="M575.29,241.527c0.982,6.719,1.957,13.439,2.952,20.157c0.179,1.212,0.199,2.396-0.51,3.252
			c-0.421,0.502-1.025,0.955-1.603,1.043c-8.922,1.354-17.851,2.649-26.777,3.945c-1.431,0.207-2.64-0.878-3.149-2.763
			c-0.06-0.218-0.092-0.442-0.127-0.667c-1.981-13.566-3.969-27.132-5.944-40.699c-0.368-2.54,0.587-4.082,2.651-4.384
			c8.564-1.252,17.127-2.503,25.692-3.757c2.229-0.324,3.436,0.792,3.848,3.581C573.315,227.998,574.3,234.764,575.29,241.527
			 M548.918,243.994c6.785-0.991,13.479-1.971,20.215-2.954c-0.971-6.639-1.93-13.196-2.891-19.782
			c-6.772,0.989-13.49,1.972-20.216,2.954C546.993,230.839,547.948,237.371,548.918,243.994 M552.195,266.438
			c6.796-0.994,13.472-1.969,20.229-2.957c-0.972-6.642-1.936-13.224-2.898-19.824c-6.783,0.991-13.483,1.971-20.228,2.957
			C550.269,253.24,551.227,259.799,552.195,266.438 M573.482,249.203c-0.212,0.03-0.422,0.074-0.634,0.089
			c-0.738,0.061-1.008,0.628-0.897,1.438c0.114,0.819,0.615,1.097,1.245,1.019c0.212-0.028,0.423-0.068,0.635-0.094
			c1.28-0.153,1.742-0.584,1.531-1.538C575.063,248.76,574.227,249.092,573.482,249.203 M545.764,241.815
			c-0.402,0.058-0.751-0.017-0.927,0.16c-0.299,0.305-0.724,0.806-0.668,1.149c0.071,0.444,0.522,0.908,0.892,1.188
			c0.212,0.161,0.59-0.021,0.89-0.063c1.314-0.189,1.769-0.599,1.562-1.506C547.206,241.398,546.382,241.708,545.764,241.815
			 M574.265,254.86c-0.062,0.009-0.122,0.02-0.181,0.025c-1.008,0.125-1.433,0.583-1.319,1.417c0.119,0.854,0.614,1.15,1.671,1.001
			c0.058-0.01,0.119-0.019,0.179-0.026c1.304-0.19,1.73-0.585,1.593-1.478C576.069,254.929,575.501,254.657,574.265,254.86
			 M571.072,232.175c-0.332,0.05-0.755-0.039-0.972,0.178c-0.298,0.302-0.646,0.858-0.59,1.255c0.055,0.401,0.562,0.994,0.896,1.048
			c0.623,0.101,1.312-0.002,1.876-0.28c0.302-0.149,0.61-0.879,0.542-1.276c-0.069-0.394-0.578-0.777-0.949-1.015
			C571.669,231.954,571.345,232.134,571.072,232.175 M543.577,227.204c0,0.002,0,0.005,0,0.008c0.183-0.025,0.361-0.06,0.544-0.078
			c0.662-0.066,1.006-0.538,0.907-1.325c-0.104-0.847-0.582-1.219-1.279-1.102c-0.48,0.078-0.972,0.107-1.441,0.232
			c-0.552,0.146-0.781,0.616-0.667,1.327c0.11,0.702,0.454,1.079,1.031,1.062C542.976,227.323,543.276,227.249,543.577,227.204
			 M546.75,249.902c0.239-0.035,0.479-0.079,0.724-0.104c0.678-0.069,0.968-0.58,0.868-1.353c-0.098-0.726-0.515-1.128-1.132-1.069
			c-0.486,0.048-0.972,0.112-1.446,0.209c-0.637,0.129-0.945,0.586-0.798,1.416c0.137,0.771,0.538,1.079,1.151,0.993
			C546.327,249.965,546.539,249.933,546.75,249.902 M548.973,264.49c-0.212,0.031-0.423,0.061-0.634,0.093
			c-0.687,0.1-1.035,0.533-0.888,1.427c0.144,0.85,0.613,1.093,1.245,1.002c0.299-0.044,0.599-0.107,0.902-0.127
			c0.749-0.05,1.385-0.335,1.224-1.425c-0.158-1.089-0.85-1.185-1.577-1.013C549.154,264.471,549.062,264.477,548.973,264.49
			 M572.194,240.23c1.283-0.187,1.658-0.54,1.523-1.435c-0.131-0.884-0.647-1.156-1.877-0.965c-0.738,0.114-1.64,0.04-1.558,1.418
			C570.339,240.181,570.859,240.427,572.194,240.23 M544.281,232.859c0.271-0.039,0.617,0.035,0.796-0.142
			c0.318-0.325,0.733-0.767,0.754-1.212c0.037-0.691-0.411-1.172-1.042-1.124c-0.544,0.043-1.091,0.118-1.62,0.239
			c-0.607,0.142-0.83,0.646-0.684,1.397c0.135,0.702,0.49,1.032,1.075,0.947C543.801,232.932,544.041,232.896,544.281,232.859
			 M548.109,258.853c-0.212,0.03-0.423,0.068-0.634,0.091c-0.608,0.058-0.939,0.434-0.876,1.216c0.068,0.822,0.457,1.217,1.125,1.18
			c0.24-0.013,0.48-0.059,0.72-0.094c1.32-0.192,1.761-0.592,1.55-1.503C549.677,258.382,548.844,258.77,548.109,258.853
			 M547.315,255.68c0.535-0.12,0.836-0.171,1.129-0.256c0.724-0.212,1.059-1.104,0.542-1.743c-0.325-0.397-1.009-0.635-1.455-0.541
			c-0.62,0.129-1.562-0.164-1.729,0.958c-0.062,0.416,0.151,1.144,0.429,1.372C546.565,255.748,547.098,255.648,547.315,255.68
			 M569.64,223.215c0.24-0.035,0.48-0.078,0.723-0.104c0.679-0.069,0.975-0.561,0.853-1.35c-0.112-0.741-0.527-1.09-1.155-0.981
			c-0.478,0.082-0.961,0.149-1.445,0.211c-0.625,0.082-0.921,0.522-0.812,1.279c0.115,0.801,0.538,1.169,1.206,1.039
			C569.215,223.267,569.429,223.246,569.64,223.215 M575.481,262.908c0.117-0.018,0.236-0.045,0.357-0.051
			c0.711-0.04,1.321-0.287,1.183-1.341c-0.146-1.13-0.85-1.155-1.564-1.024c-0.09,0.016-0.181,0.027-0.271,0.04
			c-1.344,0.194-1.766,0.568-1.576,1.478C573.902,263.417,574.752,262.977,575.481,262.908 M570.162,226.541
			c-0.09,0.015-0.179,0.033-0.27,0.04c-0.713,0.055-1.412,0.196-1.256,1.354c0.152,1.155,0.861,1.132,1.567,1
			c0.09-0.018,0.18-0.028,0.272-0.039c1.343-0.195,1.772-0.573,1.57-1.475C571.734,226.042,570.894,226.459,570.162,226.541
			 M572.67,243.569c-0.27,0.039-0.542,0.08-0.812,0.118c-0.604,0.084-0.827,0.562-0.742,1.242c0.093,0.735,0.457,1.152,1.101,1.066
			c0.27-0.037,0.54-0.076,0.813-0.113c1.293-0.191,1.691-0.537,1.509-1.423C574.246,243.051,573.397,243.492,572.67,243.569
			 M544.86,236.191c-0.272,0.039-0.545,0.081-0.815,0.119c-0.598,0.082-0.84,0.51-0.755,1.227c0.092,0.768,0.451,1.156,1.087,1.095
			c0.274-0.026,0.547-0.071,0.818-0.112c1.274-0.186,1.694-0.574,1.483-1.466C546.376,235.755,545.578,236.078,544.86,236.191">
			<animateTransform attributeName="transform" begin="1.3" attributeType="HML" type="translate" dur="4s" values="15,350;0,-25;0,25;290,35;" repeatCount="indefinite"/>
		</path>
		



<!-- this is the photo in the folder-->


			<rect x="466.117" y="226.604" transform="matrix(0.9965 -0.0836 0.0836 0.9965 -18.3482 40.6805)" class="st4" width="20.706" height="25.556">

				<animateTransform attributeName="transform" begin="1.6" attributeType="HML" type="translate" dur="4s" values="30,300;0,-25;0,25;300,45;" repeatCount="indefinite"/>
			</rect>
		
			<rect x="467.104" y="228.321" transform="matrix(0.9965 -0.0835 0.0835 0.9965 -18.1444 40.6167)" class="st9" width="18.353" height="17.612">

				<animateTransform attributeName="transform" begin="1.6" attributeType="HML" type="translate" dur="4s" values="30,300;0,-25;0,25;300,45;" repeatCount="indefinite"/>
			</rect>

			

<!-- this is the photo in the folder-->

<rect x="466.117" y="226.604" transform="matrix(0.9965 -0.0836 0.0836 0.9965 -18.3482 40.6805)" class="st4" width="20.706" height="25.556">

				<animateTransform attributeName="transform" begin=".3" attributeType="HML" type="translate" dur="4.5s" values="0,350;0,-15;0,15; 330,15;" repeatCount="indefinite"/>

			</rect>
		
			<rect x="467.104" y="228.321" transform="matrix(0.9965 -0.0835 0.0835 0.9965 -18.1444 40.6167)" class="st9" width="18.353" height="17.612">

				<animateTransform attributeName="transform" begin=".3" attributeType="HML" type="translate" dur="4.5s" values="0,350;0,-15;0,15; 330,15;" repeatCount="indefinite"/>

			</rect>
			
<!-- this is the photo in the folder-->

<rect x="466.117" y="226.604" transform="matrix(0.9965 -0.0836 0.0836 0.9965 -18.3482 40.6805)" class="st4" width="20.706" height="25.556">

						
	<animateTransform attributeName="transform" begin="1.5" attributeType="HML" type="translate" dur="3.6s" values="0,350;0,-20;0,20;320,15;" repeatCount="indefinite"/>
			</rect>
		
			<rect x="467.104" y="228.321" transform="matrix(0.9965 -0.0835 0.0835 0.9965 -18.1444 40.6167)" class="st9" width="18.353" height="17.612">

						
	<animateTransform attributeName="transform" begin="1.5" attributeType="HML" type="translate" dur="3.6s" values="0,350;0,-20;0,20;320,15;" repeatCount="indefinite"/>
			</rect>
			

<!-- this is the NOTE in the folder-->



		<path class="st6" d="M501.122,253.415c-0.223-0.094-0.468-0.157-0.668-0.289c-6.37-4.157-12.724-8.341-19.111-12.471
			c-1.544-0.996-2.281-2.384-2.418-4.125c-0.159-2.011,0.326-3.857,1.835-5.286c1.615-1.528,3.78-1.286,4.954,0.6
			c1.31,2.098,1.293,4.279,0.089,6.44c-0.222,0.398-0.467,0.787-0.724,1.165c-0.212,0.312-0.224,0.537,0.132,0.769
			c3.313,2.15,6.618,4.312,9.923,6.475c0.33,0.216,0.502,0.168,0.636-0.221c1.421-4.138,2.85-8.275,4.287-12.407
			c0.168-0.482-0.117-0.669-0.45-0.885c-3.761-2.451-7.49-4.951-11.287-7.348c-2.263-1.426-2.903-3.47-2.579-5.937
			c0.11-0.827,0.47-1.62,0.712-2.43c0.16-0.242,0.32-0.487,0.479-0.731c0.137-0.12,0.282-0.231,0.41-0.361
			c1.576-1.611,3.825-1.446,5.063,0.434c0.38,0.574,0.647,1.259,0.824,1.932c0.542,2.066-0.129,3.897-1.298,5.569
			c-0.378,0.542-0.271,0.771,0.244,1.105c4.866,3.151,9.713,6.338,14.582,9.486c0.53,0.343,0.608,0.666,0.409,1.226
			c-1.443,4.105-2.871,8.216-4.292,12.329c-0.532,1.544-1.031,3.099-1.546,4.648C501.259,253.206,501.19,253.312,501.122,253.415">


			<animateTransform attributeName="transform" begin=".6" attributeType="HML" type="translate" dur="4s" values="0,350;0,-15;0,15;300,15;" repeatCount="indefinite"/>
		</path>


<!-- this is the FOLDER ELEMENTS in the folder-->


		<polygon class="st9" points="600.196,333.934 463.769,333.934 454.282,244.147 606.747,244.147 		"/>
		<polygon class="st2" points="600.196,333.934 463.769,333.934 454.282,244.147 606.747,244.147 		"/>
		<path class="st4" d="M560.525,290.22l-4.723-3.065l-2.251-16.036l-5.559,0.799l-12.239-10.641l-3.626,4.251h-16.262v5.38
			l-10.591,6.62l2.977,4.767l-4.81,15.74l5.604,1.714l6.448,14.476l5.143-2.291l14.676,6.848l2.381-5.106l15.562-4.462l-1.55-5.41
			L560.525,290.22z M531.982,305.283c-8.424,0-15.253-6.829-15.253-15.256c0-8.426,6.829-15.255,15.253-15.255
			c8.425,0,15.257,6.829,15.257,15.255C547.239,298.454,540.407,305.283,531.982,305.283">

<animateTransform attributeName="transform" begin=".2" attributeType="HML" from="0 " to="360 " type="" dur="3s" repeatCount="indefinite"/>
					


		</path>
		<polygon class="st4" points="527.355,282.693 540.056,290.029 527.355,297.362 		"/>
	</g>
	<g>


<!-- LINES TO FOLDER FROM USERS  -->
		

<!--  USERS below the folder-->
		
	
		<g>
			<path class="st4" d="M350.171,720.236v-2.08c-4.757-3.647-8.009-10.935-8.009-19.343c0-12.056,1.988-20.781,14.905-20.957
				c13.269-0.179,14.907,8.901,14.907,20.957c0,8.408-3.252,15.695-8.009,19.343v2.08l5.1,2.268l11.998,5.332h-23.995h-23.993
				l11.996-5.332L350.171,720.236z M357.085,738.475c12.898,0,23.39-4.719,23.974-10.639h-47.945
				C333.697,733.756,344.188,738.475,357.085,738.475">
				<animateTransform attributeName="transform" begin=".2" attributeType="HML" type="translate" dur="3s" values="0,15;0,-15;0,15" repeatCount="indefinite"/>
					

			</path>
			<g>
				<path class="st4" d="M433.299,720.236v-2.079c-4.758-3.647-8.008-10.935-8.008-19.344c0-12.056,1.985-20.78,14.903-20.957
					c13.269-0.179,14.907,8.901,14.907,20.957c0,8.409-3.249,15.696-8.008,19.344v2.079l5.102,2.269l11.997,5.331h-23.996h-23.992
					l11.996-5.331L433.299,720.236z M440.212,738.477c12.899,0,23.392-4.721,23.975-10.641h-47.943
					C416.827,733.756,427.315,738.477,440.212,738.477">
					<animateTransform attributeName="transform" begin=".4" attributeType="HML" type="translate" dur="3s" values="0,15;0,-15;0,15" repeatCount="indefinite"/>
					

			</path>
				<path class="st4" d="M520.842,720.236v-2.079c-4.759-3.647-8.007-10.935-8.007-19.344c0-12.056,1.984-20.78,14.901-20.957
					c13.269-0.179,14.908,8.901,14.908,20.957c0,8.409-3.25,15.696-8.008,19.344v2.079l5.102,2.269l11.997,5.331H527.74h-23.995
					l11.999-5.331L520.842,720.236z M527.756,738.477c12.898,0,23.39-4.721,23.974-10.641h-47.944
					C504.369,733.756,514.858,738.477,527.756,738.477">
					<animateTransform attributeName="transform" begin=".6" attributeType="HML" type="translate" dur="3s" values="0,15;0,-15;0,15" repeatCount="indefinite"/>
					

			</path>
				<path class="st4" d="M608.388,720.236v-2.079c-4.76-3.647-8.01-10.935-8.01-19.344c0-12.056,1.985-20.78,14.902-20.957
					c13.27-0.179,14.908,8.901,14.908,20.957c0,8.409-3.25,15.696-8.009,19.344v2.079l5.103,2.269l11.996,5.331h-23.994h-23.995
					l11.998-5.331L608.388,720.236z M615.299,738.477c12.899,0,23.391-4.721,23.975-10.641h-47.944
					C591.913,733.756,602.403,738.477,615.299,738.477">
					<animateTransform attributeName="transform" begin=".8" attributeType="HML" type="translate" dur="3s" values="0,15;0,-15;0,15" repeatCount="indefinite"/>
					
   </path>
            </g>
            <path class="st4" d="M683.852,720.236v-2.08c-4.759-3.647-8.008-10.935-8.008-19.343c0-12.056,1.984-20.781,14.901-20.957
                c13.27-0.179,14.908,8.901,14.908,20.957c0,8.408-3.25,15.695-8.009,19.343v2.08l5.103,2.268l11.996,5.332h-23.995h-23.994
                l11.997-5.332L683.852,720.236z M690.764,738.475c12.899,0,23.393-4.719,23.976-10.639h-47.945
                C667.378,733.756,677.868,738.475,690.764,738.475">
                <animateTransform attributeName="transform" begin="1" attributeType="HML" type="translate" dur="3s" values="0,15;0,-15;0,15" repeatCount="indefinite"/>
                    

            </path>
        </g>
    </g>
    <g>
        <g>

<!-- ADMIN USER -->
			<path class="st4" d="M171.692,303.18l-18.078,8.032h36.157h36.156l-18.077-8.032l-7.684-3.416v-3.134
				c7.168-5.497,12.066-16.479,12.066-29.149c0-18.167-2.472-31.848-22.465-31.578c-19.467,0.265-22.459,13.411-22.459,31.578
				c0,12.67,4.899,23.652,12.066,29.149v3.134L171.692,303.18z">

	
					

			</path>
			<path class="st4"  d="M189.799,327.264c19.435,0,35.245-7.112,36.125-16.035h-72.251
				C154.554,320.151,170.362,327.264,189.799,327.264">
			
			</path>
		</g>
		<rect x="61.923" y="190.549" class="st5" width="255.695" height="50.363"/>
		<text transform="matrix(1 0 0 1 120.728 210.9824)" class="st4 st10 st11">The Admin</text>
		<rect x="44.685" y="342.641" class="st5" width="290.172" height="151.24"/>
		<text transform="matrix(1 0 0 1 68.2671 358.5166)"><tspan x="0" y="0" class="st4 st10 st7">Submits a request to the </tspan><tspan x="-7.991" y="25.2" class="st4 st10 st7">community via the app for </tspan><tspan x="17.713" y="50.4" class="st4 st10 st7">photos and videos of </tspan><tspan x="25" y="75.6" class="st4 st10 st7"> a topic or location</tspan><tspan x="258.925" y="82.834" class="st4 st10 st11"> </tspan></text>
		
<!-- LINES TO ADMIN on left to the folder-->
		<g>
			<line class="st3" x1="253.511" y1="287.07" x2="274.232" y2="287.07">
			<animateTransform attributeName="transform" begin=".1" attributeType="HML" type="translate" dur="3s" values="15,0;-15,0;15,0" repeatCount="indefinite"/>
		</line>
			<line class="st3" x1="281.905" y1="287.07" x2="302.626" y2="287.07">
			<animateTransform attributeName="transform" begin=".2" attributeType="HML" type="translate" dur="3s" values="15,0;-15,0;15,0" repeatCount="indefinite"/>
		</line>
			<line class="st3" x1="310.299" y1="287.07" x2="331.021" y2="287.07">
			<animateTransform attributeName="transform" begin=".3" attributeType="HML" type="translate" dur="3s" values="15,0;-15,0;15,0" repeatCount="indefinite"/>
		</line>
			<line class="st3" x1="338.693" y1="287.07" x2="359.416" y2="287.07">
			<animateTransform attributeName="transform" begin=".4" attributeType="HML" type="translate" dur="3s" values="15,0;-15,0;15,0" repeatCount="indefinite"/>
		</line>
			<line class="st3" x1="367.087" y1="287.07" x2="387.81" y2="287.07">
			<animateTransform attributeName="transform" begin=".5" attributeType="HML" type="translate" dur="3s" values="15,0;-15,0;15,0" repeatCount="indefinite"/>
		</line>
			<line class="st3" x1="395.481" y1="287.07" x2="416.204" y2="287.07">
			<animateTransform attributeName="transform" begin=".6" attributeType="HML" type="translate" dur="3s" values="15,0;-15,0;15,0" repeatCount="indefinite"/>
		</line>
		</g>
	</g>
	<g>
		<path class="st4" d="M864.767,253.571c-23.63,0-44.277,12.711-55.508,31.667c11.23,18.955,31.878,31.666,55.508,31.666
			c23.629,0,44.277-12.711,55.51-31.666C909.044,266.282,888.396,253.571,864.767,253.571 M865.094,313.384
			c-14.845,0-26.878-12.033-26.878-26.874c0-14.846,12.033-26.879,26.878-26.879c14.841,0,26.875,12.033,26.875,26.879
			C891.969,301.351,879.935,313.384,865.094,313.384"/>
		<path class="st4" d="M879.635,285.236c0,8.031-6.513,14.544-14.541,14.544c-8.035,0-14.541-6.513-14.541-14.544
			c0-8.029,6.506-14.54,14.541-14.54C873.122,270.696,879.635,277.207,879.635,285.236"/>
	</g>
	<text transform="matrix(1 0 0 1 775.8604 217.2861)" class="st4 st10 st11"> Your Website</text>
	<text transform="matrix(1 0 0 1 802.9678 367.665)"><tspan x="-10" y="0" class="st4 st10 st7">Display content   </tspan><tspan x="-41.432" y="25.2" class="st4 st10 st7">generated on the app</tspan><tspan x="-6.414" y="50.4" class="st4 st10 st7"></tspan></text>
	
<!-- LINES TO EYE on Right in the folder-->

	<g>
		<line class="st3" x1="625.945" y1="285.321" x2="646.668" y2="285.321">
			<animateTransform attributeName="transform" begin=".1" attributeType="HML" type="translate" dur="3s" values="15,0;-15,0;15,0" repeatCount="indefinite"/>
		</line>

		<line class="st3" x1="654.339" y1="285.321" x2="675.062" y2="285.321">
			<animateTransform attributeName="transform" begin=".2" attributeType="HML" type="translate" dur="3s" values="15,0;-15,0;15,0" repeatCount="indefinite"/>
		</line>
		<line class="st3" x1="682.733" y1="285.321" x2="703.456" y2="285.321">
			<animateTransform attributeName="transform" begin=".3" attributeType="HML" type="translate" dur="3s" values="15,0;-15,0;15,0" repeatCount="indefinite"/>
		</line>
		<line class="st3" x1="711.127" y1="285.321" x2="731.851" y2="285.321">
			<animateTransform attributeName="transform" begin=".4" attributeType="HML" type="translate" dur="3s" values="15,0;-15,0;15,0" repeatCount="indefinite"/>
		</line>
		<line class="st3" x1="739.521" y1="285.321" x2="760.245" y2="285.321">
			<animateTransform attributeName="transform" begin=".5" attributeType="HML" type="translate" dur="3s" values="15,0;-15,0;15,0" repeatCount="indefinite"/>
		</line>
		<line class="st3" x1="767.915" y1="285.321" x2="788.639" y2="285.321">
			<animateTransform attributeName="transform" begin=".6" attributeType="HML" type="translate" dur="3s" values="15,0;-15,0;15,0" repeatCount="indefinite"/>
		</line>
	</g>
	<rect x="239.923" y="609.133" class="st5" width="563.281" height="151.24"/>
	<text transform="matrix(1 0 0 1 332.0005 625.0088)"><tspan x="-12" y="0" class="st4 st10 st7">Members of the community </tspan><tspan x="-24.496" y="32.434" class="st4 st10 st7">submit and caption their photos and videos</tspan><tspan x="403.618" y="32.434" class="st4 st10 st11"> </tspan></text>
</g>
</svg>
