<?xml version="1.0" encoding="utf-8"?>
<!-- Generator: Adobe Illustrator 16.0.0, SVG Export Plug-In . SVG Version: 6.00 Build 0)  -->
<!DOCTYPE svg PUBLIC "-//W3C//DTD SVG 1.1//EN" "http://www.w3.org/Graphics/SVG/1.1/DTD/svg11.dtd">
<svg version="1.1" id="Layer_1" xmlns="http://www.w3.org/2000/svg" xmlns:xlink="http://www.w3.org/1999/xlink" x="0px" y="0px"
	  viewBox="0 0 338.088 491" style="enable-background:new 0 0 338.088 491; background-color:black;" xml:space="preserve"
	>
<style type="text/css">
<![CDATA[
	.st0{fill:#FFFFFF;}
	.st1{fill:none;}
]]>
</style>
<path class="st0" d="M168.148,319.862c-41.177,0-74.679-33.501-74.679-74.678c0-41.178,33.502-74.677,74.679-74.677
	s74.677,33.499,74.677,74.677C242.825,286.361,209.325,319.862,168.148,319.862 M168.148,175.228
	c-38.575,0-69.958,31.382-69.958,69.956c0,38.575,31.383,69.958,69.958,69.958c38.574,0,69.956-31.384,69.956-69.958
	C238.104,206.61,206.723,175.228,168.148,175.228"/>
<path class="st0" d="M168.148,289.746c-41.177,0-74.679-19.989-74.679-44.562c0-24.572,33.502-44.562,74.679-44.562
	s74.677,19.99,74.677,44.562C242.825,269.757,209.325,289.746,168.148,289.746 M168.148,205.342
	c-38.575,0-69.958,17.873-69.958,39.842c0,21.97,31.383,39.842,69.958,39.842c38.574,0,69.956-17.872,69.956-39.842
	C238.104,223.215,206.723,205.342,168.148,205.342"/>
<path class="st0" d="M168.148,319.862c-11.407,0-22.015-7.961-29.871-22.415c-7.61-13.999-11.804-32.559-11.804-52.263
	c0-19.703,4.193-38.263,11.804-52.262c7.856-14.455,18.464-22.415,29.871-22.415c11.404,0,22.015,7.96,29.873,22.415
	c7.609,13.999,11.799,32.559,11.799,52.262c0,19.704-4.189,38.264-11.799,52.263C190.163,311.901,179.553,319.862,168.148,319.862
	 M168.148,175.228c-20.377,0-36.954,31.382-36.954,69.956c0,38.575,16.577,69.958,36.954,69.958
	c20.375,0,36.953-31.384,36.953-69.958C205.102,206.61,188.523,175.228,168.148,175.228"/>
<rect x="165.789" y="172.868" class="st0" width="4.721" height="146.27"/>
<rect x="95.012" y="243.644" class="st0" width="146.271" height="4.72"/>
<path class="st0" d="M193.072,92.614h-42.23V18.538h42.23V92.614z M153.201,90.253h37.512V20.897h-37.512V90.253z"/>
<path class="st0" d="M187.662,77.687H156.25V23.076h31.412V77.687z M158.611,75.327h26.689V25.436h-26.689V75.327z"/>
<path class="st0" d="M175.805,87.811h-7.697v-7.7h7.697V87.811z M170.467,85.451h2.979v-2.979h-2.979V85.451z"/>
<path class="st0" d="M193.072,478.645h-42.23v-74.077h42.23V478.645z M153.201,476.285h37.512v-69.357h-37.512V476.285z"/>
<path class="st0" d="M187.662,463.718H156.25v-54.608h31.412V463.718z M158.611,461.358h26.689v-49.89h-26.689V461.358z"/>
<path class="st0" d="M175.805,473.84h-7.697v-7.698h7.697V473.84z M170.467,471.479h2.979V468.5h-2.979V471.479z"/>
<path class="st0" d="M42.232,281.252H0v-74.077h42.232V281.252z M2.359,278.892h37.511v-69.356H2.359V278.892z"/>
<path class="st0" d="M36.822,266.326H5.412v-54.612h31.41V266.326z M7.771,263.965h26.691v-49.892H7.771V263.965z"/>
<path class="st0" d="M24.964,276.448h-7.697v-7.698h7.697V276.448z M19.627,274.089h2.978v-2.979h-2.978V274.089z"/>
<path class="st0" d="M85.014,137.006h-42.23V62.931h42.23V137.006z M45.144,134.646h37.511V65.291H45.144V134.646z"/>
<path class="st0" d="M79.604,122.08H48.196V67.468h31.408V122.08z M50.554,119.72h26.687V69.829H50.554V119.72z"/>
<path class="st0" d="M67.747,132.201h-7.699v-7.7h7.699V132.201z M62.407,129.841h2.98v-2.979h-2.98V129.841z"/>
<path class="st0" d="M85.014,423.245h-42.23v-74.077h42.23V423.245z M45.144,420.885h37.511v-69.356H45.144V420.885z"/>
<path class="st0" d="M79.604,408.318H48.196v-54.611h31.408V408.318z M50.554,405.958h26.687v-49.892H50.554V405.958z"/>
<path class="st0" d="M67.747,418.442h-7.699v-7.7h7.699V418.442z M62.407,416.082h2.98v-2.979h-2.98V416.082z"/>
<path class="st0" d="M338.088,281.252h-42.23v-74.077h42.23V281.252z M298.217,278.892h37.512v-69.356h-37.512V278.892z"/>
<path class="st0" d="M332.678,266.326h-31.41v-54.612h31.41V266.326z M303.627,263.965h26.689v-49.892h-26.689V263.965z"/>
<path class="st0" d="M320.822,276.448h-7.697v-7.698h7.697V276.448z M315.482,274.089h2.979v-2.979h-2.979V274.089z"/>
<path class="st0" d="M301.13,135.064h-42.231V60.989h42.231V135.064z M261.26,132.705h37.511V63.349H261.26V132.705z"/>
<path class="st0" d="M295.718,120.138h-31.407V65.526h31.407V120.138z M266.67,117.777h26.688V67.887H266.67V117.777z"/>
<path class="st0" d="M283.864,130.261h-7.698v-7.699h7.698V130.261z M278.525,127.901h2.978v-2.979h-2.978V127.901z"/>
<path class="st0" d="M301.13,421.303h-42.231v-74.078h42.231V421.303z M261.26,418.942h37.511v-69.357H261.26V418.942z"/>
<path class="st0" d="M295.718,406.377h-31.407v-54.611h31.407V406.377z M266.67,404.016h26.688v-49.891H266.67V404.016z"/>
<path class="st0" d="M283.864,416.5h-7.698v-7.699h7.698V416.5z M278.525,414.14h2.978v-2.979h-2.978V414.14z"/>
<rect x="166.97" y="329.16" class="st0" width="2.359" height="7.08"/>
<rect x="166.97" y="354.379" class="st0" width="2.359" height="18.143"/>
<rect x="166.97" y="390.663" class="st0" width="2.359" height="7.081"/>
<rect x="166.97" y="96.73" class="st0" width="2.359" height="7.08"/>
<rect x="166.97" y="121.951" class="st0" width="2.359" height="18.142"/>
<rect x="166.97" y="158.233" class="st0" width="2.359" height="7.08"/>
<rect x="79.95" y="244.003" class="st0" width="7.08" height="2.36"/>
<rect x="64.285" y="244.003" class="st0" width="7.833" height="2.36"/>
<rect x="49.373" y="244.003" class="st0" width="7.08" height="2.36"/>
<rect x="106.002" y="170.583" transform="matrix(0.6018 0.7986 -0.7986 0.6018 180.7992 -19.0894)" class="st0" width="7.082" height="2.361"/>
<rect x="96.428" y="158.375" transform="matrix(0.6016 0.7988 -0.7988 0.6016 167.4316 -16.586)" class="st0" width="7.831" height="2.359"/>
<rect x="87.604" y="146.165" transform="matrix(0.6017 0.7987 -0.7987 0.6017 153.9908 -14.1123)" class="st0" width="7.083" height="2.359"/>
<rect x="227.942" y="168.223" transform="matrix(0.7988 0.6017 -0.6017 0.7988 149.4514 -103.2862)" class="st0" width="2.361" height="7.082"/>
<rect x="237.14" y="155.639" transform="matrix(0.7988 0.6017 -0.6017 0.7988 143.9568 -111.2773)" class="st0" width="2.361" height="7.831"/>
<rect x="246.34" y="143.804" transform="matrix(0.7989 0.6015 -0.6015 0.7989 138.3955 -119.2424)" class="st0" width="2.362" height="7.08"/>
<rect x="108.363" y="308.567" transform="matrix(0.7991 0.6012 -0.6012 0.7991 209.6296 -3.1595)" class="st0" width="2.36" height="7.081"/>
<rect x="99.163" y="320.403" transform="matrix(0.7991 0.6012 -0.6012 0.7991 215.1224 4.8237)" class="st0" width="2.36" height="7.832"/>
<rect x="89.964" y="332.988" transform="matrix(0.7989 0.6014 -0.6014 0.7989 220.7218 12.8491)" class="st0" width="2.361" height="7.081"/>
<rect x="225.583" y="310.927" transform="matrix(0.602 0.7985 -0.7985 0.602 340.4248 -58.7295)" class="st0" width="7.08" height="2.361"/>
<rect x="234.407" y="323.138" transform="matrix(0.6017 0.7987 -0.7987 0.6017 353.947 -61.1819)" class="st0" width="7.829" height="2.361"/>
<rect x="243.98" y="335.348" transform="matrix(0.6016 0.7988 -0.7988 0.6016 367.4364 -63.644)" class="st0" width="7.081" height="2.36"/>
<rect x="280.228" y="241.528" class="st0" width="7.08" height="2.359"/>
<rect x="264.562" y="241.528" class="st0" width="7.832" height="2.359"/>
<rect x="249.65" y="241.528" class="st0" width="7.08" height="2.359"/>
<line class="st1" x1="480.39" y1="-39.5" x2="480.39" y2="1227.5"/>
</svg>
