<?xml version="1.0" encoding="utf-8"?>
<!-- Generator: Adobe Illustrator 16.0.0, SVG Export Plug-In . SVG Version: 6.00 Build 0)  -->
<!DOCTYPE svg PUBLIC "-//W3C//DTD SVG 1.1//EN" "http://www.w3.org/Graphics/SVG/1.1/DTD/svg11.dtd">
<svg version="1.1" id="Layer_1" xmlns="http://www.w3.org/2000/svg" xmlns:xlink="http://www.w3.org/1999/xlink" x="0px" y="0px"
	 width="120.126px" height="120.179px" viewBox="0 0 120.126 120.179" style="enable-background:new 0 0 120.126 120.179;"
	 xml:space="preserve">
<style type="text/css">
<![CDATA[
	.st0{fill-rule:evenodd;clip-rule:evenodd;fill:#A3A5A1;}
	.st1{fill-rule:evenodd;clip-rule:evenodd;fill:#DFDFDF;}
	.st2{fill-rule:evenodd;clip-rule:evenodd;fill:#898B86;}
	.st3{fill-rule:evenodd;clip-rule:evenodd;fill:#EDEDEB;}
	.st4{fill-rule:evenodd;clip-rule:evenodd;fill:#EEEEEE;}
	.st5{fill-rule:evenodd;clip-rule:evenodd;fill:#BDBFBA;}
	.st6{fill:#FEFEFE;}
	.st7{fill-rule:evenodd;clip-rule:evenodd;fill:#969893;}
	.st8{fill-rule:evenodd;clip-rule:evenodd;fill:#D3D7CF;}
]]>
</style>
<g>
	<path class="st6" d="M0.065,43.062c0-13.5,0.063-27-0.064-40.5C-0.02,0.412,0.418-0.004,2.565,0c38.333,0.084,76.666,0.084,115,0
		c2.146-0.004,2.566,0.415,2.562,2.562c-0.085,38.333-0.085,76.666,0,115c0.005,2.146-0.415,2.566-2.562,2.562
		c-38.334-0.085-76.667-0.124-115,0.056c-3.118,0.014-2.494-1.463-2.494-3.117c-0.009-24-0.006-48-0.006-72
		c1.559-0.728,2.892,0.109,4.255,0.641c6.47,2.528,13.026,4.827,19.492,7.366c5.359,2.104,6.549,4.163,5.979,10.323
		c-1.164,2.33-3.651,2.688-5.642,3.8c-3.468,1.938-3.658,4.022-0.454,6.362c2.986,2.182,6.481,3.344,9.992,4.365
		c12.17,3.54,24.619,5.137,37.264,5.866c8.287,0.478,16.505,1.102,24.777-0.075c1.978-0.281,3.938-0.426,5.768-1.273
		c4.432-0.833,8.504,1.225,12.789,1.604c0.938,0.083,2.041,0.815,2.77-0.233c0.824-1.189,0.018-2.188-0.733-3.107
		c-0.317-0.387-0.664-0.748-1.019-1.1C100.312,64.657,85.367,49.67,70.409,34.695c-2.15-2.153-4.521-2.656-7.28-2.058
		c-3.744,0.812-7.511,1.504-11.259,2.296c-3.212,0.679-5.936,1.579-7.048,5.315c-0.869,2.916-3.521,3.06-5.733,1.617
		c-5.221-3.404-10.66-2.659-16.365-1.827C15.187,41.138,7.651,42.308,0.065,43.062z"/>
	<path class="st2" d="M29.135,62.974c0.072-4.603-1.533-7.431-6.447-9.066c-7.662-2.548-15.44-4.993-22.623-8.846
		c0-0.667,0-1.333,0-2c3.616-3.053,8.221-2.024,12.352-2.904c3.722-0.793,7.607-0.8,11.346-1.536
		c5.693-1.12,11.131-1.474,16.097,2.34c2.343,1.8,4.046,1.332,4.238-1.875c0.201-3.371,2.6-3.993,5.222-5.03
		c12.836-5.082,22.324-2.03,31.417,8.876c10.823,12.983,23.716,24.241,35.686,36.272c1.469,1.477,3.775,2.901,2.321,5.408
		c-1.34,2.311-3.554,0.883-5.427,0.557c-3.756-0.65-7.509-1.322-11.262-1.986c-5.606,1.057-10.757-1.301-16.112-2.142
		c-16.217-3.159-32.296-6.995-48.604-9.692C30.315,69.704,29.342,68.709,29.135,62.974z"/>
	<path class="st4" d="M29.135,62.974c0.864,4.359,3.354,6.877,7.945,7.014c3.583,4.101,8.414,5.705,13.494,6.997
		c11.702,2.976,23.667,2.581,35.569,3.034c5.396,0.592,10.695,1.668,15.911,3.164c-7.694,2.996-15.798,3.664-23.778,2.562
		c-6.917-0.953-13.855-0.431-20.766-1.562c-11.125-1.82-22.271-3.31-32.59-8.202c-2.542-1.205-5.632-2.436-5.587-5.678
		c0.048-3.399,3.374-4.163,5.993-5.152C26.731,64.62,28.192,64.275,29.135,62.974z"/>
	<path class="st3" d="M108.084,80.227c-2.674-0.722-5.348-1.442-8.02-2.163c-4.856-0.396-9.363-2.146-13.856-3.801
		c-16.214-5.967-32.667-11.25-48.879-17.218c-1.224-0.394-2.296-1.069-3.324-1.824c-9.04-4.574-18.976-6.807-28.347-11.471
		c6.46-0.883,12.997-1.409,19.36-2.753c6.16-1.3,11.391,0.11,16.345,3.557c2.798,1.946,4.562,1.658,4.796-2.151
		c0.271-4.426,3.219-5.214,6.997-6.623c10.292-3.837,16.947-0.279,23.89,7.416c11.015,12.208,23.211,23.35,34.907,34.942
		c-0.591,2.816-2.034,1.059-3.235,0.609C90.222,67.56,72.639,54.975,54.516,43.211c-1.272-0.826-2.861-2.576-4.249-0.44
		c-1.357,2.086-0.916,4.303,1.38,5.56c3.94,2.156,7.763,4.517,11.771,6.552c13.925,7.073,28.129,13.608,41.61,21.532
		C106.422,77.234,108.745,77.627,108.084,80.227z"/>
	<path class="st8" d="M108.084,80.227c-3.578-4.178-8.831-5.737-13.416-8.202c-14.193-7.629-28.631-14.808-43-22.106
		c-2.212-1.124-3.982-2.249-3.603-5.206c0.669-5.217,2.019-5.914,6.434-2.949c15.414,10.353,30.83,20.701,46.191,31.13
		c2.723,1.85,6.12,2.572,8.375,5.154c0.513,0.971,1.605,1.752,1.01,3.086C109.301,81.073,108.51,81.052,108.084,80.227z"/>
	<path class="st7" d="M37.213,55.931c15.375,5.3,30.785,10.503,46.108,15.949c5.602,1.991,11.455,3.335,16.744,6.184
		c-4.172,2.121-7.992-0.497-11.873-1.132c-7.441-1.216-14.928-2.446-22.125-4.862c-7.114-3.318-14.707-5.111-22.273-6.979
		c-4.012-0.991-6.952-3.13-7.887-7.36C35.71,56.842,35.517,55.607,37.213,55.931z"/>
	<path class="st1" d="M86.143,80.019c-15.16,2.709-29.89,0.633-44.294-4.26c-2.453-0.834-4.675-2.615-4.769-5.771
		c11.405,1.18,22.391,4.524,33.633,6.565C75.887,77.492,81.188,78.038,86.143,80.019z"/>
	<path class="st0" d="M37.213,55.931c-0.542,4.369,1.941,6.486,5.715,7.551c5.517,1.558,11.084,2.942,16.567,4.612
		c2.462,0.749,5.1,1.469,6.572,3.975c-10.475-0.982-20.648-3.588-30.794-6.135c-3.612-0.907-3.541-4.587-2.328-7.592
		c0.417-1.033,1.138-1.92,1.062-3.122C35.182,54.974,36.311,54.941,37.213,55.931z"/>
	<path class="st5" d="M110.075,81.134c-0.336-1.028-0.673-2.057-1.01-3.086c0.96,0.152,1.874,1.779,2.891,0.09
		c1.917,0.992,3.352,2.459,4.574,4.586C113.929,83.258,111.961,82.378,110.075,81.134z"/>
</g>
</svg>
