
<svg version="1.1" id="Layer_1" xmlns="http://www.w3.org/2000/svg" xmlns:xlink="http://www.w3.org/1999/xlink" x="0px" y="0px"
	 viewBox="0 0 960 317.089" enable-background="new 0 0 960 317.089" xml:space="preserve" style="background-color: #30cccf;">
	 <text transform="matrix(1 0 0 1 310.2075 40.5635)" fill="#FFFFFF" font-family="'Avenir-Heavy'" font-size="55.0781">How it works</text>

		<polygon fill="#30CCCF" points="793.963,155.672 785.487,146.063 747.394,146.063 747.394,155.672 747.394,230.817 
			851.758,230.817 851.758,155.672 		"/>
		<polygon fill="none" stroke="#FFFFFF" stroke-miterlimit="10" points="793.963,155.672 785.487,146.063 747.394,146.063 
			747.394,155.672 747.394,230.817 851.758,230.817 851.758,155.672 		"/>
<g>
		<path fill="#30CCCF" d="M852.008,160.009c0,5.295-4.293,9.588-9.587,9.588c-5.296,0-9.589-4.294-9.589-9.588
			c0-5.295,4.293-9.587,9.589-9.587C847.716,150.421,852.008,154.714,852.008,160.009L852.008,160.009z		">

		</path>
		<path fill="#FFFFFF" d="M842.682,149.445c-7.472-0.809-14.439,2.503-18.639,8.114c2.902,6.379,8.997,11.107,16.469,11.915
			c7.474,0.811,14.438-2.502,18.64-8.113C856.249,154.982,850.154,150.255,842.682,149.445L842.682,149.445z M840.735,168.373
			c-4.694-0.509-8.085-4.726-7.579-9.421c0.508-4.692,4.728-8.086,9.42-7.577c4.695,0.507,8.09,4.725,7.58,9.419
			C849.648,165.487,845.43,168.882,840.735,168.373L840.735,168.373z		">

		</path>
		<path fill="#FFFFFF" d="M846.256,160.372c-0.275,2.539-2.559,4.375-5.098,4.101c-2.539-0.275-4.376-2.556-4.101-5.097
			c0.275-2.539,2.556-4.375,5.098-4.1C844.695,155.55,846.53,157.832,846.256,160.372L846.256,160.372z		">

		</path>
<animateTransform  type="translate" fill="remove" repeatCount="indefinite" calcMode="linear" restart="always" dur="4.5s" begin=".8" attributeName="transform" additive="replace" accumulate="none" values="-610,50;-610,-100;-610,-90; -610,-100;10,-20;0,15;" attributeType="HML">
</animateTransform>
</g>
		<path fill="#FFFFFF" d="M832.705,160.414c0.751,5.14,1.497,10.281,2.259,15.419c0.137,0.927,0.152,1.833-0.39,2.487
			c-0.322,0.384-0.785,0.73-1.226,0.798c-6.826,1.036-13.655,2.026-20.485,3.018c-1.094,0.158-2.02-0.671-2.409-2.114
			c-0.045-0.167-0.07-0.338-0.097-0.51c-1.516-10.378-3.036-20.755-4.548-31.134c-0.281-1.943,0.449-3.122,2.028-3.353
			c6.551-0.958,13.102-1.915,19.653-2.875c1.704-0.248,2.629,0.606,2.943,2.739C831.194,150.064,831.947,155.24,832.705,160.414
			L832.705,160.414z M812.531,162.301c5.19-0.758,10.311-1.507,15.465-2.26c-0.744-5.079-1.477-10.095-2.212-15.133
			c-5.181,0.757-10.319,1.508-15.465,2.26C811.059,152.238,811.789,157.234,812.531,162.301L812.531,162.301z M815.038,179.471
			c5.198-0.761,10.306-1.506,15.476-2.262c-0.744-5.081-1.48-10.116-2.218-15.165c-5.188,0.758-10.314,1.507-15.474,2.262
			C813.564,169.374,814.298,174.392,815.038,179.471L815.038,179.471z M831.322,166.286c-0.162,0.023-0.322,0.057-0.484,0.068
			c-0.564,0.046-0.772,0.48-0.687,1.1c0.087,0.626,0.471,0.839,0.952,0.779c0.163-0.021,0.324-0.053,0.486-0.072
			c0.979-0.118,1.332-0.446,1.171-1.177C832.531,165.947,831.891,166.201,831.322,166.286L831.322,166.286z M810.118,160.634
			c-0.308,0.044-0.574-0.012-0.709,0.122c-0.229,0.233-0.554,0.617-0.511,0.879c0.054,0.34,0.399,0.695,0.682,0.909
			c0.163,0.123,0.452-0.017,0.682-0.049c1.006-0.145,1.354-0.458,1.195-1.152C811.222,160.315,810.591,160.551,810.118,160.634
			L810.118,160.634z M831.92,170.613c-0.047,0.007-0.093,0.016-0.138,0.019c-0.771,0.096-1.096,0.446-1.01,1.084
			c0.092,0.653,0.471,0.88,1.279,0.766c0.044-0.007,0.091-0.014,0.137-0.02c0.997-0.146,1.323-0.448,1.218-1.13
			C833.301,170.666,832.866,170.458,831.92,170.613L831.92,170.613z M829.479,153.26c-0.255,0.038-0.578-0.03-0.744,0.136
			c-0.228,0.231-0.494,0.657-0.451,0.96c0.042,0.307,0.429,0.76,0.687,0.801c0.476,0.077,1.003-0.001,1.434-0.214
			c0.231-0.114,0.468-0.672,0.414-0.976c-0.052-0.302-0.441-0.595-0.726-0.776C829.935,153.091,829.687,153.229,829.479,153.26
			L829.479,153.26z M808.445,149.457c0,0.001,0,0.004,0,0.006c0.14-0.019,0.276-0.045,0.417-0.06
			c0.505-0.051,0.769-0.411,0.693-1.014c-0.08-0.648-0.445-0.932-0.979-0.843c-0.368,0.06-0.744,0.083-1.104,0.178
			c-0.422,0.112-0.597,0.472-0.51,1.015c0.084,0.538,0.348,0.825,0.788,0.813C807.985,149.548,808.216,149.492,808.445,149.457
			L808.445,149.457z M810.873,166.821c0.183-0.027,0.367-0.061,0.554-0.08c0.519-0.054,0.74-0.444,0.663-1.035
			c-0.075-0.555-0.394-0.863-0.866-0.818c-0.371,0.037-0.743,0.086-1.106,0.16c-0.487,0.099-0.723,0.449-0.609,1.083
			c0.104,0.591,0.411,0.826,0.88,0.761C810.55,166.868,810.711,166.844,810.873,166.821L810.873,166.821z M812.573,177.98
			c-0.163,0.024-0.323,0.046-0.485,0.071c-0.525,0.076-0.792,0.408-0.679,1.091c0.109,0.65,0.469,0.835,0.952,0.766
			c0.228-0.034,0.458-0.082,0.69-0.097c0.572-0.038,1.059-0.256,0.937-1.09c-0.122-0.833-0.651-0.906-1.207-0.775
			C812.713,177.965,812.642,177.97,812.573,177.98L812.573,177.98z M830.338,159.421c0.981-0.142,1.268-0.413,1.165-1.097
			c-0.1-0.675-0.496-0.884-1.437-0.737c-0.563,0.087-1.253,0.03-1.191,1.084C828.918,159.384,829.315,159.572,830.338,159.421
			L830.338,159.421z M808.983,153.783c0.207-0.03,0.473,0.027,0.609-0.108c0.243-0.249,0.562-0.587,0.576-0.927
			c0.028-0.529-0.314-0.897-0.797-0.859c-0.416,0.033-0.835,0.09-1.239,0.183c-0.465,0.108-0.635,0.495-0.523,1.069
			c0.104,0.537,0.376,0.79,0.823,0.725C808.616,153.838,808.8,153.811,808.983,153.783L808.983,153.783z M811.913,173.667
			c-0.162,0.023-0.324,0.053-0.485,0.069c-0.466,0.044-0.718,0.332-0.67,0.93c0.052,0.629,0.35,0.931,0.86,0.902
			c0.184-0.01,0.368-0.045,0.551-0.072c1.011-0.147,1.348-0.453,1.186-1.149C813.111,173.307,812.475,173.604,811.913,173.667
			L811.913,173.667z M811.305,171.24c0.41-0.091,0.641-0.131,0.864-0.196c0.554-0.162,0.81-0.845,0.414-1.334
			c-0.249-0.305-0.771-0.485-1.113-0.414c-0.473,0.099-1.194-0.125-1.322,0.732c-0.048,0.319,0.116,0.875,0.328,1.05
			C810.731,171.293,811.138,171.216,811.305,171.24L811.305,171.24z M828.383,146.406c0.184-0.027,0.367-0.06,0.553-0.08
			c0.52-0.054,0.746-0.429,0.652-1.033c-0.085-0.566-0.403-0.833-0.884-0.75c-0.365,0.062-0.734,0.114-1.104,0.161
			c-0.479,0.063-0.705,0.399-0.622,0.979c0.088,0.613,0.411,0.894,0.923,0.794C828.057,146.445,828.221,146.429,828.383,146.406
			L828.383,146.406z M832.852,176.77c0.09-0.013,0.182-0.034,0.273-0.039c0.544-0.031,1.011-0.219,0.904-1.025
			c-0.111-0.865-0.65-0.884-1.197-0.784c-0.068,0.012-0.138,0.021-0.207,0.03c-1.027,0.149-1.352,0.435-1.206,1.13
			C831.645,177.159,832.293,176.822,832.852,176.77L832.852,176.77z M828.782,148.95c-0.069,0.012-0.137,0.025-0.205,0.031
			c-0.546,0.042-1.081,0.15-0.961,1.036c0.116,0.884,0.658,0.865,1.2,0.765c0.068-0.013,0.137-0.022,0.207-0.03
			c1.027-0.15,1.355-0.439,1.202-1.128C829.984,148.567,829.342,148.887,828.782,148.95L828.782,148.95z M830.701,161.976
			c-0.207,0.03-0.414,0.062-0.622,0.091c-0.461,0.063-0.632,0.43-0.567,0.95c0.071,0.562,0.35,0.882,0.842,0.816
			c0.206-0.028,0.413-0.059,0.622-0.087c0.989-0.146,1.294-0.411,1.155-1.088C831.906,161.579,831.257,161.917,830.701,161.976
			L830.701,161.976z M809.427,156.332c-0.208,0.03-0.416,0.062-0.623,0.091c-0.458,0.062-0.644,0.39-0.578,0.938
			c0.071,0.587,0.346,0.884,0.832,0.838c0.21-0.021,0.418-0.055,0.625-0.086c0.976-0.143,1.296-0.439,1.136-1.122
			C810.586,155.998,809.977,156.245,809.427,156.332L809.427,156.332z		">
<animateTransform  type="translate" fill="remove" repeatCount="indefinite" calcMode="linear" restart="always" dur="5s" begin=".5" attributeName="transform" additive="replace" accumulate="none" values="-515,35;-515,-65; -515,-45;0,-25;0,25;20,35;" attributeType="HML">
</animateTransform>
		</path>






<g>
		<rect x="749.191" y="148.998" transform="matrix(-0.9965 0.0836 -0.0836 -0.9965 1524.845 253.6948)" fill="#FFFFFF" width="15.84" height="19.55">	
		</rect>
		<rect x="749.939" y="150.318" transform="matrix(-0.9965 0.0835 -0.0835 -0.9965 1524.3895 250.3541)" fill="#30CCCF" width="14.04" height="13.473">
		</rect>
<animateTransform  type="translate" fill="remove" repeatCount="indefinite" calcMode="linear" restart="always" dur="4.5s" begin=".6" attributeName="transform" additive="replace" accumulate="none" values="-640,50;-640,-70;-640,-50;10,-20;0,15;" attributeType="HML">
</animateTransform>
</g>
<g>
		<rect x="749.191" y="148.998" transform="matrix(-0.9965 0.0836 -0.0836 -0.9965 1524.845 253.6948)" fill="#FFFFFF" width="15.84" height="19.55">	
		</rect>
		<rect x="749.939" y="150.318" transform="matrix(-0.9965 0.0835 -0.0835 -0.9965 1524.3895 250.3541)" fill="#30CCCF" width="14.04" height="13.473">
		</rect>
<animateTransform  type="translate" fill="remove" repeatCount="indefinite" calcMode="linear" restart="always" dur="4.5s" begin="1.2" attributeName="transform" additive="replace" accumulate="none" values="-540,50;-540,-70;-540,-50;10,-20;0,15;" attributeType="HML">
</animateTransform>
</g>
<g>
		<rect x="749.191" y="148.998" transform="matrix(-0.9965 0.0836 -0.0836 -0.9965 1524.845 253.6948)" fill="#FFFFFF" width="15.84" height="19.55">	
		</rect>
		<rect x="749.939" y="150.318" transform="matrix(-0.9965 0.0835 -0.0835 -0.9965 1524.3895 250.3541)" fill="#30CCCF" width="14.04" height="13.473">
		</rect>
<animateTransform  type="translate" fill="remove" repeatCount="indefinite" calcMode="linear" restart="always" dur="4.5s" begin=".4" attributeName="transform" additive="replace" accumulate="none" values="-440,50;-440,-70;-440,-50;10,-20;0,15;" attributeType="HML">
</animateTransform>
</g>
<g>
		<rect x="749.191" y="148.998" transform="matrix(-0.9965 0.0836 -0.0836 -0.9965 1524.845 253.6948)" fill="#FFFFFF" width="15.84" height="19.55">	
		</rect>
		<rect x="749.939" y="150.318" transform="matrix(-0.9965 0.0835 -0.0835 -0.9965 1524.3895 250.3541)" fill="#30CCCF" width="14.04" height="13.473">
		</rect>
<animateTransform  type="translate" fill="remove" repeatCount="indefinite" calcMode="linear" restart="always" dur="4.5s" begin=".9" attributeName="transform" additive="replace" accumulate="none" values="-640,50;-620,-70;-620,-50;10,-20;0,15;" attributeType="HML">
</animateTransform>
</g>







		<path fill="#FFFFFF" d="M775.969,169.508c-0.171-0.072-0.358-0.121-0.512-0.221c-4.872-3.18-9.733-6.381-14.62-9.54
			c-1.181-0.761-1.745-1.824-1.85-3.155c-0.122-1.539,0.249-2.951,1.403-4.044c1.235-1.169,2.892-0.984,3.79,0.458
			c1.002,1.605,0.988,3.274,0.067,4.927c-0.169,0.305-0.357,0.602-0.554,0.891c-0.162,0.239-0.171,0.411,0.102,0.588
			c2.534,1.645,5.062,3.299,7.591,4.953c0.253,0.166,0.384,0.128,0.486-0.169c1.087-3.165,2.18-6.33,3.279-9.491
			c0.129-0.369-0.09-0.512-0.345-0.677c-2.876-1.875-5.729-3.788-8.634-5.621c-1.731-1.09-2.222-2.654-1.973-4.541
			c0.084-0.632,0.359-1.239,0.544-1.858c0.122-0.186,0.244-0.373,0.366-0.561c0.104-0.091,0.217-0.177,0.314-0.276
			c1.206-1.232,2.926-1.106,3.873,0.333c0.29,0.439,0.495,0.962,0.631,1.478c0.414,1.581-0.099,2.981-0.993,4.26
			c-0.289,0.415-0.206,0.59,0.188,0.846c3.722,2.411,7.43,4.848,11.153,7.257c0.406,0.262,0.467,0.509,0.313,0.938
			c-1.104,3.14-2.196,6.285-3.283,9.432c-0.406,1.181-0.788,2.37-1.183,3.556C776.073,169.348,776.021,169.43,775.969,169.508
			L775.969,169.508z		">
<animateTransform  type="translate" fill="remove" repeatCount="indefinite" calcMode="linear" restart="always" dur="5s" begin=".4" attributeName="transform" additive="replace" accumulate="none" values="-700,50; -670, -70; -670, -50; 0,-15;0,15;0,25;" attributeType="HML">
</animateTransform>
		</path>




		<polygon fill="#30CCCF" points="851.758,231.102 747.394,231.102 740.138,162.418 856.769,162.418 		"/>
		<polygon fill="none" stroke="#FFFFFF" stroke-miterlimit="10" points="851.758,231.102 747.394,231.102 740.138,162.418 
			856.769,162.418 		"/>
		<path fill="#FFFFFF" d="M821.41,197.662l-3.611-2.345l-1.723-12.267l-4.252,0.611l-9.362-8.14l-2.774,3.251h-12.439v4.116
			l-8.102,5.064l2.276,3.646l-3.679,12.041l4.287,1.311l4.933,11.074l3.935-1.752l11.227,5.238l1.82-3.906l11.906-3.414
			l-1.187-4.138L821.41,197.662z M799.575,209.186c-6.443,0-11.667-5.224-11.667-11.671c0-6.446,5.224-11.67,11.667-11.67
			c6.445,0,11.672,5.224,11.672,11.67S806.021,209.186,799.575,209.186L799.575,209.186z"/>
		<polygon fill="#FFFFFF" points="796.036,191.904 805.752,197.517 796.036,203.126 		"/>
	
	<g>
		<g>
			<path fill="none" stroke="#FFFFFF" stroke-width="2" stroke-miterlimit="10" stroke-dasharray="10.669,10.669" d="M793.795,262.9
				"/>
			<path fill="none" stroke="#FFFFFF" stroke-width="2" stroke-miterlimit="10" stroke-dasharray="10.669,10.669" d="
				M438.439,343.851"/>
			<path fill="none" stroke="#FFFFFF" stroke-width="2" stroke-miterlimit="10" stroke-dasharray="10.669,10.669" d="
				M524.886,343.851"/>
		</g>
		<g>
			<path fill="#FFFFFF" d="M96.964,230.001c-0.452,4.528-8.476,7.874-18.344,7.874c-9.861,0-17.885-3.29-18.336-8.403h-0.031
				l9.134-3.813l3.855-1.472v-1.593c-2.922-2.784-6.082-8.359-6.082-14.794c0-9.226,1.545-15.896,11.429-16.033
				c10.143-0.138,11.202,6.808,11.202,16.033c0,6.435-1.941,12.01-6.323,14.794v1.593l4.108,1.736L96.964,230.001z"/>
			<g>
				<path fill="#FFFFFF" d="M160.557,230.001c-0.452,4.528-8.476,7.874-18.345,7.874c-9.868,0-17.885-3.29-18.336-8.403h-0.031
					l9.475-3.813l4.198-1.472v-1.593c-3.652-2.784-6.424-8.359-6.424-14.794c0-9.226,1.374-15.896,11.25-16.033
					c10.151-0.138,11.466,6.808,11.466,16.033c0,6.435-2.414,12.01-6.066,14.794v1.593l3.767,1.736L160.557,230.001z"/>
				<path fill="#FFFFFF" d="M227.522,230.001c-0.451,4.528-8.477,7.874-18.345,7.874c-9.86,0-17.885-3.29-18.336-8.403h-0.031
					l8.862-3.813l3.583-1.472v-1.593c-3.652-2.784-5.81-8.359-5.81-14.794c0-9.226,1.681-15.896,11.564-16.033
					c10.143-0.138,11.725,6.808,11.725,16.033c0,6.435-2.141,12.01-5.793,14.794v1.593l3.654,1.736L227.522,230.001z"/>
				<path fill="#FFFFFF" d="M294.488,230.001c-0.443,4.528-8.468,7.874-18.337,7.874c-9.867,0-17.892-3.29-18.336-8.403h-0.031
					l9.339-3.813l4.062-1.472v-1.593c-3.652-2.784-6.286-8.359-6.286-14.794c0-9.226,1.435-15.896,11.317-16.033
					c10.151-0.138,10.998,6.808,10.998,16.033c0,6.435-2.881,12.01-6.533,14.794v1.593l4.27,1.736L294.488,230.001z"/>
			</g>
			<path fill="#FFFFFF" d="M352.222,230.001c-0.444,4.528-8.477,7.874-18.345,7.874c-9.86,0-17.885-3.29-18.336-8.403h-0.032
				l9.328-3.813l4.051-1.472v-1.593c-4.383-2.784-6.277-8.359-6.277-14.794c0-9.226,1.449-15.896,11.326-16.033
				c10.149-0.138,11.354,6.808,11.354,16.033c0,6.435-2.525,12.01-6.178,14.794v1.593l3.922,1.736L352.222,230.001z"/>
		</g>
	</g>



</svg>
