<svg version="1.1" id="Layer_1" xmlns="http://www.w3.org/2000/svg" xmlns:xlink="http://www.w3.org/1999/xlink" x="0px" y="0px"
 viewBox="0 0 960 560" style="enable-background:new 0 0 960 560; background-color:black;" xml:space="preserve">
<style type="text/css">

	.st0{fill-rule:evenodd;clip-rule:evenodd;fill:#3F464E;}
	.st1{fill-rule:evenodd;clip-rule:evenodd;fill:#3F474F;}
	.st2{fill-rule:evenodd;clip-rule:evenodd;fill:#3F484F;}
	.st3{fill:#FFFFFF;stroke:#3F474F;stroke-width:2;stroke-miterlimit:10;}
	.st4{fill-rule:evenodd;clip-rule:evenodd;fill:#A92DAD;}
	.st5{fill-rule:evenodd;clip-rule:evenodd;fill:#DDDEDE;}
	.st6{fill-rule:evenodd;clip-rule:evenodd;fill:#40474D;}
	.st7{fill-rule:evenodd;clip-rule:evenodd;fill:#404950;}
	.st8{fill:none;stroke:#FFFFFF;stroke-width:2;stroke-miterlimit:10;}
	.st9{fill-rule:evenodd;clip-rule:evenodd;fill:#41484F;}
	.st10{fill-rule:evenodd;clip-rule:evenodd;fill:#454C53;}
	.st11{fill-rule:evenodd;clip-rule:evenodd;fill:#45D066;}
	.st12{fill-rule:evenodd;clip-rule:evenodd;fill:#46C4D7;}
	.st13{fill-rule:evenodd;clip-rule:evenodd;fill:#ABB0B5;}
	.st14{fill-rule:evenodd;clip-rule:evenodd;fill:#7F8FE7;}
	.st15{fill-rule:evenodd;clip-rule:evenodd;fill:#AFB3B7;}
	.st16{fill-rule:evenodd;clip-rule:evenodd;fill:#AFB4B9;}
	.st17{fill:none;stroke:#FFFFFF;stroke-miterlimit:10;}
	.st18{fill-rule:evenodd;clip-rule:evenodd;fill:#E4E4E4;}
	.st19{fill-rule:evenodd;clip-rule:evenodd;fill:#4BD3E7;}
	.st20{fill-rule:evenodd;clip-rule:evenodd;fill:#4BDF6F;}
	.st21{fill-rule:evenodd;clip-rule:evenodd;fill:#4CE470;}
	.st22{fill-rule:evenodd;clip-rule:evenodd;fill:#4D545B;}
	.st23{fill-rule:evenodd;clip-rule:evenodd;fill:#4DD8ED;}
	.st24{fill-rule:evenodd;clip-rule:evenodd;fill:#8188E0;}
	.st25{fill-rule:evenodd;clip-rule:evenodd;fill:#B3B7BC;}
	.st26{fill-rule:evenodd;clip-rule:evenodd;fill:#B3B8BD;}
	.st27{fill-rule:evenodd;clip-rule:evenodd;fill:#B5BBC0;}
	.st28{fill-rule:evenodd;clip-rule:evenodd;fill:#B7BBBF;}
	.st29{fill-rule:evenodd;clip-rule:evenodd;fill:#1D85B1;}
	.st30{fill-rule:evenodd;clip-rule:evenodd;fill:#BA3431;}
	.st31{fill-rule:evenodd;clip-rule:evenodd;fill:#BA3536;}
	.st32{fill-rule:evenodd;clip-rule:evenodd;fill:#BABFC3;}
	.st33{fill-rule:evenodd;clip-rule:evenodd;fill:#BBC0C4;}
	.st34{fill-rule:evenodd;clip-rule:evenodd;fill:#BDC2C7;}
	.st35{fill-rule:evenodd;clip-rule:evenodd;fill:#F09260;}
	.st36{fill:#FFFFFF;}
	.st37{fill-rule:evenodd;clip-rule:evenodd;fill:#F1804E;}
	.st38{fill-rule:evenodd;clip-rule:evenodd;fill:#F34743;}
	.st39{fill-rule:evenodd;clip-rule:evenodd;fill:#F39867;}
	.st40{fill-rule:evenodd;clip-rule:evenodd;fill:#F4C962;}
	.st41{fill-rule:evenodd;clip-rule:evenodd;fill:#2697BB;}
	.st42{fill-rule:evenodd;clip-rule:evenodd;fill:#279CC0;}
	.st43{fill-rule:evenodd;clip-rule:evenodd;fill:#F9F9FA;}
	.st44{fill-rule:evenodd;clip-rule:evenodd;fill:#F9FAFA;}
	.st45{fill-rule:evenodd;clip-rule:evenodd;fill:#C3C7CC;}
	.st46{fill-rule:evenodd;clip-rule:evenodd;fill:#C3C8CD;}
	.st47{fill-rule:evenodd;clip-rule:evenodd;fill:#94E39A;}
	.st48{fill-rule:evenodd;clip-rule:evenodd;fill:#C5C9CB;}
	.st49{fill-rule:evenodd;clip-rule:evenodd;fill:#FAFAFA;}
	.st50{fill-rule:evenodd;clip-rule:evenodd;fill:#FAFAFB;}
	.st51{fill-rule:evenodd;clip-rule:evenodd;fill:#C736CB;}
	.st52{fill-rule:evenodd;clip-rule:evenodd;fill:#FBBB3E;}
	.st53{fill-rule:evenodd;clip-rule:evenodd;fill:#FBFBFB;}
	.st54{fill-rule:evenodd;clip-rule:evenodd;fill:#FCCE68;}
	.st55{fill-rule:evenodd;clip-rule:evenodd;fill:#FCFCFC;}
	.st56{fill-rule:evenodd;clip-rule:evenodd;fill:#FDFDFD;}
	.st57{fill-rule:evenodd;clip-rule:evenodd;fill:#FDFEFD;}
	.st58{fill-rule:evenodd;clip-rule:evenodd;fill:#FE4743;}
	.st59{fill-rule:evenodd;clip-rule:evenodd;fill:#9BEDA2;}
	.st60{fill-rule:evenodd;clip-rule:evenodd;fill:#6976BD;}
	.st61{fill:#3F474F;}
	.st62{fill:#3F484F;}
	.st63{fill-rule:evenodd;clip-rule:evenodd;fill:#9EF3A5;}
	.st64{fill-rule:evenodd;clip-rule:evenodd;fill:#CE37D2;}
	.st65{fill-rule:evenodd;clip-rule:evenodd;fill:#6A78BC;}

</style>


<!-- WEVUE LOGO -->

	<path class="st61" d="M462.677,217.548c-27.996,0-55.993-0.059-83.989,0.085c-2.984,0.015-3.589-0.603-3.583-3.585
		c0.113-55.993,0.113-111.986,0-167.979c-0.006-2.982,0.601-3.588,3.583-3.583c55.993,0.113,111.986,0.113,167.979,0
		c2.982-0.006,3.589,0.6,3.583,3.583c-0.112,55.993-0.112,111.986,0,167.979c0.006,2.982-0.599,3.6-3.583,3.585
		C518.67,217.489,490.674,217.548,462.677,217.548z"/>
<g>
	<path class="st42" d="M410.531,113.39c-0.025-2.674-1.529-4.811-3.096-6.624c-3.684-4.26-2.11-6.463,2.232-8.869
		c6.353-3.522,12.359-7.67,18.513-11.551c3.312-6.018,8.452-9.293,15.209-10.146c2.068,0.517,3.469,2.021,4.624,3.592
		c4.418,6.013,8.136,12.48,11.935,18.892c0.822,1.388,0.913,2.803,0.376,4.295c-3.993,4.1-9.367,5.469-14.498,7.317
		c-5.579-1.756-10.221-5.219-15.021-8.385c-7.534-4.968-8.637-4.776-14.275,2.733c-1.133,1.835-1.799,3.879-2.668,5.833
		C413.224,111.908,412.822,113.778,410.531,113.39z"/>
	<path class="st64" d="M464.979,74.341c7.203-9.895,7.183-9.872,16.358-1.913c6.376,5.531,12.816,10.987,19.228,16.477
		c3.513,1.264,7.803,1.604,8.029,6.768c-3.514,8.687-10.837,14.413-16.645,21.315c-0.629,0.747-1.759,0.86-2.77,0.93
		c-5.354-2.273-8.68-6.851-12.433-10.947c-0.327-5.988,2.191-11.354,3.864-16.881c2.391-7.903,0.151-11.697-8.146-13.117
		C469.821,76.502,466.559,77.805,464.979,74.341z"/>
	<path class="st23" d="M410.531,113.39c1.916-3.16,0.672-7.811,4.708-9.969c1.195-1.075,2.584-1.397,4.128-1.015
		c7.348,1.823,14.54,4.152,21.662,6.702c0.752,0.269,1.323,0.962,1.83,1.625c1.431,2.638-0.137,4.69-1.366,6.783
		c-1.4,2.384-2.291,5.055-4.057,7.232c-4.756,3.65-10.538,3.538-16.066,4.291c-9.11,1.239-10.035,2.219-10.378,11.592
		c0.484,1.925,1.396,3.697,1.998,5.57c0.555,1.729,0.962,3.577-0.927,4.911c-12.044-3.34-12.042-3.34-8.323-15.485
		C406.008,128.216,408.267,120.802,410.531,113.39z"/>
	<path class="st21" d="M412.062,151.112c-0.6-3.403-2.429-6.314-3.767-9.423c1.428-2.973,3.825-4.702,6.827-6.026
		c4.513-1.991,9.061-3.913,13.53-6.01c2.383-1.118,4.853-2.255,7.452-0.43c2.021,4.227,2.191,8.916,3.319,13.365
		c-1.413,5.9-5.788,9.976-9.242,14.571c-5.009,6.666-5.002,8.858,1.096,15.222c2.467,1.946,6.829,1.82,6.943,6.339
		c-10.81,5.812-10.718,5.77-15.729-5.204C419.07,166.024,416.339,158.207,412.062,151.112z"/>
	<path class="st58" d="M507.493,95.64c-2.309-2.245-4.618-4.49-6.928-6.734c12.135-1.988,12.063-1.978,13.766,10.151
		c1.15,8.196,2.538,16.358,3.819,24.536c3.877,6.535,3.937,7.49,0.707,11.124c-6.818,2.355-13.987,2.842-21.056,3.854
		c-2.152,0.309-4.333,0.324-6.231-1.066c-3.102-4.498-1.33-9.794-2.387-14.617c1.026-2.701,2.85-4.719,5.314-6.225
		c2.963-1.81,5.707-3.981,8.718-5.688c4.132-2.341,6.438-5.176,3.986-10.018C506.271,99.118,507.381,97.411,507.493,95.64z"/>
	<path class="st63" d="M438.222,178.72c-2.63-1.976-6.403-2.148-8.307-5.268c-0.783-2.662-0.461-5.113,0.877-7.614
		c2.185-4.083,4.179-8.271,5.921-12.576c0.812-2.007,1.861-3.917,4.151-4.673c6.068,1.577,10.685,5.316,14.712,9.928
		c1.125,4.233,1.034,8.563,1.042,12.895c0.015,8.381,1.449,9.915,10.021,10.904c3.165,0.428,6.563-2.437,9.538,0.667
		c-0.128,3.469-2.329,6.134-3.599,9.154c-1.206,2.865-3.076,0.929-4.513,0.28C458.092,187.906,448.164,183.297,438.222,178.72z"/>
	<path class="st39" d="M518.239,133.669c1.713-3.375-0.793-6.711-0.089-10.077c10.497,5.912,10.494,5.91,4.159,15.669
		c-3.808,5.865-7.59,11.746-11.413,17.601c-1.095,1.676-2.369,3.258-1.928,5.461c-1.883,2.961-1.805,7.74-7.037,7.604
		c-7.347-2.412-13.032-7.6-19.396-11.653c-1.298-0.827-1.879-2.25-2.468-3.625c1.425-5.841,5.963-9.438,9.787-13.555
		c5.321-1.511,10.59-0.349,15.799,0.581c4.317,0.771,7.631,0.138,9.231-4.407C515.484,135.563,517.084,134.833,518.239,133.669z"/>
	<path class="st54" d="M502.213,168.637c3.087-1.208,2.985-5.833,6.757-6.311c3.305,10.281,3.301,10.269-6.943,13.202
		c-8.623,2.469-17.235,4.971-25.852,7.457c-3.09,0.343-5.848,2.625-9.179,1.583c-0.999-0.833-2.36-1.256-2.903-2.601
		c-2.546-6.303-4.098-12.901-5.714-19.475c-0.326-1.326,0.401-2.569,1.096-3.716c4.854-2.686,10.505-1.378,15.55-3.103
		c5.578,2.072,8.663,6.94,12.23,11.199c2.878,3.437,5.823,5.338,10.128,2.485C498.854,168.383,500.668,169.335,502.213,168.637z"/>
	<path class="st14" d="M464.979,74.341c3.102,0.103,6.204,0.207,9.306,0.31c0.911,1.006,1.733,2.177,1.81,3.489
		c0.512,8.74,1.52,17.503-0.656,26.179c-3.845,3.325-7.577,0.556-11.344-0.208c-3.793-4.424-4.718-10.054-6.137-15.405
		c-1.479-5.577-3.031-10.574-10.338-10.147c-1.393,0.081-2.688-1.195-4.2-1.329c-5.08,3.039-10.161,6.078-15.242,9.115
		c-0.427-11.839-0.427-11.818,11.394-11.846C448.042,74.48,456.511,74.396,464.979,74.341z"/>
	<path class="st1" d="M464.239,102.413c3.269,0.617,6.538,1.234,9.807,1.851c2.183-0.872,3.156,0.687,4.204,2.093
		c4.335,2.74,7.708,6.448,10.657,10.582c2.58,0.672,2.792,2.468,2.206,4.645c1.312,4.928,1.341,9.954,1.128,14.998
		c1.76,2.726,0.65,4.542-1.874,5.907c-2.255,4.649-5.539,8.499-9.299,11.98c-0.216,3.357-2.371,3.537-4.95,3.018
		c-5.155,1.873-10.47,2.676-15.949,2.391c-2.517,1.962-4.363,0.829-5.994-1.3c-4.871-2.171-9.119-5.234-12.875-9
		c-4.396-0.222-3.628-3.592-3.868-6.347c-1.513-4.409-2.498-8.913-2.469-13.602c-2.556-2.523,0.101-4.148,1.045-6.068
		c1.298-4.375,3.836-8.094,6.279-11.864c-0.025-2.042,1.101-2.86,3.018-2.835c4.378-2.79,9.011-5.007,14.081-6.234
		C460.933,100.955,462.561,101.12,464.239,102.413z"/>
	<path class="st60" d="M464.239,102.413c-1.619,0.072-3.237,0.144-4.854,0.215c-4.932-8.709-10.102-17.27-15.966-25.394
		c0.636-0.184,1.259-0.465,1.904-0.532c11.212-1.155,11.622-0.882,14.619,9.924C461.4,91.881,462.808,97.15,464.239,102.413z"/>
	<path class="st29" d="M445.305,108.861c-1.006,0.944-2.012,1.888-3.018,2.834c-9.016-2.757-18.032-5.516-27.047-8.274
		c0.937-3.456,3.989-5.167,6.252-7.515c1.173-1.217,2.647-1.313,4.076-0.353C432.153,99.979,438.727,104.424,445.305,108.861z"/>
	<path class="st4" d="M478.25,106.357c-1.401-0.697-2.803-1.396-4.204-2.093c0.079-9.872,0.159-19.743,0.239-29.613
		c0.625,0.206,1.297,0.323,1.867,0.63c10.079,5.436,10.045,5.431,6.546,16.366C481.136,96.525,479.728,101.452,478.25,106.357z"/>
	<path class="st30" d="M491.112,121.583c-0.734-1.548-1.47-3.097-2.205-4.645c6.195-7.099,12.391-14.199,18.586-21.298
		c5.231,11.859,5.24,11.873-5.588,19.014C498.337,117.008,494.712,119.276,491.112,121.583z"/>
	<path class="st12" d="M436.008,123.561c-0.348,2.022-0.697,4.045-1.045,6.067c-8.889,4.021-17.778,8.041-26.667,12.061
		c0.189-1.314,0.36-2.632,0.569-3.944c1.567-9.841,1.59-9.7,11.627-11.153C425.698,125.838,431.199,126.4,436.008,123.561z"/>
	<path class="st11" d="M437.432,143.23c1.289,2.115,2.578,4.231,3.867,6.347c-3.794,7.958-7.589,15.917-11.384,23.875
		c-0.744-0.649-1.567-1.226-2.217-1.958c-6.107-6.88-6.017-7.642-0.251-14.794C430.951,152.352,434.115,147.729,437.432,143.23z"/>
	<path class="st37" d="M490.366,142.488c0.625-1.969,1.249-3.938,1.874-5.907c8.751-0.209,17.222-2.927,25.998-2.912
		c-2.452,11.801-2.746,11.939-14.084,10.207C499.594,143.179,494.964,142.937,490.366,142.488z"/>
	<path class="st47" d="M454.175,158.577c1.999,0.433,3.996,0.866,5.994,1.3c2.275,8.23,4.552,16.461,6.827,24.692
		c-0.667-0.02-1.337,0.007-1.998-0.067c-10.127-1.142-10.816-1.906-10.818-11.931C454.18,167.906,454.177,163.241,454.175,158.577z"
		/>
	<path class="st52" d="M476.117,157.486c1.65-1.005,3.3-2.011,4.95-3.018c7.048,4.723,14.097,9.445,21.145,14.168
		c-0.335,0.366-0.618,0.803-1.013,1.083c-7.935,5.628-9.285,5.561-15.693-1.371C482.259,164.836,479.24,161.113,476.117,157.486z"/>
	<path class="st18" d="M475.061,130.649c-6.663,3.843-12.502,7.21-18.877,10.888c0-7.436,0-14.246,0-21.755
		C462.481,123.407,468.32,126.768,475.061,130.649z"/>


<animateTransform attributeName="transform" begin=".1" attributeType="HML" type="translate" dur="8.5s" values="0,0; 0,-100;0,-110;-310,35;-310,35; 0, 0;" repeatCount="indefinite"/>

</g>


<!--  Computer -->
<rect x="327.5" y="60.5" class="st17" width="268" height="137"/>

\


<!--  Photos -->
<g>
	<g>
		<polyline class="st36" points="296.088,356.185 296.088,278.592 358.951,278.592 358.951,356.185 		"/>
		<rect x="299.66" y="283.781" class="st61" width="55.725" height="53.477"/>
	</g>
	<g>
		<polyline class="st36" points="313.043,461.272 313.043,383.681 375.906,383.681 375.906,461.272 		"/>
		<rect x="316.615" y="388.868" class="st61" width="55.724" height="53.478"/>
	</g>
	<g>
		<polyline class="st36" points="457.854,363.053 457.854,285.461 520.717,285.461 520.717,363.053 		"/>
		<rect x="461.426" y="290.649" class="st61" width="55.724" height="53.478"/>
	</g>
	<g>
		<polyline class="st36" points="384.127,414.311 384.127,336.719 446.989,336.719 446.989,414.311 		"/>
		<rect x="387.697" y="341.907" class="st61" width="55.726" height="53.478"/>
	</g>
	<g>
		<polyline class="st36" points="548.601,341.907 548.601,264.315 611.463,264.315 611.463,341.907 		"/>
		<rect x="552.172" y="269.504" class="st61" width="55.725" height="53.477"/>
	</g>
	<animateTransform attributeName="transform" begin=".1" attributeType="HML" type="translate" dur="8.5s" values="0,0; 0,-100;0,-110;-310,35;-310,35; 300,-50; 0,0" repeatCount="indefinite"/>
	<animatetransform attributeName="transform" begin=".1" attributeType="HML" type="translate" dur="8.5s" values="0,0; 0,-100;0,-110;-310,35;-310,35; 300,-50; 0,0" repeatCount="indefinite"/>
</g>
</svg>
