<?xml version="1.0" encoding="utf-8"?>
<!-- Generator: Adobe Illustrator 18.0.0, SVG Export Plug-In . SVG Version: 6.00 Build 0)  -->
<!DOCTYPE svg PUBLIC "-//W3C//DTD SVG 1.1//EN" "http://www.w3.org/Graphics/SVG/1.1/DTD/svg11.dtd">
<svg version="1.1" xmlns="http://www.w3.org/2000/svg" xmlns:xlink="http://www.w3.org/1999/xlink" x="0px" y="0px"
	 viewBox="0 0 176.4 144" enable-background="new 0 0 176.4 144" xml:space="preserve">
<g id="Layer_1">
</g>
<g id="Layer_2">
</g>
<g id="Layer_3">
	
	<path fill="black" d="M27.6,129.3c40.9,0,81.2,0,121.8,0c0-37.9,0-75.3,0-112.8c-40.8,0-81.3,0-121.8,0
		C27.6,54.2,27.6,91.5,27.6,129.3z"/>
	<g>
		<path fill="#3F474F" d="M87.9,44.6C65,44.6,44.9,57,34,75.4c10.9,18.4,30.9,30.7,53.9,30.7c22.9,0,43-12.3,53.9-30.7
			C130.9,57,110.8,44.6,87.9,44.6z M88.2,102.7c-14.4,0-26.1-11.7-26.1-26.1c0-14.4,11.7-26.1,26.1-26.1c14.4,0,26.1,11.7,26.1,26.1
			C114.3,91,102.6,102.7,88.2,102.7z"/>
		<circle fill="#3F474F" cx="88.2" cy="76.6" r="14.1"/>
	</g>
	
</g>
</svg>
