
<svg version="1.1" id="Layer_1" xmlns="http://www.w3.org/2000/svg" xmlns:xlink="http://www.w3.org/1999/xlink" x="0px" y="0px"
	 viewBox="0 0 1038.77 766.689" style=" background-color:black;enable-background:new 0 0 1038.77 766.689;"
	 xml:space="preserve">
<style type="text/css">

	.st0{font-size:75.4068px;}
	.st1{fill-rule:evenodd;clip-rule:evenodd;fill:#A3A5A1;}
	.st2{fill:none;stroke:#FFFFFF;stroke-width:2;stroke-miterlimit:10;stroke-dasharray:10.669,10.669;}
	.st3{font-size:21.9937px;}
	.st4{fill:none;stroke:#FFFFFF;stroke-miterlimit:10;}
	.st5{font-size:28.3069px;}
	.st6{fill-rule:evenodd;clip-rule:evenodd;fill:#898B86;}
	.st7{fill-rule:evenodd;clip-rule:evenodd;fill:#EDEDEB;}
	.st8{fill-rule:evenodd;clip-rule:evenodd;fill:#BDBFBA;}
	.st9{fill:#FFFFFF;}
	.st10{fill:none;}
	.st11{fill-rule:evenodd;clip-rule:evenodd;fill:#969893;}
	.st12{fill-rule:evenodd;clip-rule:evenodd;fill:#FFFFFF;}
	.st13{fill:#3F474F;}
	.st14{font-family:'Avenir-Heavy';}
	.st15{font-family:'Avenir-Roman';}
	.st16{fill-rule:evenodd;clip-rule:evenodd;fill:#D3D7CF;}
	.st17{font-size:37.7034px;}

</style>
<rect x="240.819" y="-1.473" class="st10" width="557.008" height="144.529"/>
<text transform="matrix(1 0 0 1 286.9243 55.5347)" class="st9 st14 st0">How it works</text>
<g>
	<g>
		<polygon class="st13" points="516.596,217.259 504.992,204.103 452.839,204.103 452.839,217.259 452.839,320.139 595.722,320.139 
			595.722,217.259 		"/>
		<polygon class="st4" points="516.596,217.259 504.992,204.103 452.839,204.103 452.839,217.259 452.839,320.139 595.722,320.139 
			595.722,217.259 		"/>


<!-- this is the user in the folder-->
		<path class="st9" d="M503.367,223.406l-9.211,2.087l16.93,3.351l16.933,3.354l-7.722-5.439l-3.282-2.312l0.293-1.467
			c3.862-1.91,7.176-6.598,8.353-12.531c1.683-8.507,1.792-15.143-7.592-16.87c-9.142-1.681-11.762,4.2-13.445,12.705
			c-1.173,5.932,0.102,11.529,2.947,14.768l-0.29,1.468L503.367,223.406z">
			<animateTransform attributeName="transform" begin=".1" attributeType="HML" type="translate" dur="4.5s" values="25,360;0,-25;0,25;310,35;" repeatCount="indefinite"/>
		</path>

		<path class="st9" d="M509.613,236.363c9.1,1.802,17.162-0.063,18.4-4.161l-33.829-6.698
			C493.766,229.763,500.512,234.562,509.613,236.363L509.613,236.363z">

			<animateTransform attributeName="transform" begin=".1" attributeType="HML" type="translate" dur="4.5s" values="25,360;0,-25;0,25;310,35;" repeatCount="indefinite"/>
		</path>


<!-- this is the eye in the folder-->



		<path class="st13" d="M596.064,223.196c0,7.249-5.877,13.127-13.125,13.127c-7.251,0-13.128-5.879-13.128-13.127
			c0-7.25,5.877-13.126,13.128-13.126C590.188,210.07,596.064,215.947,596.064,223.196L596.064,223.196z">
			  
	<animateTransform attributeName="transform" begin=".6" attributeType="HML" type="translate" dur="4s" values="0,350;0,-15;0,15;300,15;" repeatCount="indefinite"/>


	

		</path>
		<path class="st9" d="M583.296,208.734c-10.229-1.108-19.768,3.427-25.518,11.109c3.974,8.733,12.318,15.206,22.548,16.312
			c10.232,1.11,19.767-3.426,25.519-11.107C601.871,216.314,593.527,209.843,583.296,208.734L583.296,208.734z M580.632,234.647
			c-6.427-0.697-11.07-6.471-10.377-12.898c0.696-6.424,6.472-11.071,12.897-10.374c6.428,0.694,11.075,6.469,10.377,12.895
			C592.834,230.696,587.059,235.344,580.632,234.647L580.632,234.647z">
			   
	<animateTransform attributeName="transform" begin=".6" attributeType="HML" type="translate" dur="4s" values="0,350;0,-15;0,15;300,15;" repeatCount="indefinite"/>
		</path>
		<path class="st9" d="M588.189,223.693c-0.376,3.476-3.502,5.99-6.979,5.614c-3.476-0.377-5.991-3.5-5.613-6.979
			c0.376-3.476,3.499-5.989,6.978-5.613C586.053,217.091,588.565,220.216,588.189,223.693L588.189,223.693z">
			  
	<animateTransform attributeName="transform" begin=".6" attributeType="HML" type="translate" dur="4s" values="0,350;0,-15;0,15;300,15;" repeatCount="indefinite"/>
		</path>
		





<!-- this is the FILM in the folder-->

		<path class="st9" d="M569.638,223.75c1.028,7.037,2.049,14.076,3.092,21.111c0.187,1.269,0.209,2.51-0.534,3.405
			c-0.44,0.526-1.074,1-1.678,1.093c-9.345,1.418-18.695,2.774-28.045,4.132c-1.498,0.217-2.765-0.919-3.299-2.894
			c-0.062-0.228-0.096-0.463-0.133-0.698c-2.075-14.208-4.156-28.416-6.226-42.625c-0.385-2.66,0.615-4.275,2.777-4.591
			c8.969-1.311,17.937-2.622,26.907-3.935c2.334-0.34,3.599,0.83,4.03,3.75C567.569,209.581,568.6,216.667,569.638,223.75
			L569.638,223.75z M542.017,226.334c7.107-1.038,14.117-2.064,21.173-3.094c-1.018-6.953-2.021-13.821-3.028-20.718
			c-7.093,1.036-14.128,2.065-21.172,3.094C540.001,212.557,541.002,219.397,542.017,226.334L542.017,226.334z M545.45,249.841
			c7.117-1.042,14.109-2.062,21.187-3.097c-1.019-6.956-2.027-13.85-3.036-20.762c-7.104,1.038-14.121,2.063-21.185,3.097
			C543.432,236.018,544.436,242.887,545.45,249.841L545.45,249.841z M567.745,231.79c-0.223,0.032-0.442,0.078-0.664,0.093
			c-0.773,0.063-1.057,0.657-0.94,1.506c0.119,0.858,0.645,1.149,1.304,1.067c0.223-0.029,0.443-0.072,0.665-0.099
			c1.341-0.161,1.824-0.611,1.604-1.611C569.4,231.326,568.523,231.673,567.745,231.79L567.745,231.79z M538.714,224.052
			c-0.421,0.06-0.786-0.017-0.971,0.167c-0.312,0.319-0.758,0.844-0.699,1.204c0.074,0.465,0.547,0.951,0.934,1.244
			c0.222,0.168,0.618-0.023,0.932-0.067c1.377-0.198,1.853-0.627,1.637-1.577C540.225,223.615,539.361,223.939,538.714,224.052
			L538.714,224.052z M568.563,237.714c-0.064,0.009-0.128,0.021-0.189,0.026c-1.055,0.131-1.5,0.611-1.382,1.484
			c0.125,0.894,0.644,1.205,1.751,1.048c0.06-0.01,0.124-0.019,0.187-0.027c1.365-0.2,1.812-0.613,1.668-1.547
			C570.453,237.786,569.858,237.502,568.563,237.714L568.563,237.714z M565.221,213.956c-0.348,0.052-0.791-0.041-1.018,0.186
			c-0.312,0.316-0.677,0.899-0.618,1.314c0.058,0.42,0.587,1.041,0.939,1.097c0.652,0.105,1.374-0.002,1.964-0.293
			c0.316-0.156,0.64-0.92,0.567-1.336c-0.072-0.413-0.605-0.814-0.994-1.063C565.845,213.725,565.505,213.913,565.221,213.956
			L565.221,213.956z M536.424,208.75c0,0.002,0,0.005,0,0.008c0.191-0.026,0.378-0.062,0.57-0.082
			c0.692-0.07,1.053-0.563,0.95-1.388c-0.11-0.887-0.61-1.276-1.34-1.154c-0.504,0.082-1.018,0.113-1.51,0.243
			c-0.578,0.154-0.818,0.646-0.699,1.39c0.116,0.736,0.477,1.13,1.08,1.113C535.794,208.874,536.109,208.797,536.424,208.75
			L536.424,208.75z M539.747,232.522c0.25-0.037,0.503-0.083,0.758-0.109c0.71-0.073,1.014-0.608,0.909-1.417
			c-0.103-0.76-0.539-1.182-1.186-1.12c-0.509,0.05-1.018,0.118-1.515,0.219c-0.667,0.135-0.99,0.614-0.835,1.483
			c0.143,0.809,0.563,1.131,1.205,1.041C539.305,232.587,539.526,232.554,539.747,232.522L539.747,232.522z M542.075,247.8
			c-0.223,0.033-0.443,0.063-0.664,0.097c-0.719,0.104-1.084,0.558-0.93,1.494c0.15,0.89,0.642,1.144,1.304,1.049
			c0.312-0.046,0.627-0.112,0.945-0.133c0.784-0.052,1.45-0.351,1.282-1.492c-0.166-1.14-0.891-1.24-1.652-1.061
			C542.266,247.78,542.169,247.786,542.075,247.8L542.075,247.8z M566.396,222.392c1.344-0.195,1.736-0.565,1.596-1.502
			c-0.137-0.925-0.679-1.211-1.967-1.01c-0.772,0.12-1.716,0.042-1.631,1.485C564.452,222.34,564.997,222.598,566.396,222.392
			L566.396,222.392z M537.161,214.672c0.283-0.041,0.646,0.037,0.834-0.148c0.333-0.34,0.768-0.803,0.789-1.269
			c0.039-0.724-0.431-1.228-1.091-1.177c-0.57,0.045-1.143,0.124-1.697,0.251c-0.636,0.148-0.869,0.677-0.716,1.463
			c0.142,0.735,0.514,1.081,1.126,0.992C536.658,214.748,536.909,214.71,537.161,214.672L537.161,214.672z M541.171,241.896
			c-0.222,0.032-0.443,0.072-0.664,0.095c-0.638,0.06-0.983,0.454-0.917,1.273c0.071,0.861,0.479,1.274,1.178,1.235
			c0.251-0.013,0.504-0.062,0.754-0.098c1.383-0.202,1.845-0.62,1.623-1.574C542.812,241.402,541.94,241.809,541.171,241.896
			L541.171,241.896z M540.339,238.572c0.561-0.125,0.876-0.179,1.183-0.268c0.758-0.222,1.108-1.157,0.567-1.826
			c-0.341-0.417-1.056-0.665-1.524-0.567c-0.648,0.135-1.636-0.172-1.811,1.003c-0.065,0.436,0.159,1.198,0.449,1.437
			C539.554,238.645,540.11,238.54,540.339,238.572L540.339,238.572z M563.72,204.572c0.252-0.037,0.503-0.082,0.757-0.109
			c0.711-0.073,1.021-0.587,0.893-1.414c-0.117-0.776-0.553-1.141-1.21-1.028c-0.5,0.085-1.006,0.157-1.513,0.221
			c-0.655,0.086-0.965,0.547-0.851,1.34c0.12,0.839,0.563,1.224,1.263,1.088C563.274,204.626,563.498,204.604,563.72,204.572
			L563.72,204.572z M569.838,246.143c0.123-0.018,0.248-0.047,0.374-0.053c0.745-0.042,1.384-0.3,1.239-1.404
			c-0.153-1.184-0.891-1.21-1.64-1.073c-0.094,0.017-0.188,0.029-0.283,0.042c-1.407,0.204-1.85,0.595-1.651,1.547
			C568.185,246.676,569.074,246.215,569.838,246.143L569.838,246.143z M564.267,208.055c-0.095,0.016-0.187,0.035-0.281,0.042
			c-0.747,0.057-1.48,0.206-1.316,1.418c0.159,1.21,0.902,1.185,1.643,1.047c0.094-0.018,0.188-0.03,0.284-0.041
			c1.407-0.205,1.856-0.601,1.646-1.544C565.913,207.532,565.033,207.969,564.267,208.055L564.267,208.055z M566.894,225.889
			c-0.283,0.041-0.567,0.084-0.852,0.124c-0.631,0.087-0.865,0.589-0.777,1.301c0.098,0.77,0.479,1.207,1.153,1.117
			c0.282-0.039,0.565-0.08,0.852-0.119c1.354-0.2,1.771-0.562,1.581-1.49C568.544,225.346,567.655,225.809,566.894,225.889
			L566.894,225.889z M537.768,218.162c-0.285,0.041-0.57,0.085-0.854,0.125c-0.626,0.086-0.88,0.534-0.791,1.285
			c0.097,0.804,0.473,1.211,1.139,1.147c0.287-0.028,0.572-0.075,0.856-0.118c1.335-0.195,1.774-0.602,1.554-1.536
			C539.355,217.705,538.52,218.043,537.768,218.162L537.768,218.162z">

				<animateTransform attributeName="transform" begin="1.3" attributeType="HML" type="translate" dur="4s" values="15,350;0,-25;0,25;290,35;" repeatCount="indefinite"/>
		</path>
		

		<!-- this is the photo in the folder-->
			<rect x="455.299" y="208.121" transform="matrix(0.9965 -0.0836 0.0836 0.9965 -16.8861 39.7452)" class="st9" width="21.686" height="26.766">
					<animateTransform attributeName="transform" begin=".6" attributeType="HML" type="translate" dur="4s" values="-20,350;20,-15;0,15;300,15;" repeatCount="indefinite"/>
			</rect>
		
			<rect x="456.332" y="209.919" transform="matrix(0.9965 -0.0835 0.0835 0.9965 -16.6752 39.6825)" class="st13" width="19.222" height="18.446">
					<animateTransform attributeName="transform" begin=".6" attributeType="HML" type="translate" dur="4s" values="-20,350;20,-15;0,15;300,15;" repeatCount="indefinite"/>
			</rect>


		<!-- this is the photo in the folder-->
			<rect x="455.299" y="208.121" transform="matrix(0.9965 -0.0836 0.0836 0.9965 -16.8861 39.7452)" class="st9" width="21.686" height="26.766">
					<animateTransform attributeName="transform" begin=".7" attributeType="HML" type="translate" dur="4.5s" values="-50,350;0,-15;30,15; 320,25;" repeatCount="indefinite"/>
			</rect>
		
			<rect x="456.332" y="209.919" transform="matrix(0.9965 -0.0835 0.0835 0.9965 -16.6752 39.6825)" class="st13" width="19.222" height="18.446">
					<animateTransform attributeName="transform" begin=".7" attributeType="HML" type="translate" dur="4.5s" values="-50,350;0,-15;30,15; 320,25;" repeatCount="indefinite"/>
			</rect>

		<!-- this is the photo in the folder-->
			<rect x="455.299" y="208.121" transform="matrix(0.9965 -0.0836 0.0836 0.9965 -16.8861 39.7452)" class="st9" width="21.686" height="26.766">
					<animateTransform attributeName="transform" begin=".5" attributeType="HML" type="translate" dur="4.5s" values="40,350;10,-20;0,15; 320,19;" repeatCount="indefinite"/>
			</rect>
		
			<rect x="456.332" y="209.919" transform="matrix(0.9965 -0.0835 0.0835 0.9965 -16.6752 39.6825)" class="st13" width="19.222" height="18.446">
					<animateTransform attributeName="transform" begin=".5" attributeType="HML" type="translate" dur="4.5s" values="40,350;10,-20;0,15; 320,19;" repeatCount="indefinite"/>
			</rect>


		
		
			<rect x="448.129" y="230.516" transform="matrix(0.9617 -0.2741 0.2741 0.9617 -47.4573 131.946)" class="st13" width="0.773" height="10.619"/>
		
			<rect x="469.725" y="224.354" transform="matrix(0.9618 -0.2737 0.2737 0.9618 -44.9098 137.4508)" class="st13" width="0.774" height="10.62"/>


<!--  this is the note -->
		<path class="st12" d="M491.96,236.201c-0.234-0.099-0.49-0.165-0.7-0.303c-6.671-4.354-13.326-8.736-20.016-13.061
			c-1.617-1.042-2.389-2.497-2.533-4.32c-0.167-2.106,0.342-4.04,1.922-5.537c1.691-1.6,3.959-1.347,5.188,0.628
			c1.372,2.197,1.354,4.482,0.093,6.745c-0.232,0.417-0.489,0.824-0.758,1.22c-0.222,0.327-0.234,0.562,0.139,0.805
			c3.47,2.252,6.931,4.517,10.392,6.781c0.346,0.227,0.526,0.176,0.666-0.231c1.488-4.333,2.984-8.667,4.49-12.994
			c0.176-0.505-0.123-0.701-0.472-0.927c-3.938-2.567-7.845-5.186-11.821-7.695c-2.37-1.493-3.041-3.634-2.701-6.217
			c0.115-0.866,0.492-1.697,0.745-2.544c0.168-0.254,0.335-0.51,0.502-0.767c0.143-0.125,0.296-0.242,0.43-0.378
			c1.651-1.687,4.006-1.515,5.303,0.455c0.397,0.601,0.678,1.318,0.863,2.023c0.568,2.164-0.135,4.082-1.359,5.833
			c-0.396,0.568-0.283,0.808,0.256,1.158c5.096,3.301,10.172,6.638,15.271,9.936c0.556,0.359,0.638,0.697,0.429,1.284
			c-1.511,4.299-3.007,8.604-4.495,12.913c-0.557,1.617-1.08,3.245-1.619,4.868C492.103,235.982,492.032,236.094,491.96,236.201
			L491.96,236.201z">

	<animateTransform attributeName="transform" begin=".6" attributeType="HML" type="translate" dur="4s" values="0,350;0,-15;0,15;300,15;" repeatCount="indefinite"/>

		</path>



		<polygon class="st13" points="595.722,320.529 452.839,320.529 442.904,226.495 602.583,226.495 		"/>
		<polygon class="st4" points="595.722,320.529 452.839,320.529 442.904,226.495 602.583,226.495 		"/>
		<path class="st9" d="M554.174,274.747l-4.945-3.211l-2.358-16.794l-5.821,0.836l-12.818-11.144l-3.798,4.452h-17.031v5.635
			l-11.092,6.933l3.117,4.992l-5.037,16.485l5.87,1.795l6.753,15.161l5.386-2.399l15.37,7.171l2.493-5.348l16.3-4.673l-1.624-5.666
			L554.174,274.747z M524.28,290.523c-8.822,0-15.974-7.152-15.974-15.978s7.152-15.977,15.974-15.977
			c8.824,0,15.979,7.152,15.979,15.977S533.104,290.523,524.28,290.523L524.28,290.523z"/>
		<polygon class="st9" points="519.435,266.864 532.736,274.548 519.435,282.228 		"/>
	</g>
	<g>
		<g>
			<path class="st2" d="M516.366,364.063"/>
			<path class="st2" d="M462.485,470.762"/>
			<path class="st2" d="M580.838,470.762"/>
		</g>
		<g>
			<path class="st9" d="M366.218,733.068c-0.618,6.199-11.604,10.78-25.114,10.78c-13.5,0-24.486-4.505-25.104-11.505h-0.042
				l12.505-5.221l5.278-2.015v-2.18c-4-3.812-8.326-11.446-8.326-20.255c0-12.63,2.116-21.762,15.647-21.951
				c13.887-0.188,15.336,9.321,15.336,21.951c0,8.809-2.657,16.443-8.657,20.255v2.18l5.625,2.377L366.218,733.068z"/>
			<g>
				<path class="st9" d="M453.282,733.068c-0.619,6.199-11.604,10.78-25.115,10.78s-24.486-4.505-25.104-11.505h-0.042l12.973-5.221
					l5.747-2.015v-2.18c-5-3.812-8.795-11.446-8.795-20.255c0-12.63,1.882-21.762,15.403-21.951
					c13.898-0.188,15.697,9.321,15.697,21.951c0,8.809-3.305,16.443-8.305,20.255v2.18l5.157,2.377L453.282,733.068z"/>
				<path class="st9" d="M544.964,733.068c-0.617,6.199-11.604,10.78-25.115,10.78c-13.5,0-24.486-4.505-25.104-11.505h-0.042
					l12.133-5.221l4.905-2.015v-2.18c-5-3.812-7.954-11.446-7.954-20.255c0-12.63,2.302-21.762,15.833-21.951
					c13.887-0.188,16.053,9.321,16.053,21.951c0,8.809-2.932,16.443-7.932,20.255v2.18l5.003,2.377L544.964,733.068z"/>
				<path class="st9" d="M636.646,733.068c-0.606,6.199-11.593,10.78-25.104,10.78c-13.51,0-24.496-4.505-25.104-11.505h-0.042
					l12.785-5.221l5.561-2.015v-2.18c-5-3.812-8.607-11.446-8.607-20.255c0-12.63,1.964-21.762,15.495-21.951
					c13.898-0.188,15.058,9.321,15.058,21.951c0,8.809-3.945,16.443-8.945,20.255v2.18l5.845,2.377L636.646,733.068z"/>
			</g>
			<path class="st9" d="M715.688,733.068c-0.608,6.199-11.604,10.78-25.115,10.78c-13.5,0-24.486-4.505-25.104-11.505h-0.043
				l12.771-5.221l5.545-2.015v-2.18c-6-3.812-8.594-11.446-8.594-20.255c0-12.63,1.984-21.762,15.506-21.951
				c13.896-0.188,15.546,9.321,15.546,21.951c0,8.809-3.458,16.443-8.458,20.255v2.18l5.369,2.377L715.688,733.068z"/>
		</g>
	</g>
	<g>
		<g>
			<path class="st9" d="M203.738,296.871c-0.922,9.426-17.48,17.036-37.829,17.036c-20.36,0-36.918-7.562-37.84-16.562h-0.062
				l18.819-8.72l7.916-3.881v-3.278c-8-5.76-12.514-17.26-12.514-30.529c0-19.029,3.195-32.802,23.586-33.074
				c20.936-0.283,23.041,14.044,23.041,33.074c0,13.27-5.113,24.769-13.113,30.529v3.278l8.552,3.644L203.738,296.871z"/>
		</g>
		<rect x="31.98" y="170.36" class="st10" width="267.794" height="52.746"/>
		<text transform="matrix(1 0 0 1 90.231 191.7603)" class="st9 st14 st5">The Admin </text>
		<rect x="13.926" y="329.648" class="st10" width="303.902" height="158.396"/>
		<text transform="matrix(1 0 0 1 38.624 346.2754)"><tspan x="0" y="0" class="st9 st14 st3">Submits a request to the </tspan><tspan x="-8.369" y="26.393" class="st9 st14 st3">community via the app for </tspan><tspan x="18.552" y="52.785" class="st9 st14 st3">photos and videos of </tspan><tspan x="31.671" y="78.753" class="st9 st14 st3">a topic or location</tspan><tspan x="271.176" y="86.753" class="st9 st14 st5"> </tspan></text>
	</g>
	<g>
		<path class="st9" d="M872.812,236.364c-24.749,0-46.373,13.312-58.135,33.166c11.762,19.852,33.386,33.165,58.135,33.165
			c24.747,0,46.372-13.312,58.136-33.165C919.184,249.677,897.559,236.364,872.812,236.364L872.812,236.364z M873.154,299.007
			c-15.548,0-28.149-12.602-28.149-28.146c0-15.548,12.602-28.151,28.149-28.151c15.543,0,28.146,12.603,28.146,28.151
			C901.301,286.405,888.697,299.007,873.154,299.007L873.154,299.007z"/>
		<path class="st9" d="M888.383,269.528c0,8.411-6.82,15.232-15.229,15.232c-8.416,0-15.229-6.821-15.229-15.232
			c0-8.409,6.813-15.228,15.229-15.228C881.562,254.3,888.383,261.119,888.383,269.528L888.383,269.528z"/>
	</g>
	<text transform="matrix(1 0 0 1 780.9531 198.3618)" class="st9 st14 st5">Your Website</text>
	<text transform="matrix(1 0 0 1 808.0898 355.8564)"><tspan x="-12" y="-10" class="st9 st14 st3">Displays content</tspan><tspan x="-43.393" y="16.393" class="st9 st14 st3">generated on the app</tspan>
<tspan  x="-90.393" y="42" class="st9 st14 st3"> for marketing and recruitment</tspan></text>
	<rect x="218.402" y="608.75" class="st10" width="589.933" height="158.396"/>
	<text transform="matrix(1 0 0 1 314.8354 625.377)"><tspan x="60" y="0" class="st9 st14 st3">Members of the community </tspan><tspan x="-20.654" y="33.969" class="st9 st14 st3">submit and caption their photos and videos</tspan><tspan x="432.718" y="33.969" class="st9 st14 st5"> </tspan></text>
</g>
<g>


<!--  this is the plane -->
	<path class="st6" d="M77.323,246.716c0.031-1.936-0.645-3.125-2.711-3.813c-3.222-1.072-6.494-2.1-9.515-3.721
		c0-0.281,0-0.561,0-0.841c1.521-1.284,3.458-0.852,5.195-1.221c1.565-0.333,3.2-0.337,4.772-0.646
		c2.395-0.471,4.681-0.62,6.77,0.985c0.985,0.757,1.702,0.56,1.782-0.789c0.084-1.417,1.093-1.679,2.196-2.116
		c5.398-2.137,9.39-0.853,13.213,3.733c4.552,5.461,9.974,10.196,15.009,15.256c0.618,0.621,1.587,1.22,0.976,2.274
		c-0.563,0.972-1.495,0.372-2.282,0.235c-1.58-0.273-3.158-0.557-4.737-0.836c-2.357,0.445-4.524-0.546-6.776-0.901
		c-6.82-1.329-13.583-2.942-20.442-4.076C77.819,249.546,77.41,249.127,77.323,246.716z">


			<animateTransform attributeName="transform" begin=".6" attributeType="HML" type="translate" dur="4s" values="50,0;0,-15;0,15;400,360;" repeatCount="indefinite"/>

	</path>

	<path class="st7" d="M110.527,253.972c-1.125-0.304-2.25-0.606-3.373-0.91c-2.043-0.167-3.938-0.903-5.828-1.598
		c-6.819-2.51-13.739-4.732-20.557-7.242c-0.515-0.166-0.966-0.449-1.398-0.767c-3.801-1.924-7.98-2.863-11.922-4.825
		c2.717-0.371,5.466-0.592,8.143-1.157c2.59-0.547,4.791,0.046,6.875,1.496c1.176,0.818,1.919,0.697,2.017-0.906
		c0.114-1.861,1.354-2.193,2.943-2.785c4.329-1.613,7.127-0.117,10.047,3.119c4.633,5.135,9.762,9.821,14.681,14.696
		c-0.249,1.184-0.856,0.445-1.361,0.256c-7.779-4.705-15.174-9.999-22.797-14.946c-0.535-0.347-1.203-1.083-1.787-0.185
		c-0.571,0.877-0.385,1.81,0.581,2.337c1.658,0.907,3.266,1.9,4.951,2.756c5.856,2.975,11.831,5.724,17.5,9.056
		C109.828,252.713,110.805,252.878,110.527,253.972z">


			<animateTransform attributeName="transform" begin=".6" attributeType="HML" type="translate" dur="4s" values="50,0;0,-15;0,15;400,360;" repeatCount="indefinite"/>

	</path>

	<path class="st16" d="M110.527,253.972c-1.505-1.757-3.714-2.413-5.643-3.45c-5.969-3.208-12.042-6.228-18.085-9.297
		c-0.93-0.472-1.675-0.945-1.516-2.189c0.282-2.195,0.85-2.487,2.706-1.24c6.482,4.354,12.966,8.706,19.427,13.092
		c1.145,0.778,2.574,1.083,3.523,2.168c0.215,0.408,0.675,0.737,0.424,1.297C111.039,254.328,110.706,254.319,110.527,253.972z">

		<animateTransform attributeName="transform" begin=".6" attributeType="HML" type="translate" dur="4s" values="50,0;0,-15;0,15;400,360;" repeatCount="indefinite"/>

	</path>

	<path class="st11" d="M80.72,243.754c6.467,2.229,12.948,4.417,19.392,6.708c2.356,0.837,4.818,1.403,7.042,2.601
		c-1.755,0.892-3.362-0.209-4.994-0.476c-3.13-0.511-6.278-1.029-9.305-2.044c-2.992-1.396-6.185-2.15-9.368-2.936
		c-1.688-0.417-2.924-1.317-3.317-3.096C80.088,244.137,80.007,243.618,80.72,243.754z">


			<animateTransform attributeName="transform" begin=".6" attributeType="HML" type="translate" dur="4s" values="50,0;0,-15;0,15;400,360;" repeatCount="indefinite"/>

	</path>

	<path class="st1" d="M80.72,243.754c-0.228,1.837,0.816,2.728,2.404,3.176c2.32,0.655,4.662,1.237,6.968,1.939
		c1.036,0.315,2.145,0.618,2.764,1.672c-4.405-0.414-8.684-1.509-12.951-2.581c-1.519-0.382-1.489-1.929-0.979-3.193
		c0.175-0.434,0.478-0.808,0.446-1.312C79.866,243.351,80.34,243.337,80.72,243.754z">


			<animateTransform attributeName="transform" begin=".6" attributeType="HML" type="translate" dur="4s" values="50,0;0,-15;0,15;400,360;" repeatCount="indefinite"/>

	</path>

	<path class="st8" d="M111.364,254.353c-0.142-0.433-0.283-0.865-0.424-1.297c0.403,0.064,0.788,0.748,1.216,0.038
		c0.806,0.417,1.409,1.034,1.923,1.929C112.985,255.247,112.158,254.876,111.364,254.353z">


			<animateTransform attributeName="transform" begin=".6" attributeType="HML" type="translate" dur="4s" values="50,0;0,-15;0,15;400,360;" repeatCount="indefinite"/>

	</path>
</g>
<rect x="373.712" y="135.672" class="st10" width="388.013" height="92.683"/>
<text transform="matrix(1 0 0 1 373.7124 164.1753)" class="st9 st15 st17">The Culture App</text>
</svg>
