<svg xmlns="http://www.w3.org/2000/svg" xmlns:xlink="http://www.w3.org/1999/xlink" x="0px" y="0px"
	 viewBox="0 0 504 504" style="enable-background:new 0 0 504 504;" xml:space="preserve">
<style type="text/css">

	.st0{
	opacity: 0.8;
	fill:#3F474F;
	stroke:#42C8F4;
	stroke-width:2;
	stroke-miterlimit:10;

	}

.st0 {
		stroke-dasharray: 3000;
		stroke-dashoffset:0;
		-webkit-animation: dash 10s linear forwards;
		-o-animation: dash 10s linear forwards;
		-moz-animation: dash 10s linear forwards;
		animation: dash 10s linear forwards;

	}



	@-webkit-keyframes dash {
		from {
			stroke-dashoffset: 0;
		}
		to {
			stroke-dashoffset: -3000;
		}
	}





</style>
	<path id="arm" class="st0" d="M369.863,291.415c-21.879,4.351-38.278,16.13-50.224,29.29c-1.787-0.44-3.552-0.898-5.307-1.363
		c0-29.353,0-66.017,0-95.252c-11.204,7.58-22.081,14.938-33.497,22.662c0-7.824,0-15.023,0-22.841
		c-11.447,7.745-22.362,15.13-33.872,22.916c0-7.98,0-15.134,0-22.708c-1.239,0.776-2.077,1.265-2.877,1.807
		c-8.773,5.938-17.698,11.669-26.24,17.925c-4.008,2.935-8.053,3.468-12.971,2.739c-1.465-17.863-2.917-35.568-4.376-53.352
		c-1.07,0-2.104,0-3.128,0l0.385-22.554c-3.056,0.493-7.423,2.181-7.423,7.815c0,5.919,3.264,11.679,5.334,14.738
		c-1.131,0-2.256,0-3.405,0c-1.469,17.92-2.922,35.622-4.4,53.657c-2.862,0-5.506,0-8.148,0c0,22.187,0.714-4.565,0,73.52
		c-0.052,5.647,0.377,10.475,1.229,14.579c-0.296,0.301-0.595,0.592-0.889,0.897c-3.097,3.215-8.055,4.638-12.15,6.892
		c-1.572-4.419-4.148-8.748-4.55-13.273c-1.896-21.325-3.14-42.708-4.72-64.064c-3.2-43.27,2.735-84.765,24.853-122.795
		c2.383-4.096,8.573-9.045,12.5-8.65c17.229,1.739,32.33-3.31,47.27-10.717c4.334-2.152,9.329-3.404,14.158-4.029
		c7.811-1.012,15.18-3.538,16.267-11.734c0.725-5.457-2.59-11.452-4.096-17.207c-0.805,0.124-1.607,0.247-2.41,0.372
		c1.126-2.826,2.145-5.702,3.395-8.47c7.123-15.743,7.234-18.39-5.8-29.701c-13.252-11.5-27.329-22.114-41.566-32.389
		c-9.585-6.916-19.903-7.221-29.325,1.11c-16.031,14.171-32.222,28.182-47.845,42.791c-4.615,4.315-8.373,10.032-11.099,15.781
		c-8.668,18.283-16.869,36.793-24.879,55.378C91.771,177.597,72.721,219.72,55.863,262.7
		c-13.854,35.321-18.862,72.361-12.648,110.382c1.227,7.502,2.325,15.226,1.89,22.755c-1.347,23.306,0.619,27.097,22.321,36.517
		c49.699,21.572,102.815,26.604,155.815,29.188c52.656,2.567,105.513,1.413,158.277,1.155c38.314-0.189,66.683-19.794,80.158-54.019
		C487.344,343.496,431.043,279.256,369.863,291.415z M305.998,285.627c-5.471,0-10.906,0-16.556,0c0-3.787,0-7.517,0-11.416
		c5.474,0,10.836,0,16.556,0C305.998,278.062,305.998,281.731,305.998,285.627z M289.427,255.005c5.521,0,10.881,0,16.476,0
		c0,3.75,0,7.487,0,11.498c-5.564,0-10.922,0-16.476,0C289.427,262.621,289.427,258.893,289.427,255.005z M289.375,293.423
		c5.58,0,11.015,0,16.604,0c0,3.795,0,7.46,0,11.372c-5.425,0-10.854,0-16.604,0C289.375,300.934,289.375,297.268,289.375,293.423z
		 M272.293,304.833c-5.563,0-10.991,0-16.657,0c0-3.76,0-7.486,0-11.404c5.503,0,10.93,0,16.657,0
		C272.293,297.329,272.293,300.978,272.293,304.833z M272.219,285.65c-5.505,0-10.934,0-16.592,0c0-3.777,0-7.508,0-11.487
		c5.659,0,11.02,0,16.592,0C272.219,278.001,272.219,281.724,272.219,285.65z M255.604,255.003c5.593,0,11.021,0,16.546,0
		c0,3.936,0,7.725,0,11.502c-5.639,0-10.992,0-16.546,0C255.604,262.622,255.604,258.891,255.604,255.003z M221.864,304.797
		c0-3.669,0-7.387,0-11.44c5.538,0,10.897,0,16.518,0c0,3.757,0,7.474,0,11.44C232.953,304.797,227.537,304.797,221.864,304.797z
		 M221.777,255.097c5.435,0,10.86,0,16.577,0c0,3.687,0,7.478,0,11.416c-5.482,0-10.838,0-16.577,0
		C221.777,262.646,221.777,258.997,221.777,255.097z M221.69,274.311c5.561,0,11.062,0,16.758,0c0,3.738,0,7.47,0,11.272
		c-5.692,0-11.188,0-16.758,0C221.69,281.736,221.69,278.156,221.69,274.311z M204.644,304.895c-5.604,0-10.96,0-16.524,0
		c0-3.833,0-7.564,0-11.476c5.49,0,10.924,0,16.524,0C204.644,297.223,204.644,300.883,204.644,304.895z M188.144,254.992
		c5.564,0,10.924,0,16.475,0c0,3.875,0,7.604,0,11.499c-5.525,0-10.883,0-16.475,0C188.144,262.727,188.144,258.992,188.144,254.992
		z M188.077,274.187c5.535,0,10.895,0,16.494,0c0,3.788,0,7.52,0,11.46c-5.457,0-10.892,0-16.494,0
		C188.077,281.869,188.077,278.204,188.077,274.187z"/>

	<path class="st0" d="M200.667,170.5c0,0,1.76-4.283-2.706-11.753l-0.204,11.938C199.401,170.42,200.667,170.5,200.667,170.5z">
<animateTransform attributeName="transform" begin=".1" attributeType="HML" type="translate" dur="5s" values="0,0;-3,7;0,0" repeatCount="indefinite"/>
	</path>

	<path class="st0" d="M195.5,155.167c0.98,1.264,1.789,2.457,2.461,3.58l0.373-21.913C198.334,136.834,188,145.5,195.5,155.167z">
<animateTransform attributeName="transform" begin=".3" attributeType="HML" type="translate" dur="5s" values="0,0;2,5;0,0" repeatCount="indefinite"/>

	</path>
</svg>
