<svg version="1.1" id="Layer_1" xmlns="http://www.w3.org/2000/svg" xmlns:xlink="http://www.w3.org/1999/xlink" x="0px" y="0px"
	 viewBox="0 0 252 231.957" style="enable-background:new 0 0 252 231.957;" xml:space="preserve"
	>
<style type="text/css">

	.st0{fill:#3F474F;stroke:#42C8F4;stroke-width:2;stroke-miterlimit:10;}
	.st1{fill:none;stroke:#4CE570;stroke-width:7;stroke-miterlimit:10;}
	.st2{fill:#3F474F;}
	.st3{fill:#42C8F4;}

</style>
<g>
	<circle class="st1" cx="128.364" cy="110.145" r="81.842"/>
	<path class="st0" d="M62.063,91.771L55,88.592v-2.749c6-4.823,10.907-14.458,10.907-25.574c0-15.938-2.007-27.941-19.548-27.704
		C29.281,32.798,26.035,44.331,26.035,60.27C26.035,71.385,31,81.02,36,85.843v2.749l-6.04,3.179L14.801,99h0.051
		c0.773,8,14.642,14.068,31.694,14.068c17.05,0,30.921-6.068,31.693-14.068h0.003L62.063,91.771z"/>
	<path class="st0" d="M219.05,91.771L212,88.592v-2.749c6-4.823,10.895-14.458,10.895-25.574c0-15.938-2.014-27.941-19.555-27.704
		c-17.078,0.232-20.314,11.766-20.314,27.704c0,11.116,4.975,20.75,9.975,25.574v2.749l-6.053,3.179L171.775,99h0.051
		c0.773,8,14.643,14.068,31.695,14.068c17.05,0,30.921-6.068,31.693-14.068h0.003L219.05,91.771z"/>
	<path class="st0" d="M144.056,199.713L137,196.477v-2.749c7-4.823,10.9-14.458,10.9-25.573c0-15.938-2.012-27.941-19.552-27.705
		c-17.079,0.232-20.318,11.767-20.318,27.705c0,11.115,4.97,20.75,9.97,25.573v2.749l-6.047,3.236L96.787,207h0.051
		c0.773,8,14.642,14.068,31.695,14.068c17.05,0,30.921-6.068,31.693-14.068h0.003L144.056,199.713z"/>
	<g>
		<rect x="192" y="131" class="st2" width="23" height="41"/>
		<g>
			<path class="st3" d="M191.596,130.48v42.27h24.098v-42.27H191.596z M214.347,171.403h-21.403v-39.575h21.403V171.403z"/>
			<path class="st3" d="M212.606,133.072h-17.923v31.16h17.923V133.072z M211.26,162.886H196.03v-28.468h15.229V162.886z"/>
			<path class="st3" d="M201.449,170.009h4.392v-4.393h-4.392V170.009z M202.795,166.962h1.699v1.7h-1.699V166.962z"/>
		</g>
	</g>
	<g>
		<rect x="44" y="130" class="st2" width="23" height="41"/>
		<g>
			<path class="st3" d="M43.184,129.339v42.27h24.097v-42.27H43.184z M65.935,170.262H44.531v-39.575h21.404V170.262z"/>
			<path class="st3" d="M64.194,131.931H46.271v31.16h17.923V131.931z M62.848,161.744H47.618v-28.468h15.229V161.744z"/>
			<path class="st3" d="M53.037,168.867h4.392v-4.393h-4.392V168.867z M54.383,165.82h1.7v1.699h-1.7V165.82z"/>
		</g>
	</g>
	<g>
		<rect x="117" y="12" class="st2" width="23" height="41"/>
		<g>
			<path class="st3" d="M116.46,11.18v42.269h24.097V11.18H116.46z M139.211,52.103h-21.405V12.527h21.405V52.103z"/>
			<path class="st3" d="M137.47,13.771h-17.922v31.16h17.922V13.771z M136.123,43.585h-15.229V15.118h15.229V43.585z"/>
			<path class="st3" d="M126.312,50.708h4.393v-4.393h-4.393V50.708z M127.658,47.661h1.699v1.7h-1.699V47.661z"/>
		</g>
	</g>
</g>
</svg>
