<svg version="1.1" id="Layer_1" xmlns="http://www.w3.org/2000/svg" xmlns:xlink="http://www.w3.org/1999/xlink" x="0px" y="0px"
	 viewBox="0 0 269 180" style="enable-background:new 0 0 269 180;" xml:space="preserve">
<style type="text/css">

	.st0{fill:#3F474F;stroke:#42C8F4;stroke-miterlimit:10;}

</style>
<g id="Your_Icon">
	<g>
		<g>
			<path class="st0" d="M124.959,62.125l-98.851,67.302c-1.348,0.926-1.944,2.654-1.443,4.204l2.456,7.778
				c0.491,1.566,1.923,2.115,3.579,2.088h27.107l0.727,12.348c0.061,2.117,1.781,3.826,3.921,3.822l31.006,0.012
				c0.391,0,0.819-0.041,1.212-0.184c1.471-0.465,2.581-1.781,2.69-3.37l0.725-12.628h52.573c0.368-0.012,0.749-0.064,1.092-0.193
				c0.753-0.225,1.419-0.682,1.91-1.351c0.688-0.95,0.893-2.204,0.517-3.345l-23.543-74.512c-0.354-1.122-1.212-2.03-2.335-2.404
				C127.194,61.288,125.952,61.468,124.959,62.125z M89.867,151.775H66.294L65.67,143.5h24.509L89.867,151.775z"/>
			<path class="st0" d="M140.377,52.357c-2.775,0.875-4.226,4.127-3.236,7.293l25.687,81.313c1.021,3.132,4.063,4.986,6.85,4.086
				c2.797-0.863,4.239-4.139,3.248-7.281l-25.717-81.302C146.235,53.304,143.18,51.47,140.377,52.357z"/>
		</g>
	</g>
</g>
<path class="st0" d="M171.754,74.423c2.663-2.631,5.329-5.26,7.987-7.896c0.479-0.475,0.997-0.872,1.611-0.835
	c0.358,0.021,0.757,0.142,0.985,0.371c3.516,3.519,7.008,7.061,10.5,10.603c0.559,0.567,0.473,1.459-0.198,2.301
	c-0.077,0.097-0.167,0.186-0.256,0.274c-5.376,5.313-10.75,10.627-16.131,15.937c-1.007,0.993-2.005,1.072-2.812,0.254
	c-3.354-3.393-6.707-6.788-10.061-10.183c-0.873-0.882-0.772-1.784,0.331-2.877C166.391,79.72,169.072,77.072,171.754,74.423
	 M181.465,85.329l-7.916-8.012l-7.841,7.747l7.917,8.013L181.465,85.329z M190.36,76.541l-7.921-8.017l-7.856,7.763l7.921,8.017
	L190.36,76.541z M175.753,72.719c0.082,0.083,0.171,0.163,0.247,0.251c0.268,0.309,0.607,0.243,0.932-0.071
	c0.327-0.318,0.286-0.631,0.044-0.886c-0.081-0.085-0.168-0.165-0.248-0.25c-0.486-0.519-0.828-0.583-1.184-0.178
	C175.039,72.162,175.46,72.424,175.753,72.719 M181.527,87.443c0.156,0.158,0.237,0.337,0.374,0.356
	c0.232,0.034,0.594,0.06,0.729-0.077c0.174-0.177,0.233-0.529,0.236-0.786c0.002-0.145-0.203-0.253-0.32-0.374
	c-0.512-0.522-0.842-0.588-1.177-0.202C180.87,86.937,181.277,87.202,181.527,87.443 M178.01,70.523
	c0.023,0.024,0.048,0.047,0.071,0.072c0.384,0.405,0.725,0.445,1.059,0.122c0.341-0.331,0.311-0.649-0.101-1.068
	c-0.024-0.024-0.048-0.048-0.071-0.072c-0.51-0.517-0.824-0.577-1.174-0.224C177.451,69.699,177.515,70.039,178.01,70.523
	 M168.978,79.351c0.13,0.131,0.229,0.349,0.396,0.373c0.231,0.035,0.594,0.007,0.75-0.146c0.16-0.157,0.259-0.576,0.173-0.742
	c-0.159-0.308-0.429-0.581-0.737-0.741c-0.166-0.086-0.59,0.017-0.745,0.177c-0.152,0.158-0.155,0.508-0.139,0.752
	C168.685,79.158,168.87,79.244,168.978,79.351 M175.753,93.186l0.004-0.003c-0.07-0.071-0.145-0.142-0.213-0.216
	c-0.246-0.272-0.567-0.271-0.885,0.03c-0.342,0.324-0.352,0.656-0.071,0.928c0.192,0.187,0.365,0.397,0.574,0.564
	c0.246,0.196,0.528,0.146,0.808-0.137c0.275-0.28,0.331-0.554,0.135-0.807C176.002,93.413,175.871,93.305,175.753,93.186
	 M184.797,84.361c-0.094-0.095-0.192-0.187-0.283-0.287c-0.252-0.279-0.573-0.242-0.884,0.057c-0.29,0.28-0.333,0.596-0.104,0.852
	c0.178,0.2,0.365,0.395,0.563,0.575c0.267,0.24,0.568,0.227,0.89-0.109c0.298-0.313,0.304-0.592,0.064-0.836
	C184.962,84.528,184.879,84.445,184.797,84.361 M190.549,78.609c0.082,0.083,0.165,0.167,0.247,0.25
	c0.269,0.272,0.576,0.286,0.924-0.073c0.331-0.341,0.285-0.627,0.039-0.877c-0.118-0.119-0.243-0.232-0.352-0.36
	c-0.267-0.316-0.602-0.505-1.033-0.079s-0.247,0.765,0.067,1.031C190.48,78.534,190.513,78.572,190.549,78.609 M172.188,76.221
	c-0.501-0.508-0.78-0.559-1.135-0.208c-0.349,0.346-0.302,0.665,0.186,1.15c0.292,0.291,0.553,0.713,1.139,0.227
	C172.772,77.062,172.712,76.751,172.188,76.221 M178.035,91.025c-0.106-0.107-0.188-0.286-0.323-0.306
	c-0.249-0.037-0.58-0.075-0.785,0.059c-0.319,0.211-0.387,0.567-0.157,0.832c0.196,0.228,0.406,0.446,0.636,0.641
	c0.26,0.224,0.557,0.157,0.843-0.152c0.268-0.29,0.297-0.557,0.069-0.789C178.224,91.215,178.129,91.12,178.035,91.025
	 M188.327,80.834c0.083,0.083,0.168,0.163,0.246,0.25c0.226,0.252,0.501,0.275,0.827-0.007c0.343-0.3,0.391-0.601,0.157-0.885
	c-0.085-0.103-0.184-0.194-0.277-0.29c-0.516-0.523-0.837-0.59-1.174-0.198C187.605,80.29,188.049,80.535,188.327,80.834
	 M187.177,82.222c-0.228-0.198-0.349-0.315-0.482-0.417c-0.329-0.252-0.836-0.109-0.949,0.329c-0.071,0.274,0.046,0.655,0.232,0.823
	c0.26,0.233,0.439,0.747,0.993,0.455c0.204-0.108,0.457-0.442,0.469-0.638C187.452,82.533,187.234,82.33,187.177,82.222
	 M165.469,82.915c-0.096-0.096-0.193-0.187-0.283-0.286c-0.253-0.278-0.567-0.25-0.879,0.062c-0.291,0.292-0.312,0.591-0.059,0.833
	c0.193,0.186,0.38,0.379,0.565,0.572c0.242,0.251,0.534,0.239,0.834-0.056c0.317-0.314,0.344-0.622,0.067-0.875
	C165.629,83.086,165.55,82.999,165.469,82.915 M181.187,67.354c-0.047-0.048-0.099-0.092-0.141-0.144
	c-0.249-0.301-0.559-0.492-0.98-0.087c-0.455,0.436-0.236,0.756,0.056,1.03c0.037,0.034,0.07,0.071,0.105,0.107
	c0.526,0.533,0.829,0.6,1.171,0.217C181.927,67.888,181.454,67.654,181.187,67.354 M166.773,81.595
	c0.035,0.036,0.072,0.069,0.105,0.108c0.258,0.298,0.549,0.562,1.013,0.114c0.462-0.444,0.221-0.752-0.068-1.022
	c-0.036-0.035-0.07-0.072-0.105-0.107c-0.526-0.533-0.835-0.601-1.168-0.217C166.038,81.06,166.498,81.299,166.773,81.595
	 M173.516,74.919c0.106,0.107,0.214,0.214,0.319,0.322c0.233,0.24,0.519,0.185,0.793-0.076c0.297-0.282,0.363-0.579,0.114-0.837
	c-0.105-0.109-0.21-0.217-0.316-0.324c-0.506-0.514-0.791-0.577-1.123-0.207C172.772,74.388,173.244,74.622,173.516,74.919
	 M179.324,89.68c0.106,0.108,0.214,0.215,0.32,0.324c0.23,0.238,0.5,0.205,0.79-0.067c0.312-0.291,0.367-0.577,0.131-0.84
	c-0.101-0.113-0.209-0.218-0.316-0.326c-0.499-0.505-0.809-0.564-1.136-0.18C178.637,89.149,179.041,89.398,179.324,89.68"/>
<polyline class="st0" points="187.69,24.579 163.861,36.312 173.368,55.617 197.196,43.884 187.69,24.579 "/>
<polyline class="st0" points="185.582,26.978 194.009,44.091 177.587,52.177 169.16,35.064 185.582,26.978 "/>
<polygon class="st0" points="216.005,62.198 213.298,55.917 217.589,54.067 225.093,71.48 220.802,73.33 218.095,67.049 
	200.37,74.688 198.279,69.837 "/>
<g>
	<path class="st0" d="M242.944,141.612l0.07-2.669l5.924-4.887l-1.7-2.048l1.267-7.587l-2.617-0.413l-4.031-6.573l-2.176,1.333
		l-5.302-2.642l-1.189,2.387l-7.557,1.957l0.698,2.691l-4.255,6.195l2.2,1.512l0.872,7.631l2.654-0.303l5.662,5.186l1.804-1.969
		L242.944,141.612z M229.778,133.808c-2.088-3.407-1.021-7.86,2.386-9.95c3.406-2.088,7.86-1.021,9.949,2.386
		c2.09,3.406,1.021,7.861-2.385,9.949C236.322,138.281,231.868,137.213,229.778,133.808"/>
	<polygon class="st0" points="237.765,126.336 237.948,133.289 231.833,129.973 	"/>
</g>
<path class="st0" d="M221.629,87.048c3.733-0.271,7.468-0.538,11.202-0.815c0.672-0.05,1.324-0.015,1.768,0.411
	c0.258,0.25,0.483,0.601,0.508,0.922c0.387,4.958,0.741,9.921,1.096,14.882c0.057,0.793-0.589,1.416-1.646,1.62
	c-0.121,0.022-0.247,0.032-0.372,0.042c-7.538,0.547-15.076,1.096-22.615,1.637c-1.412,0.102-2.222-0.486-2.305-1.633
	c-0.346-4.76-0.689-9.518-1.035-14.277c-0.09-1.237,0.573-1.858,2.122-1.972C214.11,87.591,217.869,87.321,221.629,87.048
	 M221.928,101.648l-0.814-11.234l-10.993,0.797l0.814,11.234L221.928,101.648z M234.399,100.744l-0.814-11.239l-11.016,0.798
	l0.813,11.24L234.399,100.744z M225.775,88.35c0.009,0.117,0.024,0.235,0.025,0.352c0.003,0.409,0.304,0.579,0.755,0.551
	c0.454-0.029,0.627-0.294,0.608-0.645c-0.006-0.117-0.021-0.234-0.026-0.352c-0.033-0.709-0.251-0.98-0.784-0.903
	C225.595,87.463,225.745,87.936,225.775,88.35 M220.602,103.296c0.017,0.222-0.038,0.41,0.053,0.515
	c0.154,0.176,0.412,0.431,0.604,0.414c0.247-0.021,0.521-0.251,0.689-0.443c0.096-0.109,0.011-0.325-0.001-0.492
	c-0.05-0.73-0.258-0.994-0.764-0.918C220.431,102.484,220.568,102.951,220.602,103.296 M228.918,88.147
	c0.002,0.033,0.006,0.066,0.008,0.101c0.028,0.557,0.262,0.81,0.725,0.781c0.475-0.031,0.658-0.292,0.618-0.878
	c-0.003-0.033-0.006-0.067-0.008-0.101c-0.052-0.725-0.252-0.974-0.747-0.933C229.028,87.158,228.856,87.458,228.918,88.147
	 M216.316,88.992c0.014,0.184-0.052,0.415,0.059,0.541c0.154,0.177,0.447,0.392,0.666,0.376c0.223-0.015,0.57-0.27,0.613-0.453
	c0.079-0.337,0.052-0.72-0.079-1.042c-0.07-0.173-0.459-0.371-0.683-0.349c-0.217,0.021-0.448,0.285-0.594,0.481
	C216.22,88.654,216.304,88.841,216.316,88.992 M212.48,103.912l0.005-0.001c-0.007-0.101-0.018-0.201-0.021-0.302
	c-0.01-0.367-0.255-0.574-0.692-0.552c-0.47,0.024-0.693,0.271-0.657,0.659c0.025,0.267,0.021,0.538,0.071,0.802
	c0.059,0.31,0.306,0.454,0.702,0.421c0.392-0.033,0.611-0.207,0.627-0.526C212.522,104.246,212.493,104.078,212.48,103.912
	 M225.09,103.076c-0.011-0.133-0.025-0.267-0.029-0.402c-0.01-0.375-0.279-0.557-0.709-0.529c-0.402,0.023-0.641,0.236-0.632,0.579
	c0.006,0.269,0.021,0.537,0.056,0.804c0.046,0.355,0.284,0.541,0.746,0.494c0.431-0.045,0.616-0.253,0.592-0.594
	C225.106,103.311,225.097,103.193,225.09,103.076 M233.198,102.439c0.01,0.117,0.018,0.234,0.026,0.352
	c0.027,0.381,0.252,0.592,0.749,0.545c0.474-0.045,0.625-0.293,0.6-0.643c-0.012-0.167-0.033-0.334-0.032-0.502
	c0.002-0.414-0.129-0.775-0.734-0.73c-0.605,0.043-0.686,0.42-0.619,0.827C233.196,102.338,233.195,102.389,233.198,102.439
	 M220.791,88.698c-0.052-0.711-0.23-0.932-0.729-0.895c-0.489,0.037-0.661,0.309-0.605,0.994c0.033,0.411-0.043,0.902,0.718,0.913
	C220.689,89.716,220.845,89.44,220.791,88.698 M215.62,103.75c-0.012-0.15,0.043-0.338-0.047-0.441
	c-0.166-0.19-0.392-0.434-0.636-0.465c-0.38-0.048-0.662,0.18-0.66,0.529c0.001,0.301,0.02,0.604,0.067,0.9
	c0.052,0.339,0.321,0.481,0.739,0.432c0.392-0.046,0.588-0.23,0.564-0.555C215.639,104.018,215.629,103.885,215.62,103.75
	 M230.064,102.689c0.009,0.116,0.021,0.232,0.024,0.35c0.008,0.338,0.202,0.535,0.634,0.531c0.455-0.004,0.687-0.203,0.693-0.57
	c0.002-0.134-0.013-0.268-0.022-0.4c-0.052-0.732-0.254-0.992-0.764-0.912C229.869,101.807,230.048,102.281,230.064,102.689
	 M228.288,102.996c-0.045-0.297-0.06-0.465-0.096-0.631c-0.087-0.404-0.564-0.625-0.935-0.365c-0.232,0.162-0.392,0.527-0.358,0.776
	c0.046,0.346-0.152,0.853,0.46,0.99c0.226,0.051,0.634-0.038,0.771-0.181C228.296,103.412,228.263,103.115,228.288,102.996
	 M211.333,89.422c-0.01-0.135-0.025-0.268-0.029-0.401c-0.011-0.376-0.269-0.559-0.707-0.524c-0.411,0.033-0.621,0.247-0.587,0.596
	c0.026,0.266,0.043,0.535,0.059,0.802c0.021,0.348,0.251,0.529,0.67,0.499c0.446-0.032,0.666-0.249,0.62-0.622
	C211.345,89.656,211.341,89.538,211.333,89.422 M233.392,87.801c-0.004-0.066-0.015-0.133-0.013-0.2
	c0.006-0.391-0.105-0.737-0.689-0.703c-0.629,0.036-0.671,0.421-0.627,0.819c0.006,0.05,0.008,0.1,0.011,0.15
	c0.054,0.748,0.241,0.995,0.749,0.926C233.607,88.688,233.4,88.204,233.392,87.801 M213.183,89.266
	c0.004,0.051,0.011,0.1,0.011,0.151c0.002,0.394,0.052,0.784,0.695,0.745c0.64-0.038,0.656-0.429,0.612-0.822
	c-0.006-0.05-0.007-0.1-0.011-0.15c-0.054-0.747-0.245-0.999-0.747-0.924C212.972,88.382,213.166,88.862,213.183,89.266
	 M222.646,88.571c0.011,0.15,0.022,0.301,0.032,0.452c0.021,0.334,0.274,0.477,0.652,0.458c0.408-0.022,0.652-0.205,0.63-0.562
	c-0.009-0.151-0.019-0.301-0.029-0.451c-0.052-0.719-0.228-0.952-0.72-0.887C222.425,87.684,222.633,88.168,222.646,88.571
	 M217.474,103.565c0.011,0.151,0.022,0.304,0.033,0.454c0.021,0.33,0.247,0.48,0.645,0.463c0.426-0.02,0.653-0.2,0.646-0.555
	c-0.004-0.15-0.018-0.302-0.029-0.453c-0.051-0.708-0.248-0.954-0.746-0.875C217.296,102.715,217.441,103.167,217.474,103.565"/>
<path class="st0" d="M211.58,123.35l-25.738-6.559l-5.312,20.854l25.737,6.557L211.58,123.35z M185.971,137.77l4.71-18.485
	l17.739,4.521l-4.71,18.483L185.971,137.77z"/>
</svg>
