<svg version="1.1" id="phone" xmlns="http://www.w3.org/2000/svg" xmlns:xlink="http://www.w3.org/1999/xlink" x="0px" y="0px"
	 viewBox="332.5 0 294 560" style="enable-background:new 332.5 0 294 560;" xml:space="preserve">


	 <defs>

	<style type="text/css">

	.st0{ fill:none;
	stroke:#3F474F;
	stroke-width:5;
	stroke-miterlimit:10;}

	 
	 		path {
	 			stroke-dasharray: 2000;
	 			stroke-dashoffset:0;
	 			}
	 			
	 	
	 

	 </style>

	 
	 </defs>


<g id="phone" >


	<path  data-0="stroke-dashoffset:1400;" data-2000="stroke-dashoffset:0;"  class="st0" d="M504.5,52.64h-49c0,0-3.36,0.42-2.8,2.8c0.56,2.38,4.2,2.8,4.2,2.8h49c0,0,2.8,0.7,2.8-2.8
		S504.5,52.64,504.5,52.64z M481.4,499.38c-12.22,0-22.121,9.9-22.121,22.12s9.9,22.12,22.121,22.12
		c12.22,0,22.119-9.9,22.119-22.12S493.62,499.38,481.4,499.38z M481.12,28.84c-2.71,0-4.9,2.19-4.9,4.9c0,2.71,2.19,4.9,4.9,4.9
		s4.899-2.19,4.899-4.9C486.02,31.03,483.83,28.84,481.12,28.84z"/>
	<path  data-0="stroke-dashoffset:1400;" data-2000="stroke-dashoffset:0;"   class="st0" d="M610.9,436.24v-299.6c0-30.1-0.141-86.94,0-106.4c0.14-14.28-10.08-27.58-28-28c-75.36-1.47-138.38,0-204.4,0
		c-18.2,0.42-27.86,13.44-28,28c-0.14,15.12,0,46.06,0,64.4v365.4c-0.14,27.3,0.28,56,0,71.4c-0.28,14.699,12.6,26.6,23.8,26.6
		c32.2,0.14,173.04-0.14,203,0c19.601,0.14,33.181-11.34,33.601-26.6C611.32,511.14,610.9,479.5,610.9,436.24z M481.12,28.84
		c2.71,0,4.899,2.19,4.899,4.9c0,2.71-2.189,4.9-4.899,4.9s-4.9-2.19-4.9-4.9C476.22,31.03,478.41,28.84,481.12,28.84z M455.5,52.64
		h49c0,0,4.2-0.7,4.2,2.8s-2.8,2.8-2.8,2.8h-49c0,0-3.64-0.42-4.2-2.8C452.14,53.06,455.5,52.64,455.5,52.64z M481.4,543.62
		c-12.22,0-22.121-9.9-22.121-22.12s9.9-22.12,22.121-22.12c12.22,0,22.119,9.9,22.119,22.12S493.62,543.62,481.4,543.62z
		 M594.1,478.24c-52.359,0-154.419-1.82-228.2-1.4V90.44h228.2V478.24z"/>
	<path  data-0="stroke-dashoffset:1400;" data-2000="stroke-dashoffset:0;" class="st0" d="M508.7,55.44c0,3.5-2.8,2.8-2.8,2.8h-49c0,0-3.64-0.42-4.2-2.8c-0.56-2.38,2.8-2.8,2.8-2.8h49
		C504.5,52.64,508.7,51.94,508.7,55.44z"/>
	<path  data-0="stroke-dashoffset:1400;" data-2000="stroke-dashoffset:0;"  class="st0" d="M486.02,33.74c0,2.71-2.189,4.9-4.899,4.9s-4.9-2.19-4.9-4.9c0-2.71,2.19-4.9,4.9-4.9
		S486.02,31.03,486.02,33.74z"/>
	<path  data-0="stroke-dashoffset:1400;" data-2000="stroke-dashoffset:0;" class="st0" d="M503.52,521.5c0,12.22-9.899,22.12-22.119,22.12c-12.22,0-22.121-9.9-22.121-22.12s9.9-22.12,22.121-22.12
		C493.62,499.38,503.52,509.28,503.52,521.5z"/>
</g>
</svg>
