<svg version="1.1" id="logo" xmlns="http://www.w3.org/2000/svg" xmlns:xlink="http://www.w3.org/1999/xlink" x="0px" y="0px"
	  viewBox="0 0 960 570.5" style="enable-background:new 0 0 960 570.5;" xml:space="preserve">



	 <defs>
<style >

			.st0{fill:none;stroke:#3F474F;stroke-width:14;stroke-miterlimit:10;}

	 
	 		.st0 {
	 			stroke-dasharray: 2000;
	 			stroke-dashoffset:0;
	 			-webkit-animation: dash 4s linear forwards;
	 			-o-animation: dash 4s linear forwards;
	 			-moz-animation: dash 4s linear forwards;
	 			animation: dash 4s linear forwards;

	 		}
	 		#logo{
	 		curson: pointer;

	 		}

	 		#logo.clickit sto{
	 			fill:yellow;
	 		}

	 		#logo:hover .sto {
	 			fill:#000;
	 			transition: .8s;
	 		}


	 		@-webkit-keyframes dash {
	 			from {
	 				stroke-dashoffset: 2000;
	 			}
	 			to {
	 				stroke-dashoffset: 0;
	 			}
	 		}

	 	</style>

	 	<scrip type="text/javascript">
	 		var clicker = documetn.querySelector('#logo');

	 		clicker.addEventListener('click', function(){
	 			this.classlist.toggle('clickit');
	 		});

	 	</scrip>
	 </defs>

<g id="logo">
	<path class="st0" d="M186.778,554.556c-29.556,0-36.944-14-41.611-35.778c-0.389-2.333-0.389-4.666-0.389-7.389
		c0-152.833,0-306.055,0-459.277c0-28.778,5.833-44.333,48.611-44.333c177.723,0,386.556,0,563.889,0
		c46.278,0,54.445,14.389,54.445,45.889c0,76.222,0,152.833,0,229.056c0,75.833,0,151.666,0,227.5c0,13.61-1.945,23.333-8.167,31.5
		c-9.723,10.11-23.723,12.444-35.389,12.444"/>
	<path class="st0" d="M244.333,502.833c159.055,0,315.778,0,473.667,0c0-147.389,0-292.833,0-438.667
		c-158.667,0-316.167,0-473.667,0C244.333,210.778,244.333,355.833,244.333,502.833z"/>
	<g>
		<path class="st0" d="M478.833,173.444c-89.055,0-167.222,48.222-209.611,119.778c42.389,71.555,120.167,119.389,209.611,119.389
			c89.056,0,167.223-47.834,209.611-119.389C646.056,221.667,567.889,173.444,478.833,173.444z M480,399.389
			c-56,0-101.5-45.5-101.5-101.5s45.5-101.5,101.5-101.5s101.5,45.5,101.5,101.5S536,399.389,480,399.389z"/>
		<circle class="st0" cx="480" cy="297.889" r="54.833"/>
	</g>
	<path class="st0" d="M207.389,116.278h-21c-10.111,0-18.277-8.167-18.277-18.278v-3.889c0-10.111,8.167-18.278,18.277-18.278h21
		c10.111,0,18.278,8.167,18.278,18.278V98C225.667,108.111,217.5,116.278,207.389,116.278z"/>
	<path class="st0" d="M207.389,233.333h-21c-10.111,0-18.277-8.167-18.277-18.278v-3.889c0-10.111,8.167-18.278,18.277-18.278h21
		c10.111,0,18.278,8.167,18.278,18.278v3.889C225.667,225.167,217.5,233.333,207.389,233.333z"/>
	<path class="st0" d="M207.389,349.223h-21c-10.111,0-18.277-8.167-18.277-18.278v-3.889c0-10.111,8.167-18.278,18.277-18.278h21
		c10.111,0,18.278,8.167,18.278,18.278v3.889C225.667,341.056,217.5,349.223,207.389,349.223z"/>
	<path class="st0" d="M207.389,466.277h-21c-10.111,0-18.277-8.166-18.277-18.277v-3.889c0-10.111,8.167-18.278,18.277-18.278h21
		c10.111,0,18.278,8.167,18.278,18.278V448C225.667,458.111,217.5,466.277,207.389,466.277z"/>
	<path class="st0" d="M775.556,116.278h-21c-10.111,0-18.278-8.167-18.278-18.278v-3.889c0-10.111,8.167-18.278,18.278-18.278h21
		c10.111,0,18.277,8.167,18.277,18.278V98C793.833,108.111,785.667,116.278,775.556,116.278z"/>
	<path class="st0" d="M775.556,233.333h-21c-10.111,0-18.278-8.167-18.278-18.278v-3.889c0-10.111,8.167-18.278,18.278-18.278h21
		c10.111,0,18.277,8.167,18.277,18.278v3.889C793.833,225.167,785.667,233.333,775.556,233.333z"/>
	<path class="st0" d="M775.556,349.223h-21c-10.111,0-18.278-8.167-18.278-18.278v-3.889c0-10.111,8.167-18.278,18.278-18.278h21
		c10.111,0,18.277,8.167,18.277,18.278v3.889C793.833,341.056,785.667,349.223,775.556,349.223z"/>
	<path class="st0" d="M775.556,466.277h-21c-10.111,0-18.278-8.166-18.278-18.277v-3.889c0-10.111,8.167-18.278,18.278-18.278h21
		c10.111,0,18.277,8.167,18.277,18.278V448C793.833,458.111,785.667,466.277,775.556,466.277z"/>
</g>
<line class="st0" x1="180.5" y1="554.556" x2="754.5" y2="554.556"/>
<line class="st0" x1="754.5" y1="554.556" x2="768.167" y2="554.167"/>
</svg>
