
<svg version="1.1" id="Layer_2" xmlns="http://www.w3.org/2000/svg" xmlns:xlink="http://www.w3.org/1999/xlink" x="0px" y="0px"
	  viewBox="0 0 260.463 560" style="enable-background:new 0 0 260.463 560;" xml:space="preserve"
	>
<defs>
<style type="text/css">

	.st0{fill:none;stroke:#FFFFFF;stroke-width:2;stroke-miterlimit:10;}


    .st0{
        stroke-dasharray: 2000;
        stroke-dashpffset:0;
        -webkit-animation: dash 4s linear forwards;
        -o-animation: dash 4s linear forwards;
        -moz-animation: dash 4s linear forwards;
        animation: dash 4s linear forwards;
    }


    @-webkit-keyframes dash {
         from{
            stroke-dashoffset: 2000;
         }
          to{
            stroke-dashoffset: 0;
         }
    }
</style>
</defs>
<g>
	
	
		<path class="st0" d="M28.062,3.436c50.4,0,154-0.98,204.401,0c17.92,0.42,28.14,13.72,28,28c-0.141,19.46,0,76.3,0,106.399
			c0,99.82,0,199.78,0,299.601c0,43.26,0.42,74.899,0,95.2c-0.42,15.26-14,26.739-33.601,26.6c-29.96-0.14-170.8,0.14-203,0
			c-11.2,0-24.08-11.9-23.8-26.6c0.28-15.4-0.14-44.101,0-71.4c0-70.42,0-140.98,0-211.4c0-51.38,0-102.62,0-154
			c0-18.34-0.14-49.279,0-64.399C0.203,16.875,9.862,3.855,28.062,3.436z"/>
		<path class="st0" d="M243.663,479.436c0-129.221,0-258.58,0-387.8c-76.02,0-152.18,0-228.2,0c0,128.8,0,257.6,0,386.399
			C89.242,477.615,191.303,479.436,243.663,479.436z"/>
		<path class="st0" d="M105.062,53.835h49c0,0,4.2-0.699,4.2,2.801s-2.8,2.8-2.8,2.8h-49c0,0-3.641-0.42-4.2-2.8
			C101.702,54.255,105.062,53.835,105.062,53.835z"/>
		<circle class="st0" cx="130.683" cy="34.935" r="4.9"/>
		<circle class="st0" cx="130.963" cy="522.695" r="22.12"/>
	</g>

</svg>
