<?xml version="1.0" encoding="utf-8"?>
<!-- Generator: Adobe Illustrator 16.0.0, SVG Export Plug-In . SVG Version: 6.00 Build 0)  -->
<!DOCTYPE svg PUBLIC "-//W3C//DTD SVG 1.1//EN" "http://www.w3.org/Graphics/SVG/1.1/DTD/svg11.dtd">
<svg version="1.1" id="Layer_1" xmlns="http://www.w3.org/2000/svg" xmlns:xlink="http://www.w3.org/1999/xlink" x="0px" y="0px"
	 width="258px" height="57px" viewBox="0 0 258 57" style="enable-background:new 0 0 258 57;" xml:space="preserve">
<style type="text/css">
<![CDATA[
	.st0{fill:#FFFFFF;}
]]>
</style>
<g>
	<g>
		<polygon class="st0" points="5.554,4.464 10.055,4.464 23.844,41.329 39.464,2.775 39.884,2.775 55.784,41.187 69.574,4.464 
			73.795,4.464 56.066,50.896 55.503,50.896 39.744,12.484 23.844,50.896 23.282,50.896 		"/>
		<path class="st0" d="M94.042,46.675c8.021,0,12.523-2.812,16.04-7.177l2.813,2.534c-4.081,5.205-10.27,8.3-18.853,8.3
			c-13.79,0-23.499-10.271-23.499-23.498c0-13.226,10.131-23.496,22.512-23.496c13.228,0,21.81,9.99,22.093,24.343H74.906
			C75.328,39.498,83.488,46.675,94.042,46.675 M110.784,24.021c-1.124-9.565-6.613-17.024-17.729-17.024
			c-9.847,0-16.881,7.176-18.009,17.024H110.784z"/>
		<polygon class="st0" points="113.03,2.915 122.6,2.915 137.09,34.011 150.879,2.915 159.742,2.915 137.09,50.757 136.526,50.757 
					"/>
		<path class="st0" d="M160.586,31.339V2.915h8.582v27.578c0,8.303,3.941,12.1,11.258,12.1c8.303,0,13.787-5.062,13.787-13.928
			V2.915h8.584v46.293h-8.584v-7.457c-3.096,5.627-8.863,8.582-15.897,8.582C167.762,50.333,160.586,44.001,160.586,31.339"/>
		<path class="st0" d="M230.225,43.017c7.178,0,11.4-2.533,14.494-6.049l5.346,5.203c-4.221,5.067-10.551,8.162-19.697,8.162
			c-15.055,0-25.328-10.412-25.328-24.199c0-13.933,10.836-24.342,24.344-24.342c14.773,0,23.777,11.534,23.498,27.436h-38.834
			C215.312,37.812,221.223,43.017,230.225,43.017 M243.877,22.052c-1.129-7.315-5.771-12.944-14.494-12.944
			c-8.02,0-13.65,5.065-15.055,12.944H243.877z"/>
	</g>
</g>
</svg>
