<?xml version="1.0" encoding="utf-8"?>
<!-- Generator: Adobe Illustrator 16.0.0, SVG Export Plug-In . SVG Version: 6.00 Build 0)  -->
<!DOCTYPE svg PUBLIC "-//W3C//DTD SVG 1.1//EN" "http://www.w3.org/Graphics/SVG/1.1/DTD/svg11.dtd">
<svg version="1.1" id="Layer_1" xmlns="http://www.w3.org/2000/svg" xmlns:xlink="http://www.w3.org/1999/xlink" x="0px" y="0px"
	 width="64.1972656px" height="31.7148438px" viewBox="0 0 64.1972656 31.7148438"
	 enable-background="new 0 0 64.1972656 31.7148438" xml:space="preserve">
<g>
	<path fill="#FFFFFF" d="M54.9326172,21.0244141c0.3046875-0.359375,0.6025391-0.7236328,0.9140625-1.0751953
		c0.5869141-0.6621094,1.2255859-1.2675781,2.0126953-1.6875c0.8330078-0.4453125,1.46875-0.1962891,1.8291016,0.6816406
		c0.2773438,0.6757812,0.3759766,1.3984375,0.5722656,2.0957031c0.0283203,0.1025391,0.0585938,0.2050781,0.0976562,0.3046875
		c0.3251953,0.8339844,0.8300781,1.0488281,1.6943359,0.7460938c0.6591797-0.2304688,1.1708984-0.6699219,1.6777344-1.1230469
		c0.1054688-0.09375,0.1992188-0.2832031,0.3789062-0.1132812c0.1865234,0.1757812,0.0371094,0.2910156-0.0888672,0.40625
		c-0.8242188,0.7587891-1.6464844,1.5195312-2.6982422,1.9628906c-1.0175781,0.4287109-2.0908203,0.2421875-2.7314453-0.4716797
		c-0.4072266-0.4541016-0.5429688-1.0175781-0.6025391-1.6083984c-0.0390625-0.3896484-0.0800781-0.7802734-0.1376953-1.1679688
		c-0.0546875-0.3710938-0.2714844-0.4833984-0.609375-0.3144531c-0.1572266,0.0800781-0.3076172,0.1855469-0.4384766,0.3037109
		c-0.7207031,0.6474609-1.3505859,1.3740234-1.8720703,2.1923828c-0.1992188,0.3125-0.3408203,0.6455078-0.4111328,1.0175781
		c-0.140625,0.7519531-0.7675781,0.9511719-1.3417969,0.4375c-0.4648438-0.4160156-0.6044922-0.9492188-0.5244141-1.5546875
		c0.0126953-0.0976562,0.0917969-0.2333984-0.0292969-0.2910156c-0.1103516-0.0517578-0.1845703,0.0810547-0.2626953,0.1464844
		c-1.1035156,0.9316406-2.3173828,1.6738281-3.7207031,2.0478516c-0.9736328,0.2607422-1.9697266,0.3427734-2.9599609,0.0732422
		c-0.8544922-0.2314453-1.2988281-0.7919922-1.3652344-1.6660156c-0.0068359-0.0898438,0.046875-0.2128906-0.0615234-0.2578125
		c-0.1015625-0.0410156-0.1640625,0.0722656-0.2373047,0.1259766c-1.0351562,0.7529297-2.1015625,1.4345703-3.3847656,1.703125
		c-1.0283203,0.2158203-2.0947266-0.1601562-2.6132812-0.9658203c-0.1708984-0.2636719-0.2617188-0.5566406-0.3105469-0.8642578
		c-0.0146484-0.0908203,0.0332031-0.2167969-0.0644531-0.2607422c-0.1132812-0.0507812-0.1943359,0.0634766-0.2724609,0.1289062
		c-0.6669922,0.5625-1.3808594,1.0625-2.1738281,1.4257812c-0.9482422,0.4335938-1.9248047,0.7617188-2.9980469,0.5048828
		c-1-0.2402344-1.3457031-0.6132812-1.4824219-1.6611328c-0.1865234,0.046875-0.2949219,0.1933594-0.4248047,0.3066406
		c-0.7734375,0.671875-1.5566406,1.3300781-2.4697266,1.8105469c-0.8525391,0.4492188-1.7246094,0.6699219-2.6660156,0.265625
		c-0.7773438-0.3349609-1.1611328-0.9570312-1.3037109-1.7509766c-0.171875-0.9560547-0.0107422-1.8955078,0.2011719-2.8251953
		c0.2236328-0.9863281,0.5292969-1.9492188,0.8886719-2.8945312c0.1015625-0.2685547-0.0478516-0.2910156-0.2392578-0.2714844
		c-0.4970703,0.0507812-0.9960938,0.0859375-1.4882812,0.1679688c-1.1123047,0.1835938-2.2246094,0.3652344-3.3164062,0.6591797
		c-0.2695312,0.0732422-0.4042969,0.2021484-0.484375,0.4501953c-0.7294922,2.2558594-1.7773438,4.359375-3.1201172,6.3115234
		c-1.4199219,2.0654297-3.0888672,3.8974609-5.1826172,5.3037109c-1.9765625,1.3300781-4.1201172,2.1201172-6.5458984,1.8984375
		c-0.8818359-0.0800781-1.7021484-0.3671875-2.3935547-0.9316406c-1.3046875-1.0644531-1.3886719-2.4121094-0.6630859-3.9169922
		c0.6269531-1.3027344,1.6142578-2.3144531,2.7275391-3.2119141c1.9980469-1.6113281,4.2314453-2.8203125,6.5683594-3.8544922
		c1.7851562-0.7900391,3.6142578-1.4619141,5.4902344-2.0009766c0.296875-0.0859375,0.4375-0.2402344,0.5029297-0.5214844
		c0.4130859-1.7939453,0.6552734-3.6010742,0.4941406-5.4482422c-0.0800781-0.9238281-0.2792969-1.8100586-0.734375-2.621582
		c-0.5996094-1.0693359-1.5517578-1.6430664-2.7314453-1.8691406C11.6240234,6.8798828,9.5722656,7.4365234,7.59375,8.3256836
		c-1.8291016,0.8222656-3.4716797,1.9335938-4.7822266,3.4780273c-1.0996094,1.2954102-1.8349609,2.7514648-1.8242188,4.496582
		c0.0097656,1.6020508,0.8447266,2.8325195,2.3408203,3.3725586c1.1523438,0.4150391,2.3320312,0.3525391,3.4492188-0.1367188
		c2.0371094-0.8925781,3.3642578-2.4501953,4.0214844-4.5610352c0.2753906-0.8823242,0.1904297-1.7607422-0.2773438-2.5883789
		c-0.3046875-0.5385742-0.2490234-0.9233398,0.1337891-1.2905273c0.3671875-0.3515625,0.7841797-0.2978516,1.0371094,0.1416016
		c0.1630859,0.2822266,0.2480469,0.5961914,0.2753906,0.9165039c0.1210938,1.4262695-0.0615234,2.7988281-0.7314453,4.0878906
		c-1.0302734,1.9863281-2.5302734,3.4511719-4.6933594,4.1269531c-1.8085938,0.5644531-3.53125,0.4140625-5.0234375-0.8867188
		c-0.7109375-0.6210938-1.0986328-1.4375-1.2392578-2.3525391c-0.3173828-2.0546875,0.3046875-3.8852539,1.4648438-5.5463867
		C3.3515625,9.284668,5.5810547,7.7954102,8.1494141,6.7592773c1.6601562-0.6708984,3.3876953-1.0419922,5.1708984-1.0786133
		C15.2734375,5.6401367,17.078125,6.1503906,18.5449219,7.5c1.1816406,1.0864258,1.7773438,2.4794922,1.8671875,4.081543
		c0.0908203,1.6176758-0.1416016,3.2001953-0.5400391,4.7636719C19.7128906,16.9697266,19.75,17.015625,20.3662109,16.8691406
		c1.4716797-0.3525391,2.9677734-0.5356445,4.4716797-0.6606445c0.3222656-0.0268555,0.4931641-0.1464844,0.6191406-0.4663086
		c0.9873047-2.5053711,2.0947266-4.9526367,3.6445312-7.1733398C29.3544922,8.2070312,29.6289062,7.8632812,30,7.6103516
		c0.3701172-0.2529297,0.7304688-0.2558594,1.0908203,0.0078125c0.125,0.0908203,0.2441406,0.1943359,0.3427734,0.3115234
		c0.6884766,0.8149414,0.6396484,1.1445312-0.0166016,1.7592773c-1.5,1.4057617-2.4560547,3.1655273-3.2998047,5.0009766
		c-0.1689453,0.3666992-0.2929688,0.7539062-0.4648438,1.1196289c-0.1308594,0.277832-0.0429688,0.3789062,0.234375,0.4355469
		c0.6826172,0.1396484,1.3359375,0.3505859,1.828125,0.8896484c0.1386719,0.1503906,0.2675781,0.3085938,0.2988281,0.5175781
		c0.0292969,0.1933594-0.0302734,0.3769531-0.2265625,0.4326172c-0.1796875,0.0517578-0.2734375-0.1103516-0.3417969-0.25
		c-0.3027344-0.6181641-1.3125-1.1298828-1.9638672-0.9951172c-0.1230469,0.0253906-0.1777344,0.0986328-0.2138672,0.2089844
		c-0.4697266,1.4609375-0.9580078,2.9169922-1.03125,4.46875c-0.0214844,0.4628906-0.0263672,0.9287109,0.1269531,1.3769531
		c0.1630859,0.4765625,0.3554688,0.5859375,0.8476562,0.5820312c0.8525391-0.0058594,1.5644531-0.3720703,2.2333984-0.8417969
		c0.3984375-0.2792969,0.7910156-0.5771484,1.1416016-0.9140625c0.8535156-0.8193359,1.3134766-1.8789062,1.6884766-2.9726562
		c0.1992188-0.578125,0.7109375-1.015625,1.21875-0.9511719c0.7646484,0.0996094,1.1269531,0.7333984,0.8496094,1.4726562
		c-0.2041016,0.5410156-0.5703125,0.9873047-0.8496094,1.484375c-0.2617188,0.46875-0.40625,0.9628906-0.4355469,1.4921875
		c-0.0283203,0.5253906,0.2080078,0.7607422,0.7353516,0.7851562c1.0478516,0.0488281,1.90625-0.4355469,2.7431641-0.9707031
		c0.3095703-0.1982422,0.5908203-0.4404297,0.8857422-0.6621094c0.2470703-0.1875,0.375-0.4257812,0.4404297-0.7412109
		c0.2119141-1.0175781,0.6064453-1.9775391,1.0253906-2.9238281c0.1162109-0.2626953,0.1962891-0.4355469-0.2207031-0.4384766
		c-0.2714844-0.0019531-0.3671875-0.3105469-0.1953125-0.5703125c0.1621094-0.2451172,0.4208984-0.3745117,0.6933594-0.3891602
		c0.3046875-0.0161133,0.4326172-0.1762695,0.5478516-0.4174805c0.3632812-0.7631836,0.7763672-1.5,1.2431641-2.2055664
		c0.1533203-0.230957,0.3408203-0.4311523,0.5546875-0.6010742c0.3876953-0.3081055,0.8359375-0.309082,1.2167969-0.0175781
		c0.4736328,0.3623047,0.5400391,0.8007812,0.1630859,1.2636719c-0.4003906,0.4912109-0.7470703,1.015625-1.0625,1.5625
		c-0.2021484,0.3496094-0.1728516,0.3652344,0.2041016,0.4433594c0.6591797,0.1347656,1.2490234-0.0141602,1.8125-0.3452148
		c0.1435547-0.0849609,0.3056641-0.1884766,0.4589844-0.0532227c0.1591797,0.1411133,0.0458984,0.3105469-0.0136719,0.4609375
		c-0.3017578,0.7675781-1.1582031,1.2382812-1.9599609,1.0820312c-0.2685547-0.0527344-0.5361328-0.0996094-0.7949219-0.1953125
		c-0.1787109-0.0673828-0.3476562-0.0693359-0.4453125,0.1523438c-0.6611328,1.5048828-1.3203125,3.0087891-1.2539062,4.7089844
		c0.0283203,0.7333984,0.3759766,1.0244141,1.0996094,0.9414062c1.4619141-0.1689453,2.5986328-0.9550781,3.6171875-1.9287109
		c0.3789062-0.3623047,0.5898438-0.8857422,0.9824219-1.2607422c0.7802734-0.7480469,1.6816406-1.3134766,2.7255859-1.5585938
		c0.9189453-0.2148438,1.6826172-0.1132812,2.0595703,0.7773438c0.2324219,0.5488281-0.0117188,1.2636719-0.4804688,1.4423828
		c-0.328125,0.1259766-0.5751953,0.0068359-0.7929688-0.2353516c-0.2167969-0.2412109-0.1591797-0.4765625,0.0009766-0.7148438
		c0.0126953-0.0195312,0.03125-0.0371094,0.0400391-0.0585938c0.0537109-0.1347656,0.2890625-0.2421875,0.1660156-0.3867188
		c-0.1171875-0.1396484-0.3183594-0.0283203-0.4580078,0.0527344c-1.1328125,0.6503906-1.9433594,1.5625-2.2138672,2.8710938
		c-0.1367188,0.6630859,0.3046875,1.1738281,0.9804688,1.1982422c1.4794922,0.0537109,2.7705078-0.4658203,3.9589844-1.2958984
		c0.2441406-0.1699219,0.4638672-0.375,0.7138672-0.5351562c0.3847656-0.2460938,0.5380859-0.5996094,0.5986328-1.0351562
		c0.1816406-1.3154297,0.5849609-2.5722656,1.0908203-3.7939453c0.6074219-1.4672852,1.3505859-2.8623047,2.3408203-4.1118164
		c0.7490234-0.9453125,1.5458984-1.8496094,2.640625-2.4116211c0.6113281-0.3139648,1.2470703-0.5366211,1.9453125-0.2148438
		c0.6328125,0.2919922,0.9677734,0.9829102,0.7822266,1.6542969c-0.3310547,1.1992188-1.0546875,2.1748047-1.7890625,3.1425781
		c-1.3701172,1.8037109-2.9257812,3.4462891-4.5166016,5.0517578c-0.3613281,0.3642578-0.3691406,0.7890625-0.4873047,1.2060547
		C54.8710938,20.9882812,54.9023438,21.0058594,54.9326172,21.0244141z M5.3828125,31.0253906
		c1.0019531,0.0625,2.3339844-0.40625,2.9921875-0.7421875c1.8828125-0.9599609,3.2949219-2.4375,4.5097656-4.1230469
		c1.5859375-2.2001953,2.7128906-4.6289062,3.4970703-7.2207031c0.0292969-0.0976562,0.1044922-0.2128906,0.0009766-0.296875
		c-0.0839844-0.0693359-0.1787109,0.0117188-0.2666016,0.0410156c-2.0058594,0.65625-3.9423828,1.4765625-5.8007812,2.4707031
		c-2.1259766,1.1376953-4.1425781,2.4335938-5.796875,4.2216797c-0.7255859,0.7841797-1.3681641,1.6318359-1.6191406,2.6904297
		c-0.2900391,1.2207031-0.0957031,2.1298828,1.2412109,2.7578125C4.5449219,31.0136719,4.984375,31.0664062,5.3828125,31.0253906z
		 M55.3574219,19.0273438c0.2880859-0.3095703,0.5820312-0.6132812,0.8642578-0.9277344
		c1.3291016-1.4765625,2.6142578-2.9887695,3.6767578-4.6743164c0.3740234-0.5927734,0.7333984-1.1977539,0.8964844-1.8925781
		c0.0390625-0.1665039,0.0800781-0.3398438-0.0898438-0.4545898c-0.1464844-0.0996094-0.2929688-0.0385742-0.4335938,0.0439453
		c-0.2275391,0.1333008-0.4287109,0.2983398-0.6123047,0.4868164c-1.5947266,1.6401367-2.7529297,3.5693359-3.7070312,5.6293945
		C55.6904297,17.8046875,55.453125,18.3828125,55.3574219,19.0273438z"/>
	<path fill="#FFFFFF" d="M40.9111328,8.640625c-0.4638672,0.3828125-0.9248047,0.7456055-1.4287109,1.0458984
		c-0.6152344,0.3671875-1.2587891,0.6606445-1.9912109,0.6704102c-1.1728516,0.0151367-1.8417969-0.7695312-1.6835938-1.925293
		c0.1289062-0.9438477,0.484375-1.8085938,0.8652344-2.6665039c0.1005859-0.2280273,0.1542969-0.3583984-0.1943359-0.3154297
		c-0.2275391,0.0283203-0.2363281-0.1499023-0.1708984-0.3129883c0.0927734-0.2319336,0.3095703-0.3076172,0.5263672-0.3364258
		c0.2265625-0.0307617,0.3359375-0.1547852,0.4287109-0.3452148C37.5429688,3.875,37.8457031,3.3061523,38.2255859,2.7836914
		C38.375,2.5795898,38.5439453,2.3964844,38.796875,2.3125c0.2958984-0.0986328,0.6054688,0.012207,0.7978516,0.2885742
		c0.1787109,0.2558594,0.1308594,0.4882812-0.0585938,0.7158203c-0.3164062,0.3779297-0.5810547,0.7905273-0.8222656,1.2202148
		c-0.1025391,0.1835938-0.0742188,0.2763672,0.15625,0.2919922c0.4746094,0.0327148,0.9375,0.0375977,1.3564453-0.2426758
		C40.3212891,4.5234375,40.453125,4.4375,40.5566406,4.5410156c0.1113281,0.1108398,0.0283203,0.2460938-0.0273438,0.3632812
		c-0.2714844,0.5703125-0.8730469,0.8374023-1.5390625,0.6855469c-0.7138672-0.1630859-0.7158203-0.1635742-1.0019531,0.5180664
		c-0.3300781,0.7861328-0.625,1.5834961-0.7021484,2.4418945c-0.0166016,0.1733398-0.0322266,0.3496094-0.015625,0.5214844
		c0.0576172,0.5776367,0.3242188,0.7685547,0.9033203,0.7001953c1.1162109-0.1318359,1.9384766-0.7890625,2.7353516-1.4985352
		c0.0878906-0.078125,0.0996094-0.1850586,0.1171875-0.2954102c0.4179688-2.5131836,1.4238281-4.7568359,3.1328125-6.6577148
		c0.5556641-0.6171875,1.1835938-1.1669922,2.0615234-1.3027344c0.8623047-0.1323242,1.4492188,0.5170898,1.2109375,1.3598633
		C47.2294922,2.0942383,46.8105469,2.6972656,46.375,3.284668c-1.0087891,1.362793-2.1386719,2.6220703-3.3554688,3.7983398
		c-0.3798828,0.3676758-0.5117188,0.777832-0.5507812,1.3129883c0.3769531-0.4501953,0.7011719-0.8881836,1.0917969-1.2651367
		c0.3457031-0.3334961,0.6943359-0.6635742,1.1230469-0.894043c0.6181641-0.3310547,1.0615234-0.1826172,1.3496094,0.4594727
		c0.1396484,0.3110352,0.2001953,0.6445312,0.2753906,0.9741211c0.0498047,0.2124023,0.1074219,0.4228516,0.1660156,0.6328125
		c0.2148438,0.7685547,0.5527344,0.9941406,1.4384766,0.6723633c0.4902344-0.1772461,0.8652344-0.512207,1.1533203-1
		c0.7050781-1.190918,1.8193359-1.7407227,3.1904297-1.777832c0.3144531-0.0087891,0.5859375,0.105957,0.7226562,0.4125977
		c0.140625,0.3154297,0.0429688,0.6020508-0.1660156,0.8510742c-0.4277344,0.5097656-1.0185547,0.7739258-1.6074219,1.0375977
		c-0.1289062,0.0581055-0.2636719,0.1049805-0.3964844,0.1552734c-0.3496094,0.1333008-0.3994141,0.2397461-0.2451172,0.5864258
		c0.1611328,0.362793,0.4394531,0.5541992,0.8427734,0.565918c1.1738281,0.0351562,2.1650391-0.434082,3.078125-1.1123047
		c0.21875-0.1621094,0.4199219-0.3476562,0.6328125-0.5185547c0.0644531-0.0517578,0.140625-0.1347656,0.2255859-0.0429688
		c0.0976562,0.1049805,0.0058594,0.1806641-0.0664062,0.2451172c-1.3447266,1.2104492-2.84375,2.0556641-4.7294922,1.9814453
		C50.2050781,10.3457031,49.875,10.277832,49.5625,10.1450195c-0.4316406-0.184082-0.703125-0.5043945-0.7558594-0.9863281
		c-0.0273438-0.2543945-0.0996094-0.3334961-0.3291016-0.1293945c-0.2939453,0.2602539-0.6132812,0.4921875-0.9677734,0.6679688
		c-1.4091797,0.6987305-2.5527344,0.0600586-2.6845703-1.4990234c-0.0205078-0.2392578-0.0400391-0.4785156-0.0722656-0.7163086
		c-0.0488281-0.3657227-0.2470703-0.4833984-0.5283203-0.265625c-0.8984375,0.6958008-1.6835938,1.4873047-1.9882812,2.6347656
		c-0.1152344,0.4345703-0.3994141,0.5712891-0.7861328,0.3481445c-0.4111328-0.237793-0.5527344-0.6230469-0.5419922-1.0810547
		C40.9111328,8.9707031,40.9902344,8.824707,40.9111328,8.640625z M42.7802734,6.8530273
		c0.046875-0.0209961,0.0712891-0.0244141,0.0839844-0.0385742c1.2480469-1.3266602,2.4453125-2.6948242,3.421875-4.2397461
		c0.25-0.3950195,0.4941406-0.7978516,0.5947266-1.2651367c0.0322266-0.1489258,0.0888672-0.3154297-0.0771484-0.4135742
		c-0.1552734-0.0908203-0.2929688,0.0078125-0.4199219,0.0957031c-0.234375,0.1625977-0.4365234,0.3608398-0.6240234,0.5737305
		c-0.9736328,1.1025391-1.7490234,2.3354492-2.3710938,3.6640625C43.1474609,5.746582,42.9101562,6.2695312,42.7802734,6.8530273z
		 M50.5283203,8.3969727c0.421875-0.1000977,1.0292969-0.4174805,1.4638672-0.7587891
		c0.1552734-0.121582,0.3056641-0.2504883,0.3974609-0.4282227c0.0419922-0.0820312,0.1132812-0.1743164,0.0380859-0.2719727
		c-0.0693359-0.0893555-0.1689453-0.0776367-0.2705078-0.0639648C51.515625,6.9624023,50.6835938,7.7270508,50.5283203,8.3969727z"
		/>
	<path fill="#FFFFFF" d="M36.4082031,14.5976562c-0.0087891,0.5708008-0.7089844,1.347168-1.2792969,1.4174805
		c-0.6474609,0.0795898-1.1210938-0.5073242-0.8994141-1.1220703c0.1835938-0.5073242,0.5371094-0.8657227,1.0244141-1.0810547
		C35.7695312,13.5834961,36.4160156,14.0317383,36.4082031,14.5976562z"/>
	<path fill="none" d="M5.3828125,31.0253906c-0.3984375,0.0410156-0.8378906-0.0117188-1.2421875-0.2011719
		c-1.3369141-0.6279297-1.53125-1.5371094-1.2412109-2.7578125c0.2509766-1.0585938,0.8935547-1.90625,1.6191406-2.6904297
		c1.6542969-1.7880859,3.6708984-3.0839844,5.796875-4.2216797c1.8583984-0.9941406,3.7949219-1.8144531,5.8007812-2.4707031
		c0.0878906-0.0292969,0.1826172-0.1103516,0.2666016-0.0410156c0.1035156,0.0839844,0.0283203,0.1992188-0.0009766,0.296875
		c-0.7841797,2.5917969-1.9111328,5.0205078-3.4970703,7.2207031c-1.2148438,1.6855469-2.6269531,3.1630859-4.5097656,4.1230469
		C7.7167969,30.6191406,6.3847656,31.0878906,5.3828125,31.0253906z"/>
	<path fill="none" d="M55.3574219,19.0273438c0.0957031-0.6445312,0.3330078-1.2226562,0.5947266-1.7890625
		c0.9541016-2.0600586,2.1123047-3.9892578,3.7070312-5.6293945c0.1835938-0.1884766,0.3847656-0.3535156,0.6123047-0.4868164
		c0.140625-0.0825195,0.2871094-0.1435547,0.4335938-0.0439453c0.1699219,0.1147461,0.1289062,0.2880859,0.0898438,0.4545898
		c-0.1630859,0.6948242-0.5224609,1.2998047-0.8964844,1.8925781c-1.0625,1.6855469-2.3476562,3.1977539-3.6767578,4.6743164
		C55.9394531,18.4140625,55.6455078,18.7177734,55.3574219,19.0273438z"/>
	<path fill="none" d="M42.5253906,7.0043945c0.1416016-0.6362305,0.4003906-1.206543,0.6640625-1.7705078
		c0.6787109-1.4487305,1.5244141-2.793457,2.5859375-3.996582c0.2050781-0.2319336,0.4257812-0.4477539,0.6806641-0.625
		c0.1386719-0.0961914,0.2890625-0.2036133,0.4580078-0.1044922c0.1806641,0.1064453,0.1191406,0.2885742,0.0839844,0.4511719
		c-0.109375,0.5097656-0.3759766,0.9487305-0.6484375,1.3793945c-1.0654297,1.6845703-2.3710938,3.1772461-3.7314453,4.6240234
		C42.6035156,6.9775391,42.5771484,6.9814453,42.5253906,7.0043945z"/>
	<path fill="none" d="M50.9755859,8.6879883c0.1699219-0.7299805,1.0771484-1.5639648,1.7773438-1.6606445
		C52.8632812,7.012207,52.9716797,7,53.0478516,7.097168c0.0820312,0.1064453,0.0048828,0.2070312-0.0419922,0.296875
		c-0.1005859,0.1933594-0.2636719,0.3339844-0.4326172,0.4663086C52.0986328,8.2329102,51.4355469,8.5791016,50.9755859,8.6879883z"
		/>
</g>
<g opacity="0.5">
	<path fill="#FFFFFF" d="M55.9628906,26.7705078h0.9873047c0.0957031,0,0.1894531,0.0117188,0.2822266,0.0341797
		s0.1757812,0.0595703,0.2480469,0.1103516c0.0732422,0.0517578,0.1328125,0.1181641,0.1777344,0.1992188
		s0.0673828,0.1787109,0.0673828,0.2929688c0,0.1425781-0.0400391,0.2607422-0.1210938,0.3535156
		c-0.0810547,0.09375-0.1875,0.1601562-0.3183594,0.2001953V27.96875c0.1601562,0.0214844,0.2910156,0.0830078,0.3935547,0.1855469
		s0.1542969,0.2392578,0.1542969,0.4111328c0,0.1386719-0.0283203,0.2548828-0.0830078,0.3486328
		c-0.0546875,0.0947266-0.1269531,0.1699219-0.2158203,0.2275391c-0.0898438,0.0576172-0.1923828,0.0976562-0.3076172,0.1230469
		c-0.1162109,0.0253906-0.2333984,0.0380859-0.3525391,0.0380859h-0.9121094V26.7705078z M56.4130859,27.8007812h0.4013672
		c0.1503906,0,0.2646484-0.0302734,0.3427734-0.0898438c0.0791016-0.0595703,0.1181641-0.1445312,0.1181641-0.2539062
		c0-0.1142578-0.0410156-0.1953125-0.1220703-0.2431641c-0.0800781-0.0478516-0.2070312-0.0712891-0.3789062-0.0712891h-0.3613281
		V27.8007812z M56.4130859,28.9238281h0.4052734c0.0566406,0,0.1181641-0.0039062,0.1855469-0.0126953
		c0.0664062-0.0087891,0.1279297-0.0263672,0.1845703-0.0517578c0.0556641-0.0263672,0.1025391-0.0644531,0.1386719-0.1142578
		c0.0371094-0.0498047,0.0556641-0.1171875,0.0556641-0.2011719c0-0.1328125-0.0449219-0.2265625-0.1357422-0.2783203
		c-0.0908203-0.0527344-0.2275391-0.0791016-0.4121094-0.0791016h-0.421875V28.9238281z"/>
	<path fill="#FFFFFF" d="M59.8925781,28.4658203c0,0.0185547,0,0.0380859,0,0.0576172
		c0,0.0185547-0.0009766,0.0371094-0.0029297,0.0566406h-1.3046875c0.0039062,0.0615234,0.0195312,0.1191406,0.0478516,0.1699219
		c0.0273438,0.0517578,0.0634766,0.0957031,0.1083984,0.1318359c0.0458984,0.0380859,0.0966797,0.0664062,0.1542969,0.0878906
		c0.0566406,0.0214844,0.1171875,0.0322266,0.1787109,0.0322266c0.1074219,0,0.1972656-0.0195312,0.2714844-0.0585938
		c0.0742188-0.0400391,0.1347656-0.09375,0.1826172-0.1630859l0.2861328,0.2285156
		c-0.1689453,0.2294922-0.4150391,0.34375-0.7373047,0.34375c-0.1328125,0-0.2558594-0.0205078-0.3671875-0.0625
		C58.5976562,29.2480469,58.5,29.1894531,58.4179688,29.1123047c-0.0820312-0.0761719-0.1464844-0.1689453-0.1933594-0.2802734
		c-0.0458984-0.1103516-0.0693359-0.2363281-0.0693359-0.3769531c0-0.1386719,0.0234375-0.2646484,0.0693359-0.3769531
		c0.046875-0.1142578,0.1103516-0.2109375,0.1914062-0.2900391c0.0810547-0.0800781,0.1767578-0.1425781,0.2880859-0.1855469
		c0.1113281-0.0449219,0.2304688-0.0664062,0.359375-0.0664062c0.1191406,0,0.2294922,0.0195312,0.3310547,0.0585938
		c0.1005859,0.0400391,0.1884766,0.0976562,0.2626953,0.1748047c0.0742188,0.078125,0.1318359,0.1748047,0.1738281,0.2900391
		C59.8720703,28.1757812,59.8925781,28.3105469,59.8925781,28.4658203z M59.4638672,28.2724609
		c0-0.0546875-0.0078125-0.1074219-0.0234375-0.1572266s-0.0400391-0.0947266-0.0732422-0.1318359
		c-0.0332031-0.0390625-0.0751953-0.0693359-0.1269531-0.0917969c-0.0507812-0.0224609-0.1113281-0.0341797-0.1806641-0.0341797
		c-0.1279297,0-0.2373047,0.0390625-0.3261719,0.1171875c-0.0898438,0.0771484-0.1396484,0.1767578-0.1484375,0.2978516H59.4638672z
		"/>
	<path fill="#FFFFFF" d="M60.0615234,27.9296875v-0.34375h0.3007812v-0.4970703h0.421875v0.4970703h0.4287109v0.34375h-0.4287109
		v0.796875c0,0.0761719,0.0136719,0.1396484,0.0410156,0.1894531s0.0888672,0.0751953,0.1845703,0.0751953
		c0.0283203,0,0.0585938-0.0029297,0.0917969-0.0087891c0.0341797-0.0058594,0.0634766-0.0146484,0.0898438-0.0273438
		l0.0146484,0.3369141c-0.0380859,0.0136719-0.0839844,0.0253906-0.1357422,0.0341797
		c-0.0527344,0.0078125-0.1025391,0.0117188-0.1503906,0.0117188c-0.1152344,0-0.2070312-0.015625-0.2792969-0.0478516
		c-0.0712891-0.0322266-0.1279297-0.0761719-0.1699219-0.1328125c-0.0419922-0.0556641-0.0703125-0.1201172-0.0859375-0.1933594
		c-0.0146484-0.0722656-0.0224609-0.1503906-0.0224609-0.2333984v-0.8007812H60.0615234z"/>
	<path fill="#FFFFFF" d="M62.5898438,29.0839844h-0.0107422c-0.0429688,0.0761719-0.1123047,0.1396484-0.2080078,0.1884766
		c-0.0947266,0.0488281-0.203125,0.0732422-0.3251953,0.0732422c-0.0683594,0-0.140625-0.0097656-0.2158203-0.0273438
		s-0.1445312-0.046875-0.2080078-0.0888672c-0.0625-0.0419922-0.1152344-0.0966797-0.1572266-0.1650391
		c-0.0419922-0.0673828-0.0625-0.1523438-0.0625-0.2519531c0-0.1289062,0.0361328-0.2314453,0.109375-0.3076172
		s0.1660156-0.1337891,0.2802734-0.1748047c0.1152344-0.0410156,0.2421875-0.0673828,0.3818359-0.0800781
		c0.1386719-0.0136719,0.2753906-0.0205078,0.4091797-0.0205078v-0.0429688c0-0.1074219-0.0390625-0.1865234-0.1171875-0.2382812
		c-0.0771484-0.0507812-0.1699219-0.0761719-0.2763672-0.0761719c-0.0908203,0-0.1777344,0.0185547-0.2607422,0.0576172
		c-0.0839844,0.0371094-0.1533203,0.0839844-0.2080078,0.1386719l-0.2216797-0.2607422
		c0.0976562-0.0908203,0.2109375-0.1591797,0.3378906-0.2041016c0.1279297-0.0449219,0.2568359-0.0673828,0.3886719-0.0673828
		c0.1523438,0,0.2783203,0.0214844,0.3769531,0.0634766c0.0986328,0.0429688,0.1767578,0.0996094,0.234375,0.1689453
		s0.0966797,0.1464844,0.1191406,0.2324219c0.0234375,0.0859375,0.0341797,0.1708984,0.0341797,0.2568359v1.0449219h-0.4003906
		V29.0839844z M62.5830078,28.5195312h-0.0966797c-0.0693359,0-0.1425781,0.0029297-0.21875,0.0087891
		s-0.1464844,0.0195312-0.2109375,0.0390625c-0.0644531,0.0205078-0.1181641,0.0488281-0.1611328,0.0859375
		c-0.0419922,0.0371094-0.0634766,0.0878906-0.0634766,0.1523438c0,0.0400391,0.0087891,0.0742188,0.0263672,0.1015625
		c0.0185547,0.0273438,0.0410156,0.0498047,0.0703125,0.0664062c0.0283203,0.0166016,0.0605469,0.0283203,0.0966797,0.0351562
		c0.0351562,0.0068359,0.0703125,0.0117188,0.1064453,0.0117188c0.1484375,0,0.2597656-0.0400391,0.3359375-0.1181641
		c0.0761719-0.0791016,0.1152344-0.1865234,0.1152344-0.3222656V28.5195312z"/>
</g>
</svg>
