<?xml version="1.0" encoding="utf-8"?>
<!-- Generator: Adobe Illustrator 16.0.0, SVG Export Plug-In . SVG Version: 6.00 Build 0)  -->
<!DOCTYPE svg PUBLIC "-//W3C//DTD SVG 1.1//EN" "http://www.w3.org/Graphics/SVG/1.1/DTD/svg11.dtd">
<svg version="1.1" id="Layer_1" xmlns="http://www.w3.org/2000/svg" xmlns:xlink="http://www.w3.org/1999/xlink" x="0px" y="0px"
	 width="64.1967773px" height="31.7148438px" viewBox="0 0 64.1967773 31.7148438"
	 style="enable-background:new 0 0 64.1967773 31.7148438;" xml:space="preserve">
<style type="text/css">
<![CDATA[
	.st0{fill-rule:evenodd;clip-rule:evenodd;fill:none;}
	.st1{fill-rule:evenodd;clip-rule:evenodd;}
]]>
</style>
<g>
	<path class="st1" d="M54.9326172,21.0244141c0.3041992-0.359375,0.6020508-0.7236328,0.9140625-1.0756836
		c0.5869141-0.6616211,1.2250977-1.2675781,2.0126953-1.6875c0.8325195-0.4443359,1.46875-0.1958008,1.8291016,0.6816406
		c0.2773438,0.6757812,0.3759766,1.3989258,0.5717773,2.0961914c0.0288086,0.1025391,0.059082,0.2055664,0.0981445,0.3051758
		c0.324707,0.8334961,0.8300781,1.0478516,1.6943359,0.7456055c0.6591797-0.2304688,1.1708984-0.6699219,1.6777344-1.1225586
		c0.1049805-0.09375,0.1992188-0.2841797,0.3789062-0.1137695c0.1860352,0.175293,0.0366211,0.2910156-0.0893555,0.4067383
		c-0.8237305,0.7583008-1.6464844,1.5195312-2.6977539,1.9624023c-1.0175781,0.4287109-2.0913086,0.2426758-2.7314453-0.4716797
		c-0.4077148-0.4545898-0.543457-1.0175781-0.6025391-1.6079102c-0.0390625-0.3901367-0.0805664-0.7807617-0.1381836-1.168457
		c-0.0546875-0.3710938-0.2714844-0.4833984-0.6088867-0.3139648c-0.1577148,0.0791016-0.3081055,0.1850586-0.4389648,0.3032227
		c-0.7207031,0.6479492-1.3500977,1.3745117-1.871582,2.1923828c-0.199707,0.3129883-0.3408203,0.6455078-0.4111328,1.0180664
		c-0.1411133,0.7519531-0.7680664,0.9511719-1.3417969,0.4370117c-0.4648438-0.4160156-0.6049805-0.9487305-0.5249023-1.5541992
		c0.0126953-0.0976562,0.0917969-0.2338867-0.0288086-0.2910156c-0.1103516-0.0522461-0.1845703,0.0805664-0.2626953,0.1459961
		c-1.1035156,0.9321289-2.3178711,1.6733398-3.7211914,2.0478516c-0.9731445,0.2602539-1.9697266,0.3427734-2.9599609,0.0737305
		c-0.8540039-0.2319336-1.2983398-0.7924805-1.3647461-1.6665039c-0.0068359-0.0893555,0.046875-0.2133789-0.0620117-0.2578125
		c-0.1010742-0.0410156-0.1640625,0.0722656-0.2373047,0.1259766c-1.0351562,0.7529297-2.1015625,1.434082-3.3842773,1.703125
		c-1.0288086,0.215332-2.0947266-0.1601562-2.6137695-0.965332c-0.1704102-0.2636719-0.2612305-0.5566406-0.3105469-0.8647461
		c-0.0146484-0.090332,0.0336914-0.2167969-0.0639648-0.2612305c-0.1137695-0.050293-0.1948242,0.0639648-0.2729492,0.1293945
		c-0.6669922,0.5629883-1.3803711,1.0625-2.1733398,1.425293c-0.9487305,0.434082-1.9248047,0.7626953-2.9985352,0.5053711
		c-1-0.2402344-1.3457031-0.6132812-1.4824219-1.6611328c-0.1865234,0.0473633-0.2949219,0.1938477-0.4248047,0.3071289
		c-0.7729492,0.671875-1.5566406,1.3295898-2.4697266,1.8105469c-0.8525391,0.4492188-1.7241211,0.6699219-2.6655273,0.2646484
		c-0.7773438-0.3344727-1.1611328-0.9570312-1.3037109-1.7504883c-0.171875-0.9555664-0.0107422-1.8950195,0.2006836-2.8251953
		c0.2236328-0.9868164,0.5297852-1.9492188,0.8891602-2.8950195c0.1015625-0.2680664-0.0478516-0.2900391-0.2397461-0.2705078
		c-0.496582,0.0498047-0.9960938,0.0859375-1.487793,0.1674805c-1.1123047,0.184082-2.2250977,0.3652344-3.3168945,0.6591797
		c-0.2695312,0.0727539-0.4042969,0.2016602-0.484375,0.449707c-0.7294922,2.2568359-1.7773438,4.3598633-3.1196289,6.3120117
		c-1.4199219,2.0654297-3.0893555,3.8969727-5.1831055,5.3041992c-1.9765625,1.3295898-4.1196289,2.1196289-6.5458984,1.8979492
		c-0.8818359-0.0805664-1.7021484-0.3676758-2.3935547-0.9316406c-1.3046875-1.0644531-1.3886719-2.4116211-0.6630859-3.9169922
		c0.6274414-1.3027344,1.6147461-2.3144531,2.7280273-3.2119141c1.9980469-1.6108398,4.2314453-2.8203125,6.5678711-3.8544922
		c1.7851562-0.7905273,3.6147461-1.4624023,5.4902344-2.0014648c0.296875-0.0854492,0.4379883-0.2402344,0.5029297-0.5214844
		c0.4135742-1.793457,0.6552734-3.6005859,0.4946289-5.4477539c-0.0805664-0.9238281-0.2797852-1.8100586-0.7348633-2.621582
		c-0.5991211-1.0693359-1.5512695-1.6430664-2.7314453-1.8691406C11.6240234,6.8798828,9.5717773,7.4365234,7.59375,8.3256836
		c-1.8295898,0.8222656-3.4716797,1.9335938-4.7822266,3.4780273c-1.0996094,1.2954102-1.8354492,2.7514648-1.824707,4.496582
		c0.0097656,1.6015625,0.8447266,2.8325195,2.3413086,3.3725586c1.1523438,0.4150391,2.331543,0.3525391,3.4487305-0.1367188
		c2.0371094-0.8925781,3.3642578-2.449707,4.0219727-4.5610352c0.2749023-0.8823242,0.1904297-1.7607422-0.277832-2.5883789
		c-0.3041992-0.5385742-0.2490234-0.9233398,0.1342773-1.2905273c0.3666992-0.3515625,0.7836914-0.2978516,1.0371094,0.1416016
		c0.1630859,0.2822266,0.2480469,0.5961914,0.2749023,0.9165039c0.1210938,1.4262695-0.0615234,2.7988281-0.730957,4.0878906
		c-1.0307617,1.9868164-2.5307617,3.4516602-4.6938477,4.1269531c-1.8085938,0.5639648-3.5307617,0.4135742-5.0229492-0.887207
		c-0.7114258-0.6206055-1.0986328-1.4375-1.2397461-2.3520508c-0.3173828-2.0546875,0.3046875-3.8852539,1.465332-5.5463867
		c1.605957-2.2988281,3.8354492-3.7880859,6.4038086-4.8242188c1.6606445-0.6708984,3.3876953-1.0419922,5.1713867-1.0786133
		C15.2734375,5.6401367,17.0776367,6.1503906,18.5449219,7.5c1.1811523,1.0864258,1.7768555,2.4794922,1.8671875,4.081543
		c0.0908203,1.6176758-0.1420898,3.2001953-0.5405273,4.7636719c-0.1586914,0.6245117-0.1220703,0.6708984,0.4946289,0.5234375
		c1.4716797-0.3520508,2.9677734-0.5351562,4.4716797-0.6601562c0.3222656-0.0268555,0.4926758-0.1464844,0.6186523-0.4663086
		c0.9873047-2.5053711,2.0952148-4.9526367,3.6445312-7.1733398c0.2529297-0.3618164,0.5273438-0.7055664,0.8984375-0.9584961
		c0.3706055-0.2529297,0.730957-0.2558594,1.0913086,0.0078125C31.215332,7.7089844,31.3349609,7.8125,31.4335938,7.9296875
		c0.6879883,0.8149414,0.6391602,1.1445312-0.0166016,1.7592773c-1.5004883,1.4057617-2.4560547,3.1655273-3.2998047,5.0009766
		c-0.1689453,0.3666992-0.2929688,0.7539062-0.4648438,1.1196289c-0.1308594,0.277832-0.043457,0.3789062,0.2338867,0.4355469
		c0.6831055,0.1396484,1.3359375,0.3500977,1.828125,0.8891602c0.1386719,0.1513672,0.2675781,0.309082,0.2988281,0.5175781
		c0.0297852,0.1933594-0.0302734,0.3769531-0.2260742,0.4331055c-0.1796875,0.0517578-0.2734375-0.1103516-0.3417969-0.25
		c-0.3027344-0.6181641-1.3125-1.1298828-1.9638672-0.9946289c-0.1230469,0.0253906-0.1782227,0.0981445-0.2138672,0.2089844
		c-0.4697266,1.4599609-0.9580078,2.9165039-1.03125,4.4682617c-0.0219727,0.4633789-0.0268555,0.9287109,0.1269531,1.3774414
		c0.1630859,0.4765625,0.3554688,0.5859375,0.847168,0.581543c0.8530273-0.0063477,1.5649414-0.3720703,2.2333984-0.8417969
		c0.3984375-0.2792969,0.7910156-0.5771484,1.1416016-0.9135742c0.8535156-0.8198242,1.3139648-1.8793945,1.6889648-2.9731445
		c0.1987305-0.5786133,0.7104492-1.0161133,1.21875-0.9506836c0.7646484,0.0991211,1.1269531,0.7329102,0.8491211,1.4716797
		c-0.2036133,0.5415039-0.5698242,0.987793-0.8491211,1.4853516c-0.262207,0.4677734-0.4067383,0.9624023-0.4355469,1.4921875
		c-0.0288086,0.5244141,0.2075195,0.7602539,0.7353516,0.784668c1.0478516,0.0488281,1.90625-0.4350586,2.7426758-0.9707031
		c0.3100586-0.1982422,0.5913086-0.4404297,0.8857422-0.6625977c0.2475586-0.1875,0.375-0.425293,0.4404297-0.7407227
		c0.2119141-1.0175781,0.6069336-1.9770508,1.0258789-2.9238281c0.1157227-0.262207,0.1962891-0.4355469-0.2207031-0.4384766
		c-0.2719727-0.0019531-0.3671875-0.3100586-0.1958008-0.5698242c0.1621094-0.2456055,0.4213867-0.375,0.6933594-0.3896484
		c0.3051758-0.0161133,0.4326172-0.1762695,0.5478516-0.4174805c0.3637695-0.7631836,0.7763672-1.5,1.2436523-2.2055664
		c0.152832-0.230957,0.340332-0.4311523,0.5546875-0.6010742c0.387207-0.3081055,0.8359375-0.309082,1.2167969-0.0175781
		c0.4731445,0.3623047,0.5400391,0.8007812,0.1625977,1.2636719c-0.4003906,0.4912109-0.7470703,1.015625-1.0625,1.5625
		c-0.2016602,0.3496094-0.1728516,0.3652344,0.2045898,0.4428711c0.6586914,0.1352539,1.2485352-0.0136719,1.8120117-0.3447266
		c0.144043-0.0849609,0.3061523-0.1884766,0.4594727-0.0532227c0.1591797,0.1411133,0.0454102,0.3105469-0.0141602,0.4609375
		c-0.3012695,0.7675781-1.1582031,1.237793-1.9599609,1.081543c-0.2680664-0.0517578-0.5361328-0.0986328-0.7949219-0.1953125
		c-0.1782227-0.0668945-0.347168-0.0688477-0.4448242,0.152832c-0.6616211,1.5048828-1.3208008,3.0087891-1.2543945,4.7094727
		c0.0283203,0.7329102,0.3764648,1.0239258,1.1000977,0.9404297c1.4619141-0.168457,2.5981445-0.9550781,3.6166992-1.9282227
		c0.3793945-0.3623047,0.5898438-0.8857422,0.9824219-1.2612305c0.7807617-0.7480469,1.6816406-1.3129883,2.7260742-1.5576172
		c0.918457-0.2148438,1.6826172-0.1142578,2.0595703,0.7768555c0.2319336,0.5483398-0.0117188,1.2631836-0.4804688,1.4423828
		c-0.3286133,0.1259766-0.5751953,0.0063477-0.7929688-0.2353516c-0.2172852-0.2412109-0.1591797-0.4765625,0.0004883-0.7143555
		c0.0131836-0.0200195,0.03125-0.0375977,0.0400391-0.059082c0.0537109-0.1347656,0.2890625-0.2416992,0.1660156-0.387207
		c-0.1166992-0.1391602-0.3183594-0.027832-0.4580078,0.0527344c-1.1328125,0.6513672-1.9428711,1.5625-2.2133789,2.8720703
		c-0.1367188,0.6625977,0.3046875,1.1733398,0.9799805,1.1977539c1.4794922,0.0537109,2.7709961-0.4663086,3.9594727-1.2963867
		c0.2436523-0.1699219,0.4633789-0.375,0.7133789-0.534668c0.3847656-0.2456055,0.5380859-0.6000977,0.5986328-1.034668
		c0.1821289-1.315918,0.5854492-2.5722656,1.0908203-3.7944336c0.6074219-1.4672852,1.3505859-2.8623047,2.3408203-4.1118164
		c0.7495117-0.9453125,1.5458984-1.8496094,2.6411133-2.4116211c0.6108398-0.3139648,1.246582-0.5366211,1.9453125-0.2148438
		c0.6328125,0.2919922,0.9672852,0.9829102,0.7817383,1.6542969c-0.3310547,1.1992188-1.0541992,2.1748047-1.7890625,3.1425781
		c-1.3701172,1.8037109-2.925293,3.4458008-4.5166016,5.0512695c-0.3608398,0.3647461-0.3691406,0.7895508-0.4873047,1.206543
		C54.8710938,20.987793,54.9018555,21.0058594,54.9326172,21.0244141z M5.3823242,31.0253906
		c1.0019531,0.0625,2.3344727-0.40625,2.9921875-0.7416992c1.8833008-0.9604492,3.2954102-2.4379883,4.5102539-4.1235352
		c1.5859375-2.2001953,2.7128906-4.628418,3.496582-7.2202148c0.0292969-0.0976562,0.1044922-0.2133789,0.0014648-0.2973633
		c-0.0844727-0.0693359-0.1787109,0.012207-0.2670898,0.0410156c-2.0053711,0.65625-3.9423828,1.4760742-5.8007812,2.4707031
		c-2.1254883,1.1376953-4.1425781,2.4335938-5.796875,4.2216797c-0.7255859,0.784668-1.3676758,1.6313477-1.6191406,2.6899414
		c-0.2900391,1.2216797-0.0952148,2.1303711,1.2412109,2.7583008C4.5444336,31.0141602,4.9838867,31.0664062,5.3823242,31.0253906z
		 M55.3569336,19.0268555c0.2885742-0.309082,0.5820312-0.6132812,0.8642578-0.9272461
		c1.3291016-1.4770508,2.6147461-2.9887695,3.6772461-4.6743164c0.3740234-0.5927734,0.7333984-1.1977539,0.8964844-1.8925781
		c0.0390625-0.1665039,0.0795898-0.3398438-0.0898438-0.4545898c-0.1464844-0.0996094-0.2929688-0.0385742-0.4335938,0.0439453
		c-0.2275391,0.1333008-0.4287109,0.2983398-0.6123047,0.4868164c-1.5947266,1.6401367-2.753418,3.5693359-3.7075195,5.6298828
		C55.6899414,17.8041992,55.453125,18.3823242,55.3569336,19.0268555z"/>
	<path class="st1" d="M40.9111328,8.640625c-0.4638672,0.3828125-0.9248047,0.7456055-1.4291992,1.0458984
		c-0.6152344,0.3671875-1.2583008,0.6606445-1.9912109,0.6704102c-1.1723633,0.0151367-1.8413086-0.7695312-1.6835938-1.925293
		c0.1289062-0.9438477,0.4848633-1.8085938,0.8652344-2.6665039c0.1005859-0.2280273,0.1547852-0.3583984-0.1938477-0.3154297
		c-0.2275391,0.0283203-0.2368164-0.1499023-0.1713867-0.3129883c0.0927734-0.2319336,0.3100586-0.3076172,0.5263672-0.3364258
		c0.2270508-0.0307617,0.3359375-0.1547852,0.4287109-0.3452148C37.5424805,3.875,37.8452148,3.3061523,38.2255859,2.7836914
		c0.1489258-0.2041016,0.3183594-0.387207,0.5708008-0.4711914c0.2963867-0.0986328,0.6054688,0.012207,0.7978516,0.2885742
		c0.1787109,0.2558594,0.1308594,0.4882812-0.0585938,0.7158203c-0.315918,0.3779297-0.5810547,0.7905273-0.8217773,1.2202148
		c-0.1030273,0.1835938-0.074707,0.2763672,0.1557617,0.2919922c0.4746094,0.0327148,0.9379883,0.0375977,1.3569336-0.2426758
		c0.0942383-0.0629883,0.2260742-0.1489258,0.3300781-0.0454102c0.1113281,0.1108398,0.027832,0.2460938-0.027832,0.3632812
		c-0.2714844,0.5703125-0.8725586,0.8374023-1.5385742,0.6855469c-0.7143555-0.1630859-0.7158203-0.1635742-1.0019531,0.5180664
		c-0.3300781,0.7861328-0.625,1.5834961-0.7026367,2.4418945c-0.0161133,0.1733398-0.0322266,0.3496094-0.0151367,0.5214844
		c0.0576172,0.5776367,0.3242188,0.7685547,0.902832,0.7001953c1.1162109-0.1318359,1.9389648-0.7890625,2.7353516-1.4985352
		c0.0878906-0.078125,0.0996094-0.1850586,0.1176758-0.2954102c0.4179688-2.5131836,1.4238281-4.7568359,3.1323242-6.6577148
		c0.5556641-0.6171875,1.1835938-1.1669922,2.0620117-1.3027344c0.8623047-0.1323242,1.4492188,0.5170898,1.2109375,1.3598633
		c-0.2026367,0.7172852-0.621582,1.3203125-1.0571289,1.9077148c-1.0083008,1.362793-2.1386719,2.6220703-3.3554688,3.7983398
		c-0.3798828,0.3676758-0.5117188,0.777832-0.550293,1.3129883c0.3769531-0.4501953,0.7011719-0.8881836,1.0917969-1.2651367
		c0.3452148-0.3334961,0.6938477-0.6635742,1.1225586-0.894043c0.6181641-0.3310547,1.0620117-0.1826172,1.3496094,0.4594727
		c0.1396484,0.3110352,0.2001953,0.6445312,0.2758789,0.9741211c0.0493164,0.2124023,0.1069336,0.4228516,0.1660156,0.6328125
		c0.2148438,0.7685547,0.5527344,0.9941406,1.4384766,0.6723633c0.4902344-0.1772461,0.8647461-0.512207,1.1533203-1
		c0.7050781-1.190918,1.8193359-1.7407227,3.1904297-1.777832c0.3139648-0.0087891,0.5854492,0.105957,0.722168,0.4125977
		c0.140625,0.3154297,0.0429688,0.6020508-0.1655273,0.8510742c-0.4282227,0.5097656-1.019043,0.7739258-1.6074219,1.0375977
		c-0.1293945,0.0581055-0.2636719,0.1049805-0.3964844,0.1552734c-0.3500977,0.1333008-0.3994141,0.2397461-0.2456055,0.5864258
		c0.1611328,0.362793,0.4399414,0.5541992,0.8432617,0.565918c1.1733398,0.0351562,2.1645508-0.434082,3.078125-1.1123047
		c0.21875-0.1621094,0.4194336-0.3476562,0.6323242-0.5185547c0.0644531-0.0517578,0.140625-0.1347656,0.2260742-0.0429688
		c0.0976562,0.1049805,0.0058594,0.1806641-0.0664062,0.2451172c-1.3452148,1.2104492-2.84375,2.0556641-4.7294922,1.9814453
		C50.2050781,10.3457031,49.875,10.277832,49.5625,10.1450195c-0.4321289-0.184082-0.7036133-0.5043945-0.7558594-0.9863281
		c-0.027832-0.2543945-0.1000977-0.3334961-0.3295898-0.1293945c-0.293457,0.2602539-0.612793,0.4921875-0.9672852,0.6679688
		c-1.409668,0.6987305-2.5532227,0.0600586-2.6845703-1.4990234c-0.0205078-0.2392578-0.0400391-0.4785156-0.0722656-0.7163086
		c-0.0488281-0.3657227-0.2475586-0.4833984-0.5288086-0.265625c-0.8979492,0.6958008-1.6835938,1.4873047-1.9882812,2.6347656
		c-0.1152344,0.4345703-0.3989258,0.5712891-0.7856445,0.3481445c-0.4116211-0.237793-0.5527344-0.6230469-0.5419922-1.0810547
		C40.9111328,8.9707031,40.9897461,8.824707,40.9111328,8.640625z M42.7797852,6.8530273
		c0.0473633-0.0209961,0.0712891-0.0244141,0.0844727-0.0385742c1.2480469-1.3266602,2.4453125-2.6948242,3.421875-4.2397461
		c0.2495117-0.3950195,0.4941406-0.7978516,0.5942383-1.2651367c0.0322266-0.1489258,0.0888672-0.3154297-0.0771484-0.4135742
		c-0.1547852-0.0908203-0.2924805,0.0078125-0.4194336,0.0957031c-0.234375,0.1625977-0.4370117,0.3608398-0.6245117,0.5737305
		c-0.9736328,1.1025391-1.7485352,2.3354492-2.3706055,3.6640625C43.1469727,5.746582,42.909668,6.2695312,42.7797852,6.8530273z
		 M50.527832,8.3969727c0.421875-0.1000977,1.0292969-0.4174805,1.4643555-0.7587891
		c0.1547852-0.121582,0.3051758-0.2504883,0.3969727-0.4282227c0.0424805-0.0820312,0.1137695-0.1743164,0.0380859-0.2719727
		c-0.0693359-0.0893555-0.1689453-0.0776367-0.2700195-0.0639648C51.5151367,6.9624023,50.6831055,7.7270508,50.527832,8.3969727z"
		/>
	<path class="st1" d="M36.4077148,14.5976562c-0.0083008,0.5708008-0.7089844,1.347168-1.2788086,1.4174805
		c-0.6479492,0.0795898-1.1210938-0.5073242-0.8994141-1.1220703c0.1835938-0.5073242,0.5371094-0.8657227,1.0244141-1.0810547
		C35.769043,13.5834961,36.4155273,14.0317383,36.4077148,14.5976562z"/>
	<path class="st0" d="M5.3823242,31.0253906c-0.3984375,0.0410156-0.8378906-0.0112305-1.2421875-0.2011719
		c-1.3364258-0.6279297-1.53125-1.5366211-1.2412109-2.7583008c0.2514648-1.0585938,0.8935547-1.9052734,1.6191406-2.6899414
		c1.6542969-1.7880859,3.6713867-3.0839844,5.796875-4.2216797c1.8583984-0.9946289,3.7954102-1.8144531,5.8007812-2.4707031
		c0.0883789-0.0288086,0.1826172-0.1103516,0.2670898-0.0410156c0.1030273,0.0839844,0.027832,0.199707-0.0014648,0.2973633
		c-0.7836914,2.5917969-1.9106445,5.0200195-3.496582,7.2202148c-1.2148438,1.6855469-2.6269531,3.1630859-4.5102539,4.1235352
		C7.7167969,30.6191406,6.3842773,31.0878906,5.3823242,31.0253906z"/>
	<path class="st0" d="M55.3569336,19.0268555c0.0961914-0.6445312,0.3330078-1.2226562,0.5947266-1.7880859
		c0.9541016-2.0605469,2.112793-3.9897461,3.7075195-5.6298828c0.1835938-0.1884766,0.3847656-0.3535156,0.6123047-0.4868164
		c0.140625-0.0825195,0.2871094-0.1435547,0.4335938-0.0439453c0.1694336,0.1147461,0.1289062,0.2880859,0.0898438,0.4545898
		c-0.1630859,0.6948242-0.5224609,1.2998047-0.8964844,1.8925781c-1.0625,1.6855469-2.3481445,3.1972656-3.6772461,4.6743164
		C55.9389648,18.4135742,55.6455078,18.7177734,55.3569336,19.0268555z"/>
	<path class="st0" d="M42.5253906,7.0043945c0.1416016-0.6362305,0.4003906-1.206543,0.6640625-1.7705078
		c0.6782227-1.4487305,1.5239258-2.793457,2.5854492-3.996582c0.2050781-0.2319336,0.4257812-0.4477539,0.6811523-0.625
		c0.1381836-0.0961914,0.2890625-0.2036133,0.4575195-0.1044922c0.1811523,0.1064453,0.1191406,0.2885742,0.0839844,0.4511719
		c-0.109375,0.5097656-0.3759766,0.9487305-0.6479492,1.3793945c-1.0654297,1.6845703-2.3710938,3.1772461-3.7319336,4.6240234
		C42.6030273,6.9775391,42.5771484,6.9814453,42.5253906,7.0043945z"/>
	<path class="st0" d="M50.9755859,8.6879883c0.1694336-0.7299805,1.0771484-1.5639648,1.7773438-1.6606445
		C52.862793,7.012207,52.9716797,7,53.0473633,7.097168c0.0825195,0.1064453,0.0048828,0.2070312-0.0415039,0.296875
		c-0.1005859,0.1933594-0.2641602,0.3339844-0.4331055,0.4663086C52.0981445,8.2329102,51.4355469,8.5791016,50.9755859,8.6879883z"
		/>
</g>
</svg>
