<?xml version="1.0" encoding="utf-8"?>
<!-- Generator: Adobe Illustrator 18.0.0, SVG Export Plug-In . SVG Version: 6.00 Build 0)  -->
<!DOCTYPE svg PUBLIC "-//W3C//DTD SVG 1.1//EN" "http://www.w3.org/Graphics/SVG/1.1/DTD/svg11.dtd">
<svg version="1.1" xmlns="http://www.w3.org/2000/svg" xmlns:xlink="http://www.w3.org/1999/xlink" x="0px" y="0px"
	 viewBox="0 0 40.4 49" enable-background="new 0 0 40.4 49" xml:space="preserve">
<g id="BG" display="none">
	<rect x="-906" y="-390" display="inline" fill="#3F474F" width="1008" height="612"/>
</g>
<g id="Icons" display="none">
</g>
<g id="gear_1_">
</g>
<g id="map-marker">
</g>
<g id="info">
</g>
<g id="search">
</g>
<g id="wevue-icon">
</g>
<g id="calendar_1_">
</g>
<g id="user_1_">
</g>
<g id="email_1_">
</g>
<g id="zig-arrow">
</g>
<g id="down-arrow">
</g>
<g id="edit-pencil">
</g>
<g id="lock_1_">
</g>
<g id="eyeball_1_">
</g>
<g id="star_1_">
</g>
<g id="ribbon_1_">
</g>
<g id="quote-bubble">
</g>
<g id="star-outline">
</g>
<g id="share">
</g>
<g id="crop">
</g>
<g id="next-arrow">
</g>
<g id="back-arrow">
</g>
<g id="T_1_">
</g>
<g id="musicnote">
	<g id="music_note">
		<g>
			<path fill-rule="evenodd" clip-rule="evenodd" fill="#3F474F" d="M40.2,0c0.1,0.4,0.2,0.7,0.2,1.1c0,11.7,0,23.3,0,35
				c0,2.8-1.1,4.9-3.3,6.6c-2.5,1.9-5.2,2.8-8.3,2.1C25.5,44,24,41,25.4,37.9c1.6-3.4,4.4-5.2,8.2-5.5c0.7,0,1.4-0.1,2.1,0
				c0.6,0,0.9-0.2,0.9-0.8c0-6.1,0-12.1,0-18.2c0-0.6-0.2-0.8-0.8-0.6c-6.5,1.6-13,3.3-19.5,4.9c-0.8,0.2-0.8,0.7-0.8,1.3
				c0,6.9-0.1,13.8,0,20.7c0.1,4.1-2,6.6-5.5,8.3c-1.2,0.6-2.5,0.8-3.7,1.1c-0.4,0-0.9,0-1.3,0c-0.3-0.1-0.5-0.2-0.8-0.2
				c-3.4-0.7-5.1-3.7-3.7-6.9c0.4-1,1.1-1.9,1.8-2.7c2.2-2.4,5.1-3.1,8.2-3c1,0,1.2-0.3,1.2-1.2c0-8.9,0-17.8,0-26.7
				c0-1,0.3-1.3,1.2-1.6c6.5-1.6,13-3.2,19.4-4.8c2.4-0.6,4.8-1.3,7.3-1.9C39.8,0,40,0,40.2,0z"/>
		</g>
	</g>
</g>
<g id="trash_1_">
</g>
<g id="photos_1_">
</g>
<g id="plussign">
</g>
<g id="checkmark_1_">
</g>
<g id="small-plussign">
</g>
<g id="menu-bars">
</g>
<g id="phone-dark">
</g>
<g id="refresh_1_">
</g>
<g id="film_1_">
</g>
<g id="photo">
</g>
<g id="folder-stuffed">
</g>
<g id="globe_1_">
</g>
<g id="phone_1_">
</g>
<g id="folder-open-dark">
</g>
<g id="folder-open">
</g>
<g id="folder-light-front">
</g>
<g id="folder-light-back">
</g>
<g id="folder-dark-front">
</g>
<g id="folder-dark-back">
</g>
</svg>
