






<svg version="1.1" id="Layer_1" xmlns="http://www.w3.org/2000/svg" xmlns:xlink="http://www.w3.org/1999/xlink" x="0px" y="0px"
	 width="179px" height="237px" viewBox="0 0 179 237" style="enable-background:new 0 0 179 237;" xml:space="preserve">




<defs>

	<style type="text/css">

	.st0{fill:#FFFFFF;stroke:#000000;stroke-miterlimit:10;}
	.st1{fill:#FFFFFF;}
	.st2{fill:none;stroke:#3F474F;stroke-miterlimit:10;}

	 
	 		.st0 {
	 			stroke-dasharray: 2000;
	 			stroke-dashoffset:0;
	 			-webkit-animation: dash 6s linear forwards;
	 			-o-animation: dash 6s linear forwards;
	 			-moz-animation: dash 6s linear forwards;
	 			animation: dash 6s linear forwards;

	 		}
	 		#phone{
	 		curson: pointer;

	 		}

	 		#phone.clickit sto{
	 			fill:yellow;
	 		}

	 		#phone:hover .sto {
	 			fill:#000;
	 			transition: .8s;
	 		}


	 		@-webkit-keyframes dash {
	 			from {
	 				stroke-dashoffset: 2000;
	 			}
	 			to {
	 				stroke-dashoffset: 0;
	 			}
	 		}

	 	</style>

	 	<script type="text/javascript">
	 		var clicker = documetn.querySelector('#phone');

	 		clicker.addEventListener('click', function(){
	 			this.classlist.toggle('clickit');
	 		});

	 	</script>
	 </defs>

<path class="st2" d="M-552.359-20.277"/>
<path class="st2" d="M239.641,591.723"/>
<path class="st0" d="M88.818,153.306c-19.89,0-36.072-16.182-36.072-36.072c0-19.89,16.183-36.071,36.072-36.071
	s36.071,16.181,36.071,36.071C124.89,137.124,108.708,153.306,88.818,153.306 M88.818,83.443c-18.633,0-33.792,15.159-33.792,33.791
	c0,18.633,15.159,33.792,33.792,33.792s33.791-15.159,33.791-33.792C122.609,98.602,107.451,83.443,88.818,83.443"/>
<path class="st0" d="M88.818,138.759c-19.89,0-36.072-9.656-36.072-21.525s16.183-21.525,36.072-21.525s36.071,9.656,36.071,21.525
	S108.708,138.759,88.818,138.759 M88.818,97.989c-18.633,0-33.792,8.633-33.792,19.245c0,10.612,15.159,19.245,33.792,19.245
	s33.791-8.633,33.791-19.245C122.609,106.622,107.451,97.989,88.818,97.989"/>
<path class="st0" d="M88.818,153.306c-5.51,0-10.634-3.845-14.429-10.827c-3.676-6.762-5.701-15.727-5.701-25.245
	c0-9.517,2.025-18.482,5.701-25.244c3.795-6.982,8.919-10.827,14.429-10.827c5.509,0,10.634,3.845,14.43,10.827
	c3.676,6.762,5.699,15.727,5.699,25.244c0,9.518-2.023,18.483-5.699,25.245C99.452,149.461,94.327,153.306,88.818,153.306
	 M88.818,83.443c-9.843,0-17.85,15.159-17.85,33.791c0,18.633,8.007,33.792,17.85,33.792c9.842,0,17.85-15.159,17.85-33.792
	C106.668,98.602,98.66,83.443,88.818,83.443"/>
<rect x="87.679" y="82.303" class="st0" width="2.28" height="70.652"/>
<rect x="53.491" y="116.49" class="st0" width="70.653" height="2.28"/>
<path class="st0" d="M100.857,43.538H80.459V7.757h20.398V43.538z M81.599,42.397h18.119V8.896H81.599V42.397z"/>
<path class="st0" d="M98.244,36.328H83.071V9.949h15.173V36.328z M84.212,35.188h12.892V11.089H84.212V35.188z"/>
<path class="st0" d="M92.517,41.218h-3.718v-3.719h3.718V41.218z M89.938,40.078h1.438v-1.439h-1.438V40.078z"/>
<path class="st0" d="M100.857,230.002H80.459v-35.781h20.398V230.002z M81.599,228.863h18.119v-33.502H81.599V228.863z"/>
<path class="st0" d="M98.244,222.793H83.071v-26.379h15.173V222.793z M84.212,221.652h12.892v-24.098H84.212V221.652z"/>
<path class="st1" d="M92.517,227.682h-3.718v-3.719h3.718V227.682z M89.938,226.541h1.438v-1.438h-1.438V226.541z"/>
<path class="st0" d="M27.997,134.656H7.598V98.875h20.399V134.656z M8.737,133.516h18.119v-33.501H8.737V133.516z"/>
<path class="st0" d="M25.384,127.446H10.212v-26.379h15.172V127.446z M11.352,126.306h12.893v-24.099H11.352V126.306z"/>
<path class="st0" d="M19.656,132.335h-3.718v-3.719h3.718V132.335z M17.078,131.196h1.438v-1.439h-1.438V131.196z"/>
<path class="st0" d="M48.662,64.98H28.264V29.2h20.398V64.98z M29.403,63.841h18.119V30.34H29.403V63.841z"/>
<path class="st0" d="M46.049,57.771H30.878V31.392h15.171V57.771z M32.017,56.631h12.891V32.532H32.017V56.631z"/>
<path class="st0" d="M40.321,62.66h-3.719V58.94h3.719V62.66z M37.742,61.52h1.439v-1.439h-1.439V61.52z"/>
<path class="st0" d="M48.662,203.242H28.264v-35.781h20.398V203.242z M29.403,202.103h18.119v-33.501H29.403V202.103z"/>
<path class="st0" d="M46.049,196.033H30.878v-26.379h15.171V196.033z M32.017,194.893h12.891v-24.1H32.017V194.893z"/>
<path class="st0" d="M40.321,200.923h-3.719v-3.72h3.719V200.923z M37.742,199.783h1.439v-1.439h-1.439V199.783z"/>
<path class="st0" d="M170.904,134.656h-20.398V98.875h20.398V134.656z M151.646,133.516h18.119v-33.501h-18.119V133.516z"/>
<path class="st0" d="M168.291,127.446h-15.172v-26.379h15.172V127.446z M154.259,126.306h12.892v-24.099h-12.892V126.306z"/>
<path class="st0" d="M162.564,132.335h-3.718v-3.719h3.718V132.335z M159.985,131.196h1.438v-1.439h-1.438V131.196z"/>
<path class="st0" d="M153.053,64.042h-20.399V28.262h20.399V64.042z M133.794,62.903h18.119V29.402h-18.119V62.903z"/>
<path class="st0" d="M150.438,56.833h-15.171V30.454h15.171V56.833z M136.407,55.692h12.892V31.594h-12.892V55.692z"/>
<path class="st0" d="M144.713,61.723h-3.719v-3.719h3.719V61.723z M142.134,60.583h1.438v-1.439h-1.438V60.583z"/>
<path class="st0" d="M153.053,202.305h-20.399v-35.782h20.399V202.305z M133.794,201.164h18.119v-33.502h-18.119V201.164z"/>
<path class="st0" d="M150.438,195.095h-15.171v-26.379h15.171V195.095z M136.407,193.955h12.892v-24.1h-12.892V193.955z"/>
<path class="st0" d="M144.713,199.984h-3.719v-3.719h3.719V199.984z M142.134,198.845h1.438v-1.438h-1.438V198.845z"/>
<rect x="88.249" y="157.797" class="st0" width="1.14" height="3.42"/>
<rect x="88.249" y="169.979" class="st0" width="1.14" height="8.764"/>
<rect x="88.249" y="187.505" class="st0" width="1.14" height="3.42"/>
<rect x="88.249" y="45.526" class="st0" width="1.14" height="3.42"/>
<rect x="88.249" y="57.708" class="st0" width="1.14" height="8.763"/>
<rect x="88.249" y="75.234" class="st0" width="1.14" height="3.42"/>
<rect x="46.216" y="116.664" class="st0" width="3.42" height="1.14"/>
<rect x="38.649" y="116.664" class="st0" width="3.783" height="1.14"/>
<rect x="31.446" y="116.664" class="st0" width="3.42" height="1.14"/>
<rect x="58.8" y="81.199" transform="matrix(0.6018 0.7986 -0.7986 0.6018 89.3998 -15.7658)" class="st0" width="3.421" height="1.141"/>
<rect x="54.175" y="75.302" transform="matrix(0.6016 0.7988 -0.7988 0.6016 82.9468 -14.5572)" class="st0" width="3.782" height="1.139"/>
<rect x="49.913" y="69.404" transform="matrix(0.6017 0.7987 -0.7987 0.6017 76.448 -13.3632)" class="st0" width="3.421" height="1.14"/>
<rect x="117.701" y="80.059" transform="matrix(0.7989 0.6015 -0.6015 0.7989 72.9729 -54.6943)" class="st0" width="1.141" height="3.421"/>
<rect x="122.144" y="73.981" transform="matrix(0.7989 0.6015 -0.6015 0.7989 70.3191 -58.5528)" class="st0" width="1.141" height="3.783"/>
<rect x="126.587" y="68.264" transform="matrix(0.7989 0.6015 -0.6015 0.7989 67.6653 -62.4121)" class="st0" width="1.141" height="3.42"/>
<rect x="59.94" y="147.85" transform="matrix(0.7991 0.6012 -0.6012 0.7991 102.0785 -6.3303)" class="st0" width="1.14" height="3.42"/>
<rect x="55.496" y="153.567" transform="matrix(0.7991 0.6012 -0.6012 0.7991 104.7319 -2.4733)" class="st0" width="1.14" height="3.782"/>
<rect x="51.053" y="159.645" transform="matrix(0.7991 0.6012 -0.6012 0.7991 107.3846 1.383)" class="st0" width="1.14" height="3.421"/>
<rect x="116.561" y="148.99" transform="matrix(0.6019 0.7986 -0.7986 0.6019 166.5247 -34.9062)" class="st0" width="3.42" height="1.14"/>
<rect x="120.824" y="154.888" transform="matrix(0.6017 0.7987 -0.7987 0.6017 173.047 -36.0951)" class="st0" width="3.782" height="1.14"/>
<rect x="125.448" y="160.785" transform="matrix(0.6017 0.7987 -0.7987 0.6017 179.5278 -37.2951)" class="st0" width="3.42" height="1.14"/>
<rect x="142.956" y="115.468" class="st0" width="3.42" height="1.14"/>
<rect x="135.39" y="115.468" class="st0" width="3.783" height="1.14"/>
<rect x="128.187" y="115.468" class="st0" width="3.42" height="1.14"/>
</svg>
