
<svg version="1.1" id="Layer_1" xmlns="http://www.w3.org/2000/svg" xmlns:xlink="http://www.w3.org/1999/xlink" x="0px" y="0px"
	 width="" height="" viewBox="0 0 276.583 141" style="enable-background:new 0 0 276.583 141;" xml:space="preserve"
	>



<defs>

	<style type="text/css">

	
	.st0{fill-rule:evenodd;clip-rule:evenodd;fill:#FBFBFB;stroke:#000000;stroke-miterlimit:10;}
	.st1{fill-rule:evenodd;clip-rule:evenodd;fill:#F9F9FA;stroke:#000000;stroke-miterlimit:10;}
	.st2{fill-rule:evenodd;clip-rule:evenodd;fill:#F9FAFA;stroke:#000000;stroke-miterlimit:10;}
	.st3{fill-rule:evenodd;clip-rule:evenodd;fill:#FCFCFC;stroke:#000000;stroke-miterlimit:10;}
	.st4{fill-rule:evenodd;clip-rule:evenodd;fill:#FDFDFD;stroke:#000000;stroke-miterlimit:10;}
	.st5{fill-rule:evenodd;clip-rule:evenodd;fill:#FDFEFD;stroke:#000000;stroke-miterlimit:10;}
	.st6{fill-rule:evenodd;clip-rule:evenodd;fill:#FAFAFB;stroke:#000000;stroke-miterlimit:10;}
	.st7{fill-rule:evenodd;clip-rule:evenodd;fill:none;stroke:#000000;stroke-miterlimit:10;}
	.st8{fill-rule:evenodd;clip-rule:evenodd;fill:#FAFAFA;stroke:#000000;stroke-miterlimit:10;}



	 
	 		.st0 {
	 			stroke-dasharray: 2000;
	 			stroke-dashoffset:0;
	 			-webkit-animation: dash 8s linear forwards;
	 			-o-animation: dash 8s linear forwards;
	 			-moz-animation: dash 8s linear forwards;
	 			animation: dash 8s linear forwards;

	 		}
	 		#phone{
	 		curson: pointer;

	 		}

	 		#phone.clickit sto{
	 			fill:yellow;
	 		}

	 		#phone:hover .sto {
	 			fill:#000;
	 			transition: .8s;
	 		}


	 		@-webkit-keyframes dash {
	 			from {
	 				stroke-dashoffset: 2000;
	 			}
	 			to {
	 				stroke-dashoffset: 0;
	 			}
	 		}

	 	</style>

	 	<script type="text/javascript">
	 		var clicker = documetn.querySelector('#phone');

	 		clicker.addEventListener('click', function(){
	 			this.classlist.toggle('clickit');
	 		});

	 	</script>
	 </defs>



<path class="st0" d="M237.981,91.878c-5.971,1.584-10.16,0.866-12.405-5.265c-1.314-3.59-3.803-6.733-5.464-10.221
	c-1.172-2.46-3.109-2.32-5.098-2.044c-2.371,0.329-1.381,2.352-1.431,3.659c-0.134,3.532-0.271,7.09,0.011,10.604
	c0.266,3.304-1.146,3.961-4.09,3.914c-2.704-0.044-3.866-0.643-3.827-3.663c0.158-11.956,0.149-23.917-0.005-35.873
	c-0.037-2.94,0.966-3.751,3.757-3.631c4.708,0.203,9.437-0.076,14.144,0.129c7.117,0.31,11.719,3.683,12.945,9.15
	c1.381,6.153-0.775,10.711-7.305,14.243c-2.254,1.219-1.335,2.104-0.537,3.43C231.713,81.353,234.717,86.413,237.981,91.878z"/>
<path class="st0" d="M80.989,65.595c0,4.046,0.12,8.097-0.025,12.138c-0.336,9.411-7.498,15.934-17.368,15.959
	c-9.951,0.027-17.163-6.368-17.406-15.822c-0.217-8.425,0.099-16.862-0.111-25.287c-0.086-3.463,1.871-3.126,4.146-3.22
	c2.441-0.101,3.645,0.382,3.579,3.251c-0.178,7.752-0.171,15.513,0.006,23.265c0.141,6.16,3.24,9.655,8.44,10.093
	c6.638,0.559,10.67-2.797,10.877-9.568c0.237-7.748,0.256-15.514,0.026-23.262c-0.1-3.371,1.296-3.808,4.164-3.832
	c2.813-0.023,3.896,0.687,3.731,3.644C80.814,57.155,80.99,61.379,80.989,65.595z"/>
<path class="st0" d="M246.868,70.384c0-5.893,0.135-11.79-0.06-17.676c-0.091-2.735,0.878-3.406,3.462-3.352
	c7.236,0.154,14.481,0.158,21.717-0.004c2.621-0.058,3.465,0.691,3.472,3.379c0.006,2.795-0.718,3.897-3.663,3.748
	c-4.367-0.222-8.785,0.278-13.121-0.144c-4.482-0.436-4.422,2.035-4.293,5.159c0.117,2.827-0.655,5.83,4.088,5.362
	c4.002-0.394,8.081,0.066,12.111-0.134c2.842-0.142,3.737,0.791,3.795,3.691c0.062,3.198-1.396,3.551-3.963,3.459
	c-4.035-0.145-8.092,0.16-12.117-0.1c-3.207-0.207-4.018,1.026-3.938,4.047c0.245,9.218-0.779,7.52,7.339,7.668
	c3.534,0.063,7.075,0.112,10.606-0.017c2.648-0.096,4.354,0.058,4.277,3.627c-0.072,3.277-1.579,3.404-4.046,3.373
	c-7.238-0.093-14.481-0.159-21.716,0.035c-3.041,0.081-4.169-0.745-4.04-3.943c0.243-6.052,0.069-12.12,0.069-18.181
	C246.855,70.384,246.862,70.384,246.868,70.384z"/>
<path class="st0" d="M159.011,65.745c-0.001-4.212,0.14-8.43-0.052-12.633c-0.123-2.733,0.575-3.85,3.572-3.801
	c2.848,0.047,4.25,0.414,4.165,3.798c-0.198,7.908-0.228,15.842,0.173,23.739c0.332,6.586,4.289,9.645,10.748,9.141
	c5.24-0.408,8.361-3.847,8.527-9.987c0.196-7.239,0.119-14.488,0.049-21.731c-0.027-2.828-0.354-5.028,3.942-5.033
	c4.64-0.005,3.63,2.753,3.642,5.268c0.032,7.244,0.059,14.489,0.007,21.732c-0.077,10.672-6.799,17.408-17.325,17.451
	c-10.477,0.043-17.365-6.791-17.443-17.329C158.991,72.821,159.012,69.283,159.011,65.745z"/>
<path class="st0" d="M0,70.836c0.177-8.745,3.445-16.042,11.743-20.032c7.546-3.629,15.33-3.859,22.516,1.121
	c1.161,0.804,4.785,1.731,2.262,4.189c-1.567,1.526-3.189,4.789-6.961,1.765c-5.468-4.383-13.496-2.765-18.02,2.785
	c-4.809,5.9-4.452,15.848,0.77,21.417c4.975,5.306,12.501,6.082,18.062,1.202c3.645-3.198,5.271,0.231,7.028,1.685
	c2.863,2.367-0.77,3.554-1.848,4.381c-7.262,5.573-15.386,5.688-23.357,2.065C3.665,87.539,0.054,80.233,0,70.836z"/>
<path class="st0" d="M130.659,74.028c-0.002-4.717-0.125-9.438,0.048-14.148c0.094-2.566-0.585-3.76-3.351-3.481
	c-2.001,0.202-4.06-0.143-6.056,0.082c-3.073,0.346-4.01-0.719-4.05-3.878c-0.043-3.469,1.81-3.238,4.125-3.224
	c8.928,0.055,17.857,0.093,26.784-0.019c2.491-0.031,3.616,0.517,3.588,3.319c-0.027,2.72-0.603,3.789-3.623,3.841
	c-9.849,0.167-9.845,0.307-9.847,10.461c-0.001,7.244-0.173,14.493,0.068,21.729c0.112,3.375-1.358,3.774-4.189,3.838
	c-3.045,0.069-3.649-1.158-3.548-3.865C130.792,83.803,130.661,78.913,130.659,74.028z"/>
<path class="st0" d="M92.987,70.681c0-5.395-0.026-10.789,0.011-16.184c0.018-2.506-1.021-5.28,3.631-5.258
	c4.27,0.021,3.955,2.189,3.93,5.024c-0.079,8.935,0.135,17.874-0.108,26.803c-0.098,3.591,1.033,4.8,4.564,4.495
	c3.18-0.274,6.405,0.034,9.604-0.086c2.624-0.098,4.397,0.017,4.375,3.604c-0.024,3.817-2.229,3.383-4.62,3.371
	c-5.732-0.03-11.471-0.181-17.193,0.059c-3.211,0.134-4.46-0.672-4.29-4.131c0.29-5.886,0.08-11.797,0.08-17.697
	C92.977,70.681,92.982,70.681,92.987,70.681z"/>
<path class="st0" d="M126.256,21.694c0-3.711,0.017-7.422-0.008-11.133c-0.011-1.628,0.04-3.001,2.301-3.03
	c2.213-0.028,2.778,0.922,2.934,3.018c0.644,8.686,0.721,8.475,9.352,8.58c3.549,0.043,4.366-1.277,4.033-4.379
	c-0.179-1.668,0.033-3.373-0.041-5.057c-0.083-1.909,1.023-2.227,2.565-2.148c1.196,0.061,2.474-0.03,2.477,1.704
	c0.014,8.434,0.011,16.868,0.023,25.302c0.002,1.741-1.195,1.748-2.416,1.695c-1.11-0.049-2.512,0.347-2.594-1.496
	c-0.03-0.674-0.026-1.349-0.049-2.022c-0.333-9.792-0.329-9.7-10.301-9.179c-2.413,0.127-3.294,0.842-3.135,3.234
	c0.157,2.352-0.05,4.725,0.045,7.082c0.087,2.171-1.152,2.387-2.879,2.427c-1.838,0.044-2.313-0.823-2.295-2.451
	c0.046-4.049,0.016-8.098,0.016-12.146C126.274,21.694,126.265,21.694,126.256,21.694z"/>
<path class="st0" d="M158.075,21.881c-0.002-0.168-0.014-0.337,0-0.504c0.336-4.48-1.955-11.358,0.914-12.904
	c4.204-2.266,10.424-0.787,15.785-0.911c1.629-0.038,2.419,0.574,2.416,2.367c-0.002,1.926-1.061,2.185-2.564,2.17
	c-2.355-0.022-4.714,0.063-7.066-0.015c-2.495-0.083-4.479-0.241-4.48,3.473c-0.001,3.484,1.535,3.865,4.269,3.663
	c2.008-0.149,4.036,0.002,6.055-0.028c1.62-0.024,2.973,0.03,2.995,2.286c0.021,2.108-1.009,2.563-2.807,2.489
	c-1.848-0.074-3.705,0.069-5.551-0.028c-2.873-0.152-4.996-0.278-5,3.969c-0.004,4.579,2.697,3.714,5.27,3.755
	c2.523,0.04,5.047,0.022,7.571,0.036c1.848,0.01,2.106,1.186,2.114,2.707c0.01,1.699-1.052,1.853-2.312,1.854
	c-5.048,0.002-10.097-0.057-15.143,0.029c-2.09,0.035-2.52-0.995-2.485-2.797C158.129,29.623,158.079,25.751,158.075,21.881z"/>
<path class="st0" d="M98.465,134.486c3.807-8.783,7.416-17.1,11.014-25.421c0.674-1.56,1.218-2.973,3.473-2.967
	c2.244,0.006,2.809,1.4,3.478,2.968c3.171,7.424,6.377,14.833,9.5,22.278c0.452,1.076,2.052,2.658,0.25,3.381
	c-1.701,0.682-3.96,0.953-5.27-1.441c-0.909-1.662-0.536-4.488-3.053-4.748c-3.334-0.344-6.73-0.152-10.098-0.084
	c-1.803,0.037-1.983,1.77-2.273,2.921C104.544,135.113,102.165,135.502,98.465,134.486z"/>
<path class="st0" d="M132.334,120.542c0-2.525-0.171-5.066,0.051-7.573c0.198-2.228-1.233-6.085,1.023-6.394
	c5.364-0.734,11.182-1.653,16.196,1.656c2.796,1.847,3.445,4.872,2.868,8.084c-0.993,5.521-5.325,6.986-9.818,6.661
	c-4.997-0.362-5.661,1.871-5.165,5.8c0.105,0.828-0.003,1.682,0.017,2.523c0.045,1.914,0.204,3.74-2.675,3.721
	c-3.046-0.02-2.458-2.119-2.482-3.869C132.301,127.615,132.335,124.078,132.334,120.542z"/>
<path class="st0" d="M158.662,120.213c-0.005-1.348-0.144-2.712,0.022-4.038c0.408-3.248-1.623-8.54,0.988-9.365
	c4.889-1.544,10.672-1.655,15.695,1.032c3.029,1.621,3.825,4.583,3.525,7.797c-0.331,3.551-2.233,6.558-5.777,6.666
	c-7.1,0.218-11.311,2.225-9.348,10.357c0.422,1.748-0.904,2.246-2.46,2.332c-1.95,0.109-2.707-0.707-2.667-2.654
	C158.724,128.298,158.667,124.255,158.662,120.213z"/>
<path class="st0" d="M107.379,24.172c-0.003-1.68-0.173-3.381,0.029-5.036c0.586-4.813-0.079-8.307-6.298-7.082
	c-1.454,0.286-2.568-0.255-2.581-2.15c-0.012-1.822,0.921-2.334,2.483-2.334c5.88-0.002,11.761-0.01,17.641-0.009
	c1.462,0.001,2.57,0.276,2.645,2.174c0.089,2.272-1.325,2.625-2.904,2.312c-5.547-1.099-6.367,1.723-6.019,6.389
	c0.362,4.845,0.07,9.738,0.083,14.61c0.004,1.71,0.216,3.267-2.44,3.281c-2.464,0.014-2.712-1.153-2.657-3.084
	C107.447,30.222,107.383,27.196,107.379,24.172z"/>
<path class="st0" d="M228.627,61.73c0.06,4.26-2.94,5.5-10.851,6.01c-5.66,0.37-4.01-3.26-4.26-5.97c0.13-2.9-1.13-6.19,4.11-5.89
	C225.587,56.33,228.567,57.56,228.627,61.73z"/>
<path class="st0" d="M113.077,124.15c-4.43,0.26-4.95-1.14-3.05-4.71c0.94-1.76,1.49-3.73,2.76-7.04c1.27,3.28,1.96,5.61,3.04,7.75
	C117.447,123.4,116.297,123.96,113.077,124.15z"/>
<path class="st0" d="M137.556,114.925c-0.192-2.381-0.423-4.682,3.036-4.22c2.682,0.358,6.182-0.367,6.4,3.771
	c0.203,3.837-2.841,3.779-5.557,4.044C138.583,118.797,136.817,118.143,137.556,114.925z"/>
<path class="st0" d="M163.887,114.405c-0.557-2.77,0.441-4.121,3.392-3.721c2.743,0.373,6.201-0.035,6.055,4.152
	c-0.133,3.811-3.337,3.347-5.946,3.697C163.927,119,163.473,117.103,163.887,114.405z"/>
</svg>
