<?xml version="1.0" encoding="utf-8"?>
<!-- Generator: Adobe Illustrator 16.0.0, SVG Export Plug-In . SVG Version: 6.00 Build 0)  -->
<!DOCTYPE svg PUBLIC "-//W3C//DTD SVG 1.1//EN" "http://www.w3.org/Graphics/SVG/1.1/DTD/svg11.dtd">
<svg version="1.1" id="Layer_1" xmlns="http://www.w3.org/2000/svg" xmlns:xlink="http://www.w3.org/1999/xlink" x="0px" y="0px"
	 width="241.829px" height="193.299px" viewBox="0 0 241.829 193.299" style="enable-background:new 0 0 241.829 193.299;"
	 xml:space="preserve">
<style type="text/css">
<![CDATA[
	.st0{fill:none;stroke:#000000;stroke-width:4;stroke-miterlimit:10;}
]]>
</style>
<g>
	<path class="st0" d="M233.422,8.157c-73.681-0.21-148.37-0.21-222.05,0c-2.83,0.01-6.48,2.5-9.48,3.83v137
		c3,3.98,8.31,6.2,12.4,6.19c26.15-0.101,54.3,1.81,80.45,1.81h5.36c3.54,10,0.33,20.09-7.91,26.22c-3.03,2.25-5.55,4.78-8.3,7.78
		h83c-3.93-4-8.01-8.93-11.74-12.67c-5.069-5.08-7.43-12.18-6.609-19.55c0.43-3.8,1.85-5.391,5.649-5.37
		c27.11,0.17,52.22-0.2,79.33-0.11c3.62,0.021,5.37-0.93,6.37-4.3v-137C237.892,10.657,236.252,8.167,233.422,8.157z
		 M229.892,146.987h-218v-125h218V146.987z"/>
</g>
</svg>
