<?xml version="1.0" encoding="utf-8"?>
<!-- Generator: Adobe Illustrator 16.0.0, SVG Export Plug-In . SVG Version: 6.00 Build 0)  -->
<!DOCTYPE svg PUBLIC "-//W3C//DTD SVG 1.1//EN" "http://www.w3.org/Graphics/SVG/1.1/DTD/svg11.dtd">
<svg version="1.1" id="Layer_1" xmlns="http://www.w3.org/2000/svg" xmlns:xlink="http://www.w3.org/1999/xlink" x="0px" y="0px"
	 width="329.333px" height="261px" viewBox="0 0 329.333 261" style="enable-background:new 0 0 329.333 261;" xml:space="preserve"
	>
<style type="text/css">
<![CDATA[
	.st0{fill:none;stroke:#000000;stroke-width:4;stroke-miterlimit:10;}
]]>
</style>
<g>
	<path class="st0" d="M317.525-0.099c-100.305-0.296-201.983-0.296-302.287,0C11.386-0.084,6.417,3.431,2.333,5.308v193.401
		c4.084,5.619,11.313,8.752,16.88,8.738C54.812,207.305,93.135,210,128.734,210h7.297c4.819,14,0.449,28.361-10.769,37.016
		c-4.125,3.176-7.555,6.749-11.299,10.984h112.992c-5.35-5.646-10.904-12.605-15.983-17.886
		c-6.901-7.171-10.114-17.194-8.998-27.599c0.585-5.363,2.518-7.609,7.691-7.58c36.907,0.239,71.089-0.283,107.996-0.156
		c4.928,0.029,7.311-1.312,8.672-6.07V5.308C323.61,3.431,321.378-0.084,317.525-0.099z M312.333,196h-296V19h296V196z"/>
</g>
</svg>
