<?xml version="1.0" encoding="utf-8"?>
<!-- Generator: Adobe Illustrator 18.0.0, SVG Export Plug-In . SVG Version: 6.00 Build 0)  -->
<!DOCTYPE svg PUBLIC "-//W3C//DTD SVG 1.1//EN" "http://www.w3.org/Graphics/SVG/1.1/DTD/svg11.dtd">
<svg version="1.1" xmlns="http://www.w3.org/2000/svg" xmlns:xlink="http://www.w3.org/1999/xlink" x="0px" y="0px"
	 viewBox="0 0 78.9 79.5" enable-background="new 0 0 78.9 79.5" xml:space="preserve">
<g id="BG" display="none">
	<rect x="-297.4" y="-51.3" display="inline" fill="#3F474F" width="1008" height="612"/>
</g>
<g id="Icons" display="none">
</g>
<g id="gear_1_">
</g>
<g id="map-marker">
</g>
<g id="info">
</g>
<g id="search">
</g>
<g id="wevue-icon">
	<g id="WeVue_Icon">
		<path fill="#3F474F" d="M78.9,40l-6.5-4.2l-3.1-22.2l-7.7,1.1L44.7,0l-5,5.9H17.2v7.4L2.5,22.5l4.1,6.6L0,50.8l7.8,2.4l8.9,20
			l7.1-3.2l20.3,9.5l3.3-7.1l21.5-6.2l-2.1-7.5L78.9,40z M39.5,60.9c-11.7,0-21.1-9.4-21.1-21.1c0-11.7,9.4-21.1,21.1-21.1
			c11.7,0,21.1,9.4,21.1,21.1C60.6,51.4,51.1,60.9,39.5,60.9z"/>
		<polygon fill="#3F474F" points="33.1,29.6 50.6,39.8 33.1,49.9 		"/>
	</g>
</g>
<g id="calendar_1_">
</g>
<g id="user_1_">
</g>
<g id="email_1_">
</g>
<g id="zig-arrow">
</g>
<g id="down-arrow">
</g>
<g id="edit-pencil">
</g>
<g id="lock_1_">
</g>
<g id="eyeball_1_">
</g>
<g id="star_1_">
</g>
<g id="ribbon_1_">
</g>
<g id="quote-bubble">
</g>
<g id="star-outline">
</g>
<g id="share">
</g>
<g id="crop">
</g>
<g id="next-arrow">
</g>
<g id="back-arrow">
</g>
<g id="T_1_">
</g>
<g id="musicnote">
</g>
<g id="trash_1_">
</g>
<g id="photos_1_">
</g>
<g id="plussign">
</g>
<g id="checkmark_1_">
</g>
<g id="small-plussign">
</g>
<g id="menu-bars">
</g>
<g id="phone-dark">
</g>
<g id="refresh_1_">
</g>
<g id="film_1_">
</g>
<g id="photo">
</g>
<g id="folder-stuffed">
</g>
<g id="globe_1_">
</g>
<g id="phone_1_">
</g>
<g id="folder-open-dark">
</g>
<g id="folder-open">
</g>
<g id="folder-light-front">
</g>
<g id="folder-light-back">
</g>
<g id="folder-dark-front">
</g>
<g id="folder-dark-back">
</g>
</svg>
