
<svg version="1.1" id="Layer_1" xmlns="http://www.w3.org/2000/svg" xmlns:xlink="http://www.w3.org/1999/xlink" x="0px" y="0px"
	 width="274px" height="134px" viewBox="0 0 274 134" style="enable-background:new 0 0 274 134;" xml:space="preserve">
<style type="text/css">

	.st0{fill-rule:evenodd;clip-rule:evenodd;fill:#062444;}
	.st1{fill-rule:evenodd;clip-rule:evenodd;fill:#3C778C;}
	.st2{fill-rule:evenodd;clip-rule:evenodd;fill:#093157;}
	.st3{fill-rule:evenodd;clip-rule:evenodd;fill:#094573;}
	.st4{fill-rule:evenodd;clip-rule:evenodd;fill:#094C82;}
	.st5{fill-rule:evenodd;clip-rule:evenodd;fill:#095E7E;}
	.st6{fill-rule:evenodd;clip-rule:evenodd;fill:#3D8EB5;}
	.st7{fill-rule:evenodd;clip-rule:evenodd;fill:#7094A1;}
	.st8{fill-rule:evenodd;clip-rule:evenodd;fill:#73CCF1;}
	.st9{fill-rule:evenodd;clip-rule:evenodd;fill:#75B7D5;}
	.st10{fill-rule:evenodd;clip-rule:evenodd;fill:#0A283E;}
	.st11{fill-rule:evenodd;clip-rule:evenodd;fill:#0A4C81;}
	.st12{fill-rule:evenodd;clip-rule:evenodd;fill:#0A4F8C;}
	.st13{fill-rule:evenodd;clip-rule:evenodd;fill:#0B4A76;}
	.st14{fill-rule:evenodd;clip-rule:evenodd;fill:#78C7E6;}
	.st15{fill-rule:evenodd;clip-rule:evenodd;fill:#0D6AAC;}
	.st16{fill-rule:evenodd;clip-rule:evenodd;fill:#0E66AA;}
	.st17{fill-rule:evenodd;clip-rule:evenodd;fill:#0E6FAB;}
	.st18{fill-rule:evenodd;clip-rule:evenodd;fill:#0E6FBB;}
	.st19{fill-rule:evenodd;clip-rule:evenodd;fill:#41A7C3;}
	.st20{fill-rule:evenodd;clip-rule:evenodd;fill:#436880;}
	.st21{fill-rule:evenodd;clip-rule:evenodd;fill:#439DC0;}
	.st22{fill-rule:evenodd;clip-rule:evenodd;fill:#43ACDD;}
	.st23{fill-rule:evenodd;clip-rule:evenodd;fill:#457485;}
	.st24{fill-rule:evenodd;clip-rule:evenodd;fill:#469EC0;}
	.st25{fill-rule:evenodd;clip-rule:evenodd;fill:#7ABDDE;}
	.st26{fill-rule:evenodd;clip-rule:evenodd;fill:#47A0CB;}
	.st27{fill-rule:evenodd;clip-rule:evenodd;fill:#7BCAE7;}
	.st28{fill-rule:evenodd;clip-rule:evenodd;fill:#7BCBE7;}
	.st29{fill-rule:evenodd;clip-rule:evenodd;fill:#1070B6;}
	.st30{fill-rule:evenodd;clip-rule:evenodd;fill:#114476;}
	.st31{fill-rule:evenodd;clip-rule:evenodd;fill:#1374AF;}
	.st32{fill-rule:evenodd;clip-rule:evenodd;fill:#144555;}
	.st33{fill-rule:evenodd;clip-rule:evenodd;fill:#15527A;}
	.st34{fill-rule:evenodd;clip-rule:evenodd;fill:#165783;}
	.st35{fill-rule:evenodd;clip-rule:evenodd;fill:#168ED4;}
	.st36{fill-rule:evenodd;clip-rule:evenodd;fill:#4AB1E5;}
	.st37{fill-rule:evenodd;clip-rule:evenodd;fill:#184C79;}
	.st38{fill-rule:evenodd;clip-rule:evenodd;fill:#4EA4BF;}
	.st39{fill-rule:evenodd;clip-rule:evenodd;fill:#4FA3C6;}
	.st40{fill-rule:evenodd;clip-rule:evenodd;fill:#81B5CC;}
	.st41{fill-rule:evenodd;clip-rule:evenodd;fill:#82D6F3;}
	.st42{fill-rule:evenodd;clip-rule:evenodd;fill:#82D7F0;}
	.st43{fill-rule:evenodd;clip-rule:evenodd;fill:#84D3F0;}
	.st44{fill-rule:evenodd;clip-rule:evenodd;fill:#87AFB9;}
	.st45{fill-rule:evenodd;clip-rule:evenodd;fill:#1C78A8;}
	.st46{fill-rule:evenodd;clip-rule:evenodd;fill:#88CBE2;}
	.st47{fill-rule:evenodd;clip-rule:evenodd;fill:#51808B;}
	.st48{fill-rule:evenodd;clip-rule:evenodd;fill:#548DA3;}
	.st49{fill-rule:evenodd;clip-rule:evenodd;fill:#55A6C8;}
	.st50{fill-rule:evenodd;clip-rule:evenodd;fill:#55B1D4;}
	.st51{fill-rule:evenodd;clip-rule:evenodd;fill:#56B3D9;}
	.st52{fill-rule:evenodd;clip-rule:evenodd;fill:#8BDCF6;}
	.st53{fill-rule:evenodd;clip-rule:evenodd;fill:#8CD2E8;}
	.st54{fill-rule:evenodd;clip-rule:evenodd;fill:#227FB5;}
	.st55{fill-rule:evenodd;clip-rule:evenodd;fill:#2481B7;}
	.st56{fill-rule:evenodd;clip-rule:evenodd;fill:#266F99;}
	.st57{fill-rule:evenodd;clip-rule:evenodd;fill:#269CDC;}
	.st58{fill-rule:evenodd;clip-rule:evenodd;fill:#5AA3C1;}
	.st59{fill-rule:evenodd;clip-rule:evenodd;fill:#27A1E4;}
	.st60{fill-rule:evenodd;clip-rule:evenodd;fill:#294644;}
	.st61{fill-rule:evenodd;clip-rule:evenodd;fill:#5FBAE3;}
	.st62{fill-rule:evenodd;clip-rule:evenodd;fill:#92E0F8;}
	.st63{fill-rule:evenodd;clip-rule:evenodd;fill:#2C89B2;}
	.st64{fill-rule:evenodd;clip-rule:evenodd;fill:#2F5668;}
	.st65{fill-rule:evenodd;clip-rule:evenodd;fill:#62B6DC;}
	.st66{fill-rule:evenodd;clip-rule:evenodd;fill:#3188B8;}
	.st67{fill-rule:evenodd;clip-rule:evenodd;fill:#3189C0;}
	.st68{fill-rule:evenodd;clip-rule:evenodd;fill:#348FAF;}
	.st69{fill-rule:evenodd;clip-rule:evenodd;fill:#348FB4;}
	.st70{fill-rule:evenodd;clip-rule:evenodd;fill:#398EC2;}
	.st71{fill-rule:evenodd;clip-rule:evenodd;fill:#3992B7;}
	.st72{fill-rule:evenodd;clip-rule:evenodd;fill:#39A4DC;}
	.st73{fill-rule:evenodd;clip-rule:evenodd;fill:#6FB7D2;}
	.st74{fill-rule:evenodd;clip-rule:evenodd;fill:#03386B;}
	.st75{fill-rule:evenodd;clip-rule:evenodd;fill:#05386D;}

</style>
<g>
<animateTransform attributeName="transform" begin=".1" attributeType="HML" type="translate" dur="11.5s" values="0,0;-17,5; 15,-5;0,0" repeatCount="indefinite"/>


	<path class="st74" d="M173.182,82.613c-0.236,0.031-0.473,0.064-0.709,0.098c-3.445,0.841-6.989,1.124-10.471,1.808
		c-3.471,0.682-6.881,1.652-10.393,2.171c-4.28,0.633-8.446,1.938-12.766,2.369c-5.07,0.505-10.071,1.644-15.196,1.635
		c-0.77-0.002-1.544,0.027-2.301-0.159c-2.481-0.771-4.849-1.835-7.242-2.836c-0.573-0.239-1.136-0.54-1.17-1.199
		c-0.038-0.745,0.555-1.13,1.156-1.432c0.489-0.245,1.019-0.318,1.558-0.26c3.713,0.404,7.13-0.858,10.524-2.021
		c1.687-0.578,3.231-1.121,4.949-0.289c0.723,0.35,1.383,0.172,1.938-0.407c0.932-0.977,2.083-1.084,3.287-0.725
		c1.855,0.553,3.749,0.469,5.645,0.481c1.038,0.008,1.979-0.229,2.864-0.79c1.431-0.909,2.996-1.51,4.708-1.332
		c2.833,0.296,5.087-0.754,7.003-2.738c1.935-0.832,4.039-0.838,6.067-1.144c7.277-1.097,14.434-2.714,21.524-4.652
		c0.97-0.266,1.916-0.647,2.949-0.595c0.958,0.31,2.329,0.009,2.644,1.344c0.292,1.237-0.763,1.975-1.582,2.565
		c-3.529,2.545-6.82,5.523-11.291,6.447C175.539,81.229,174.321,81.854,173.182,82.613z"/>
	<path class="st52" d="M187.411,70.893c-7.018,1.865-14.046,3.684-21.219,4.875c-3.139,0.521-6.284,1.006-9.426,1.507
		c-0.961,0.749-2.138,0.621-3.236,0.751c-6.059,0.714-12.153,1.036-18.225,1.618c-1.288,0.123-2.606,0.142-3.898-0.136
		c-0.423-0.124-0.79-0.334-1.041-0.709c0.123-0.914,0.906-0.775,1.492-0.905c3.545-0.783,7.026-1.856,10.633-2.352
		c6.325-1.765,12.828-2.662,19.251-3.939c1.748,1.485,3.057,0.126,4.449-0.7c4.409-1.431,8.984-2.18,13.474-3.281
		c5.071-1.245,10.184-2.301,15.307-3.306c0.556-0.108,1.178-0.145,1.756-0.923c-4.13,0.631-7.846,2.047-11.731,2.658
		c-0.564-0.016-1.138-0.004-1.533-0.517c-0.068-0.903,0.713-0.983,1.259-1.234c1.56-0.717,3.048-1.553,4.45-2.545
		c0.689-0.488,1.298-1.024,1.47-1.906c0.064-0.164,0.156-0.312,0.266-0.45c1.514-1.191,3.567-1.289,5.068-2.503
		c0.664-1.696,1.218-3.519,3.651-3.167c0.52,0,1.038,0.05,1.558,0.06c0.187,0.146,0.157-0.244,0.082-0.019
		c-0.02,0.062-0.065,0.028-0.173-0.021c-0.401-0.187-0.632-0.489-0.682-0.93c0.972-2.102-1.039-1.464-1.809-1.966
		c-0.854-0.579-0.655-1.142,0.067-1.629c0.635-0.429,1.375-0.62,2.122-0.763c0.53-0.141,1.04,0.168,1.569,0.072
		c1.977,2.045,3.274,4.518,4.438,7.069c0.5,1.098,0.188,2.211-0.188,3.265c-0.564,1.579-0.975,3.234-2.067,4.576
		c-0.719,0.006-1.146,0.557-1.667,0.917c-3.661,2.534-7.647,4.387-11.924,5.588C189.78,70.278,188.719,71.063,187.411,70.893z"/>
	<path class="st75" d="M73.787,70.599c1.276,0.697,1.323,2.25,2.231,3.202c1.268,0.15,1.78,1.166,2.385,2.078
		c0.46,1.51,1.254,2.731,2.557,3.718c0.981,0.742,1.782,1.823,2.138,3.019c0.68,2.285,2.66,3.242,4.305,4.555
		c0.506,0.403,1.116,0.336,1.707,0.173c1.255-0.348,2.024,0.128,2.058,1.423c0.03,1.132,0.753,1.373,1.602,1.54
		c1.105,0.218,2.254,0.276,3.304,0.69c0.686,0.271,1.642,0.62,0.583,1.609c-3.041,0.009-5.964,1.339-9.052,0.797
		c-2.675,0.362-4.743-0.573-6.552-2.606c-2.048-2.302-4.41-4.424-5.757-7.173c-1.638-3.344-3.857-6.451-4.652-10.186
		C71.181,71.925,72.297,71.054,73.787,70.599z"/>
	<path class="st41" d="M78.062,75.969c-0.681-0.723-1.362-1.446-2.044-2.169c3.078-3.827,7.431-5.5,11.868-7.045
		c9.623-3.347,19.558-5.495,29.521-7.462c2.632-0.519,5.046-1.606,7.663-2.104c1.641-0.312,3.174-0.455,4.867-0.314
		c1.888,0.156,3.837-0.455,5.761-0.726c2.394-0.336,4.754-0.951,7.197-0.881c-0.353,0.429-0.167,1.062-0.565,1.479
		c-1.525,0.823-3.228,0.373-4.834,0.658c-1.55,0.275-3.141,0.287-4.625,0.924c-0.489,0.209-1.029,0.22-1.554,0.063
		c-0.85-0.593-1.751-0.467-2.693-0.246c-2.459,0.578-4.953,0.98-7.443,1.396c-0.343,0.057-0.699,0.035-1.05,0.013
		c0.278,0.208,0.847,0.146,0.703,0.752c-0.294,0.278-0.661,0.356-1.044,0.394c-1.201,0.092-2.373-0.618-3.587-0.12
		c-2.265,0.463-4.517,0.984-6.773,1.49c-0.765,0.171-1.505,0.361-1.932,1.11c-0.903,1.372-2.785-0.6-3.812,1.282
		c-0.667,1.222-2.617,0.793-3.965,1.206c-1.416,0.433-2.918,1.387-4.256,1.121c-3.274-0.651-5.855,1.023-8.672,1.946
		c-0.788,0.258-1.528,0.659-2.201,1.151c-1.219,0.894-1.135,1.888,0.233,2.566c1.131,0.561,2.265,0.598,3.396-0.079
		c1.32-0.793,2.641-1.576,4.072-2.182c1.602-0.679,3.14-1.283,4.967-0.942c1.248,0.232,2.398-0.55,3.592-0.879
		c1.131-0.312,2.21-0.926,3.453-0.59c0.359,0.111,0.678,0.289,0.94,0.562c0.349,0.653,0.665,1.319,0.695,2.081
		c-0.344,0.587-0.918,0.576-1.489,0.579c-3.965-0.71-7.717,0.356-11.461,1.421c-0.614,0.176-1.285,0.505-1.193,1.336
		c0.096,0.872,0.435,1.582,1.452,1.762c1.229,0.218,2.462,0.505,3.459,1.306c0.54,0.433,1.428,0.824,0.762,1.812
		c-1.532,0.614-3.051,0.045-4.528-0.172c-4.368-0.64-8.74-1.262-13.089-2.026C79.201,76.48,78.622,76.261,78.062,75.969z"/>
	<path class="st32" d="M121.167,90.169c5.097,0.274,10.064-0.903,15.095-1.318c6.066-0.5,11.943-2.021,17.862-3.166
		c3.698-0.715,7.493-1.291,11.155-2.377c2.06-0.611,4.321-0.366,6.434-0.943c0.3-0.082,0.574,0.081,0.76,0.347
		c-4.587,1.983-9.423,3.077-14.302,4.022c-6.438,1.249-12.561,3.84-19.176,4.378c-4.84,0.394-9.663,1.012-14.489,1.562
		c-1.349,0.154-2.676,0.514-4.051,0.395c-0.695-0.329-1.482-0.312-2.2-0.573c-0.202-0.073-0.363-0.256-0.721-0.027
		c-1.415,0.899-1.432,0.842-2.752-0.308c-0.27-0.235-0.683-0.07-1.026-0.115c-0.717-0.092-1.567,0.211-2.034-0.663
		c0.681-1.625,2.76-2.614,5.005-2.349C118.254,89.214,119.701,89.735,121.167,90.169z"/>
	<path class="st5" d="M187.411,70.893c2.597-1.443,5.605-1.758,8.267-3.074c2.705-1.341,5.431-2.608,7.848-4.452
		c0.253-0.193,0.786-1.15,1.02,0.077c-0.657,1.812-2.421,2.698-3.492,4.186c-1.677,2.331-3.577,4.269-6.547,5.295
		c-1.354,0.468-2.406,2.386-3.96,3.312c-5.398,3.215-11.407,4.714-17.364,6.377c1.07-1.682,2.917-1.898,4.595-2.405
		c4.428-1.339,7.87-4.229,11.257-7.181c0.853-0.744,0.702-1.477-0.52-1.715C188.114,71.235,187.667,71.33,187.411,70.893z"/>
	<path class="st60" d="M111.894,91.585c1.324,0.14,2.695-0.242,3.983,0.263c0.023,0.68-0.939,0.36-0.815,1.122
		c0.797-0.067,1.419,0.01,2.243-0.727c0.844-0.755,2.272-0.189,3.15,0.825c-2.564,0.479-5.181,0.375-7.755,0.657
		c-7.619,0.838-15.221,0.594-22.83-0.03c-0.758-0.062-1.51-0.193-2.265-0.293c3.175,0.172,6.103-1.72,9.33-1.113
		c0.325-0.276,0.704-0.476,1.125-0.466c3.908,0.085,7.743-0.9,11.652-0.78C110.478,91.066,111.262,91.023,111.894,91.585z"/>
	<path class="st27" d="M156.077,53.492c2.245-0.857,4.642-0.751,6.969-1.046c3.801-0.48,7.687-0.456,11.432-1.186
		c5.044-0.984,10.173-0.848,15.228-1.591c1.002-0.146,1.865-1.613,3.041-0.465c-0.101,0.646-0.052,1.304-0.117,1.947
		c-0.085,0.85-0.523,1.311-1.451,0.976c-0.795-1.124-1.882-1.419-3.233-1.401c-2.178,0.029-4.197,0.689-6.251,1.254
		c-2.546-0.192-5.102-0.464-7.489,0.808c-0.748,0.455-1.646,0.662-2.393,0.369c-1.217-0.479-2.336-0.235-3.424,0.146
		c-1.82,0.637-3.594,0.459-5.397,0.032c-0.293-0.069-0.286-0.02-0.561,0.438c-0.24,0.398-0.679,0.489-1.089,0.487
		c-1.364-0.006-2.71,0.26-4.075,0.225C156.761,54.283,156.083,54.286,156.077,53.492z"/>
	<path class="st58" d="M156.077,53.492c0.364,0.223,0.728,0.445,1.092,0.668c-0.245,0.664-0.832,0.797-1.424,0.879
		c-3.921,0.551-7.786,1.509-11.766,1.634c-0.535,0.017-1.073,0.089-1.474-0.387c-1.054-0.793,0.352-0.644,0.39-1.019
		c2.94-0.463,5.868-1.079,8.826-1.324C153.177,53.822,154.601,53.378,156.077,53.492z"/>
	<path class="st67" d="M200.889,48.812c-0.719,0.265-1.459,0.483-2.151,0.806c-0.722,0.336-0.376,0.706,0.06,1.024
		c0.285,0.565,0.083,1.047-0.258,1.503c-0.664,0.475-1.458,0.294-2.189,0.428c0.174,0.446,1.669,0.057,0.756,1.197
		c-1.193,0.307-2.377,0.396-3.546-0.096c-0.591-0.537-0.547-1.221-0.45-1.917c0.76-1.421,1.294-3.125,3.575-2.334
		c0.538,0.188,0.952-0.597,1.484-0.83c0.211-0.05,0.423-0.1,0.635-0.15C199.519,48.453,200.36,47.751,200.889,48.812z"/>
	<path class="st56" d="M193.526,51.284c-0.002,0.746-0.005,1.491-0.008,2.237c0.376,0.452,0.368,0.938,0.129,1.444
		c-1.436,0.868-1.648,0.792-2.374-0.85c-0.066-0.467-0.129-0.938-0.189-1.408c-0.012-0.289,0.048-0.555,0.269-0.761
		c0.694-0.009,1.138-0.181,0.804-1.028c-0.279-0.709-0.236-1.359,0.589-1.714c0.134,0.109,0.269,0.218,0.402,0.327
		C194.069,49.944,194.067,50.557,193.526,51.284z"/>
	<path class="st25" d="M200.889,48.812c-0.61-0.602-1.403-0.175-2.085-0.369c1.603-0.31,2.357-1.228,2.634-2.896
		c0.284-1.713,1.435-2.09,3.039-1.329c-1.451,0.577-1.417,2.115-2.074,3.206c-0.142,0.365-0.578,0.721-0.039,1.109
		C201.947,49.019,201.396,48.802,200.889,48.812z"/>
	<path class="st40" d="M193.526,51.284c0.178-0.649,0.032-1.229-0.378-1.752c1.572-0.856,3.225-1.284,5.021-0.939
		c-0.575,0.804-0.771,2.464-2.339,0.92c-0.351-0.346-0.835,0.174-1.175,0.479C194.228,50.377,194.197,51.11,193.526,51.284z"/>
	<path class="st9" d="M73.787,70.599c-1.047,0.946-2.094,1.894-3.142,2.839c-0.566-1.001-0.479-1.933,0.383-2.709
		C71.89,69.954,72.836,69.994,73.787,70.599z"/>
	<path class="st33" d="M202.402,47.423c0.316-1.312-0.473-3.338,2.074-3.206c0.066,0.872-0.413,1.637-0.417,2.538
		C204.054,47.769,203.051,47.397,202.402,47.423z"/>
	<path class="st3" d="M111.894,91.585c-5.013-0.344-9.944,1.062-14.958,0.705c-0.653-1.589-2.23-0.989-3.375-1.348
		c-0.648-0.203-1.381-0.281-2.052-0.495c-0.679-0.219-1.054-0.535-0.81-1.439c0.298-1.104-0.125-1.824-1.431-1.233
		c-0.995,0.449-1.709,0.179-2.571-0.479c-1.894-1.445-3.617-2.89-4.445-5.295c-0.37-1.076-1.213-2.151-2.408-2.74
		c-1.348-0.665-1.338-2.112-1.783-3.292c0.589,0.017,1.178,0.032,1.768,0.049c0.778,1.329,1.553,2.633,3.117,3.238
		c0.66,0.257,0.773,0.975,0.923,1.628c0.519,2.256,2.403,3.614,4.7,3.344c1.061-0.124,2.118-0.312,3.182-0.206
		c1.24,0.121,1.83-0.253,1.903-1.62c0.102-1.91,0.794-2.224,2.327-1.122c0.976,0.701,1.998,0.947,3.158,0.938
		c2.829-0.021,4.935-0.431,6.194-1.29c-0.556-0.502-1.585-0.376-1.76-1.303c-0.078-0.414,0.14-0.668,0.504-0.83
		c1.836-0.501,3.636,0.175,5.465,0.147c6.619-0.1,13.24,0.062,19.86,0.047c0.576-0.002,1.18-0.148,1.737,0.144
		c7.57-0.17,15.091-0.997,22.625-1.658c0.999-0.088,2.001-0.134,3.003-0.199c-1.577,1.903-3.466,3.15-6.072,2.924
		c-2.258-0.196-4.223,0.453-6.211,1.601c-2.068,1.192-4.527,0.657-6.773,0.349c-1.869-0.256-3.66-1.204-4.999,1.033
		c-0.296,0.494-1.001,0.192-1.463-0.092c-1.662-1.021-3.207-0.621-4.85,0.162c-2.735,1.303-5.786,1.526-8.692,2.24
		c-0.796,0.195-1.733-0.274-2.605-0.27c-0.78,0.006-1.727,0.339-1.831,1.123c-0.121,0.902,0.977,0.702,1.509,1.036
		c2.001,1.257,4.379,1.594,6.388,2.788c-1.784,0.186-3.373-1.057-5.179-0.706C114.415,89.769,112.684,89.769,111.894,91.585z"/>
	<path class="st62" d="M131.139,79.132c-1.765,0.772-3.629,0.354-5.438,0.376c-4.498,0.058-8.997-0.085-13.495-0.061
		c-2.843,0.016-5.673-0.098-8.5-0.347c-1.722,0.441-3.458,0.179-5.188,0.09c-0.4-0.021-0.805-0.182-0.899-0.679
		c-0.97-1.983-2.91-2.425-4.746-2.51c-1.841-0.086-1.158-1.639-1.761-2.397c-0.463-0.58,0.514-0.985,1.034-1.34
		c0.763-0.519,1.721-0.43,2.499-0.775c2.192-0.973,4.554-0.83,6.828-1.237c1.003-0.18,1.991,0.038,2.957,0.328
		c1.628,0.781,3.442,0.849,5.146,1.339c1.029,0.296,2.021,0.57,2.706,1.548c0.621,0.888,1.639,0.698,2.604,0.729
		c2.642,0.085,5.106,0.795,7.219,2.479c0.186,0.447,0.187,0.892-0.035,1.326c0.029,0.177-0.414,0.377-0.193,0.359
		c1.742-0.136,3.51,0.069,5.226-0.455c1.221-0.374,2.198,0.454,3.26,0.834C130.669,78.773,130.97,78.821,131.139,79.132z"/>
	<path class="st64" d="M184.967,65.642c3.622-0.897,7.243-1.797,10.866-2.689c0.724-0.178,1.66-0.628,1.876,0.522
		c0.213,1.127-0.943,0.894-1.505,1.021c-9.069,2.053-18.15,4.047-27.227,6.066c-0.982,0.219-1.946,0.512-2.919,0.769
		c-1.253,0.646-2.629,0.527-3.969,0.639c-6.5,1.378-13.08,2.369-19.533,3.977c-2.578,0.139-5.119,0.511-7.634,1.104
		c-0.725,0.171-1.543,0.212-2.066-0.569c0.543-1.071,1.662-0.994,2.588-1.248c3.711-1.017,7.532-1.466,11.308-2.15
		c3.196-0.58,6.377-1.243,9.549-1.946c6.93-1.203,13.851-2.426,20.705-4.056C179.602,66.461,182.212,65.537,184.967,65.642z"/>
	<path class="st51" d="M191.671,53.829c0.11,1.127,0.438,1.896,1.742,1.059c1.532-0.436,3.026-0.986,4.549-1.455
		c0.74,0.012,1.606-0.324,1.973,0.713c-2.646-0.528-2.937,1.574-3.62,3.239c-1.897,0.414-3.951,0.454-5.298,2.196
		c-0.015,0.113-0.033,0.227-0.052,0.339c-0.212,0.357-0.461,0.677-0.83,0.894c-3.452,2.035-7,3.858-10.891,4.923
		c-0.345,0.094-0.69,0.142-1.031-0.025c-0.143-0.126-0.216-0.283-0.222-0.474c0.496-1.136,1.708-1.167,2.613-1.65
		c0.779-0.417,1.634-0.697,2.422-1.113c0.471-0.229,0.96-0.409,1.465-0.547c0.222-0.074,0.453-0.122,0.668-0.214
		c0.371-0.16,0.871-0.271,0.88-0.744c0.011-0.597-0.567-0.688-0.998-0.82c-2.632-0.811-5.279-1.56-8.045-1.782
		c-0.523-0.225-1.125-0.373-1.109-1.126c0.905-1.43,2.27-1.027,3.566-0.9c2.865,0.888,5.795,1.485,8.764,1.911
		c0.367,0.052,0.696-0.057,1.025-0.185c1.501-0.472,2.93-1.167,4.38-1.501c-1.23-0.281-2.688-0.074-3.786-1.13
		C190.255,54.68,190.749,54.01,191.671,53.829z"/>
	<path class="st7" d="M184.967,65.642c-5.455,1.602-11.048,2.609-16.59,3.827c-3.955,0.871-7.977,1.434-11.97,2.134
		c-0.11-0.647,0.32-0.952,0.782-1.236c0.886-0.259,1.811-0.661,2.683-0.624c0.894,0.04,0.215-0.67,0.58-0.762
		c0.485-0.294,1.014-0.277,1.548-0.232c0.179,0.015,0.355,0.05,0.529,0.093c1.275,0.595,2.381-0.659,3.632-0.338
		c1.823,0.203,3.475-0.594,5.191-0.95c2.773-0.576,5.53-1.245,8.284-1.924c1.325,0.031,2.533-1.21,3.931-0.361
		C183.932,65.774,184.516,65.459,184.967,65.642z"/>
	<path class="st48" d="M132.938,76.307c0.661,0.626,1.507,0.428,2.153,0.205c2.457-0.844,4.965-0.573,7.466-0.566
		c-2.55,0.566-5.102,1.124-7.648,1.704c-1.52,0.347-3.031,0.728-4.547,1.091c-3.292-0.875-6.589,0.577-9.906-0.062
		c0.197-0.738,0.895-0.542,1.402-0.699c2.049-1.116,4.28-1.291,6.491-0.905c1.184,0.206,2.145,0.458,3.031-0.596
		C131.771,76.013,132.355,75.783,132.938,76.307z"/>
	<path class="st54" d="M183.567,65.268c-1.367-0.03-2.563,0.904-3.961,0.704c-0.545,0.257-1.113,0.149-1.677,0.111
		c-0.295-0.324-0.152-0.47,0.214-0.523c4.648-1.027,8.689-3.438,12.822-5.64c0.228,0.948-0.427,1.384-1.055,1.853
		C187.958,63.232,185.818,64.35,183.567,65.268z"/>
	<path class="st69" d="M172.135,72.728c4.068-0.984,8.134-1.969,12.202-2.952c0.052,0.21,0.104,0.421,0.155,0.632
		c-3.938,1.525-8.07,2.286-12.201,3.055C172.24,73.217,172.188,72.972,172.135,72.728z"/>
	<path class="st63" d="M168.866,73.898c-4.525,1.166-9.063,2.245-13.796,1.885C159.601,74.653,164.177,73.855,168.866,73.898z"/>
	<path class="st11" d="M199.935,54.146c-0.647-0.43-1.387-0.259-2.09-0.326c-0.169-0.106-0.44-0.116-0.402-0.421
		c-0.66-0.623-1.63,0.018-2.436-0.643c1.031-1.095,2.337-0.549,3.472-0.715c0.888-0.262,1.558,0.056,2.076,0.779
		c0.247,0.437,0.907,0.57,0.901,1.214C200.961,54.358,200.433,54.077,199.935,54.146z"/>
	<path class="st55" d="M191.017,59.581c-0.268-0.186-0.737-0.321-0.461-0.752c0.502-0.787,4.685-1.798,5.759-1.444
		C194.549,58.116,192.783,58.849,191.017,59.581z"/>
	<path class="st36" d="M200.554,52.82c-0.692-0.26-1.384-0.52-2.076-0.779c-0.069-0.507,0.094-0.96,0.32-1.399
		c0.461,0.046,0.95,0.009,1.378,0.153C201.61,51.277,201.696,51.816,200.554,52.82z"/>
	<path class="st38" d="M145.803,77.233c2.122-0.979,4.452-1.004,6.767-1.135C150.519,77.538,148.057,76.626,145.803,77.233z"/>
	<path class="st68" d="M196.977,65.541c-1.168,1.225-2.597,1.823-4.722,1.831C193.89,66.178,195.297,65.531,196.977,65.541z"/>
	<path class="st73" d="M162.089,71.969c1.259-0.607,2.585-0.806,3.969-0.639c-0.742,1.012-1.916,1.24-2.996,1.604
		c-0.903,0.305-1.426,0.214-0.512-0.766C162.396,72.102,162.243,72.036,162.089,71.969z"/>
	<path class="st21" d="M190.791,68.16c-1.511,1.076-2.71,1.484-4.389,1.32C187.736,68.574,188.892,68.045,190.791,68.16z"/>
	<path class="st71" d="M202.506,62.612c-0.398,0.015-0.726-0.204-0.709-0.461c0.052-0.789,0.672-1.184,1.315-1.478
		c0.269-0.124,0.719-0.017,0.603,0.343C203.501,61.672,203.077,62.241,202.506,62.612z"/>
	<path class="st19" d="M204.242,58.212c0.517,0.181,0.688,0.541,0.55,0.988c-0.134,0.433-0.244,1.018-0.845,0.975
		c-0.557-0.04-0.5-0.562-0.48-0.972C203.493,58.68,203.724,58.312,204.242,58.212z"/>
	<path class="st29" d="M142.505,56.286c3.964-0.211,7.874-0.851,11.764-1.581c0.965-0.181,2.025,0.101,2.9-0.545
		c1.601-0.275,3.204-0.532,4.802-0.376c0.084-0.431-0.909-0.188-0.353-0.569c0.53-0.363,1.54-0.633,2.015-0.365
		c1.683,0.941,3.205,0.195,4.809-0.062c1.001-0.16,1.938-0.925,3.118-0.087c0.46,0.327,1.618,0.365,2.334-0.285
		c2.503-0.686,5.068-0.527,7.62-0.562c1.811,0.227,2.195,0.692,2.007,2.435c-1.011,0.578-2.208,0.875-3.249,0.652
		c-3.425-0.73-6.743,0.242-10.036,0.637c-5.568,0.667-11.102,1.72-16.688,2.277c-4.551,0.455-8.999,1.376-13.448,2.346
		c-1.37-0.187-2.716-0.092-4.044,0.315c-3.249,0.993-6.69,0.83-9.966,1.65c-1.759,0.384-3.69,0.157-5.194,1.458
		c-0.266,0.092-0.534,0.098-0.804,0.021c-0.769-0.576-1.538-0.35-2.354-0.068c-2.305,0.794-4.697,1.216-7.105,1.557
		c-1.251-0.51-2.478-0.779-3.611,0.289c-0.164,0.154-0.408,0.235-0.657,0.202c-2.512-0.331-2.512-0.331-4.196,1.287
		c0.483,0.878,1.967-0.157,2.218,1.116c-2.066,0.012-3.86,1.043-5.792,1.56c-0.756,0.202-1.435,0.469-2.205,0.012
		c-0.62-0.367-1.253-0.052-1.868,0.178c-2.112,0.789-4.143,1.741-6.027,2.985c-0.66,0.437-1.345,0.797-2.152,0.648
		c-1.346-0.246-2.848-0.465-3.226-2.046c-0.383-1.603,1.187-1.875,2.141-2.396c2.501-1.364,5.295-2.929,7.936-2.794
		c3.01,0.153,5.524-1.046,8.292-1.384c0.94-0.115,2.119,0.049,2.458-1.459c0.127-0.563,1.067-1.028,1.754-0.175
		c0.549,0.681,1.014,0.155,1.498-0.103c0.246-0.158,0.487-0.326,0.776-0.401c3.033-0.624,6.08-1.195,9.044-2.102
		c0.927-0.283,1.873,0.117,2.758-0.275c0.332-0.021,0.664-0.039,0.996-0.058c0.954-0.835,2.182-0.766,3.312-0.95
		c2.353-0.383,4.63-1.225,7.056-1.164c2.326-0.251,4.485-1.266,6.873-1.359C139.5,56.689,141.083,57.118,142.505,56.286z"/>
	<path class="st4" d="M97.617,78.512c1.372,0.501,2.792,0.23,4.193,0.257c0.649,0.012,1.3,0.008,1.895,0.332
		c0.096,1.232,1.016,1.078,1.839,1.103c0.338,0.009,0.802-0.068,0.835,0.406c0.016,0.227-0.233,0.569-0.457,0.696
		c-0.66,0.378-1.339,0.861-2.06,0.967c-1.682,0.244-3.394,0.281-5.092,0.422c-1.25,0.104-2.337-0.186-3.19-1.17
		c-0.269-0.31-0.595-0.668-1.05-0.522c-0.607,0.192-0.413,0.769-0.439,1.215c-0.024,0.412-0.01,0.827-0.006,1.24
		c0.009,0.799-0.326,1.242-1.179,1.125c-1.534-0.211-3.03-0.031-4.561,0.195c-2.383,0.354-4.755-1.599-4.926-3.93
		c-0.063-0.866-0.453-1.192-1.212-1.476c-1.505-0.564-2.435-1.635-2.379-3.354c5.284,0.785,10.568,1.574,15.854,2.35
		C96.322,78.46,96.973,78.465,97.617,78.512z"/>
	<path class="st62" d="M120.096,63.508c0.232-0.027,0.464-0.056,0.697-0.083c1.391-0.895,3.037-0.738,4.556-1.106
		c0.295-0.053,0.593-0.067,0.891-0.065c1.593,0.185,3.14-0.313,4.719-0.322c0.484,0.032,0.954,0.143,1.419,0.268
		c1.13,0.219,2.202-0.453,3.332-0.226c0.363,0.078,0.702,0.193,0.852,0.582c-0.951,1.435-2.641,1.063-3.959,1.599
		c-0.609,0.247-1.353,0.272-0.988,1.249c-0.062,0.398-0.292,0.671-0.627,0.869c-0.693,0.372-1.458,0.502-2.216,0.633
		c-6.136,1.056-12.2,2.487-18.354,3.452c-1.52-0.242-3.078,0.802-4.576-0.135c-0.832-0.359-0.703-1.103-0.712-1.789
		c0.033-0.977,0.842-1.202,1.521-1.479c1.093-0.446,2.228-0.789,3.349-1.164C113.329,64.869,116.638,63.858,120.096,63.508z"/>
	<path class="st50" d="M105.841,70.222c1.561-0.029,3.085-0.569,4.666-0.329c0.514,0.386,1.395,0.545,0.941,1.525
		c-0.23,0.087-0.458,0.095-0.49,0.077c3.717,1.118,7.701,2.128,11.371,4.023c0.214,0.343,0.221,0.693,0.035,1.049
		c-0.139,0.166-0.306,0.202-0.5,0.109c-1.772-0.968-3.767-1.344-5.625-2.087c-1.057-0.423-2.163,0.665-3.269-0.031
		c-0.5-0.315-1.315-0.158-1.309-1.139c0.003-0.587-0.633-0.61-1.062-0.719c-1.425-0.358-2.856-0.693-4.291-1.015
		c-0.753-0.168-1.53-0.265-1.88-1.106C104.912,70.512,105.46,70.697,105.841,70.222z"/>
	<path class="st37" d="M110.048,66.243c-1.644,0.721-3.55,0.853-4.918,2.189c-0.319-0.002-0.654,0.028-0.742-0.402
		c-0.609-0.567-1.353-0.172-2.025-0.283c-0.333-0.055-0.77,0.105-0.956-0.265c-0.222-0.44,0.099-0.833,0.404-1.066
		c1.022-0.784,2.035-1.612,3.159-2.224c1.055-0.576,0.792,0.853,1.533,1.128c1.109-1.025,2.421-1.838,3.973-0.484
		C110.272,65.286,110.24,65.789,110.048,66.243z"/>
	<path class="st24" d="M131.139,58.106c-3.359,1.183-6.862,1.652-10.368,2.114c-0.247-0.489-0.916-0.108-1.249-0.623
		c2.177-0.917,4.499-0.957,6.712-1.459c1.024-0.231,2.05-0.478,3.081-0.673C129.953,57.345,130.896,56.882,131.139,58.106z"/>
	<path class="st61" d="M119.775,60.278c-3.855,1.183-7.768,2.128-11.748,2.785c-0.131-0.987,0.672-0.915,1.249-1.102
		c2.255-0.73,4.675-0.821,6.875-1.769C117.38,59.301,118.562,60.428,119.775,60.278z"/>
	<path class="st6" d="M116.151,60.193c0.529,0.175,0.634,0.284-0.025,0.431c-2.057,0.458-4.115,0.919-6.155,1.443
		c-0.701,0.18-1.567,0.143-1.943,0.997c-0.276-0.003-0.553-0.006-0.83-0.008c-0.061-0.867,0.567-1.097,1.213-1.236
		C110.987,61.263,113.57,60.733,116.151,60.193z"/>
	<path class="st29" d="M102.883,63.431c-2.15,1.265-4.58,1.603-6.986,2.019C98.077,64.285,100.454,63.771,102.883,63.431z"/>
	<path class="st35" d="M183.492,54.088c-0.249-0.979-0.603-1.865-1.771-2.045c-0.119-0.078-0.156-0.151-0.113-0.222
		c0.043-0.068,0.085-0.103,0.127-0.103c2.536-1.416,5.315-1.462,8.111-1.477c1.221-0.006,1.01,1.137,1.507,1.705
		c-0.001,0.217-0.002,0.434-0.004,0.65C188.907,54.028,186.232,54.232,183.492,54.088z"/>
	<path class="st26" d="M181.735,51.719c-0.002,0.107-0.007,0.216-0.013,0.324c-2.586,0.624-5.218,0.27-7.827,0.373
		C176.414,51.123,179.034,50.965,181.735,51.719z"/>
	<path class="st42" d="M197.442,53.398c0.133,0.141,0.268,0.281,0.402,0.421c-0.971,0.085-1.696,0.772-2.589,1.05
		c-0.611,0.19-1.223,0.445-1.841,0.019c0.034-0.456,0.069-0.91,0.104-1.366C194.826,53.48,196.134,53.439,197.442,53.398z"/>
	<path class="st46" d="M183.492,54.088c1.047-0.356,2.107-0.646,3.229-0.614c1.054,0.029,2.088,0.001,2.957-0.743
		c0.509-0.436,1.104-0.202,1.67-0.132c0.471,0.314,0.414,0.768,0.322,1.23c-0.52,0.576-0.821,1.417-1.776,1.466
		c-0.997,0.799-2.076,0.264-3.126,0.199c-2.423,0.332-4.794,0.989-7.24,1.18c-1.197,0.116-2.529-0.398-3.505,0.749
		c-0.502,0.038-0.561-0.307-0.588-0.679c0.053-0.515,0.477-0.722,0.872-1.004c-1.922,0.237-3.724,0.701-5.367,1.687
		c-5.046,0.281-10.012,1.527-15.103,1.198c-4.478,0.684-8.967,1.292-13.453,1.926c-0.837,0.119-1.89,0.632-2.349-0.688
		c2.595-0.558,5.193-1.172,7.734-1.872c1.579-0.435,3.003,0.505,4.542-0.255c1.587-0.785,3.452-0.662,5.227-0.801
		c1.701-0.134,3.371-0.623,5.07-0.822c1.761-0.207,3.523-0.369,5.259-0.763c1.737-0.395,3.648-0.084,5.263-0.585
		C176.583,53.695,180.09,54.931,183.492,54.088z"/>
	<path class="st53" d="M121.864,76.677c0.116-0.015,0.232-0.023,0.348-0.028c9.045-1.861,18.004-4.096,26.992-6.21
		c1.465-0.344,2.911-0.481,4.384-0.07c0.629,0.175,1.28,0.26,1.913-0.03c0.479-0.134,0.958-0.182,1.427,0.04
		c0.071,0.065,0.143,0.133,0.214,0.199c-0.245,0.342-0.49,0.684-0.735,1.025c-7.823,1.567-15.646,3.136-23.47,4.704
		c-0.739-0.128-1.211,0.164-1.57,0.835c-0.359,0.67-1.076,1.206-1.76,0.839c-2.616-1.403-5.172-0.027-7.75,0
		C121.86,77.546,121.862,77.111,121.864,76.677z"/>
	<path class="st16" d="M175.62,56.692c0.045,0.293,0.037,0.615,0.402,0.73c0.37,0.225,0.739,0.449,1.108,0.673
		c0.472,0.635,0.501,1.306,0.166,2.006c-1.061,0.675-1.577-0.272-2.253-0.748c-1.812-0.675-3.602,0.058-5.396,0.123
		c-2.406,0.089-4.802,0.478-7.221,0.262c-0.178-0.017-0.372-0.06-0.523,0.02c-3.605,1.858-7.731,1.511-11.486,2.728
		c-4.409,0.614-8.694,1.791-13.011,2.826c-1.546,0.144-3.114-0.063-4.648,0.321c-0.448,0.112-0.921,0.007-1.285-0.349
		c-0.409-0.065-0.895-0.082-0.911-0.638c-0.014-0.473,0.438-0.482,0.766-0.574c1.706-0.476,3.413-0.945,5.12-1.417
		c3.015-1.24,6.172-1.932,9.356-2.581c3.34-0.681,6.771-0.874,10.041-1.907c5.231,0.275,10.33-1.217,15.544-1.158
		C172.781,56.648,174.128,55.694,175.62,56.692z"/>
	<path class="st59" d="M177.161,60.18c-0.01-0.694-0.02-1.389-0.03-2.084c3.071-0.187,5.84,1.092,8.726,1.802
		c0.543,0.134,1.013,0.45,1.073,1.028c0.062,0.598-0.536,0.703-0.932,0.91c-0.463,0.241-0.91,0.559-1.477,0.513
		c-2.396-0.333-4.668-1.146-6.988-1.778C177.367,60.48,177.243,60.35,177.161,60.18z"/>
	<path class="st34" d="M179.528,56.674c0.637-0.969,1.683-0.581,2.554-0.766c1.533-0.325,3.069-0.635,4.604-0.95
		c0.108,0.042,0.25,0.074,0.298,0.165c0.671,1.247,1.369,2.471,2.551,3.325c-1.442,0.969-2.825-0.064-4.188-0.241
		C183.372,57.949,181.32,57.73,179.528,56.674z"/>
	<path class="st66" d="M189.535,58.448c-2.438,0.052-2.013-2.234-2.849-3.49c1.07,0.112,2.14,0.225,3.209,0.337
		c1.361,0.708,2.998,0.424,4.573,1.309C192.711,57.261,191.123,57.854,189.535,58.448z"/>
	<path class="st57" d="M183.18,62.778c-1.507,1.152-3.469,1.378-5.015,2.453c-0.638,0.431-1.146,0.269-1.56-0.338
		c-0.203-0.732-0.244-1.488-0.278-2.238c-0.036-0.8,0.108-1.532,1.097-1.69c1.562,0.112,3.05,0.6,4.569,0.932
		C182.502,62.007,183.006,62.188,183.18,62.778z"/>
	<path class="st17" d="M183.18,62.778c-1.917-0.497-3.834-0.993-5.751-1.49c-0.267-0.347-0.264-0.688,0.013-1.027
		c2.438,0.434,4.849,0.955,7.08,2.088C184.074,62.491,183.626,62.634,183.18,62.778z"/>
	<path class="st43" d="M176.759,64.88c0.432,0.267,0.898,0.391,1.407,0.352c0,0.109-0.008,0.22-0.022,0.328
		c-0.14,0.104-0.278,0.208-0.416,0.312c-0.792,0.605-1.733,0.79-2.683,0.953c-0.787-0.392-1.614-0.711-2.31-1.271
		c0.014-0.822,0.559-1.166,1.243-1.388C174.992,64.063,175.946,64.195,176.759,64.88z"/>
	<path class="st0" d="M150.376,62.054c3.003-0.911,6.113-1.279,9.192-1.801c0.233-0.039,0.577,0.046,0.69-0.083
		c1.529-1.751,3.578-0.69,5.343-0.896c2.803-0.324,5.645-0.352,8.446-0.806c0.574-0.094,1.366-0.479,1.313,0.684
		c0.863,2.373,0.455,4.23-1.135,5.174c-0.775-0.041-1.521-0.25-2.275-0.416c-1.243-0.351-2.552-0.33-3.794-0.669
		c-2.209-0.323-4.388-1.226-6.997-0.354c1.091,0.737,2.51,0.342,2.99,1.555c-0.143,2.268-0.614,2.653-2.842,2.419
		c-0.935-0.098-1.878-0.204-3.132,0.091c1.146,0.75,2.328,0.635,3.279,1.111c0.401,0.242,0.802,0.485,0.654,1.062
		c-0.587,0.023-1.173,0.047-1.759,0.069c-0.56,0.41-1.163,0.177-1.694,0.015c-2.289-0.699-4.732-0.868-6.892-2.006
		c-0.431-0.524-0.545-1.295-1.37-1.517c-1.006-0.27-1.969-0.776-2.019-1.942C148.321,62.472,149.697,62.615,150.376,62.054z"/>
	<path class="st65" d="M168.198,62.845c1.289,0.267,2.639,0.175,3.889,0.664c1.214,0.967-0.523,1.528-0.266,2.4
		c0.34,0.093,0.538-0.504,0.948-0.317c0.941-0.107,1.725,0.127,2.208,1.016c-2.169,1.261-4.695,1.273-7.024,1.983
		c-0.575,0.175-1.173,0.646-1.849,0.248c-1.236-0.312-2.287,1.417-3.594,0.327c0.624-0.889,1.518-0.954,2.678-0.818
		c-1.346-0.296-2.806,0.173-3.473-1.319c1.081-0.397,2.19-0.322,3.248-0.001c1.419,0.43,2.14,0.04,2.128-1.49
		c0.095-0.341,0.223-0.655,0.621-0.74c0.647,0.344,0.462,1.018,0.614,1.557c0.126,0.45,0.367,0.741,0.878,0.652
		c0.468-0.081,0.722-0.376,0.738-0.849c0.036-1.072-0.236-1.983-1.335-2.439C168.318,63.499,168.108,63.241,168.198,62.845z"/>
	<path class="st53" d="M151.81,66.927c2.846,0.756,5.693,1.512,8.54,2.268c0.042,0.236,0.973,0.431,0.015,0.72
		c-1.056,0.32-2.078,0.78-3.222,0.663h0.001c-0.145-0.658,0.596-0.578,0.843-1.021c-3.74-0.774-7.432-1.615-11.02-2.838
		c-0.623-0.214-1.662-0.06-1.522-1.254C147.763,65.102,149.824,65.85,151.81,66.927z"/>
	<path class="st23" d="M166.104,68.839c2.958-0.743,5.916-1.487,8.873-2.231c0.988,0.023,1.738-0.847,2.75-0.735
		c0.626,0.033,1.252,0.065,1.878,0.099c-4.233,1.332-8.611,2.079-12.909,3.146C166.532,69.158,166.303,68.938,166.104,68.839z"/>
	<path class="st70" d="M161.8,67.075c1.056,0.756,2.403,0.659,3.643,1.202c-1.046,0.316-1.99,0.603-2.933,0.889
		c-0.134-0.014-0.268-0.027-0.402-0.041c-0.207-0.245-0.413-0.491-0.62-0.737C161.108,67.835,160.755,67.289,161.8,67.075z"/>
	<path class="st44" d="M155.846,58.167c0.036,0.286,0.136,0.587-0.324,0.643c-6.289,0.769-12.414,2.321-18.542,3.861
		c-0.165,0.041-0.353-0.009-0.53-0.016c-0.226-0.102-0.451-0.204-0.677-0.306c0.923-1.188,2.248-0.337,3.09-0.79
		c-2.075,0.113-4.349,0.46-6.58,1.106c-0.385-0.099-0.77-0.196-1.154-0.295c-1.676-0.556-3.273,0.132-4.903,0.306
		c-0.26,0.007-0.52,0.014-0.78,0.021c-0.418-0.531-0.023-0.758,0.37-0.985c3.847-0.888,7.858-0.844,11.651-2.068
		c0.843-0.271,1.754-0.344,2.567,0.219c0.584,0.637,1.293,0.359,1.973,0.263C146.62,59.476,151.233,58.82,155.846,58.167z"/>
	<path class="st39" d="M110.048,66.243c-0.366-0.623-0.89-1.295,0.427-1.407c2.759-0.736,5.673-0.892,8.289-2.146
		c0.997-0.478,1.047,0.291,1.333,0.816c-2.381,1.102-4.993,1.347-7.489,2.025C111.753,65.765,110.901,66.006,110.048,66.243z"/>
	<path class="st49" d="M125.816,61.713c-0.124,0.329-0.247,0.657-0.37,0.986c-1.519,0.443-3.083,0.606-4.652,0.726
		c0.675-1.15,1.825-1.274,2.986-1.4C124.461,61.949,125.138,61.819,125.816,61.713z"/>
	<path class="st15" d="M111.615,71.232c-0.37-0.447-0.739-0.894-1.108-1.34c6.876-1.331,13.752-2.663,20.628-3.995
		c1.249-0.267,2.452-0.876,3.786-0.513c0.767,2.01-0.76,3.167-1.713,4.521c-0.228,0.324-0.656,0.473-1.039,0.62
		c-3.285,0.796-6.579,1.562-9.882,2.284c-1.107,0.241-2.184,0.551-3.187,1.087C116.58,73.079,113.877,72.773,111.615,71.232z"/>
	<path class="st8" d="M135.052,65.571c-1.306,0.109-2.611,0.218-3.917,0.326c0.113-0.204,0.226-0.409,0.339-0.613
		c2.007-0.253,4.005-0.641,6.044-0.38c1.692-0.015,3.229,0.654,4.822,1.087c2.447,0.558,4.906,1.066,7.291,1.855
		c0.621,0.206,1.48,0.304,1.175,1.356c-1.773,0.889-3.674,1.279-5.635,1.432c-0.774-0.22-1.325-0.553-0.29-1.165
		c0.764-0.451,1.651-0.606,2.406-0.659c-3.583-0.971-7.348-1.777-11.013-2.956C135.877,65.714,135.414,65.859,135.052,65.571z"/>
	<path class="st47" d="M132.283,62.666c2.194-1.295,4.642-1.17,7.264-1.437c-1.198,1.252-2.698,0.392-3.775,1.12
		C134.609,62.455,133.446,62.561,132.283,62.666z"/>
	<path class="st20" d="M126.226,62.677c1.337-1.076,3.014-0.573,4.504-0.947c0.312-0.078,0.407,0.333,0.398,0.642
		C129.495,62.473,127.891,63.06,126.226,62.677z"/>
	<path class="st31" d="M145.061,70.269c1.875-0.392,3.749-0.783,5.623-1.175c1.885-0.082,3.846-0.418,5.119,1.536
		c-0.426,0.316-0.925,0.787-1.419,0.545c-3.071-1.508-5.925,0.029-8.793,0.652c-7.14,1.551-14.243,3.28-21.356,4.956
		c-0.707,0.166-1.377,0.367-2.021-0.135c0.021-0.349,0.042-0.699,0.063-1.048c0.938-1.178,2.384-1.232,3.658-1.483
		c5.478-1.08,10.911-2.35,16.342-3.628C143.177,70.076,144.14,70.45,145.061,70.269z"/>
	<path class="st14" d="M142.503,70.902c-5.34,1.388-10.744,2.488-16.146,3.602c-1.377,0.284-2.723,0.727-4.082,1.096
		c-0.354-0.02-0.767,0.07-1.054-0.08c-3.64-1.905-7.717-2.572-11.492-4.09c-0.147-0.059-0.255-0.212-0.396-0.333
		c0.819-0.433,1.525,0.201,2.28,0.136c2.464,0.816,4.928,1.635,7.393,2.453c0.054-0.023,0.116-0.074,0.162-0.064
		c5.227,1.187,9.962-1.157,14.894-2.077c1.159-0.217,2.273-0.649,3.463-0.732c1.063-0.026,2.079-0.334,3.116-0.508
		C141.322,70.189,142.18,69.798,142.503,70.902z"/>
	<path class="st1" d="M175.62,56.692c-1.435-0.228-2.792,0.584-4.23,0.317c0.919-1.104,3.598-1.82,6.211-1.623
		C177.159,56.232,176.042,55.969,175.62,56.692z"/>
	<path class="st72" d="M155.803,70.63c-1.478-1.271-3.475-0.815-5.119-1.536c0.018-0.58-0.399-0.589-0.821-0.697
		c-2.564-0.654-5.118-1.344-7.676-2.021c1.207-2.2,1.935-2.407,3.168-0.903c3.09,1.475,6.393,2.252,9.717,2.951
		c1.326,0.279,2.659,0.509,3.915,1.138c-0.333,0.906-1.408,0.387-1.844,1.017C156.697,70.595,156.25,70.612,155.803,70.63z"/>
	<path class="st2" d="M145.356,65.472c-0.862-0.425-1.792-1.291-2.256,0.447c-0.097,0.362-0.567,0.379-0.912,0.456
		c-1.54-0.542-3.244-0.567-4.67-1.471c4.214-1.276,8.476-2.338,12.858-2.851c-0.185,0.229-0.388,0.446-0.549,0.69
		c-0.303,0.457-1.402,0.2-1.128,1.085c0.23,0.742,0.81,1.381,1.673,1.378c1.243-0.003,1.509,0.687,1.438,1.72
		C149.659,66.441,147.507,65.956,145.356,65.472z"/>
	<path class="st13" d="M173.895,64.161c1.501-0.17,1.083-1.517,1.334-2.361c0.245-0.823,0.104-1.76,0.132-2.647
		c0.556,0.42,1.079,0.898,1.801,1.027c0.094,0.025,0.187,0.053,0.28,0.081c-0.004,0.343-0.008,0.685-0.013,1.027
		c-1.09,0.181-0.77,1.001-0.648,1.616c0.135,0.677,0.425,1.318-0.022,1.976c-0.951-0.139-1.9-0.276-2.85-0.414
		c-0.083-0.064-0.112-0.131-0.09-0.2C173.842,64.195,173.868,64.161,173.895,64.161z"/>
	<path class="st45" d="M173.895,64.161c-0.005,0.101,0,0.203,0.014,0.305c-0.525,0.229-0.904,0.604-1.139,1.126
		c-0.502,0.412-0.731,1.627-1.425,1.195c-0.741-0.461,0.062-1.329,0.344-1.97c0.188-0.428,0.886-0.675,0.398-1.309
		C172.739,63.587,173.363,63.745,173.895,64.161z"/>
	<path class="st30" d="M161.8,67.075c-0.561,0.329-0.275,0.859-0.312,1.312c-1.136-0.252-2.279-0.477-3.404-0.771
		c-0.399-0.104-0.794-0.437-0.77-0.869c0.033-0.59,0.592-0.443,0.969-0.449c0.939-0.016,1.958-0.223,2.803,0.065
		c1.875,0.64,2.614-0.104,2.82-1.841c1.72-0.589,2.573-0.309,3.544,1.164c-0.089,2.257-0.167,2.266-2.253,1.857
		C164.083,67.326,163.001,66.716,161.8,67.075z"/>
	<path class="st28" d="M167.451,65.688c-0.994-0.958-2.254-1.105-3.544-1.164c-0.614-0.7-1.442-0.699-2.278-0.734
		c-0.484-0.021-1.222,0.123-1.155-0.684c0.055-0.65,0.62-1.005,1.258-1.049c1.476-0.101,2.949-0.093,4.396,0.309
		c0.682,0.189,1.38,0.322,2.07,0.479c0.112,0.19,0.223,0.38,0.334,0.569c-0.151,0.538-0.238,1.108-0.766,1.446
		C167.492,65.071,167.464,65.376,167.451,65.688z"/>
	<path class="st18" d="M167.766,64.86c0.147-0.54-0.171-1.326,0.766-1.446c2.009-0.028,1.655,1.553,1.947,2.76
		c0.172,0.709-0.078,0.939-0.654,1.183c-1.454,0.612-1.896,0.353-1.99-1.253C167.811,65.688,167.79,65.275,167.766,64.86z"/>
	<path class="st10" d="M137.538,71.272c-4.111,0.993-8.223,1.981-12.331,2.984c-2.136,0.521-4.199,0.347-6.199-0.57
		c0.101-0.815,0.866-0.774,1.352-0.888c3.938-0.911,7.892-1.749,11.841-2.609c1.576-0.309,2.9-1.578,4.654-1.221
		C137.612,69.579,138.173,70.25,137.538,71.272z"/>
	<path class="st12" d="M136.859,69.125c-1.606,0.119-2.939,1.432-4.658,1.064c1.672-1.094,2.229-2.875,2.851-4.617
		c0.299-0.224,0.624-0.357,1.007-0.293C136.927,66.436,137.588,67.636,136.859,69.125z"/>
	<path class="st22" d="M136.859,69.125c-0.002-1.338-0.597-2.551-0.8-3.846c4.075,1.132,8.15,2.265,12.392,3.442
		c-1.228,0.721-2.572,0.687-3.733,1.181c-0.033,0.014-0.068,0.11-0.066,0.112c0.134,0.089,0.272,0.171,0.409,0.254
		c-0.781,0.5-1.729,0.321-2.558,0.634c-0.689-0.646-1.379-0.177-2.09-0.035c-0.948,0.188-1.87,0.611-2.875,0.405
		C137.64,70.453,137.168,69.814,136.859,69.125z"/>

</g>
</svg>
