<svg version="1.1" id="Layer_1" xmlns="http://www.w3.org/2000/svg" xmlns:xlink="http://www.w3.org/1999/xlink" x="0px" y="0px"
	 viewBox="0 0 939 572" style="enable-background:new 0 0 939 572;" xml:space="preserve">
<style type="text/css">

	.st0{fill-rule:evenodd;clip-rule:evenodd;fill:#06AA9E;}
	.st1{fill-rule:evenodd;clip-rule:evenodd;fill:#07AA9F;}
	.st2{fill-rule:evenodd;clip-rule:evenodd;fill:#08AB9F;}
	.st3{fill-rule:evenodd;clip-rule:evenodd;fill:#09AB9F;}
	.st4{fill-rule:evenodd;clip-rule:evenodd;fill:#736357;}
	.st5{fill-rule:evenodd;clip-rule:evenodd;fill:#736358;}
	.st6{fill-rule:evenodd;clip-rule:evenodd;fill:#736458;}
	.st7{fill-rule:evenodd;clip-rule:evenodd;fill:#746458;}
	.st8{fill-rule:evenodd;clip-rule:evenodd;fill:#746459;}
	.st9{fill-rule:evenodd;clip-rule:evenodd;fill:#746559;}
	.st10{fill-rule:evenodd;clip-rule:evenodd;fill:#756559;}
	.st11{fill-rule:evenodd;clip-rule:evenodd;fill:#75655A;}
	.st12{fill-rule:evenodd;clip-rule:evenodd;fill:#75665A;}
	.st13{fill-rule:evenodd;clip-rule:evenodd;fill:#0AAB9F;}
	.st14{fill-rule:evenodd;clip-rule:evenodd;fill:#0AABA0;}
	.st15{fill-rule:evenodd;clip-rule:evenodd;fill:#76665B;}
	.st16{fill-rule:evenodd;clip-rule:evenodd;fill:#76675B;}
	.st17{fill-rule:evenodd;clip-rule:evenodd;fill:#77675B;}
	.st18{fill-rule:evenodd;clip-rule:evenodd;fill:#77675C;}
	.st19{fill-rule:evenodd;clip-rule:evenodd;fill:#0CACA1;}
	.st20{fill-rule:evenodd;clip-rule:evenodd;fill:#78685D;}
	.st21{fill-rule:evenodd;clip-rule:evenodd;fill:#78695D;}
	.st22{fill-rule:evenodd;clip-rule:evenodd;fill:#78695E;}
	.st23{fill-rule:evenodd;clip-rule:evenodd;fill:#796A5E;}
	.st24{fill-rule:evenodd;clip-rule:evenodd;fill:#0EADA1;}
	.st25{fill-rule:evenodd;clip-rule:evenodd;fill:#0FACA1;}
	.st26{fill-rule:evenodd;clip-rule:evenodd;fill:#7A6B60;}
	.st27{fill-rule:evenodd;clip-rule:evenodd;fill:#7E6F64;}
	.st28{fill-rule:evenodd;clip-rule:evenodd;fill:#7F7165;}
	.st29{fill-rule:evenodd;clip-rule:evenodd;fill:#22B473;}
	.st30{fill-rule:evenodd;clip-rule:evenodd;fill:#23B573;}
	.st31{fill-rule:evenodd;clip-rule:evenodd;fill:#24B574;}
	.st32{fill-rule:evenodd;clip-rule:evenodd;fill:#25B574;}
	.st33{fill-rule:evenodd;clip-rule:evenodd;fill:#25B575;}
	.st34{fill-rule:evenodd;clip-rule:evenodd;fill:#26B575;}
	.st35{fill-rule:evenodd;clip-rule:evenodd;fill:#26B675;}
	.st36{fill-rule:evenodd;clip-rule:evenodd;fill:#27B675;}
	.st37{fill-rule:evenodd;clip-rule:evenodd;fill:#27B676;}
	.st38{fill-rule:evenodd;clip-rule:evenodd;fill:#28B676;}
	.st39{fill-rule:evenodd;clip-rule:evenodd;fill:#28B677;}
	.st40{fill-rule:evenodd;clip-rule:evenodd;fill:#29B676;}
	.st41{fill-rule:evenodd;clip-rule:evenodd;fill:#29B677;}
	.st42{fill-rule:evenodd;clip-rule:evenodd;fill:#2AB677;}
	.st43{fill-rule:evenodd;clip-rule:evenodd;fill:#2AB777;}
	.st44{fill-rule:evenodd;clip-rule:evenodd;fill:#2BB778;}
	.st45{fill-rule:evenodd;clip-rule:evenodd;fill:#2DB87A;}
	.st46{fill-rule:evenodd;clip-rule:evenodd;fill:#33B97D;}
	.st47{fill-rule:evenodd;clip-rule:evenodd;fill:#00A89C;}
	.st48{fill-rule:evenodd;clip-rule:evenodd;fill:#00A89D;}
	.st49{fill-rule:evenodd;clip-rule:evenodd;fill:#01A99D;}
	.st50{fill-rule:evenodd;clip-rule:evenodd;fill:#02A99D;}
	.st51{fill-rule:evenodd;clip-rule:evenodd;fill:#03A99D;}
	.st52{fill-rule:evenodd;clip-rule:evenodd;fill:#04A99D;}
	.st53{fill-rule:evenodd;clip-rule:evenodd;fill:#04A99E;}
	.st54{fill-rule:evenodd;clip-rule:evenodd;fill:#04AA9E;}
	.st55{fill-rule:evenodd;clip-rule:evenodd;fill:#05A99E;}
	.st56{fill-rule:evenodd;clip-rule:evenodd;fill:#05AA9E;}

</style>
<g>
	<path class="st4" d="M549.776,309.183c-1.129-0.316-1.801-1.398-2.868-1.773c-2.276-0.8-4.65-0.562-6.979-0.376
		c-0.812,0.064-1.436,0.845-1.306,1.79c0.139,1.003,0.972,0.662,1.525,0.543c2.332-0.498,4.534-0.403,6.815,0.516
		c1.211,0.487,1.927,1.434,2.579,2.214c1.677,2.005,3.407,3.856,5.549,5.388c1.408,1.007-0.2,2.13-0.603,2.71
		c-0.982,1.419-1.872,2.928-2.933,4.33c-2.411-3.539-4.033-3.502-6.863-2.963c-1.489,0.284-2.788,2.226-2.856,4.043
		c-0.131,3.492,1.646,5.309,5.401,5.461c-2.572,1.338-5.695,0.516-7.217-2.119c-0.424-0.734-0.745-2.303-1.694-1.744
		c-1.1,0.648,0.273,1.756,0.646,2.443c1.736,3.199,4.99,2.998,8.116,3.229c-0.482,1.369-1.422,2.529-1.735,3.959
		c-0.237,1.082-1.034,1.385-2.069,1.387c-2.534,0.008-4.973,0.658-7.602-0.379c-4.889-1.928-7.503-5.334-8.761-10.318
		c-0.679-2.688-1.229-5.206-0.474-7.944c1.155-4.184,2.935-7.845,7.11-9.844c0.782-0.375,1.467-0.982,2.139-1.552
		c0.446-0.379,0.28-0.977,0.114-1.411c-0.149-0.394-0.677-0.333-1.022-0.233c-0.527,0.152-1.036,0.392-1.527,0.645
		c-3.438,1.769-5.674,4.589-7.368,8.016c-1.397,2.827-1.55,2.793-4.642,2.25c-3.153-0.555-6.295-0.416-9.382,0.264
		c-2.101,0.462-3.021,2.462-3.683,4.157c-1,2.563-1.847,5.169-0.998,8.179c1.097,3.889,4.316,5.707,7.698,2.832
		c1.98-1.682,4.188-3.219,6.314-4.791c0.406-0.301,0.725-0.727,1.173-0.934c0.745-0.342,0.673-1.783,1.574-1.488
		c0.421,0.137,0.601,1.363,0.684,2.119c0.349,3.15,2.03,5.9,4.021,7.908c2.777,2.803,6.042,5.57,10.633,5.051
		c1.118-0.127,2.292,0.729,3.409-0.42c0.139,1.156-0.581,1.816-1.006,2.264c-3.347,3.514-7.009,6.689-11.508,8.646
		c-4.471,1.945-9.144,3.436-13.994,3.865c-1.982,0.176-4.062,0.301-6.15,0.086c-2.232-0.229-4.537-0.225-6.587-1.064
		c-2.358-0.965-5.382-0.73-6.899-3.355c-0.688-1.189-1.404-2.449-1.683-3.768c-0.41-1.938-1.216-3.727-2.242-5.285
		c-0.775-1.176-2.311-1.957-3.648-2.637c-3.398-1.725-7.182-1.973-10.873-2.535c-0.313-0.049-0.64-0.023-0.96-0.018
		c-1.9,0.039-2.276,0.611-1.471,2.221c0.222,0.443,0.43,0.896,0.688,1.436c-2.005,0.441-3.109-1.074-4.2-1.984
		c-3.127-2.609-4.853-6.15-5.959-10.07c-0.32-1.135-0.518-2.387-1.186-3.43c-0.236-0.371-0.277-0.676,0.069-1.013
		c0.419-0.406,0.771,0.053,0.95,0.185c4.81,3.504,9.979,3.65,15.504,2.033c2.842-0.834,5.185-2.496,7.723-3.837
		c2.811-1.484,5.478-3.252,8.329-4.646c2.582-1.263,5.479-1.923,7.969-3.327c3.635-2.051,7.657-2.894,11.512-4.217
		c4.888-1.678,9.858-3.069,15.099-3.547c2.294-0.209,4.648-0.657,6.975-0.926c3.785-0.438,7.196,0.842,10.383,2.795
		c0.408,0.25,0.162,0.672,0.216,1.016L549.776,309.183z"/>
	<path class="st4" d="M466.037,334.004c-1.821-0.486-2.566-1.76-3.405-2.705c-2.461-2.777-4.648-5.699-6.179-9.213
		c-1.009-2.316-2.128-4.536-2.364-7.038c-0.264-2.792-0.223-4.64,2.716-6.273c1.301-0.724,2.28-0.191,3.076,0.423
		c2.104,1.623,2.964,4.15,2.849,6.571C462.433,321.989,463.027,327.965,466.037,334.004z"/>
	<path class="st4" d="M438.244,290.845c0.609-1.374,0.17-2.728,0.325-4.039c0.037-0.313-0.222-0.88,0.383-0.843
		c0.351,0.021,0.472,0.574,0.651,0.778c1.155,1.317,0.632,2.979,1.015,4.426c0.775,2.923,1.736,5.774,2.614,8.66
		c1.002,3.291,3.432,5.723,4.897,8.719c0.116,0.238,0.595,0.348,0.194,0.74c-0.42,0.413-0.921-0.055-0.967-0.161
		c-1.039-2.442-3.22-4.059-4.461-6.421c-1.292-2.458-2.376-4.99-3.581-7.477C438.621,293.795,439.208,292.11,438.244,290.845z"/>
	<path class="st7" d="M465.118,313.377c1.992-3.336,3.101-6.779,3.201-10.747c0.098-3.814-1.073-7.179-2.213-10.661
		c-0.299-0.912-1.126-1.226-1.39-2.067c-0.194-0.624-0.601-1.186,0.098-1.678c0.825-0.581,1.108,0.162,1.393,0.69
		c1.571,2.916,2.454,5.985,2.924,9.313c0.553,3.922,0.094,7.567-1.132,11.239C467.445,311.128,466.479,312.397,465.118,313.377z"/>
	<path class="st4" d="M543.931,326.195c-0.017-1.529,1.323-2.937,2.82-2.962c1.089-0.019,2.706,1.657,2.757,2.854
		c0.059,1.385-1.535,3.074-2.925,3.1C545.434,329.207,543.944,327.529,543.931,326.195z"/>
	<path class="st5" d="M513.218,369.049c0.679-3.559,1.139-7.178,3.016-10.383c0.157-0.268,0.165-0.58,0.26-0.785
		c0.373-0.814,1.153-1.084,2.029-0.996c0.276,0.027,0.255,0.066-0.242,1.42c-1.115,3.037-2.529,5.959-3.291,9.137
		c-0.15,0.631,0.215,1.064,0.05,1.6c-0.185,0.6-0.548,1.064-1.155,1.092C513.172,370.166,513.233,369.543,513.218,369.049z"/>
	<path class="st7" d="M465.049,309.837c2.532-7.065,0.231-13.584-2.216-20.191C467.113,291.721,468.55,304.413,465.049,309.837z"/>
	<path class="st5" d="M522.931,355.52c0.265,1.473-0.829,1.855-1.326,2.363c-2.215,2.264-2.697,5.16-3.354,8.006
		c-0.327,1.416-0.582,2.873-0.639,4.318c-0.031,0.822-0.54,0.701-0.883,0.676c-0.254-0.02-0.685-0.094-0.573-0.811
		c0.483-3.127,0.608-6.35,2.5-9.055c0.591-0.844,0.749-1.863,1.116-2.729C520.441,356.713,521.845,356.602,522.931,355.52z"/>
	<path class="st8" d="M524.722,305.36c-2.068,1.459-3.764,0.324-4.907-0.489c-2.62-1.86-5.335-3.781-6.637-6.979
		c-0.192-0.472-0.683-0.968-0.091-1.272c0.515-0.267,0.493,0.569,0.721,0.842C516.785,301.019,520.259,303.646,524.722,305.36z"/>
	<path class="st5" d="M511.969,369.549c-1.026-0.697-1.062-1.895-0.912-2.324c0.824-2.359,0.263-5.037,1.736-7.236
		c0.357-0.533,0.457-1.258,0.606-1.908c0.188-0.814,0.846-0.889,1.4-0.762c0.603,0.139,0.334,0.65,0.17,1.078
		C513.604,361.963,512.551,365.617,511.969,369.549z"/>
	<path class="st9" d="M461.278,289.652c2.848,5.601,4.188,11.478,2.888,17.789c-1.145-2.969-0.063-6.13-0.759-9.188
		C462.749,295.361,461.601,292.619,461.278,289.652z"/>
	<path class="st7" d="M524.652,302.463c-0.205,0.25-0.293,0.556-0.738,0.337c-1.356-0.667-2.889-1.078-4.079-1.96
		c-2.182-1.615-4.01-3.636-5.428-5.989c-0.16-0.266-0.467-0.484-0.052-0.759c0.4-0.267,0.517,0.118,0.714,0.329
		c1.82,1.945,3.713,3.809,6.032,5.171c1.172,0.688,1.864,2.003,3.221,2.458C524.462,302.097,524.542,302.318,524.652,302.463z"/>
	<path class="st7" d="M511.988,358.445c0.039,2.107-1.421,3.76-1.691,5.773c-0.169,1.262-0.415,2.518-0.496,3.785
		c-0.042,0.646-0.373,0.584-0.788,0.635c-0.498,0.059-0.805-0.256-0.731-0.613c0.694-3.365,1.129-6.805,2.625-9.947
		c0.092-0.193-0.02-1.119,0.797-0.77C512.296,357.562,511.999,358.057,511.988,358.445z"/>
	<path class="st7" d="M511.049,297.382c2.497,3.761,5.542,6.93,9.552,9.255c-1.679,0.803-2.59,0.04-3.736-0.784
		c-1.732-1.247-2.946-2.843-4.024-4.581C512.103,300.082,511.211,298.941,511.049,297.382z"/>
	<path class="st7" d="M509.178,297.851c1.569,1.367,2.391,3.345,3.383,5.032c0.891,1.515,2.128,2.432,3.245,3.555
		c0.429,0.43,0.89,0.751,0.563,1.267c-0.438,0.689-0.836,0.051-1.228-0.229c-2.57-1.83-4.108-4.524-5.876-7.021
		C508.692,299.644,508.631,298.739,509.178,297.851z"/>
	<path class="st5" d="M507.444,368.336c-1.261-0.576-1.61-1.686-1.449-2.572c0.481-2.639,1.182-5.24,1.904-7.828
		c0.236-0.85,1.033-0.789,1.871-0.496C508.325,360.898,507.366,364.459,507.444,368.336z"/>
	<path class="st9" d="M460.771,307.325c-1.258-1.522-0.725-3.157-0.993-4.601c-0.66-3.544-1.396-7.057-2.454-10.509
		c-0.096-0.312-0.678-1.171,0.023-1.396c0.839-0.269,0.529,0.627,0.723,1.048c1.491,3.235,1.798,6.798,2.589,10.198
		C460.995,303.519,461.329,305.363,460.771,307.325z"/>
	<path class="st9" d="M459.224,290.422c3.25,5.313,3.541,11.179,3.086,17.185C462.183,301.71,460.893,296.03,459.224,290.422z"/>
	<path class="st6" d="M519.515,325.084c-2.986,2.469-6.226,3.963-9.441,5.504c-0.483,0.23-0.712-0.053-0.943-0.35
		c-0.265-0.338,0.041-0.553,0.198-0.822c0.376-0.641,1.082-0.646,1.647-0.834C513.804,327.65,516.089,325.471,519.515,325.084z"/>
	<path class="st11" d="M455.104,306.912c-1.075-1.501-1.167-3.364-1.575-5.039c-0.816-3.352-2.176-6.559-2.651-9.999
		c-0.07-0.509-0.679-1.181,0.209-1.332c0.836-0.142,0.333,0.729,0.451,1.097c1.527,4.736,2.33,9.674,3.941,14.392
		C455.562,306.271,455.644,306.667,455.104,306.912z"/>
	<path class="st6" d="M504.423,367.492c-1.358-3.473-0.063-6.643,0.752-9.855c0.174-0.684,0.273-0.658,1.79-0.654
		C505.8,360.42,504.692,363.844,504.423,367.492z"/>
	<path class="st8" d="M458.557,305.528c-1.099-5.053-2.532-10.029-3.483-15.115C457.42,295.182,458.267,300.291,458.557,305.528z"/>
	<path class="st11" d="M456.488,305.04c-1.464-4.961-2.837-9.643-3.892-14.702C454.273,291.982,457.117,302.929,456.488,305.04z"/>
	<path class="st9" d="M441.333,287.416c1.646,0.368,1.257,2.002,1.329,2.765c0.313,3.289,1.457,6.251,2.635,9.257
		c0.077,0.198,1.05,0.577,0.296,1.022c-0.638,0.377-0.941-0.318-1.087-0.653c-0.708-1.624-1.489-3.252-1.903-4.96
		C442.014,292.418,441.342,289.978,441.333,287.416z"/>
	<path class="st7" d="M507.985,300.794c0.2,0.164,0.432,0.268,0.529,0.445c1.31,2.392,2.881,4.567,5.057,6.257
		c-0.431,0.495,1.181,0.366,0.305,0.979c-0.467,0.328-0.9,0.629-1.45-0.017C510.495,306.194,507.978,304.294,507.985,300.794z"/>
	<path class="st9" d="M510.407,309.227c-0.745-0.927-1.727-1.724-2.48-2.629c-1.215-1.457-2.103-3.208-2.945-4.926
		c-0.121-0.249-0.871-1.367,0.29-1.7c1.174-0.337,0.782,0.743,0.999,1.214c1.163,2.524,2.312,5.056,4.181,7.158
		c0.197,0.223,0.577,0.267,0.366,0.671C510.774,309.097,510.62,309.121,510.407,309.227z"/>
	<path class="st7" d="M502.226,365.156c-1.466-2.742-0.146-5.436,0.092-8.125c0.025-0.285,0.812-0.764,1.172-0.703
		c0.682,0.113,0.375,0.705,0.264,1.189c-0.343,1.486-0.381,3.105-1.021,4.441C502.197,363.072,503.554,364.244,502.226,365.156z"/>
	<path class="st9" d="M446.322,289.602c1.369,3.725,2.738,7.449,3.076,11.465C447.768,297.416,446.62,293.629,446.322,289.602z"/>
	<path class="st10" d="M443.704,288.741c0.799,0.589,0.965,0.703,1.389,2.78c0.575,2.826,1.234,5.618,2.407,8.26
		c0.152,0.344,0.253,0.585-0.078,0.747c-0.372,0.181-0.611-0.162-0.683-0.436c-0.831-3.174-2.556-6.088-2.827-9.405
		C443.857,290.026,443.183,289.429,443.704,288.741z"/>
	<path class="st12" d="M451.609,300.958c-1.042-3.358-2.726-6.476-3.274-9.942c-0.057-0.358-0.077-0.636,0.374-0.655
		c0.226-0.01,0.459-0.063,0.513,0.325c0.46,3.358,2.339,6.346,2.565,9.767C451.798,300.616,451.672,300.789,451.609,300.958z"/>
	<path class="st9" d="M498.424,305.038c0.451,0.309,0.784,0.423,0.933,0.655c1.31,2.053,2.544,4.156,3.905,6.173
		c0.324,0.479-0.011,0.576-0.173,0.67c-0.533,0.307-1.091,0.125-1.27-0.406c-0.716-2.132-2.336-3.713-3.352-5.66
		C498.197,305.949,498.202,305.598,498.424,305.038z"/>
	<path class="st7" d="M487.679,319.835c-0.168,0.472-0.294,0.822-0.42,1.172c-0.228-0.103-0.48-0.172-0.682-0.312
		c-1.445-1.01-1.866-2.699-2.719-4.104c-0.249-0.41,0.029-0.59,0.254-0.759c0.271-0.202,0.614-0.2,0.885,0.027
		C486.296,316.951,486.424,318.804,487.679,319.835z"/>
	<path class="st7" d="M488.865,319.596c-0.186-0.168-0.618-0.37-0.702-0.67c-0.361-1.298-1.588-2.084-1.923-3.396
		c-0.085-0.333-0.555-0.668-0.013-0.881c0.286-0.111,0.756-0.345,1.077,0.255c0.657,1.226,1.477,2.364,2.123,3.595
		C489.523,318.681,490.13,319.607,488.865,319.596z"/>
	<path class="st9" d="M478.044,318.204c0.831,0.658,0.948,1.731,1.587,2.484c0.576,0.68,1.064,1.433,1.645,2.107
		c0.332,0.387,0.565,0.702,0.084,1.111c-0.469,0.397-0.681-0.125-0.896-0.32c-1.354-1.222-1.828-3.047-2.966-4.434
		C477.239,318.838,477.547,318.332,478.044,318.204z"/>
	<path class="st9" d="M486.189,346.029c-0.178-0.43-0.615-0.586-0.396-1.23c0.427-1.258,0.656-2.582,1.012-3.869
		c0.048-0.176,0.346-0.283,0.528-0.422c0.009,0.576,1.066,0.566,0.814,1.053c-0.64,1.234-0.843,2.557-1.146,3.871
		C486.95,345.654,486.527,345.791,486.189,346.029z"/>
	<path class="st9" d="M488.713,313.175c0.353-0.009,3.139,4.467,2.874,4.682c-0.352,0.285-1.112,0.755-1.229,0.093
		c-0.27-1.526-1.545-2.411-2.082-3.771C487.962,313.385,488.358,313.421,488.713,313.175z"/>
	<path class="st10" d="M503.492,305.39c1.52,1.571,2.495,3.544,3.734,5.321c0.223,0.319-0.03,0.478-0.192,0.596
		c-0.521,0.381-0.848-0.029-1.057-0.401c-0.973-1.723-1.905-3.469-2.853-5.207C503.248,305.596,503.37,305.492,503.492,305.39z"/>
	<path class="st9" d="M499.181,314.164c-1.341-0.388-1.363-1.494-1.87-2.188c-0.784-1.074-1.45-2.237-2.132-3.385
		c-0.164-0.277-0.141-0.677,0.174-0.845c0.138-0.074,0.563,0.077,0.627,0.226C496.861,310.032,498.423,311.761,499.181,314.164z"/>
	<path class="st7" d="M476.501,324.828c-1.857-1.419-2.231-3.495-3.479-4.952c-0.229-0.268,0.263-0.291,0.43-0.417
		c0.417-0.314,0.406,0.072,0.604,0.298C475.263,321.115,476.38,322.5,476.501,324.828z"/>
	<path class="st10" d="M490.429,311.28c1.063,1.695,1.936,3.066,2.785,4.452c0.287,0.467,0.608,1.123,0.066,1.453
		c-0.603,0.366-0.684-0.255-0.908-0.754c-0.504-1.12-1.137-2.203-1.864-3.193C490.05,312.613,490.138,312.151,490.429,311.28z"/>
	<path class="st9" d="M479.916,317.752c1.907,1.146,2.438,3.151,3.196,5.02C481.323,321.578,480.747,319.569,479.916,317.752z"/>
	<path class="st12" d="M492.159,310.049c1.301,2.312,2.859,3.972,3.452,6.404C493.842,315.131,492.272,312.324,492.159,310.049z"/>
	<path class="st9" d="M499.632,361.664c-0.485-1.809,0.14-3.184,0.141-4.602c0-0.609,0.38-0.986,0.961-0.957
		c0.8,0.041,0.658,0.779,0.533,1.17C500.82,358.674,500.252,360.035,499.632,361.664z"/>
	<path class="st12" d="M485.219,322.192c-1.492-1.091-1.92-2.357-2.542-3.457c-0.196-0.349-0.15-0.857-0.59-1.058
		c-0.523-0.24-0.452-0.528-0.131-0.865c0.388-0.407,0.967,0.025,0.986,0.123C483.281,318.687,484.87,319.916,485.219,322.192z"/>
	<path class="st10" d="M489.338,341.963c0.576,0.146,0.884,0.422,0.722,0.82c-0.484,1.188-0.375,2.605-1.398,3.588
		c-0.146,0.141-0.112,0.533-0.457,0.258c-0.141-0.111-0.349-0.324-0.318-0.436c0.326-1.229,0.683-2.451,1.062-3.664
		C489.021,342.299,489.231,342.111,489.338,341.963z"/>
	<path class="st16" d="M508.633,324.787c2.682,0.035,4.401-1.684,6.828-1.818C513.96,324.578,510.339,325.701,508.633,324.787z"/>
	<path class="st10" d="M491.223,343.557c1.403,2.258-0.036,3.398-1.006,4.879C488.755,346.281,491.287,345.445,491.223,343.557z"/>
	<path class="st12" d="M510.918,331.781c1.983-1.098,3.966-2.193,5.948-3.291C515.209,330.105,513.696,331.945,510.918,331.781z"/>
	<path class="st18" d="M485.826,340.836c-1.003,0.748-0.233,2.213-1.204,2.979c-0.223,0.176,0.277,0.893-0.443,0.672
		c-0.336-0.104-0.698-0.443-0.486-0.885c0.456-0.953,0.898-1.879,0.756-2.998c-0.031-0.242,0.306-0.727,0.796-0.369
		C485.472,340.4,485.911,340.365,485.826,340.836z"/>
	<path class="st15" d="M515.161,321.407c-1.814,0.915-3.305,1.337-4.896,1.599C511.058,321.546,512.62,320.968,515.161,321.407z"/>

	<path class="st16" d="M500.133,303.115c0.242,1.705,2.492,2.518,2.019,4.496C501.315,306.171,499.618,305.138,500.133,303.115z"/>
	<path class="st16" d="M496.846,314.67c-1.531-1.027-1.586-2.591-2.723-3.361c-0.247-0.168-0.221-0.62,0.043-0.853
		c0.212-0.188,0.524-0.07,0.655,0.151C495.527,311.801,496.558,312.845,496.846,314.67z"/>
	<path class="st17" d="M470.896,319.781c0.589,0.029,1.312,0.208,1.289,0.563c-0.097,1.481,1.521,2.031,1.634,3.32
		c0.019,0.223-0.477,0.671-0.612,0.226C472.744,322.369,471.062,321.539,470.896,319.781z"/>
	<path class="st15" d="M512.292,320.319c1.49-1.207,3.189-1.266,5.344-0.998C515.759,320.512,513.919,319.858,512.292,320.319z"/>
	

	<path class="st16" d="M549.746,309.211c1.906,0.258,2.358,2.042,3.373,3.233c-1.506-0.684-2.595-1.797-3.343-3.263
		C549.776,309.183,549.746,309.211,549.746,309.211z"/>
	<path class="st21" d="M470.946,323.421c-0.983-0.764-1.335-1.977-2.033-2.93c-0.164-0.226-0.231-0.407,0.029-0.632
		c0.284-0.246,0.579-0.046,0.598,0.112C469.69,321.255,471.572,321.757,470.946,323.421z"/>
	<path class="st18" d="M513.242,326.314c-1.375,0.508-2.75,1.016-4.125,1.525c1.014-1.395,2.452-1.789,3.972-1.996
		C513.14,326.002,513.191,326.158,513.242,326.314z"/>
	<path class="st10" d="M480.677,342.592c-0.458-1.252-0.462-2.322,0.535-3.32C481.369,340.414,482.184,341.553,480.677,342.592z"/>
	<path class="st15" d="M467.183,286.845c1.361,1.576,1.301,3.091,1.794,4.405C467.935,290.156,467.385,288.862,467.183,286.845z"/>
	<path class="st7" d="M465.841,320.067c1.743-0.121,1.743-0.121,2.529,2.639C467.117,322.158,467.121,320.647,465.841,320.067z"/>
	<path class="st16" d="M498.544,357.691c-0.701-1.023-1.149-1.807-0.395-2.67c0.116-0.135,0.564-0.514,0.766-0.166
		C499.469,355.811,498.562,356.551,498.544,357.691z"/>

	<path class="st12" d="M482.935,342.676c-0.222-0.082-0.322-0.09-0.335-0.129c-0.348-0.996,0.024-1.906,0.374-2.811
		c0.022-0.061,0.467-0.043,0.473-0.01C483.673,340.789,483.198,341.697,482.935,342.676z"/>
	<path class="st28" d="M518.87,296.698c-0.829-0.741-2.182-1.054-2.52-2.728C517.586,294.812,518.396,295.579,518.87,296.698z"/>
	<path class="st20" d="M453.447,305.655c-1.801-0.651-0.632-2.376-1.558-3.422c1.128,0.154,0.979,1.024,1.066,1.563
		C453.061,304.426,452.89,305.1,453.447,305.655z"/>
	<path class="st21" d="M478.38,338.764c1.819,0.65-0.037,1.926,0.765,2.652C478.143,340.783,478.134,339.875,478.38,338.764z"/>
	<path class="st15" d="M492.771,346.891c0.13,1.145,0.335,2.041-0.55,2.648c-0.214,0.146-0.642,0.287-0.777,0.182
		c-0.255-0.201-0.212-0.635,0.085-0.797C492.254,348.523,492.267,347.717,492.771,346.891z"/>
	<path class="st12" d="M500.703,313.418c-0.359-0.376-0.798-0.821-1.198-1.298c-0.02-0.022,0.297-0.326,0.457-0.5
		c0.422,0.474,1.352,0.439,1.335,1.354C501.292,313.288,501.155,313.424,500.703,313.418z"/>

			<animateTransform attributeName="transform" begin="0.1" attributeType="HML" type="translate" dur="5.5s" values="0,0;0,0; 0,15; 15,15;15,15;0, 0;" repeatCount="indefinite"/>

</g>





	<g>
			<path class="st3" d="M432.601,333.947c-0.224-1.512-0.038-2.68-0.488-3.77c-0.137-0.332,0.107-0.637,0.391-0.789
		c0.271-0.143,0.562,0.094,0.567,0.314C433.1,331.01,433.72,332.383,432.601,333.947z"/>
		<path class="st47" d="M443.204,364.578c0.395-2.641,1.719-5.197,0.64-7.98c-0.163-0.42-0.119-1.01-0.648-0.971
			c-0.442,0.035-1.305-0.08-1.123,0.863c0.107,0.559-0.318,0.957-0.187,1.615c0.738,3.691-0.533,6.896-3.688,8.49
			c-2.235,1.129-3.795,2.752-5.016,4.781c-0.568,0.943-0.811,0.828-1.651,0.254c-1.795-1.223-3.26-2.824-5.226-4.15
			c1.616-0.484,2.249-1.602,2.792-2.99c0.574-1.467,0.131-2.818-0.009-4.18c-0.144-1.414-2.375-2.613-4.327-2.605
			c-2.985,0.012-4.085,1.186-5.204,5.629c-1.562-4.629,1.653-6.719,4.743-8.963c-3.684-0.361-6.903,4.262-6.158,8.691
			c-1.389-0.984-2.727-1.711-4.166-2.307c-1.357-0.561-1.283-2.33-1.388-3.516c-0.512-5.826,1.942-10.029,7.207-12.764
			c4.598-2.387,9.259-3.127,14.089-1.168c3.646,1.479,6.694,3.785,8.27,7.609c0.189,0.461,0.494,0.875,0.693,1.334
			c0.281,0.646,0.617,0.879,1.318,0.482c0.603-0.34,1.068-0.557,0.679-1.416c-1.729-3.818-4.127-6.98-8.106-8.697
			c-2.574-1.109-3.225-1.816-2.104-4.834c0.977-2.629,0.419-5.188,0.675-7.744c0.18-1.807-1.28-3.564-2.924-4.713
			c-2.863-2.001-6.158-2.663-9.554-2.591c-3.371,0.071-5.551,4.747-3.615,7.546c1.686,2.438,3.534,4.77,5.098,7.281
			c0.552,0.887,2.414,1.064,1.735,2.438c-0.445,0.902-1.857,0.516-2.823,0.73c-3.343,0.748-6.433,2.314-8.545,4.781
			c-3.041,3.549-5.544,7.641-3.88,13.064c-4.416-3.473-7.499-7.508-9.618-12.5c-1.467-3.455-2.757-6.904-3.208-10.588
			c-0.456-3.723-1.171-7.434-0.263-11.277c0.409-1.733,0.453-3.612,0.85-5.413c0.526-2.388,1.964-4.292,3.015-6.407
			c0.752-1.516,2.1-1.398,3.319-1.757c1.867-0.547,3.978-0.719,5.54-1.734c2.24-1.454,3.938-3.627,5.099-6.137
			c1.519-3.279,1.638-6.856,2.247-10.325c0.253-1.438-0.877-2.072-2.332-1.345c-0.475,0.238-0.937,0.68-1.315,0.183
			c-0.344-0.452,0.38-0.695,0.559-1.067c1.772-3.691,5.049-5.645,8.596-7.119c2.139-0.89,4.474-1.324,6.74-1.881
			c0.345-0.085,1.084,0.2,1.147,0.443c0.199,0.762-0.472,1.563-0.821,1.93c-2.65,2.772-2.942,6.157-2.886,9.678
			c0.044,2.674,0.374,5.533,1.773,7.62c1.749,2.605,2.545,5.566,4.109,8.185c2.15,3.595,3.51,7.552,5.086,11.394
			c1.432,3.488,2.494,7.143,3.516,10.781c0.729,2.598,1.097,5.295,1.669,7.939c0.84,3.877,1.648,7.768,2.004,11.715
			c0.302,3.355,0.798,6.76-0.306,10.082c-0.445,1.342-1.14,2.561-2.152,3.574L443.204,364.578z"/>
		<path class="st47" d="M446.734,274.846c0.126,2.623-2.109,2.849-3.611,3.689c-2.531,1.419-5.315,0.73-7.989,0.589
			c-4.368-0.23-8.555,0.553-12.62,2.014c-0.487,0.175-0.827,0.488-1.234,0.115c-0.591-0.542,0.136-0.801,0.381-1.012
			c2.751-2.374,5.595-4.522,8.896-6.219c2.318-1.19,4.659-2.104,7.098-2.817c2.718-0.796,5.436-0.79,7.846,1.061
			C446.379,272.94,446.979,273.754,446.734,274.846z"/>
		<path class="st49" d="M470.578,256.747c-1.72,2.425-4.313,1.354-6.417,1.839c-3.697,0.852-7.399,1.535-10.793,3.345
			c-2.8,1.492-5.641,2.907-8.325,4.285C447.648,262.425,462.461,253.878,470.578,256.747z"/>
		<path class="st51" d="M441.525,281.97c2.063,1.725,4.585,2.457,7.048,3.173c4.049,1.177,8.099,0.629,12.104-0.509
			c1.616-0.459,3.175-1.044,4.582-1.93c0.785-0.493,1.102-0.15,1.454,0.408c0.569,0.902-0.363,0.631-0.671,0.813
			c-4.234,2.515-8.833,2.966-13.661,2.696C448.142,286.385,444.413,285.245,441.525,281.97z"/>
		<path class="st51" d="M465.322,280.787c-0.701,1.532-5.892,3.404-10.37,3.79c-3.497,0.301-6.232-0.374-11.167-2.914
			c3.552,0.845,7.094,1.658,10.784,1.445C458.271,282.896,461.811,282.029,465.322,280.787z"/>
		<path class="st49" d="M395.445,333.711c-2.911-1.672-5.982-2.939-9.037-4.246c-1.068-0.457-2.213-0.072-3.228-0.51
			c-0.286-0.123-1.018,0.166-0.842-0.547c0.13-0.523,0.314-1.105,1.107-1.084c2.5,0.068,4.867,0.619,7.09,1.779
			c1.093,0.572,2.167,1.205,3.314,1.637C395.258,331.271,395.814,332.146,395.445,333.711z"/>
		<path class="st48" d="M424.606,365.363c-1.675-0.049-2.587-0.99-2.581-2.662c0.006-1.645,1.095-2.812,2.55-2.736
			c1.672,0.088,3.192,1.492,3.211,2.965C427.806,364.539,426.651,365.422,424.606,365.363z"/>
		<path class="st50" d="M396.314,336.516c-0.106,0.16-0.191,0.328-0.313,0.461c-0.351,0.385-0.53-0.035-0.756-0.184
			c-1.514-0.996-2.96-2.115-4.548-2.973c-2.396-1.291-5.02-1.854-7.747-2.012c-0.526-0.031-1.499-0.105-1.368-1.09
			c0.114-0.863,0.651-0.631,1.376-0.584c4.435,0.279,8.154,2.289,11.754,4.609C395.35,335.154,395.771,335.9,396.314,336.516z"/>
		<path class="st50" d="M384.722,326.32c-0.633,0.291-1.031-0.168-1.421-0.523c-0.099-0.09-0.034-0.557,0.104-0.672
			c0.376-0.314,0.823-0.119,1.264-0.039c3.155,0.564,6.354,0.947,9.234,2.531c0.301,0.166,0.629,0.143,0.938,0.473
			c0.463,0.494,1.047,1.018,0.574,1.557c-0.37,0.424-1.136,0.307-1.733-0.174c-2.461-1.979-5.645-2.166-8.445-3.314
			C385.108,326.107,384.896,326.262,384.722,326.32z"/>
		<path class="st50" d="M446.682,341.953c-1.186-2.377,0.233-3.75,1.006-5.094c1.21-2.102,2.979-3.783,5.032-5.148
			c0.269-0.18,0.342-0.352,0.766-0.373c0.92-0.047,1.462-1.215,2.539-1.043c-0.267,1.084-1.458,0.957-2.116,1.621
			c-1.771,1.787-3.745,3.406-5.162,5.492C447.913,338.635,447.485,340.137,446.682,341.953z"/>
		<path class="st50" d="M385.823,323.91c-0.725,0.449-1.439,0.055-2.129-0.372c-0.029-0.018,0.115-0.519,0.283-0.618
			c0.761-0.453,1.525-0.481,2.458-0.344c2.704,0.4,5.064,1.771,7.653,2.477c0.531,0.145,1.675,0.299,1.303,1.223
			c-0.267,0.662-1.076,0.328-1.758,0.076C391.101,325.412,388.63,324.264,385.823,323.91z"/>
		<path class="st51" d="M458.987,332.043c-2.199,1.514-3.817,2.939-5.238,4.713c-1.446,1.805-2.617,3.896-4.542,5.309
			C448.875,338.988,455.185,332.205,458.987,332.043z"/>
		<path class="st50" d="M385.712,320.072c3.109-0.056,5.824,1.41,8.719,2.182c0.971,0.259,1.314,0.972,1.025,1.617
			c-0.349,0.779-1.008-0.06-1.404-0.236c-2.564-1.147-5.244-1.832-8.019-2.104c-0.852-0.084-1.11-0.605-1.17-1.173
			C384.805,319.789,385.373,320.009,385.712,320.072z"/>
		<path class="st51" d="M464.962,277.197c-4.414,2.402-13.17,3.44-18.014,2.104C453.074,279.713,458.977,278.285,464.962,277.197z"
			/>
		<path class="st51" d="M446.018,337.432c-1.456-2.912,0.54-4.182,1.733-5.066c2.121-1.574,4.388-3.123,7.001-3.922
			c0.164-0.051,0.364,0.018,1.056,0.066C451.768,330.836,448.051,332.943,446.018,337.432z"/>
		<path class="st50" d="M387.98,317.675c2.782,0.019,5.043,1.328,7.423,2.243c0.418,0.161,1.005,0.166,0.605,1.009
			c-0.384,0.81-0.957,0.4-1.265,0.273c-1.473-0.608-2.834-1.484-4.452-1.73c-1.317-0.201-2.633-0.41-3.945-0.641
			c-0.259-0.045-0.695,0.624-0.777-0.177c-0.054-0.519,0.268-0.575,0.685-0.683C386.868,317.811,387.459,317.591,387.98,317.675z"/>
		<path class="st51" d="M447.979,281.128c2.983,0.124,5.967,0.034,8.93-0.336c2.845-0.355,5.619-1.055,8.55-2.071
			C462.979,281.427,453.598,282.749,447.979,281.128z"/>
		<path class="st50" d="M454.633,326.57c-0.015,0.428-0.32,0.516-0.591,0.672c-3.06,1.783-6.401,3.162-8.668,6.078
			c-0.207,0.268-0.512,0.375-0.789,0.053c-0.252-0.293-0.12-0.531,0.067-0.834c0.667-1.07,1.655-1.938,2.543-2.693
			c1.602-1.365,3.607-2.27,5.486-3.289C453.265,326.24,453.993,325.934,454.633,326.57z"/>
		<path class="st50" d="M422.984,325.062c0.335,0.455,0.745,0.84,0.948,1.314c1.085,2.535,2.094,5.104,3.194,7.631
			c0.159,0.365,0.225,0.666-0.094,0.738c-0.285,0.064-0.829-0.092-0.939-0.312c-1.328-2.654-2.604-5.334-3.879-8.014
			C421.849,325.648,422.621,325.49,422.984,325.062z"/>
		<path class="st56" d="M468.244,259.92c-3.771,0.839-7.608,1.114-11.191,2.538c-1.055,0.42-2.021,1.106-3.221,1.085
			c-0.309-0.006-0.162,0.958-0.697,0.337c-0.408-0.475,0.085-0.648,0.395-0.795c2.104-1.001,4.229-2.098,6.528-2.387
			c2.061-0.26,3.962-1.09,6.042-1.282C467.022,259.33,467.52,259.751,468.244,259.92z"/>
		<path class="st54" d="M448.958,274.087c5.16-1.457,10.415-2.579,15.766-3.265C459.635,272.621,454.421,273.859,448.958,274.087z"
			/>
		<path class="st53" d="M448.838,277.461c5.317-0.345,10.515-1.411,15.742-2.292C459.533,277.216,454.312,278.172,448.838,277.461z"
			/>
		<path class="st56" d="M448.665,272.379c0.952-0.792,2.127-0.762,3.235-1.031c3.329-0.812,6.649-1.634,10.034-2.186
			c0.72-0.117,1.416-0.452,2.086-0.766c0.515-0.241,0.758-0.14,0.916,0.387c0.189,0.629-0.483,0.617-0.646,0.641
			c-1.811,0.259-3.544,0.909-5.311,1.211C455.548,271.221,452.122,271.843,448.665,272.379z"/>
		<path class="st53" d="M443.496,328.318c-0.757-2.219,1.296-2.203,1.982-2.766c1.81-1.488,3.96-2.598,6.188-3.493
			c0.753-0.303,1.349,0.222,1.429,0.438c0.226,0.609-0.373,0.545-0.843,0.754C449.216,324.605,445.941,325.557,443.496,328.318z"/>
		<path class="st56" d="M450.748,275.533c4.594-1.001,9.292-1.626,14.079-2.927C463.923,274.233,452.846,276.199,450.748,275.533z"
			/>
		<path class="st51" d="M387.939,316.631c2.242-1.632,4.519-0.532,6.792-0.173c0.367,0.058,0.574,0.562,1.02,0.35
			c0.989-0.47,0.959,0.383,0.898,0.836c-0.075,0.559-0.332,0.913-1.184,0.61c-1.688-0.601-3.471-0.944-5.224-1.353
			C389.504,316.729,388.76,316.471,387.939,316.631z"/>
		<path class="st51" d="M453.938,325.008c-3.759,0.801-6.369,2.91-8.864,5.217c-0.303,0.279-0.557,1.025-1.134,0.574
			c-0.777-0.607,0.079-0.996,0.369-1.375c1.548-2.023,3.625-3.297,6.087-3.822C451.448,325.377,452.283,324.076,453.938,325.008z"/>
		<path class="st56" d="M453.604,264.998c3.407-1.247,6.787-2.424,10.32-3.084c0.822-0.154,1.652-0.268,2.481-0.38
			c0.239-0.033,0.537-0.062,0.608,0.269c0.085,0.393-0.229,0.666-0.499,0.711c-3.862,0.645-7.702,1.365-11.426,2.624
			C454.671,265.279,454.056,265.744,453.604,264.998z"/>
		<path class="st53" d="M465.85,264.717c-3.787,0.865-7.573,1.73-11.36,2.595c-0.038-0.189-0.076-0.379-0.114-0.568
			c3.725-1.282,7.465-2.486,11.432-2.625C465.82,264.317,465.835,264.518,465.85,264.717z"/>
		<path class="st0" d="M453.716,269.341c3.658-1.849,7.604-2.543,11.612-2.994C461.68,268.194,457.614,268.457,453.716,269.341z"/>
		<path class="st52" d="M448.347,315.396c-0.992,1.711-2.865,2.048-4.354,2.924c-0.812,0.478-1.562,1.158-2.518,1.534
			c-0.561,0.221-0.958,0.134-1.128-0.053c-0.441-0.485,0.206-0.514,0.448-0.723C442.99,317.186,445.601,316.163,448.347,315.396z"/>
		<path class="st51" d="M437.117,300.682c0.527,0.041,0.895-0.071,1.048,0.292c0.158,0.373-0.19,0.558-0.39,0.784
			c-0.989,1.126-2.726,1.058-3.693,2.267c-0.044,0.055-1.02,0.274-1.234-0.547c-0.149-0.571-0.063-0.58,0.459-0.922
			C434.582,301.722,435.919,301.145,437.117,300.682z"/>
		<path class="st51" d="M439.015,302.336c-0.023,0.973,0.15,1.495-0.826,2.034c-0.898,0.496-2.178,0.521-2.784,1.606
			c-0.047,0.084-0.597,0.688-1.01,0.128c-0.386-0.522-0.198-1.039,0.286-1.217C436.239,304.315,437.342,302.981,439.015,302.336z"/>
		<path class="st51" d="M445.669,312.512c-1.745,1.076-3.254,2.003-4.759,2.936c-0.513,0.317-1.232,0.779-1.605,0.302
			c-0.545-0.699,0.49-0.855,0.822-1.089c1.409-0.991,3.167-1.401,4.475-2.611C444.703,311.955,445.221,312.31,445.669,312.512z"/>
		<path class="st52" d="M435.723,309.57c2.051-0.942,3.743-2.176,5.862-2.675C440.59,309.019,438.034,310.242,435.723,309.57z"/>
		<path class="st53" d="M409.161,300.884c1.177,0.447,2.352,0.9,3.531,1.337c0.263,0.097,0.503,0.182,0.264,0.496
			c-0.146,0.192,0.042,0.709-0.526,0.519c-1.428-0.478-2.869-0.913-4.296-1.393c-0.294-0.099-0.278-0.377-0.153-0.634
			C408.288,300.574,408.72,301.079,409.161,300.884z"/>
		<path class="st53" d="M436.176,294.44c-0.376,0.134-0.524,0.643-0.761,0.734c-1.402,0.545-2.685,1.28-3.897,2.154
			c-0.278,0.2-0.541,0.307-0.78-0.038c-0.206-0.297-0.243-0.558,0.131-0.776c1.503-0.884,2.983-1.809,4.512-2.646
			C435.74,293.671,436.071,294.005,436.176,294.44z"/>
		<path class="st56" d="M435.148,289.629c0.062,0.764-0.476,1.24-0.927,1.386c-1.47,0.471-2.818,1.164-4.165,1.885
			c-0.148,0.079-0.573,0.269-0.454-0.196c0.067-0.264-0.316-0.606,0.141-0.79c1.697-0.68,3.358-1.418,4.795-2.592
			C434.872,289.048,435.106,289.302,435.148,289.629z"/>
		<path class="st0" d="M431.678,301.425c1.551-1.527,3.401-2.113,5.066-3.004c0.159-0.086,0.551-0.57,0.668,0.064
			c0.056,0.3-0.03,0.626-0.053,0.94c-1.842-0.188-2.635,1.789-4.245,2.056C432.716,301.547,432.291,301.454,431.678,301.425z"/>
		<path class="st53" d="M436.817,296.654c-1.845,1.133-3.689,2.265-5.728,3.516C431.799,298.086,432.628,297.553,436.817,296.654z"
			/>
		<path class="st51" d="M435.62,307.948c-0.471-1.756,1.455-1.179,1.98-2.024c0.318-0.511,1.437-0.425,1.955-1.181
			c0.223-0.325,0.702-0.271,1.024,0.277c0.364,0.619-0.032,0.713-0.392,0.877C438.689,306.581,437.183,307.249,435.62,307.948z"/>
		<path class="st53" d="M441.725,324.152c0.147-1.67,3.197-3.428,5.303-3.233C445.526,322.372,443.544,322.901,441.725,324.152z"/>
		<path class="st51" d="M411.705,304.847c-0.142,0.632-0.534,0.523-0.914,0.496c-1.345-0.097-2.286-1.071-3.441-1.581
			c-0.147-0.065-0.26-0.438-0.228-0.642c0.102-0.635,0.449-0.094,0.679-0.093c1.239,0.003,2.126,1.01,3.318,1.193
			C411.354,304.257,411.532,304.652,411.705,304.847z"/>
		<path class="st56" d="M437.319,311.95c1.216-1.265,2.6-2.187,4.201-2.697c0.349-0.111,0.859-0.654,1.135-0.007
			c0.205,0.48-0.469,0.436-0.707,0.631C440.6,310.98,438.931,311.409,437.319,311.95z"/>
		<path class="st53" d="M438.058,313.852c1.661-1.149,3.135-2.688,5.817-2.79C441.933,312.704,439.882,313.041,438.058,313.852z"/>
		<path class="st51" d="M392.243,314.164c1.719-0.272,3.063,0.025,4.409,0.57c0.264,0.107,0.601,0.101,0.648,0.395
			c0.025,0.156-0.288,0.539-0.404,0.521C395.345,315.415,393.756,315.258,392.243,314.164z"/>
		<path class="st14" d="M428.782,331.488c-0.592-2.09-1.312-3.998-1.544-6.098C428.547,326.518,429.367,329.652,428.782,331.488z"/>
		<path class="st0" d="M421.1,326.551c1.052,1.58,1,3.564,2.077,5.119C421.349,330.947,420.487,328.828,421.1,326.551z"/>
		<path class="st54" d="M409.727,306.448c-1.877,1.001-3.034-0.66-4.942-0.985C407.221,303.832,407.985,306.946,409.727,306.448z"/>
		<path class="st56" d="M409.477,299.351c1.456-0.264,2.414,0.434,3.463,0.538c0.245,0.024,0.693,0.029,0.636,0.515
			c-0.05,0.424-0.508,0.464-0.717,0.474C411.652,300.935,410.621,300.48,409.477,299.351z"/>
		<path class="st24" d="M472.37,254.822c-1.367,1.565-2.905,0.164-4.373,0.32C469.38,254.24,470.889,254.736,472.37,254.822z"/>
		<path class="st53" d="M449.709,317.464c-0.927,0.4-1.969,0.497-2.43,1.593c-0.077,0.183-0.784,0.755-1.207,0.092
			c-0.329-0.516,0.169-1.065,0.449-1.01C447.696,318.372,448.25,315.811,449.709,317.464z"/>
		<path class="st1" d="M414.354,298.498c-0.146,0.285-0.306,0.472-0.68,0.538c-0.884,0.156-1.5-0.42-2.213-0.718
			c-0.174-0.072-0.392-0.401-0.353-0.551c0.083-0.319,0.328-0.507,0.712-0.258c0.486,0.316,1.02,0.253,1.58,0.236
			C413.626,297.739,414.265,297.948,414.354,298.498z"/>
		<path class="st0" d="M442.48,316.131c0.916-1.848,2.931-1.471,4.34-2.32c-1.25,1.189-2.612,2.151-4.372,2.288L442.48,316.131z"/>
		<path class="st53" d="M435.312,286.821c-0.838,2.142-2.515,2.11-3.886,2.604C432.257,288.075,433.768,287.771,435.312,286.821z"/>
		<path class="st56" d="M426.547,329.609c-0.571-1.396-1.142-2.791-1.883-4.604c2.099,1.203,1.797,3.012,2.401,4.4
			C426.893,329.475,426.72,329.541,426.547,329.609z"/>
		<path class="st2" d="M432.68,284.619c0.403-0.935,0.874-1.658,1.812-1.936c0.392-0.116,0.672-0.324,0.913,0.099
			c0.246,0.434-0.065,0.758-0.394,0.911C434.254,284.046,433.459,284.315,432.68,284.619z"/>
		<path class="st1" d="M395.825,312.558c1.086-0.238,2.06-0.587,2.756,0.434c0.156,0.229,0.049,0.712-0.337,0.772
			C397.22,313.925,396.471,313.47,395.825,312.558z"/>
		<path class="st55" d="M407.144,307.912c-1.35,0.238-2.348,0.246-3.09-0.741c-0.178-0.235-0.486-0.404-0.152-0.769
			c0.342-0.37,0.498-0.058,0.757,0.101C405.401,306.956,406.171,307.365,407.144,307.912z"/>
		<path class="st0" d="M415.103,295.999c-0.82,1.435-1.898,0.455-2.754,0.73c-0.335,0.107-0.382-0.445-0.422-0.673
			c-0.086-0.501,0.398-0.377,0.643-0.359C413.348,295.754,414.122,295.876,415.103,295.999z"/>
		<path class="st0" d="M464.214,286.436c0.926-0.717,1.92-1.193,3.341-1.018C466.63,286.955,465.314,286.325,464.214,286.436z"/>
		<path class="st19" d="M412.619,294.425c0.296-0.632,0.679-0.673,1.069-0.641c0.548,0.046,1.145-0.16,1.617,0.224
			c0.07,0.057-0.066,0.536-0.23,0.683c-0.489,0.438-1.044,0.298-1.589,0.049C413.206,294.611,412.907,294.527,412.619,294.425z"/>
		<path class="st56" d="M456.582,288.121c-1.692,0.239-3.437,0.729-5.12-0.195C453.158,288.062,454.854,288.104,456.582,288.121z"/>
		<path class="st13" d="M448.669,270.614c1.256-0.56,2.367-1.171,4.259-1.202C451.253,270.105,450.252,271.05,448.669,270.614z"/>
		<path class="st55" d="M431.236,293.954c1.013-0.045,1.026-1.002,1.646-1.297c0.314-0.15,0.639-0.461,0.96,0.027
			c0.221,0.334,0.136,0.793-0.129,0.781C432.883,293.431,432.344,294.542,431.236,293.954z"/>
		<path class="st25" d="M443.753,324.912c0.941-1.389,1.999-1.873,3.193-2.144C446.124,323.617,445.261,324.404,443.753,324.912z"/>
		<path class="st1" d="M402.583,309.174c-0.433-0.004-0.808-0.272-0.718-0.637c0.091-0.368,0.438-0.854,0.944-0.682
			c0.287,0.097,0.867,0.103,0.78,0.654C403.506,309.044,403.072,309.183,402.583,309.174z"/>
		<path class="st55" d="M442.448,316.099c-0.166,1.165-1.605,0.918-2.014,1.814c-0.152-0.077-0.338-0.121-0.448-0.236
			c-0.238-0.252-0.052-0.513,0.158-0.584c0.799-0.274,1.396-1.04,2.336-0.962L442.448,316.099z"/>


			<animateTransform attributeName="transform" begin="0.1" attributeType="HML" type="translate" dur="5.5s" values="0,0;0,0; 0,15; -15,15; -15,15;0, 0;" repeatCount="indefinite"/>
	</g>






	<g>
		<path class="st29" d="M493.864,207.085c-0.727,2.468-0.722,4.92-0.54,7.441c0.075,1.04,0.532,1.432,1.217,1.543
			c0.985,0.16,0.863-1.142,0.818-1.348c-0.174-0.793,0.034-1.576-0.061-2.363c-0.34-2.833,0.669-5.38,3.091-6.97
			c2.257-1.482,4.059-3.369,5.814-5.345c0.513-0.577,1.394-0.625,2.105-0.063c1.28,1.012,2.585,1.995,3.823,3.055
			c0.358,0.307,0.993,0.583-0.017,1.271c-2.469,1.68-2.978,5.131-1.378,7.513c0.771,1.147,3.455,2.266,4.642,1.933
			c1.821-0.512,3.886-2.672,4.05-4.277c0.051-0.495,0.008-1.001,0.008-1.749c1.484,3.594,0.297,6.425-3.401,8.188
			c-0.602,0.287-0.757,0.282-0.47,0.893c0.274,0.585,0.657,0.516,1.091,0.33c2.662-1.14,4.54-4.145,4.528-7.151
			c-0.002-0.471,0.177-0.942,0.268-1.396c1.646,0.345,2.642,1.791,4.253,2.138c0.83,0.18,0.644,1.164,0.774,1.809
			c0.833,4.091,0.172,8.064-2.616,11.082c-2.873,3.11-6.524,5.135-11.086,5.352c-2.217,0.104-4.379,0.186-6.377-0.599
			c-2.071-0.813-4.106-1.763-5.771-3.453c-1.771-1.8-3.355-3.684-4.545-5.894c-0.213-0.394-0.42-0.711-0.823-0.532
			c-0.531,0.235-0.729,0.72-0.746,1.343c-0.034,1.288,0.817,2.288,1.434,3.118c2.128,2.864,4.646,5.357,8.194,6.567
			c1.629,0.555,0.815,2.029,0.695,3.091c-0.386,3.39-1.097,6.766-0.153,10.167c0.32,1.152,0.517,2.405,1.8,2.996
			c2.357,1.088,4.584,2.396,7.271,2.758c2.722,0.365,5.057-0.319,6.696-2.289c1.16-1.393,0.854-3.537-0.071-4.998
			c-2.102-3.323-4.527-6.441-6.837-9.632c-0.095-0.131-0.336-0.155-0.742-0.33c2.675-0.593,5.213-0.977,7.438-2.293
			c3.056-1.808,5.374-4.168,7.208-7.348c1.419-2.459,1.529-4.813,1.597-7.367c0.008-0.268-0.477-0.574,0.003-0.786
			c0.299-0.132,0.515,0.095,0.794,0.273c2.15,1.375,3.831,3.266,5.162,5.337c2.394,3.728,4.542,7.646,5.57,12.007
			c0.738,3.129,1.169,6.311,1.271,9.564c0.11,3.513,0.087,6.975-0.695,10.404c-0.695,3.05-1.699,5.967-3.713,8.45
			c-0.791,0.976-1.982,1.219-3.003,1.329c-2.898,0.313-5.566,1.386-7.563,3.259c-1.863,1.748-3.078,4.294-3.503,6.894
			c-0.287,1.753-1.311,3.287-1.22,5.132c0.054,1.092-0.294,2.146-0.159,3.315c0.185,1.611,0.975,1.335,1.812,0.896
			c0.567-0.297,1.098-0.629,1.479-0.043c0.313,0.483-0.256,0.844-0.546,1.29c-1.904,2.926-4.688,4.505-7.699,6.113
			c-2.864,1.529-5.864,1.888-9.004,2.584c1.365-2.514,3.02-4.773,3.707-7.538c0.722-2.901,0.515-5.771-0.271-8.544
			c-0.727-2.563-1.749-5.073-2.926-7.467c-0.748-1.524-1.938-2.8-2.59-4.457c-2.036-5.173-4.658-10.113-6.31-15.439
			c-1.907-6.151-3.861-12.302-4.748-18.712c-0.578-4.171-1.279-8.343-1.503-12.536C491.233,212.598,491.944,209.609,493.864,207.085
			z"/>
		<path class="st29" d="M516.968,290.138c-2.835,2.444-5.346,5.267-8.697,6.764c-2.862,1.278-5.45,3.424-8.804,3.442
			c-2.25,0.013-4.489,0.391-6.706-0.699c-1.729-0.849-1.527-2.363-1.676-3.669c-0.084-0.736,0.686-1.384,1.551-2.002
			c2.811-2.008,5.688-2.073,8.95-1.836c4.503,0.329,9.05,0.112,13.284-1.945C515.387,289.94,516.156,289.768,516.968,290.138z"/>
		<path class="st30" d="M475.166,314.881c-1.866,1.107-3.916-0.427-5.802,0.317c-0.752,0.298-1.562,0.045-1.664-0.525
			c-0.104-0.579,0.416-1.236,1.334-1.282c4.145-0.205,8.131-1.115,12.047-2.521c2.722-0.978,5.442-1.915,7.725-3.711
			c0.6-0.471,1.445-0.202,1.865-0.923c0.115-0.198,0.283-0.591,0.714-0.229c0.513,0.43-0.043,0.858-0.136,0.924
			c-4.785,3.421-9.801,6.407-15.55,7.944C475.533,314.92,475.345,314.881,475.166,314.881z"/>
		<path class="st31" d="M484.265,285.762c-3.631-0.407-6.953,1.276-10.436,2.094c-0.357,0.084-0.934,0.661-1.479,0.958
			c-0.516,0.28-0.997,0.592-1.221-0.051c-0.16-0.455-0.279-1.201,0.551-1.501c2.017-0.727,3.963-1.9,6.031-2.169
			c3.552-0.46,7.164-0.784,10.764,0.048c2.084,0.481,3.919,1.418,5.743,2.452c0.39,0.221,0.671,0.367,0.343,0.829
			c-0.361,0.508-0.581,0.095-0.881-0.106C490.86,286.42,487.757,285.517,484.265,285.762z"/>
		<path class="st31" d="M471.851,291.044c3.511-3.784,16.103-6.145,20.941-1.561C485.763,287.224,478.96,288.308,471.851,291.044z"
			/>
		<path class="st29" d="M509.708,208.444c0.077-1.533,1.449-2.776,2.959-2.682c1.325,0.083,2.812,1.686,2.786,3.003
			c-0.022,1.147-1.377,2.495-2.44,2.429C510.981,211.067,509.633,209.945,509.708,208.444z"/>
		<path class="st30" d="M542.456,237.298c1.636,1.847,3.819,2.484,5.816,3.394c1.785,0.812,3.71,1.319,5.668,1.523
			c0.77,0.08,1.163,0.343,1.038,1.028c-0.141,0.77-0.845,0.608-1.401,0.55c-3.714-0.388-7.01-1.946-10.341-3.512
			C541.48,239.457,541.936,238.564,542.456,237.298z"/>
		<path class="st30" d="M555.692,240.616c0.152,0.618-0.126,0.761-0.563,0.689c-4.585-0.748-8.905-2.151-12.582-5.13
			c-0.046-0.037-0.157-0.02-0.177-0.058c-0.272-0.541-1.176-0.906-0.671-1.611c0.115-0.161,1.252,0.1,1.605,0.468
			c2.866,2.98,6.644,3.665,10.444,4.4C554.462,239.513,555.706,239.33,555.692,240.616z"/>
		<path class="st31" d="M480.534,241.318c2.743-1.076,4.045-3.267,5.967-4.72c2.162-1.636,2.545-4.242,3.816-6.355
			c0.183-0.305-0.033-0.984,0.522-0.964c0.82,0.031,0.376,0.784,0.474,1.205c0.454,1.946-0.921,3.351-1.775,4.739
			c-1.84,2.989-4.763,4.849-7.941,6.263C481.454,241.55,481.234,241.437,480.534,241.318z"/>
		<path class="st30" d="M552.991,246.156c-3.593-0.468-6.933-1.381-10.062-2.986c-0.763-0.391-1.098-1.033-0.778-1.443
			c0.463-0.596,1.101-0.478,1.644-0.132c2.824,1.798,5.923,2.804,9.21,3.308c1.159,0.178,1.188,0.218,1.134,0.46
			C553.987,246.039,553.554,246.3,552.991,246.156z"/>
		<path class="st32" d="M478.489,239.32c4.492-2.548,6.416-7.214,9.912-10.229C488.555,232.542,481.176,240.124,478.489,239.32z"/>
		<path class="st31" d="M492.306,235.005c-0.172,2.574-2.092,3.573-3.466,4.702c-1.679,1.379-3.816,2.192-5.725,3.304
			c-0.377,0.22-0.673,0.424-0.922-0.007c-0.442-0.766,0.374-0.392,0.564-0.589c1.455-1.503,3.659-1.892,5.047-3.566
			c1.118-1.35,1.962-2.986,3.562-3.907c0.358-0.206-0.178-1.176,0.643-0.896C492.674,234.272,492.408,234.849,492.306,235.005z"/>
		<path class="st31" d="M553.444,247.951c-0.403,0.114,0.477,0.865-0.496,0.816c-3.713-0.186-6.938-1.993-10.404-2.985
			c-0.647-0.185-0.559-0.651-0.385-1.051c0.271-0.621,0.596-0.213,1.023-0.06c2.45,0.876,4.942,1.633,7.401,2.485
			c0.731,0.254,1.435-0.319,2.162,0.082C553.078,247.423,553.751,247.166,553.444,247.951z"/>
		<path class="st34" d="M490.746,292.313c-2.638,0-5.151-0.236-7.601,0.062c-2.759,0.335-5.457,1.157-8.185,1.752
			c-0.353,0.077-0.618,0.425-1.067,0.234c-0.477-0.202-1.057,0.838-1.353,0.186c-0.415-0.915,0.83-0.777,1.106-0.868
			c4.911-1.613,9.897-2.854,15.13-1.837C489.382,291.961,490.092,291.31,490.746,292.313z"/>
		<path class="st31" d="M551.405,251.112c-2.929-0.66-5.88-1.181-8.678-2.426c-0.998-0.443-0.546-0.928-0.642-1.45
			c0.423,0.015,0.748-0.044,1.255,0.19c2.625,1.208,5.431,1.917,8.302,2.361c0.239,0.037,1.127-0.213,0.922,0.69
			C552.413,251.151,551.958,251.194,551.405,251.112z"/>
		<path class="st31" d="M492.751,237.493c1.135,1.933-0.962,2.86-1.784,3.472c-2.014,1.5-3.862,3.436-6.541,3.944
			c-0.637,0.121-1.545,0.471-1.701-0.012c-0.205-0.634,0.676-0.727,1.27-0.985C487.332,242.458,490.197,240.311,492.751,237.493z"/>
		<path class="st31" d="M552.035,252.532c-0.134,0.616-0.485,0.95-1.201,0.882c-2.722-0.26-5.397-0.652-7.977-1.676
			c-0.503-0.2-0.745-0.54-1.135-0.771c-0.462-0.273-0.218-0.635-0.058-0.982c0.244-0.533,0.535-0.328,0.895-0.119
			c2.09,1.218,4.402,1.728,6.736,2.245c0.723,0.16,1.202-0.187,1.799-0.182C551.494,251.934,552.065,251.738,552.035,252.532z"/>
		<path class="st32" d="M490.052,290.15c-0.747,1.047-1.401,0.188-2.021,0.184c-4.95-0.033-9.861,0.09-14.481,2.184
			c-0.371,0.168-0.635,0.095-0.81-0.19c-0.375-0.61,0.345-0.531,0.534-0.651c2.063-1.296,4.494-1.762,6.778-1.926
			c2.93-0.212,5.933-0.406,8.892,0.027C489.309,289.83,489.653,290.013,490.052,290.15z"/>
		<path class="st30" d="M515.517,245.72c-0.086,0.109-0.169,0.324-0.303,0.361c-0.387,0.106-0.75,0.029-1.014-0.328
			c-0.773-1.051-1.186-2.248-1.636-3.467c-0.73-1.982-1.722-3.87-2.634-5.782c-0.182-0.38-0.328-0.852-0.011-1.03
			c0.743-0.418,0.404,0.461,0.591,0.684c2.297,2.75,3.369,6.164,4.904,9.329C515.442,245.543,515.466,245.602,515.517,245.72z"/>
		<path class="st32" d="M473.017,296.429c3.354-2.097,11.094-3.188,16.487-2.382C483.901,294.103,478.496,295.471,473.017,296.429z"
			/>
		<path class="st33" d="M493.646,240.656c-0.622,2.857-6.9,6.562-9.654,5.812C487.788,245.499,490.371,242.545,493.646,240.656z"/>
		<path class="st30" d="M549.427,255.111c-2.933,0.871-5.61-0.192-8.321-0.846c-0.844-0.204-0.71-0.889-0.421-1.352
			c0.225-0.361,0.776-0.874,1.269-0.451c1.908,1.645,4.276,1.573,6.546,1.923C548.774,254.428,549.271,254.484,549.427,255.111z"/>
		<path class="st33" d="M469.503,311.805c4.987-1.305,10.247-1.776,14.933-4.226c-1.171,1.254-4.973,3.33-6.953,3.444
			C474.814,311.178,472.326,312.414,469.503,311.805z"/>
		<path class="st33" d="M486.774,297.81c-1.981,1.176-4.027,1.041-5.923,1.491c-2.233,0.53-4.488,0.968-6.742,1.406
			c-0.261,0.051-0.666,0.658-0.857-0.046c-0.122-0.447,0.198-0.562,0.612-0.733c1.328-0.547,2.766-0.552,4.133-0.892
			c1.368-0.34,2.756-0.704,4.148-0.96C483.561,297.816,484.988,297.283,486.774,297.81z"/>
		<path class="st31" d="M494.021,243.388c-2.095,2.801-4.841,4.776-8.199,5.802c-0.334,0.102-0.922,0.55-1.199-0.272
			c-0.267-0.787,0.551-0.688,0.724-0.745c1.775-0.578,3.288-1.702,5.08-2.295C491.755,245.437,492.833,244.244,494.021,243.388z"/>
		<path class="st33" d="M471.084,309.954c0.447-0.852,10.56-3.683,12.851-3.528C479.808,308.091,475.604,309.48,471.084,309.954z"/>
		<path class="st31" d="M472.665,302.938c2.487-1.527,5.405-1.734,8.177-2.434c1.696-0.428,3.448-0.633,5.167-0.98
			c0.354-0.072,0.725-0.406,0.889,0.156c0.107,0.368-0.24,0.607-0.536,0.624C481.697,300.568,477.364,302.52,472.665,302.938z"/>
		<path class="st33" d="M486.853,296.001c-4.471,0.867-8.941,1.734-13.412,2.602c-0.037-0.226-0.075-0.451-0.113-0.678
			C477.804,297.097,482.139,295.462,486.853,296.001z"/>
		<path class="st34" d="M484.444,302.346c-3.26,0.919-5.963,2.246-8.948,2.321c-0.86,0.022-1.165,1.028-2.02,0.692
			c-0.32-0.125-0.881,0.175-0.961-0.326c-0.077-0.488,0.268-0.56,0.806-0.666c2.734-0.542,5.435-1.252,8.15-1.89
			C482.276,302.289,482.998,301.53,484.444,302.346z"/>
		<path class="st32" d="M471.497,307.378c1.499-0.664,2.96-1.305,4.583-1.59c1.893-0.331,3.753-0.876,5.599-1.424
			c0.465-0.138,0.799-0.135,0.935,0.25c0.189,0.539-0.467,0.534-0.686,0.609C478.546,306.38,475.133,307.429,471.497,307.378z"/>
		<path class="st32" d="M497.595,251.956c-2.468,1.448-4.695,2.785-6.96,4.056c-0.429,0.241-1.159,0.272-1.368-0.266
			c-0.326-0.84,0.493-0.411,0.806-0.588c1.841-1.044,3.71-2.061,5.432-3.281C496.285,251.322,496.716,251.548,497.595,251.956z"/>
		<path class="st38" d="M486.507,252.919c2.312-2.173,5.452-2.913,7.811-4.977c0.472-0.414,1.134-0.526,1.531-0.042
			c0.309,0.376,0.003,0.852-0.531,0.979c-2.981,0.714-5.321,2.788-8.149,3.825C486.951,252.784,486.728,252.848,486.507,252.919z"/>
		<path class="st31" d="M503.297,265.914c0.191,0.343,0.146,0.443-0.277,0.617c-1.296,0.53-2.334,1.564-3.721,1.959
			c-0.34,0.097-0.587,1.069-0.967,0.118c-0.105-0.267-0.428-0.731,0.44-1.132c1.244-0.574,2.437-1.399,3.637-2.142
			c0.276-0.171,0.426-0.429,0.746-0.206C503.44,265.327,503.578,265.596,503.297,265.914z"/>
		<path class="st30" d="M504.384,268.01c0.165,0.589-0.295,0.785-0.767,1.024c-1.114,0.565-2.235,1.126-3.299,1.779
			c-0.468,0.287-0.832,0.428-1.074-0.109c-0.189-0.42,0.039-0.898,0.444-1.066c1.426-0.591,2.74-1.319,3.934-2.323
			C504.171,266.854,504.343,267.452,504.384,268.01z"/>
		<path class="st31" d="M501.654,275.373c-0.153-0.13-0.384-0.251-0.5-0.441c-0.24-0.396,0.072-0.847,0.29-0.961
			c1.411-0.737,2.861-1.402,4.319-2.045c0.142-0.062,0.437,0.158,0.629,0.292c0.137,0.096,0.265,0.28-0.004,0.395
			c-1.55,0.66-2.677,2.036-4.316,2.544C501.959,275.191,501.857,275.266,501.654,275.373z"/>
		<path class="st30" d="M502.299,263.953c-0.069,0.083-0.117,0.188-0.198,0.229c-1.414,0.713-2.611,1.839-4.247,2.138
			c-0.448,0.083-0.571-0.169-0.718-0.394c-0.159-0.244,0.014-0.505,0.229-0.646c1.314-0.86,2.77-1.418,4.239-1.949
			C502.274,263.089,501.977,263.832,502.299,263.953z"/>
		<path class="st32" d="M492.04,259.129c1.608-1.954,3.929-2.686,6.354-3.521c-0.096,1.294-1.121,1.137-1.719,1.526
			c-0.721,0.47-1.378,1.021-2.209,1.335c-0.733,0.277-1.405,0.717-2.104,1.085C492.255,259.412,492.147,259.271,492.04,259.129z"/>
		<path class="st32" d="M501.635,261.29c-1.608,1.811-3.743,2.469-6.018,3.543C496.647,263.008,500.033,261.089,501.635,261.29z"/>
		<path class="st36" d="M513.747,238.182c0.969,1.442,1.981,2.86,2.877,4.348c0.227,0.375,0.886,1.051,0.049,1.441
			c-0.704,0.328-0.649-0.515-0.91-0.857c-1.102-1.45-1.796-3.077-2.433-4.728C513.469,238.317,513.607,238.249,513.747,238.182z"/>
		<path class="st33" d="M507.231,274.342c-1.449,1.716-3.631,1.849-5.006,3.233c-0.067,0.067-0.455-0.1-0.63-0.238
			c-0.411-0.327-0.014-0.632,0.181-0.714C503.512,275.892,504.761,274.069,507.231,274.342z"/>
		<path class="st31" d="M502.159,281.917c1.614-2.342,3.886-2.562,5.923-3.2C506.681,280.489,504.576,281.008,502.159,281.917z"/>
		<path class="st31" d="M529.37,269.803c-0.943,0.489-4.4-0.311-4.802-0.988c-0.145-0.244-0.023-0.344,0.076-0.469
			c0.219-0.273,0.472-0.234,0.822-0.193C527.036,268.335,527.44,268.462,529.37,269.803z"/>
		<path class="st34" d="M500.906,273.022c-0.632-0.043-0.985-0.22-0.601-0.696c1.2-1.479,3.277-1.435,4.672-2.604
			c0.032-0.027,0.322,0.18,0.427,0.325c0.244,0.341,0.022,0.683-0.229,0.803C503.692,271.562,501.93,271.692,500.906,273.022z"/>
		<path class="st35" d="M494.64,262.195c1.96-0.793,3.436-2.637,5.686-2.794C498.69,260.877,496.994,262.223,494.64,262.195z"/>
		<path class="st33" d="M529.598,268.242c-1.169-0.49-2.343-0.97-3.5-1.486c-0.11-0.05-0.171-0.328-0.163-0.496
			c0.016-0.356,0.283-0.21,0.51-0.263c1.688-0.4,2.616,1.157,4,1.522c0.057,0.015,0.088,0.519-0.024,0.698
			C530.194,268.581,529.886,268.329,529.598,268.242z"/>
		<path class="st32" d="M527.91,264.829c1.643-1.474,2.678,0.465,3.987,0.653c0.24,0.035,0.269,0.558,0.063,0.842
			c-0.228,0.312-0.571,0.244-0.858,0.106C530.05,265.926,528.836,265.732,527.91,264.829z"/>
		<path class="st37" d="M545.539,256.671c-1.621,0.809-3.033,0.208-4.472-0.089c-0.373-0.077-0.965-0.203-0.729-0.804
			c0.146-0.372,0.518-0.369,0.964-0.23C542.697,255.979,544.124,256.305,545.539,256.671z"/>
		<path class="st34" d="M488.39,254.452c-0.127-0.111-0.343-0.233-0.458-0.418c-0.155-0.249-0.077-0.512,0.234-0.575
			c1.589-0.32,2.82-1.36,4.208-2.08c0.304-0.158,0.451-0.073,0.629,0.11c0.266,0.275,0.016,0.464-0.153,0.606
			C491.565,253.181,489.909,253.572,488.39,254.452z"/>
		<path class="st43" d="M502.069,284.247c1.318-1.818,2.841-2.346,4.436-2.745c0.264-0.065,0.536,0.079,0.497,0.388
			c-0.056,0.435-0.427,0.031-0.563,0.146C505.293,282.988,504.132,283.896,502.069,284.247z"/>
		<path class="st32" d="M523.475,270.724c1.628-0.578,2.838-0.2,3.979,0.611c0.189,0.135,0.385,0.324,0.135,0.594
			c-0.181,0.195-0.336,0.304-0.617,0.125C525.99,271.428,524.672,271.782,523.475,270.724z"/>
		<path class="st38" d="M506.619,240.605c1.259,1.344,0.657,2.961,1.443,4.128c0.037,0.056-0.149,0.341-0.288,0.421
			c-0.293,0.167-0.53-0.119-0.59-0.291C506.752,243.6,506.207,242.341,506.619,240.605z"/>
		<path class="st36" d="M502.537,289.189c-0.354-2.38,1.683-1.966,2.672-2.693C504.765,287.816,503.638,288.394,502.537,289.189z"/>
		<path class="st34" d="M527.018,273.702c-1.509,0.139-2.758-0.031-3.86-0.99C524.633,272.041,525.392,272.233,527.018,273.702z"/>
		<path class="st39" d="M505.062,242.239c-0.854-1.815-1.1-3.651-0.294-5.525C504.866,238.556,504.964,240.397,505.062,242.239z"/>
		<path class="st41" d="M508.682,241.307c0.458,1.178,1.278,2.232,1.225,3.562c-0.013,0.288,0.795,0.456,0.281,0.813
			c-0.411,0.285-1.087-0.1-1.038-0.483C509.32,243.845,508.433,242.663,508.682,241.307z"/>
		<path class="st32" d="M475.131,284.357c-1.133,1.146-2.771,1.123-3.954,1.989c-0.137,0.1-0.67-0.095-0.808-0.298
			c-0.241-0.354,0.144-0.65,0.417-0.634C472.321,285.516,473.491,284.212,475.131,284.357z"/>
		<path class="st40" d="M530.866,263.49c0.937-0.252,1.736-0.351,2.396,0.321c0.232,0.237,0.77,0.307,0.482,0.784
			c-0.208,0.347-0.562,0.463-0.973,0.168C532.151,264.318,531.503,263.913,530.866,263.49z"/>
		<path class="st37" d="M525.967,275.382c-0.744,0.295-1.399-0.242-2.042,0.183c-0.595,0.393-0.96-0.091-1.057-0.599
			c-0.208-1.089,0.591-0.308,0.903-0.422C524.697,274.207,525.373,274.564,525.967,275.382z"/>
		<path class="st46" d="M510.526,242.075c0.326,0.117,0.485,0.124,0.522,0.195c0.646,1.223,1.402,2.403,1.561,3.82
			c0.008,0.061-0.297,0.157-0.456,0.237C511.629,244.958,511.105,243.589,510.526,242.075z"/>
		<path class="st37" d="M494.039,255.215c0.393-0.532,1.272,0.077,1.624-0.747c0.127-0.297,0.744-0.933,1.188-0.227
			c0.328,0.525-0.359,0.741-0.646,0.969C495.369,255.873,494.96,255.833,494.039,255.215z"/>
		<path class="st44" d="M465.79,316.212c1.874-0.302,3.383-0.09,5.115,0.541C469.116,317.015,467.625,316.914,465.79,316.212z"/>
		<path class="st43" d="M496.456,204.072c0.76-0.987,1.225-2.394,2.945-2.351C498.825,203.112,497.3,203.185,496.456,204.072z"/>
		<path class="st31" d="M541.53,258.587c-1.137,0.367-1.928,0.539-2.472-0.369c-0.156-0.259,0.017-0.524,0.253-0.634
			C540.284,257.135,540.737,257.879,541.53,258.587z"/>
		<path class="st35" d="M481.147,283.187c1.875-0.143,3.687-0.459,5.409,0.341C484.74,283.196,482.877,283.703,481.147,283.187z"/>
		<path class="st32" d="M493.787,260.46c1.175-0.969,2.304-1.376,3.615-1.349C496.161,259.25,495.514,260.801,493.787,260.46z"/>
		<path class="st42" d="M502.172,278.908c1.047-0.56,1.812-0.928,2.531-1.372c0.326-0.201,0.479-0.023,0.598,0.162
			c0.057,0.09-0.068,0.436-0.128,0.44C504.218,278.215,503.666,279.558,502.172,278.908z"/>
		<path class="st32" d="M485.37,250.979c0.645-0.091,0.883-0.741,1.388-1.029c0.358-0.204,0.685-0.356,0.94,0.084
			c0.286,0.494-0.107,0.557-0.442,0.789C486.65,251.243,486.054,251.106,485.37,250.979z"/>
		<path class="st46" d="M502.401,199.403c-1.094,0.315-1.121,1.616-2.107,1.957c-0.071,0.024-0.242-0.242-0.367-0.374
			c0.729-0.611,1.044-1.631,1.984-2.019C501.983,198.938,502.174,199.194,502.401,199.403z"/>
		<path class="st43" d="M524.525,277.31c-0.367,0-0.751,0.068-1.099-0.017c-0.466-0.113-0.843,0.737-1.295,0.097
			c-0.061-0.087,0.058-0.349,0.153-0.489c0.343-0.507,0.882-0.413,1.357-0.336c0.346,0.056,0.664,0.277,0.994,0.425
			C524.6,277.096,524.562,277.203,524.525,277.31z"/>
		<path class="st34" d="M484.613,302.581c0.909-1.724,1.952-1.515,3.014-1.258C486.754,301.601,485.854,301.802,484.613,302.581z"/>
		<path class="st45" d="M536.023,262.592c-0.565,0.408-0.813,1.118-1.581,0.604c-0.168-0.113-0.313-0.614-0.245-0.672
			C534.714,262.086,535.272,262.161,536.023,262.592z"/>
		<path class="st37" d="M502.396,285.863c0.555-0.829,1.275-0.978,2.167-0.856C503.529,285.945,503.529,285.945,502.396,285.863z"/>



			<animateTransform attributeName="transform" begin="0.1" attributeType="HML" type="translate" dur="5.5s" values="0,0;0,0; 0,-15; 15,-15;15,-15;0, 0;" repeatCount="indefinite"/>
	</g>











	<g>




		<path class="st4" d="M385.147,256.503c1.455-0.086,1.568,1.396,2.095,2.113c3.262,4.437,7.434,4.769,11.672,3.889
			c0.655-0.136,1.188-0.646,0.965-1.307c-0.191-0.569-0.703-0.985-1.525-0.73c-2.827,0.878-5.424,0.695-7.968-1.177
			c-0.916-0.675-1.162-1.572-1.813-2.288c-1.419-1.56-2.626-3.344-4.575-4.314c-1.403-0.698-1.022-1.85-0.451-2.61
			c1.077-1.436,2.346-2.696,3.126-4.381c0.306-0.658,0.79-0.426,1.275,0.391c1.237,2.084,2.962,2.635,5.111,2.207
			c2.315-0.46,3.95-2.562,3.888-3.957c-0.172-3.865-1.117-4.373-4.062-5.278c-0.396-0.122-0.655-0.507-1.125-0.364
			c2.824-1.144,5.634,0.111,6.803,2.228c0.492,0.893,1.678,1.626,1.845,1.455c0.758-0.771-0.269-1.442-0.66-1.944
			c-1.677-2.152-3.762-3.775-6.706-3.375c-0.635,0.087-1.223,0.118-1.504-0.293c-0.234-0.343,0.453-0.631,0.669-0.987
			c0.098-0.161,0.178-0.332,0.266-0.499c0.705-1.32,1.41-2.642,2.115-3.962c2.604,0.712,5.202-0.771,7.929,0.314
			c3.741,1.492,6.339,3.79,8.184,7.398c2.309,4.515,2.641,9.08,0.927,13.657c-1.327,3.544-3.489,6.67-7.341,8.101
			c-0.469,0.174-0.898,0.465-1.327,0.731c-0.825,0.513-0.453,1.12-0.166,1.773c0.405,0.924,0.753,0.205,1.146,0.025
			c2.752-1.253,4.97-3.173,6.977-5.401c0.841-0.935,1.148-2.124,1.798-3.152c1.706-2.706,1.911-2.918,5.044-1.96
			c2.557,0.781,5.154,0.529,7.698,0.162c2.566-0.371,4.224-2.377,5.086-4.511c0.989-2.445,1.82-4.977,1.183-7.931
			c-1.024-4.742-5.306-5.361-8.371-2.619c-1.618,1.447-3.548,2.349-5.19,3.725c-1.214,1.018-1.867,2.633-3.644,3.251
			c-0.529-4.65-2.339-8.601-5.859-11.819c-3.664-3.35-7.803-4.475-12.736-3.734c1.506-1.412,2.091-3.442,4.096-4.63
			c1.384-0.82,2.646-2.075,4.005-3.102c2.387-1.803,5.16-2.742,7.83-3.93c3.774-1.678,7.871-2.379,11.854-2.524
			c5.93-0.217,11.936,0.062,17.37,3.255c1.767,1.038,2.392,2.553,2.816,4.22c0.686,2.691,1.613,5.214,3.553,7.261
			c1.21,1.276,2.759,1.871,4.401,2.481c2.844,1.056,5.714,1.723,8.729,1.832c1.005,0.037,2.336,0.351,2.827-0.561
			c0.504-0.933-0.303-2.021-0.908-2.976c3.013,0.027,4.607,2.38,6.264,4.176c1.514,1.642,2.737,3.762,3.429,5.976
			c0.754,2.413,1.209,4.92,1.834,7.552c-4.748-3.843-10.075-5.099-15.678-3.622c-2.614,0.689-5.164,2.087-7.667,3.442
			c-5.501,2.98-11.036,6.004-16.934,8.212c-4.179,1.563-8.304,3.283-12.671,4.295c-4.386,1.017-8.74,2.187-13.154,3.056
			c-3.066,0.604-6.204,1.069-9.319,1.13c-2.959,0.058-5.8-0.77-8.41-2.422c-2.19-1.387-3.488-3.54-5.241-5.292
			c-0.077-0.077,0.144-0.45,0.227-0.686L385.147,256.503z"/>
		<path class="st4" d="M472.815,236.757c2.555,1.736,4.45,3.98,6.114,6.411c2.79,4.075,5.02,8.406,5.494,13.43
			c0.132,1.395-0.013,2.729-0.741,4.046c-0.801,1.447-1.874,2.454-3.476,2.289c-1.851-0.189-2.838-1.718-3.499-3.282
			c-0.855-2.025-0.881-4.213-0.764-6.378c0.236-4.395-0.356-8.689-1.78-12.826C473.743,239.223,473.165,238.051,472.815,236.757z"/>
		<path class="st4" d="M488.596,260.221c2.442,1.882,4.143,4.334,5.801,6.812c1.849,2.765,3.456,5.642,4.312,8.901
			c0.715,2.726,0.979,5.495,1.014,8.291c0.008,0.66-0.171,1.633-0.896,1.669c-0.887,0.046-0.441-0.989-0.562-1.485
			c-0.716-2.946-0.977-6-1.98-8.881c-1.563-4.486-3.37-8.858-6.209-12.731C489.492,262.003,489.084,261.082,488.596,260.221z"/>
		<path class="st6" d="M468.813,273.02c-0.252-3.244-0.159-6.451,0.729-9.604c0.371-1.319,1.499-2.223,1.765-3.588
			c0.056-0.287,0.5-0.758,0.88-0.544c0.475,0.267,0.295,0.739,0.011,1.142c-1.277,1.811-1.793,4.064-2.214,6.047
			c-0.586,2.756-0.29,5.837,0.844,8.602c0.925,2.254,1.124,4.802,2.757,6.776c0.229,0.278,0.549,1-0.101,1.016
			c-0.515,0.013-1.563,0.617-1.637-0.372c-0.051-0.687-0.261-1.136-0.604-1.646C469.654,278.478,469.451,275.645,468.813,273.02z"/>
		<path class="st4" d="M419.662,213.646c2.499-3.743,4.059-7.607,4.677-11.82c0.11-0.755,0.286-1.611,0.989-1.644
			c0.856-0.038,0.52,0.955,0.678,1.509c0.558,1.945-0.605,3.617-0.942,5.413c-0.297,1.58-1.378,2.935-1.769,4.548
			C422.872,213.4,421.68,214.086,419.662,213.646z"/>
		<path class="st4" d="M394.845,243.64c-0.23,2.149-1.249,3.091-3.118,2.881c-1.762-0.198-2.753-1.619-2.497-3.582
			c0.178-1.363,1.785-2.396,3.403-2.186C393.718,240.894,394.965,242.521,394.845,243.64z"/>
		<path class="st4" d="M475.402,282.259c-3.325-2.909-3.628-7.249-4.297-11.126c-0.788-4.566,0.948-9.516,2.631-10.41
			C471.381,268.19,472.569,275.27,475.402,282.259z"/>
		<path class="st6" d="M416.372,214.699c0.015-1.069,0.508-1.564,0.963-2.077c2.691-3.037,3.727-6.713,4.124-10.64
			c0.037-0.369,0.142-0.735,0.248-1.093c0.194-0.654,0.302-1.54,1.277-1.253c0.819,0.24,0.41,1.04,0.354,1.573
			c-0.398,3.835-1.473,7.416-3.7,10.653C418.803,213.077,417.945,214.054,416.372,214.699z"/>
		<path class="st5" d="M423.551,213.34c0.595-2.027,1.851-3.562,2.3-5.435c0.421-1.753,1.069-3.453,1.213-5.269
			c0.059-0.748,0.14-1.826,0.91-1.752c1.066,0.103,0.328,1.093,0.312,1.71c-0.089,3.27-0.896,6.323-2.232,9.337
			C425.454,213.277,424.554,212.885,423.551,213.34z"/>
		<path class="st4" d="M413.305,264.861c4.44-1.472,10.651,3.952,12.457,9.554c-1.918-1.723-3.135-4.089-5.266-5.659
			C418.387,267.202,416.103,266.035,413.305,264.861z"/>
		<path class="st7" d="M423.466,276.419c-2.05-3.54-5.859-4.983-8.738-7.505c-0.048-0.042-0.145-0.069-0.149-0.112
			c-0.129-0.984-2.079-0.749-1.528-1.639c0.324-0.523,1.729,0.283,2.626,0.751c2.045,1.064,3.973,2.305,5.509,3.986
			C422.306,273.128,423.555,274.426,423.466,276.419z"/>
		<path class="st8" d="M490.3,265.505c3.321,5.794,6.267,11.716,6.271,18.646C494.424,277.955,493.513,271.336,490.3,265.505z"/>
		<path class="st7" d="M419.595,263.06c0.969,0.317,2.124,0.722,2.859,1.731c1.555,2.135,3.062,4.305,4.527,6.501
			c0.201,0.3,0.719,0.864-0.021,1.254c-0.38,0.2-0.503-0.041-0.698-0.348c-1.951-3.071-4.085-5.972-7.435-7.703
			c-0.341-0.176-0.6-0.51-0.896-0.771C418.328,263.3,418.794,263.024,419.595,263.06z"/>
		<path class="st7" d="M431.203,203.012c-0.296,3.48-2.028,6.555-2.724,9.923c-0.06,0.288-0.493,0.697-0.913,0.346
			c-0.334-0.278-0.771-0.438-0.54-1.189c0.429-1.399,1.087-2.703,1.433-4.167c0.396-1.685,0.671-3.374,0.974-5.069
			c0.089-0.5,0.06-1.349,0.818-1.229C430.83,201.717,431.371,202.247,431.203,203.012z"/>
		<path class="st7" d="M474.408,263.572c-0.514,6.126,0.868,11.949,2.885,17.892C474.309,279.571,472.506,268.323,474.408,263.572z"
			/>
		<path class="st6" d="M433.254,203.366c0.5,3.439-1.183,6.32-1.92,9.4c-0.266,1.108-0.926,0.234-1.315,0.236
			c-0.372,0.002-0.769-0.401-0.362-1.101c1.456-2.505,2.147-5.229,2.096-8.152c-0.011-0.569-0.035-1.497,0.753-1.568
			C432.926,202.144,433.962,202.479,433.254,203.366z"/>
		<path class="st6" d="M417.633,246.493c1.547-2.113,3.998-2.774,5.881-4.39c1.127-0.966,3.022-1.439,4.589-2.093
			c0.544-0.227,1.373-0.186,1.584,0.611c0.227,0.851-0.622,0.659-1.041,0.822c-2.27,0.885-4.377,2.134-6.57,3.166
			C420.59,245.309,418.917,245.442,417.633,246.493z"/>
		<path class="st7" d="M475.741,262.88c0.903,0.519,1.058,1.226,0.913,1.915c-0.758,3.594,0.362,7.07,0.997,10.486
			c0.318,1.717,0.465,3.677,1.396,5.305c0.277,0.485-0.043,0.491-0.308,0.633c-0.508,0.271-0.42-0.118-0.517-0.405
			c-1.109-3.292-2.197-6.606-2.445-10.083C475.592,268.126,475.741,265.498,475.741,262.88z"/>
		<path class="st7" d="M421.447,262.389c0.89-0.154,1.604-0.293,2.301,0.803c0.884,1.391,2.503,2.206,3.347,3.696
			c0.714,1.26,1.509,2.481,2.103,3.795c0.133,0.295,0.562,1.118-0.249,1.445c-0.81,0.327-0.925-0.315-1.168-0.841
			c-0.689-1.489-1.22-3.107-2.18-4.402c-1.059-1.428-2.518-2.56-3.821-3.799C421.598,262.913,421.334,262.837,421.447,262.389z"/>
		<path class="st7" d="M478.175,264.237c0.093,3.278,0.672,6.404,1.221,9.531c0.359,2.051,1.488,3.916,1.526,6.052
			c0.007,0.388,0.508,0.952-0.142,1.125c-0.402,0.108-0.79-0.384-0.903-0.792c-0.514-1.851-1.107-3.692-1.419-5.58
			c-0.449-2.703-0.718-5.438-0.973-8.169C477.421,265.718,477.095,264.839,478.175,264.237z"/>
		<path class="st5" d="M432.88,213.806c-0.729-0.25-0.405-0.872-0.305-1.364c0.234-1.155,0.839-2.178,1.121-3.351
			c0.407-1.694,0.627-3.37,0.695-5.09c0.014-0.35-0.104-0.877,0.448-0.86c0.362,0.012,0.635,0.342,0.735,0.763
			c0.458,1.916,0.191,3.835-0.302,5.655c-0.295,1.092-0.823,2.136-1.036,3.286C434.13,213.423,433.623,213.766,432.88,213.806z"/>
		<path class="st8" d="M487.419,280.916c-1.974-5.074-3.777-10.22-4.132-15.73C484.888,270.364,486.761,275.469,487.419,280.916z"/>
		<path class="st8" d="M479.546,265.143c1.686,5.171,2.592,10.515,3.42,15.876C481.414,275.817,479.438,270.711,479.546,265.143z"/>
		<path class="st9" d="M481.795,264.976c1.242,5.283,2.484,10.567,3.728,15.852c-0.314,0.066-0.629,0.134-0.943,0.2
			c-1.04-5.327-2.976-10.465-3.25-15.954C481.484,265.041,481.64,265.008,481.795,264.976z"/>
		<path class="st9" d="M489.76,269.13c0-0.248-0.057-0.57,0.259-0.628c0.664-0.123,0.141,0.4,0.27,0.549
			c1.827,2.091,2.025,4.834,2.954,7.286c0.659,1.739,0.706,3.604,1.254,5.355c0.145,0.461,0.39,0.953-0.145,1.127
			c-0.522,0.17-0.877-0.354-0.989-0.826c-0.222-0.935-0.365-1.888-0.523-2.835c-0.494-2.962-1.062-5.893-2.68-8.508
			C489.896,270.225,489.887,269.641,489.76,269.13z"/>
		<path class="st7" d="M432.605,270.689c-1.406-3.513-2.86-6.932-6.077-9.55c1.1-0.172,1.951-0.236,2.397,0.53
			c1.395,2.394,3.827,4.141,4.334,7.102C433.389,269.527,433.434,270.088,432.605,270.689z"/>
		<path class="st8" d="M488.586,270.229c1.847,3.822,3.338,7.679,3.322,11.906C490.041,278.34,489.327,274.254,488.586,270.229z"/>
		<path class="st7" d="M430.787,270.934c-1.452-2.95-3.367-5.524-5.547-7.923c-0.309-0.34-1.219-0.664-0.443-1.293
			c0.456-0.369,1.329-0.24,1.612,0.156C428.381,264.637,430.536,267.332,430.787,270.934z"/>
		<path class="st6" d="M437.291,205.202c1.169,2.266,0.653,4.229,0.239,6.191c-0.096,0.452-0.429,0.764-0.298,1.384
			c0.132,0.624-0.281,1.655-1.255,1.4c-0.635-0.165-0.788-1.067-0.5-1.666C436.537,210.306,436.307,207.794,437.291,205.202z"/>
		<path class="st7" d="M435.577,257.68c0.394,0.008,0.568,0.138,0.729,0.372c1.494,2.195,2.373,4.765,4.145,6.798
			c0.21,0.241,0.163,0.676-0.318,0.924c-0.573,0.295-0.519-0.022-0.82-0.393c-1.587-1.944-2.115-4.542-3.934-6.341
			C435.354,259.017,434.591,257.894,435.577,257.68z"/>
		<path class="st7" d="M454.729,254.173c0.068,1.289-0.443,1.38-1.049,0.992c-0.449-0.287-0.9-0.642-1.083-1.232
			c-0.295-0.957-0.348-2.079-1.518-2.516c0.489-0.477-0.878-0.828-0.118-1.236c0.438-0.234,1.115-0.98,1.465-0.333
			C453.255,251.382,453.619,253.155,454.729,254.173z"/>
		<path class="st8" d="M436.187,265.847c-0.146,0.31-0.147,0.661-0.752,0.422c-0.939-0.373-1.086-1.271-1.529-1.958
			c-0.844-1.303-1.582-2.674-2.394-3.998c-0.184-0.3-0.295-0.582-0.112-0.874c0.259-0.41,0.537-0.117,0.792,0.043
			c0.314,0.198,0.818,0.348,0.901,0.621c0.606,1.999,1.603,3.773,2.882,5.406C436.052,265.607,436.109,265.723,436.187,265.847z"/>
		<path class="st9" d="M443.452,262.569c-0.151,0.269-0.242,0.665-0.471,0.774c-0.401,0.192-0.485-0.236-0.58-0.521
			c-0.579-1.733-1.639-3.182-2.708-4.628c-0.288-0.392-0.617-0.817-0.492-1.315c0.05-0.202,0.055-0.77,0.509-0.591
			c0.27,0.106,0.693-0.255,0.782,0.188c0.44,2.192,2.261,3.688,2.886,5.781C443.408,262.36,443.428,262.465,443.452,262.569z"/>
		<path class="st7" d="M452.746,256.062c-0.962,0.152-1.685,0.152-1.841-0.938c-0.143-0.997-1.32-1.243-1.608-2.232
			c-0.183-0.628-0.597-1.275,0.003-1.678c0.89-0.596,1.236,0.494,1.508,0.927C451.552,253.326,452.07,254.652,452.746,256.062z"/>
		<path class="st9" d="M462.024,246.198c1.32,0.504,1.749,1.583,2.167,2.592c0.278,0.674,0.5,1.381,1.113,1.77
			c0.513,0.324,0.908,0.764,0.423,1.131c-0.35,0.266-1.318,0.301-1.562-0.265C463.442,249.744,462.142,248.281,462.024,246.198z"/>
		<path class="st6" d="M461.567,252.163c-0.113,0.13-0.233,0.389-0.359,0.392c-0.457,0.012-1.186,0.103-1.329-0.132
			c-0.923-1.509-1.702-3.104-2.566-4.651c-0.232-0.416,0.031-0.571,0.263-0.744c0.338-0.252,0.668-0.04,0.794,0.232
			c0.806,1.741,1.741,3.388,3.131,4.74C461.532,252.031,461.538,252.089,461.567,252.163z"/>
		<path class="st7" d="M447.786,252.29c0.055,0.006,0.142,0.088,0.313,0.439c0.622,1.278,1.133,2.652,2.315,3.611
			c0.272,0.222,0.312,0.891-0.093,1.213c-0.313,0.25-0.774,0.192-1.013-0.17c-0.921-1.396-1.892-2.773-2.23-4.457
			C447.014,252.601,447.082,252.272,447.786,252.29z"/>
		<path class="st7" d="M451.019,229.323c0.367-1.375,0.659-2.464,0.95-3.554c0.538,0.173-0.019-1.286,0.947-0.604
			c0.456,0.322,0.971,0.592,0.607,1.128c-0.647,0.954-0.709,2.077-1.136,3.077c-0.101,0.234-0.089,1.099-0.958,0.683
			C450.774,229.74,450.91,229.477,451.019,229.323z"/>
		<path class="st8" d="M448.757,227.848c0.03-1.343,1.273-2.177,1.243-3.452c-0.001-0.053,0.53-0.169,0.812-0.168
			c0.551,0.003,0.481,0.404,0.499,0.803c0.053,1.188-0.998,2.032-0.982,3.235c0.003,0.186-0.711,0.637-1.261,0.542
			C448.148,228.647,449.588,227.978,448.757,227.848z"/>
		<path class="st9" d="M454.967,247.893c2.856,1.026,2.863,3.582,4.052,5.294c-0.4,0.35-1.025,0.378-1.125,0.204
			C456.925,251.693,456.042,249.946,454.967,247.893z"/>
		<path class="st9" d="M446.243,259.822c-1.726-1.416-2.672-3.308-3.331-5.372C444.902,255.705,445.852,257.594,446.243,259.822z"/>
		<path class="st9" d="M453.544,248.557c1.46,1.788,2.752,3.363,3.162,5.604C454.995,253.438,453.492,250.831,453.544,248.557z"/>
		<path class="st9" d="M441.505,264.308c-1.808-2.19-3.024-4.742-4.362-7.22c0.169-0.105,0.338-0.21,0.507-0.315
			c1.452,2.408,2.904,4.815,4.357,7.224C441.839,264.1,441.672,264.204,441.505,264.308z"/>
		<path class="st7" d="M444.297,253.812c1.089-0.86,1.574-0.465,1.911,0.463c0.619,1.705,1.889,3.147,2.051,5.062
			C446.479,257.82,446.231,255.262,444.297,253.812z"/>
		<path class="st11" d="M434.967,260.9c1.608,1.381,2.005,3.525,3.51,4.931c-0.523,0.395,0.642,1.097-0.241,1.399
			c-0.575,0.197-0.784-0.237-0.924-0.679C436.696,264.608,435.935,262.727,434.967,260.9z"/>
		<path class="st11" d="M422.156,241.219c1.441-1.754,3.366-2.533,5.761-2.377c-1.811,0.929-3.622,1.857-5.433,2.786
			C422.375,241.492,422.266,241.355,422.156,241.219z"/>
		<path class="st7" d="M432.031,263.844c2.134,1.18,2.205,3.627,3.315,5.437c0.047,0.076-0.113,0.355-0.243,0.449
			c-0.293,0.215-0.538-0.092-0.597-0.252c-0.706-1.935-2.203-3.528-2.444-5.66L432.031,263.844z"/>
		<path class="st12" d="M468.168,277.811c1.097,0.645,1.159,1.438,1.442,2.133c0.279,0.683,0.127,1.541,1.004,2.026
			c0.461,0.256,0.689,0.963,0.39,1.607c-0.128,0.275-0.2,0.683-0.614,0.551c-0.618-0.197-0.896-0.886-0.902-1.334
			C469.461,281.146,468.736,279.683,468.168,277.811z"/>
		<path class="st9" d="M464.925,246.863c1.517,1.406,2.699,2.871,3.139,4.834C466.639,251.388,465.055,249.021,464.925,246.863z"/>
		<path class="st7" d="M448.812,221.991c1.714,2.079-1.177,3.152-0.812,4.893C446.467,224.903,448.258,223.604,448.812,221.991z"/>
		<path class="st7" d="M439.983,211.017c-0.601,0.742-0.146,1.842-0.717,2.617c-0.229,0.312,0.322,1.168-0.596,0.948
			c-0.656-0.157-0.951-0.956-0.706-1.271c0.624-0.801,0.479-1.755,0.793-2.599c0.147-0.397,0.265-0.727,0.684-0.685
			C439.95,210.079,439.81,210.604,439.983,211.017z"/>
		<path class="st9" d="M472.908,251.473c-2.217,0.227-2.487-1.443-3.247-2.541c-0.158-0.227-0.255-0.4,0.135-0.519
			c0.352-0.105,0.612-0.246,0.99,0.061C471.733,249.24,472.063,250.396,472.908,251.473z"/>
		<path class="st20" d="M500.978,281.027c0.739,2.241,0.301,4.559,0.582,7.226C499.45,285.72,501.449,283.303,500.978,281.027z"/>
		<path class="st16" d="M428.617,246.979c-0.669,1.595-2.762,2.659-3.994,2.132c-0.193-0.083-0.359-0.31-0.45-0.51
			c-0.029-0.065,0.241-0.388,0.338-0.372C426.049,248.487,427.003,246.936,428.617,246.979z"/>
		<path class="st15" d="M423.285,246.922c1.688-1.033,3.772-1.062,5.442-2.135c0.082-0.053,0.439,0.166,0.544,0.336
			c0.228,0.371-0.042,0.483-0.364,0.656C427.15,246.723,425.23,246.831,423.285,246.922z"/>
		<path class="st18" d="M420.628,250.982c1.92-1.113,3.946-0.543,6.124-1.1C424.427,251.523,423.833,251.622,420.628,250.982z"/>
		<path class="st12" d="M444.353,260.874c-1.283-0.665-1.566-1.779-1.869-2.692c-0.334-1.007-1.197-1.649-1.424-2.648
			C442.444,255.809,443.494,257.449,444.353,260.874z"/>
		<path class="st16" d="M425.314,244.966c0.972-1.878,2.892-1.669,3.938-2.747c0.162-0.167,0.484-0.247,0.487,0.162
			c0.004,0.401,0.205,0.876-0.432,1.084C428.099,243.861,427.059,244.709,425.314,244.966z"/>
		<path class="st15" d="M486.591,269.648c-2.097-1.915-1.329-4.261-2.273-6.007C485.573,265.279,486.148,267.155,486.591,269.648z"
			/>
		<path class="st10" d="M454.835,226.197c0.309,1.486-0.161,2.825-0.606,4.192c-0.164,0.504-0.424,0.338-0.658,0.314
			c-0.334-0.033-0.264-0.31-0.262-0.572C453.317,228.647,454.041,227.43,454.835,226.197z"/>
		<path class="st16" d="M462.954,252.096c-1.029-1.592-2.199-3.13-2.853-5.594C461.85,248.35,462.502,250.159,462.954,252.096z"/>
		<path class="st16" d="M469.792,251.629c-1.329-0.995-1.707-2.375-2.568-3.368c-0.027-0.032,0.234-0.394,0.418-0.51
			c0.255-0.159,0.492-0.029,0.582,0.254C468.576,249.13,469.698,249.887,469.792,251.629z"/>
		<path class="st15" d="M446.428,224.109c-0.061-0.15-0.089-0.28-0.155-0.383c-0.617-0.946-0.106-1.763,0.352-2.541
			c0.098-0.165,0.76-0.24,0.804-0.159c0.45,0.812-0.289,1.5-0.313,2.283C447.104,223.645,446.896,223.888,446.428,224.109z"/>
		<path class="st15" d="M456.671,228.708c-0.652,0.511,0.725,2.055-0.863,2.421c-0.479,0.11-0.867-0.321-0.587-0.623
			c0.673-0.723,0.006-2.195,1.396-2.432C456.954,228.018,457.019,228.254,456.671,228.708z"/>
		<path class="st7" d="M441.466,214.724c-0.262,0.322,0.649,1.243-0.48,1.232c-0.231-0.003-1.029,0.335-0.857-0.456
			c0.179-0.828,0.425-2.248,0.814-2.31C442.067,213.014,441.107,214.199,441.466,214.724z"/>
		<path class="st7" d="M458.479,228.294c0.32,1.496,0.288,2.599-0.545,3.654C457.042,230.58,457.485,229.553,458.479,228.294z"/>
		<path class="st7" d="M460.706,229.289c-0.043,0.384-0.039,0.688-0.115,0.97c-0.146,0.539,0.44,1.341-0.499,1.569
			c-0.164,0.04-0.602-0.352-0.634-0.583c-0.098-0.7-0.391-1.552,0.695-1.829C460.311,229.376,460.47,229.343,460.706,229.289z"/>
		<path class="st26" d="M385.173,256.472c-1.566,0.165-1.992-1.062-2.566-2.105c0.956,0.582,2.275,0.732,2.541,2.137
			L385.173,256.472z"/>
		<path class="st27" d="M419.246,272.705c1.039,1.249,1.798,2.161,2.557,3.073C420.832,274.997,419.045,274.936,419.246,272.705z"/>
		<path class="st16" d="M486.869,266.232c1.057,0.697,1.661,1.557,1.241,3.121C487.62,268.118,487.244,267.176,486.869,266.232z"/>
		<path class="st22" d="M432.062,263.817c-0.099-0.069-0.211-0.124-0.293-0.21c-0.564-0.59-1.134-1.179-1.425-1.967
			c0.168-0.041,0.406-0.174,0.492-0.108c0.752,0.578,1.382,1.239,1.195,2.311C432.031,263.844,432.062,263.817,432.062,263.817z"/>
		<path class="st11" d="M444.917,218.722c0.817,0.486,1.42,0.697,1.317,1.384c-0.025,0.171-0.598,0.458-0.756,0.377
			C444.765,220.114,445.34,219.466,444.917,218.722z"/>
			<path class="st10" d="M489.539,281.307c-1.524-3.722-2.398-7.627-2.976-11.611C488.244,273.376,488.79,277.364,489.539,281.307z"/>
		
			<animateTransform attributeName="transform" begin="0.1" attributeType="HML" type="translate" dur="5.5s" values="0,0;0,0; 0,-15;-15,-15;-15,-15;0, 0;" repeatCount="indefinite"/>
	</g>
</svg>
